<?xml version="1.0" encoding="UTF-8" standalone="no"?>
<!-- Created with Inkscape (http://www.inkscape.org/) -->

<svg
   width="73.377777mm"
   height="73.377777mm"
   viewBox="0 0 73.377777 73.377777"
   version="1.1"
   id="svg5"
   sodipodi:docname="cement.svg"
   inkscape:version="1.1.1 (3bf5ae0d25, 2021-09-20)"
   xmlns:inkscape="http://www.inkscape.org/namespaces/inkscape"
   xmlns:sodipodi="http://sodipodi.sourceforge.net/DTD/sodipodi-0.dtd"
   xmlns="http://www.w3.org/2000/svg"
   xmlns:svg="http://www.w3.org/2000/svg">
  <sodipodi:namedview
     id="namedview7"
     pagecolor="#ffffff"
     bordercolor="#666666"
     borderopacity="1.0"
     inkscape:pageshadow="2"
     inkscape:pageopacity="0.0"
     inkscape:pagecheckerboard="0"
     inkscape:document-units="mm"
     showgrid="false"
     inkscape:zoom="2.8882212"
     inkscape:cx="150.2655"
     inkscape:cy="139.35913"
     inkscape:window-width="1920"
     inkscape:window-height="1009"
     inkscape:window-x="-8"
     inkscape:window-y="-8"
     inkscape:window-maximized="1"
     inkscape:current-layer="layer1" />
  <defs
     id="defs2" />
  <g
     inkscape:label="Layer 1"
     inkscape:groupmode="layer"
     id="layer1"
     transform="translate(699.86316,367.61841)">
    <g
       id="g6037">
      <path
         style="fill:#fefefd;stroke-width:0.352778"
         d="m -699.86316,-330.92952 v -36.68889 h 36.68889 36.68889 v 36.68889 36.68889 h -36.68889 -36.68889 z"
         id="path6057" />
      <path
         style="fill:#d7ceb0;stroke-width:0.352778"
         d="m -673.44259,-301.04115 c -9.31876,-7.55649 -15.13824,-12.64964 -15.71289,-13.75176 -0.34017,-0.65241 -0.66402,-2.28527 -0.75402,-3.80186 -0.14789,-2.49181 -0.0976,-2.72981 0.80294,-3.80003 l 0.9607,-1.14174 -0.9296,-0.73122 c -1.31775,-1.03654 -2.23368,-3.02471 -2.6797,-5.81666 -0.41675,-2.60876 -0.25626,-3.84463 0.62646,-4.82406 0.52274,-0.58003 0.50714,-0.66852 -0.20589,-1.16795 -1.0311,-0.72221 -1.66735,-2.0355 -2.12104,-4.37809 -1.15033,-5.93967 -1.04439,-6.17528 3.88654,-8.64371 2.13102,-1.06679 4.24997,-1.93962 4.70878,-1.93962 0.4588,0 1.99366,-0.59964 3.41081,-1.33254 1.41714,-0.73289 3.13224,-1.55623 3.81134,-1.82965 0.6791,-0.27342 3.45722,-1.55448 6.17361,-2.84679 5.15889,-2.45433 14.85516,-6.35449 15.94711,-6.41446 2.95989,-0.16254 21.65767,8.39268 22.73271,10.40142 0.53719,1.00375 0.134,6.48513 -0.61465,8.3562 -0.31602,0.78981 -1.05418,1.77753 -1.64035,2.19492 l -1.06577,0.75889 0.90383,0.65839 c 1.2128,0.88346 1.43988,2.20127 0.94382,5.47717 -0.43243,2.85577 -1.10703,4.59459 -1.90068,4.89915 -0.3288,0.12617 -0.46198,0.96909 -0.45695,2.89226 0.004,1.71165 -0.20045,3.20014 -0.55478,4.02978 -1.6625,3.89256 -28.33775,26.41442 -31.2306,26.36793 -0.32684,-0.005 -2.59561,-1.63244 -5.04173,-3.61597 z"
         id="path6055" />
      <path
         style="fill:#c4baa0;stroke-width:0.352778"
         d="m -672.41656,-300.30005 c -3.96274,-3.14526 -8.17606,-6.64269 -13.24922,-10.99802 -2.86517,-2.45976 -3.3297,-3.02059 -3.79236,-4.57854 -0.28998,-0.97648 -0.52724,-2.63801 -0.52724,-3.69229 0,-1.66414 0.13444,-2.03944 1.01967,-2.84639 l 1.01967,-0.92951 -1.5067,-1.61553 c -1.12017,-1.20109 -1.60802,-2.08794 -1.90162,-3.45695 -0.57344,-2.67385 -0.5053,-5.6861 0.14488,-6.40453 0.48977,-0.5412 0.44684,-0.69597 -0.46342,-1.6704 -1.2016,-1.28632 -1.74066,-2.94371 -2.05401,-6.31522 -0.37076,-3.98915 -0.3368,-4.04079 4.12596,-6.27485 2.14855,-1.07557 4.34238,-1.95557 4.87519,-1.95557 1.78869,0 7.26394,2.69166 13.96677,6.86616 l 1.05833,0.65912 -1.153,-1.02861 -1.15301,-1.02862 1.45284,-1.50847 c 0.79906,-0.82966 1.95165,-1.76642 2.56131,-2.08169 0.60966,-0.31527 1.90603,-1.27639 2.88083,-2.13583 1.65594,-1.45998 4.19227,-2.70213 8.7971,-4.30834 2.3806,-0.83038 2.45458,-1.37492 0.15679,-1.15413 -2.18473,0.20992 -2.13032,-0.39821 0.0891,-0.99584 1.08611,-0.29246 1.3932,-0.53127 1.2732,-0.99014 -0.22129,-0.84622 0.44569,-1.35519 2.24568,-1.71366 l 1.54639,-0.30797 -2.64583,-0.81127 c -4.17963,-1.28156 -4.26509,-1.33101 -2.79551,-1.61749 1.69905,-0.33121 4.19755,0.42892 10.99109,3.34386 7.12665,3.05788 12.23862,5.87398 12.6561,6.97203 0.45187,1.18852 0.37895,3.42152 -0.20113,6.15883 -0.54767,2.58435 -1.30503,3.88119 -2.62479,4.49447 l -0.84785,0.39398 0.84785,0.57983 c 1.26778,0.867 1.36574,1.12631 1.37161,3.63065 0.007,2.99039 -0.74832,5.88251 -1.71276,6.55803 -0.64775,0.4537 -0.75155,0.87591 -0.75325,3.06385 -0.003,4.17078 -0.24037,4.61605 -4.84946,9.10568 -4.20862,4.09953 -10.54294,9.63049 -16.42136,14.33871 -3.77615,3.02443 -9.75836,7.14349 -10.37088,7.14088 -0.23257,-10e-4 -2.05819,-1.29979 -4.05695,-2.88622 z m 14.62026,-49.35271 c 1.22954,-1.50436 -0.28517,-1.84121 -2.90853,-0.64683 -1.52661,0.69504 -1.56044,0.74307 -0.88194,1.25214 0.93813,0.70388 2.98799,0.37653 3.79047,-0.60531 z"
         id="path6053" />
      <path
         style="fill:#6bafca;stroke-width:0.352778"
         d="m -671.4971,-299.59484 c -4.18077,-3.28421 -14.58228,-11.99926 -16.22787,-13.59674 -1.60665,-1.5597 -2.26041,-3.43081 -2.26041,-6.46951 0,-1.56249 0.14652,-1.95826 1.01967,-2.7542 l 1.01967,-0.92951 -1.5067,-1.61553 c -1.12017,-1.20109 -1.60802,-2.08794 -1.90162,-3.45695 -0.60277,-2.81063 -0.5082,-5.68289 0.21337,-6.48022 0.57863,-0.63938 0.57072,-0.70091 -0.16241,-1.2625 -1.17975,-0.90371 -2.13848,-3.47773 -2.40943,-6.46889 -0.38024,-4.19759 -0.37364,-4.20794 4.11188,-6.45339 2.14855,-1.07557 4.34858,-1.95557 4.88896,-1.95557 1.93242,0 7.05485,2.58036 13.24744,6.67325 3.81439,2.52106 5.65608,4.01403 7.8331,6.34994 1.00974,1.08342 1.84318,1.77142 1.85209,1.52889 0.009,-0.24254 0.1982,-0.44097 0.42066,-0.44097 0.44514,0 4.18165,-2.39964 4.18165,-2.68551 0,-0.0981 -0.19844,-0.0663 -0.44097,0.0706 -0.30155,0.17025 -0.32944,0.13025 -0.0882,-0.12652 0.19403,-0.20651 1.30528,-0.89021 2.46945,-1.51933 1.16417,-0.62911 2.56541,-1.51531 3.11387,-1.96933 0.54846,-0.45401 1.24122,-0.82548 1.53947,-0.82548 1.00861,0 3.31619,-1.52434 3.11223,-2.05588 -0.10617,-0.27664 -0.0121,-0.721 0.20904,-0.98744 0.32112,-0.38693 0.23357,-0.49006 -0.43489,-0.51231 -0.53519,-0.0178 -0.64616,-0.0995 -0.30778,-0.22669 0.29104,-0.10936 0.96573,-0.50451 1.49931,-0.87811 0.53357,-0.37361 0.97014,-0.55916 0.97014,-0.41235 0,0.14681 0.31213,-0.0681 0.69362,-0.47758 0.38149,-0.40949 1.01649,-0.84699 1.41111,-0.97224 0.39462,-0.12525 0.71749,-0.35652 0.71749,-0.51393 0,-0.41041 1.73404,-0.98637 3.15155,-1.0468 0.6662,-0.0284 1.41331,-0.21931 1.66024,-0.42424 0.24693,-0.20494 0.61467,-0.2702 0.8172,-0.14504 0.61332,0.37906 0.41208,-0.37325 -0.24913,-0.93134 -1.18076,-0.99661 -5.92548,-3.76118 -8.55486,-4.98459 -4.41709,-2.05521 -5.3442,-2.42362 -8.64306,-3.43448 -3.06147,-0.93812 -3.12989,-0.98153 -1.91356,-1.21406 1.65084,-0.31559 4.15916,0.42737 10.36196,3.06921 8.25245,3.5148 13.04555,6.17779 13.38274,7.43528 0.34428,1.28392 0.23428,3.45722 -0.30705,6.06676 -0.44694,2.15457 -0.69935,2.63812 -1.97952,3.79236 -0.80699,0.7276 -1.31802,1.32292 -1.13562,1.32292 0.18239,0 0.67906,0.32368 1.1037,0.71929 0.63918,0.59549 0.77208,1.10863 0.77208,2.98125 0,3.19884 -0.58699,5.59008 -1.6076,6.54889 -0.75598,0.71021 -0.86209,1.11628 -0.86382,3.30581 -0.003,4.12533 -0.26556,4.62367 -4.68019,8.89151 -8.76727,8.47576 -23.70903,20.52631 -26.57122,21.42972 -0.56413,0.17806 -1.39568,-0.28358 -3.52778,-1.95846 z m 25.25616,-50.99724 c 0,-0.34348 1.4236,-1.25644 1.63287,-1.04717 0.0842,0.0842 -0.24879,0.41633 -0.73991,0.73813 -0.49113,0.3218 -0.89296,0.46086 -0.89296,0.30904 z"
         id="path6051" />
      <path
         style="fill:#a19e91;stroke-width:0.352778"
         d="m -670.6165,-298.89271 c -5.86479,-4.5843 -16.70963,-13.72519 -17.84129,-15.03804 -0.42101,-0.48842 -0.863,-1.45701 -0.98221,-2.15243 -0.1192,-0.69542 -0.30666,-1.71629 -0.41657,-2.26861 -0.1998,-1.00403 -0.19958,-1.00396 1.26594,0.41828 2.52861,2.45393 13.57088,10.51939 15.71497,11.47847 1.65749,0.74141 1.72765,0.81218 -2.91042,-2.93525 -1.98878,-1.60688 -3.61597,-2.98887 -3.61597,-3.07109 0,-0.0822 1.54781,1.01756 3.43958,2.44394 6.19188,4.66862 5.78167,4.15281 -2.73402,-3.43781 -9.29557,-8.28579 -9.61968,-8.60481 -9.37912,-9.23171 0.14112,-0.36774 -0.2641,-1.08991 -1.15216,-2.05333 -1.39893,-1.51766 -1.95623,-2.80599 -2.29581,-5.30729 -0.16798,-1.23733 -0.13937,-1.31654 0.23234,-0.64316 0.31142,0.56416 14.11907,12.10844 14.48241,12.10844 0.0315,0 0.61185,0.15556 1.28967,0.34569 1.16331,0.3263 1.08407,0.20657 -1.41344,-2.13604 l -2.64584,-2.48172 2.73865,2.19021 c 2.67974,2.14311 3.50528,2.47326 2.77572,1.11006 -0.43855,-0.81944 -7.36903,-7.29915 -12.12992,-11.34097 -1.89231,-1.6065 -3.35962,-3.05187 -3.26069,-3.21194 0.0989,-0.16006 -0.45296,-0.8327 -1.22642,-1.49475 -0.77346,-0.66205 -1.62995,-1.74695 -1.90332,-2.41088 -0.59383,-1.44229 -1.11968,-4.59797 -0.65398,-3.9247 0.17403,0.2516 0.8152,0.72785 1.42482,1.05833 1.82895,0.9915 4.23569,2.49151 8.88375,5.53684 5.40526,3.54143 5.60246,3.64697 7.12842,3.81513 0.6758,0.0745 1.4518,0.25115 1.72445,0.39262 0.75636,0.39245 -0.60898,-0.6859 -3.82578,-3.0216 -1.60073,-1.16228 -2.91042,-2.17509 -2.91042,-2.2507 0,-0.0756 1.51206,0.88771 3.36012,2.1407 1.84807,1.25299 3.50558,2.27817 3.68335,2.27817 0.72108,0 0.73262,-0.79829 0.0288,-1.9912 -0.714,-1.21015 -0.71022,-2.59492 0.007,-2.59492 0.18095,0 0.329,-0.30587 0.329,-0.67971 0,-0.41009 0.44132,-0.89988 1.11254,-1.23473 1.38643,-0.69164 1.85848,-0.69669 2.41524,-0.0258 0.57734,0.69565 1.66222,0.64773 3.13818,-0.13861 1.4382,-0.76623 0.96692,-1.23639 -0.89012,-0.88801 -0.88063,0.16521 -1.21752,0.12227 -1.05858,-0.1349 0.12823,-0.20748 0.0473,-0.4921 -0.1799,-0.6325 -0.24858,-0.15363 -0.31881,-0.10281 -0.17639,0.12763 0.13016,0.2106 0.0753,0.48262 -0.12188,0.6045 -0.19719,0.12187 -0.35853,0.0752 -0.35853,-0.10365 0,-0.17888 -0.43428,-0.30731 -0.96506,-0.2854 -1.38318,0.0571 -1.46065,-0.97245 -0.13224,-1.75717 0.58241,-0.34403 0.97994,-0.75332 0.8834,-0.90953 -0.48478,-0.78439 1.44972,0.37053 2.80477,1.67448 0.41828,0.40251 1.04145,0.83529 1.38481,0.96173 0.34337,0.12643 0.94668,0.77628 1.3407,1.44409 0.73405,1.24412 2.44473,2.63363 2.44473,1.98575 0,-0.1985 0.182,-0.36091 0.40446,-0.36091 0.44514,0 4.18165,-2.39964 4.18165,-2.68551 0,-0.0981 -0.19844,-0.0663 -0.44097,0.0706 -0.30155,0.17025 -0.32944,0.13025 -0.0882,-0.12652 0.19403,-0.20651 1.30528,-0.89021 2.46945,-1.51933 1.16417,-0.62911 2.56541,-1.51531 3.11387,-1.96933 0.54846,-0.45401 1.24122,-0.82548 1.53947,-0.82548 1.00861,0 3.31619,-1.52434 3.11223,-2.05588 -0.10617,-0.27664 -0.0121,-0.721 0.20904,-0.98744 0.32112,-0.38693 0.23357,-0.49006 -0.43489,-0.51231 -0.53519,-0.0178 -0.64616,-0.0995 -0.30778,-0.22669 0.29104,-0.10936 0.96573,-0.50451 1.49931,-0.87811 0.53357,-0.37361 0.97014,-0.55916 0.97014,-0.41235 0,0.14681 0.31213,-0.0681 0.69362,-0.47758 0.38149,-0.40949 1.01649,-0.84699 1.41111,-0.97224 0.39462,-0.12525 0.71749,-0.35652 0.71749,-0.51393 0,-0.41041 1.73404,-0.98637 3.15155,-1.0468 0.6662,-0.0284 1.41331,-0.21931 1.66024,-0.42424 0.24693,-0.20494 0.61467,-0.2702 0.8172,-0.14504 0.20253,0.12517 0.36318,0.0992 0.35701,-0.0578 -0.0194,-0.49421 -0.93092,-1.52012 -1.35059,-1.52012 -0.22114,0 -0.40208,-0.16812 -0.40208,-0.3736 0,-0.20548 -0.13471,-0.29035 -0.29935,-0.18859 -0.16464,0.10176 -0.63781,-0.13031 -1.05148,-0.5157 -0.41367,-0.3854 -0.82944,-0.65772 -0.92393,-0.60517 -0.0945,0.0526 -0.45622,-0.14257 -0.80384,-0.43361 -1.07432,-0.89947 -4.21242,-2.46916 -4.45379,-2.2278 -0.1258,0.1258 -0.22872,0.0342 -0.22872,-0.20367 0,-0.23782 -0.18328,-0.31912 -0.40728,-0.18068 -0.25268,0.15617 -0.31151,0.0967 -0.15498,-0.15652 0.17648,-0.28555 0.45094,-0.30193 0.91326,-0.0545 0.83031,0.44437 1.51919,0.45835 1.25161,0.0254 -0.24948,-0.40366 4.68419,1.71223 6.96549,2.98727 0.94766,0.52966 1.56546,1.09315 1.43318,1.30719 -0.13467,0.2179 -0.0662,0.27344 0.16267,0.13198 0.21735,-0.13433 1.03563,0.0825 1.8184,0.48183 l 1.42321,0.72607 v 2.97408 c 0,4.52072 -0.49353,6.30011 -2.13774,7.70749 l -1.37501,1.17696 1.1009,0.81393 1.1009,0.81393 -0.21743,3.31011 c -0.21824,3.32224 -0.50102,4.28196 -1.64726,5.59055 -0.44686,0.51015 -0.66695,1.5422 -0.79471,3.72643 -0.099,1.69202 -0.41611,3.48389 -0.72098,4.07343 -1.8267,3.53246 -26.74632,24.55103 -30.44396,25.67811 -0.5419,0.16517 -1.24877,-0.17273 -2.64583,-1.26477 z m 4.97278,-7.34237 c 0.78612,-0.66173 1.0344,-1.0428 0.68337,-1.04884 -0.30325,-0.005 -1.00764,0.46676 -1.56531,1.04884 -1.29842,1.35526 -0.72806,1.35526 0.88194,0 z m -2.11666,-12.53267 c 0,-0.35082 -0.56197,-0.1249 -1.41111,0.56731 l -0.88195,0.71894 1.14653,-0.55946 c 0.63059,-0.3077 1.14653,-0.63475 1.14653,-0.72679 z m -0.0132,-13.03701 c 2.1146,-1.07155 2.46637,-1.54722 1.07285,-1.45074 -0.58034,0.0402 -1.49273,0.48078 -2.02753,0.97911 -0.5348,0.49834 -1.21049,0.99271 -1.50153,1.09862 -0.41215,0.14997 -0.39005,0.1987 0.0999,0.2204 0.346,0.0153 1.40633,-0.36601 2.35629,-0.84739 z m -21.55121,11.54677 c -0.43881,-0.55953 -0.42633,-0.57201 0.1332,-0.1332 0.33955,0.2663 0.61736,0.54411 0.61736,0.61736 0,0.29035 -0.2897,0.10348 -0.75056,-0.48416 z m 8.48497,-3.52778 -0.85524,-0.97014 0.97013,0.85524 c 0.53358,0.47039 0.97014,0.90695 0.97014,0.97014 0,0.27668 -0.28568,0.0515 -1.08503,-0.85524 z m 34.59892,-26.80631 c 0,-0.34348 1.4236,-1.25644 1.63287,-1.04717 0.0842,0.0842 -0.24879,0.41633 -0.73991,0.73813 -0.49113,0.3218 -0.89296,0.46086 -0.89296,0.30904 z"
         id="path6049" />
      <path
         style="fill:#5694b1;stroke-width:0.352778"
         d="m -672.70787,-300.64368 c -5.33039,-4.24638 -13.59725,-11.18103 -15.20493,-12.75464 -0.84251,-0.82466 -1.35815,-1.71187 -1.51137,-2.60048 -0.12791,-0.74183 -0.32249,-1.80067 -0.4324,-2.35299 -0.1998,-1.00403 -0.19958,-1.00396 1.26594,0.41828 2.52861,2.45393 13.57088,10.51939 15.71497,11.47847 1.65749,0.74141 1.72765,0.81218 -2.91042,-2.93525 -1.98878,-1.60688 -3.61597,-2.98887 -3.61597,-3.07109 0,-0.0822 1.54781,1.01756 3.43958,2.44394 6.19188,4.66862 5.78167,4.15281 -2.73402,-3.43781 -9.29557,-8.28579 -9.61968,-8.60481 -9.37912,-9.23171 0.14112,-0.36774 -0.2641,-1.08991 -1.15216,-2.05333 -1.39893,-1.51766 -1.95623,-2.80599 -2.29581,-5.30729 -0.16798,-1.23733 -0.13937,-1.31654 0.23234,-0.64316 0.31142,0.56416 14.11907,12.10844 14.48241,12.10844 0.0315,0 0.61185,0.15556 1.28967,0.34569 1.16331,0.3263 1.08407,0.20657 -1.41344,-2.13604 l -2.64584,-2.48172 2.73865,2.19021 c 2.67974,2.14311 3.50528,2.47326 2.77572,1.11006 -0.43855,-0.81944 -7.36903,-7.29915 -12.12992,-11.34097 -1.89231,-1.6065 -3.36206,-3.04792 -3.26612,-3.20316 0.096,-0.15523 -0.47198,-0.86625 -1.26205,-1.58003 -0.79007,-0.71378 -1.64412,-1.80263 -1.89789,-2.41966 -0.56763,-1.38019 -1.06851,-4.49024 -0.61835,-3.83942 0.17403,0.2516 0.8152,0.72785 1.42482,1.05833 1.82895,0.9915 4.23569,2.49151 8.88375,5.53684 5.40526,3.54143 5.60246,3.64697 7.12842,3.81513 0.6758,0.0745 1.4518,0.25115 1.72445,0.39262 0.75636,0.39245 -0.60898,-0.6859 -3.82578,-3.0216 -1.60073,-1.16228 -2.91042,-2.17509 -2.91042,-2.2507 0,-0.0756 1.51206,0.88771 3.36012,2.1407 1.84807,1.25299 3.50558,2.27817 3.68335,2.27817 0.72108,0 0.73262,-0.79829 0.0288,-1.9912 -0.714,-1.21015 -0.71022,-2.59492 0.007,-2.59492 0.18095,0 0.329,-0.30587 0.329,-0.67971 0,-0.41009 0.44132,-0.89988 1.11254,-1.23473 1.38643,-0.69164 1.85848,-0.69669 2.41524,-0.0258 0.57734,0.69565 1.66222,0.64773 3.13818,-0.13861 1.4382,-0.76623 0.96692,-1.23639 -0.89012,-0.88801 -0.88063,0.16521 -1.21752,0.12227 -1.05858,-0.1349 0.12823,-0.20748 0.0473,-0.4921 -0.1799,-0.6325 -0.24858,-0.15363 -0.31881,-0.10281 -0.17639,0.12763 0.13016,0.2106 0.0753,0.48262 -0.12188,0.6045 -0.19719,0.12187 -0.35853,0.0752 -0.35853,-0.10365 0,-0.17888 -0.43428,-0.30731 -0.96506,-0.2854 -1.38318,0.0571 -1.46065,-0.97245 -0.13224,-1.75717 0.58241,-0.34403 0.96469,-0.77799 0.84952,-0.96435 -0.11518,-0.18636 0.31093,-0.0382 0.94691,0.32931 1.92988,1.11513 6.28371,5.66338 7.25375,7.57767 0.88427,1.74503 0.93396,1.78189 1.59519,1.18349 0.37537,-0.33971 0.68248,-0.79762 0.68248,-1.0176 0,-0.21997 0.87313,-0.90974 1.94028,-1.53282 1.06715,-0.62308 2.81957,-1.6464 3.89427,-2.27405 1.07469,-0.62765 2.18626,-1.49567 2.47014,-1.92894 0.30994,-0.47302 0.7283,-0.70635 1.04714,-0.584 0.70733,0.27143 5.06942,-2.34928 7.00687,-4.20966 0.85048,-0.81666 1.92302,-1.76571 2.3834,-2.10901 0.46039,-0.34329 1.69602,-1.2633 2.74585,-2.04446 1.04983,-0.78115 2.11329,-1.3418 2.36323,-1.24589 0.70853,0.27189 0.1263,-0.91276 -1.16912,-2.37879 -1.17684,-1.33183 -4.20814,-3.32578 -7.8535,-5.16596 -1.17071,-0.59097 -2.12856,-1.15717 -2.12856,-1.25821 0,-0.10105 0.30707,-0.0194 0.68237,0.18146 0.84867,0.4542 1.54338,0.47431 1.27302,0.0369 -0.24948,-0.40366 4.68419,1.71223 6.96549,2.98727 0.94766,0.52966 1.56546,1.09315 1.43318,1.30719 -0.13467,0.2179 -0.0662,0.27344 0.16267,0.13198 0.21735,-0.13433 1.03563,0.0825 1.8184,0.48183 l 1.42321,0.72607 -0.009,3.07964 c -0.005,1.6938 -0.17269,3.79401 -0.37325,4.66713 -0.36863,1.60481 -1.83096,3.52778 -2.68272,3.52778 -0.76954,0 -0.52537,0.52688 0.64525,1.39236 l 1.10842,0.81948 -0.21743,3.31011 c -0.21824,3.32224 -0.50102,4.28196 -1.64726,5.59055 -0.44686,0.51015 -0.66695,1.5422 -0.79471,3.72643 -0.0983,1.68074 -0.41641,3.48446 -0.71706,4.06586 -1.73842,3.36173 -26.9157,24.61248 -30.42258,25.67802 -0.54199,0.16468 -1.69007,-0.56047 -4.7625,-3.00808 z m 7.06415,-5.5914 c 0.78612,-0.66173 1.0344,-1.0428 0.68337,-1.04884 -0.30325,-0.005 -1.00764,0.46676 -1.56531,1.04884 -1.29842,1.35526 -0.72806,1.35526 0.88194,0 z m 11.17772,-2.82222 c 0.21521,0 1.36969,-1.10358 2.56551,-2.45241 1.19583,-1.34882 2.51837,-2.56163 2.93899,-2.69513 0.7346,-0.23315 6.4823,-5.20183 9.0925,-7.86014 2.14396,-2.18346 1.90733,-2.81473 -0.26796,-0.71484 -1.12587,1.08686 -4.46797,3.99069 -7.42689,6.45296 -2.95893,2.46228 -5.37987,4.59022 -5.37987,4.72876 0,0.13855 -0.43656,0.45205 -0.97013,0.69667 -1.17567,0.53898 -3.06436,2.22454 -3.58709,3.20127 -0.80285,1.50013 -0.3228,1.55422 1.13099,0.12742 0.83197,-0.81651 1.68874,-1.48456 1.90395,-1.48456 z m -4.19085,-0.46756 c 0.25327,-0.51955 1.55272,-1.8161 2.88767,-2.88124 1.33495,-1.06513 2.54574,-2.12844 2.69064,-2.36289 0.26944,-0.43596 0.43479,-2.04942 0.21004,-2.04942 -0.0685,0 -0.78808,0.45107 -1.59915,1.00238 -0.81107,0.55132 -2.6653,1.68594 -4.12051,2.5214 -1.45521,0.83545 -2.69278,1.55581 -2.75017,1.60079 -0.26552,0.20813 1.52831,3.3382 1.85282,3.23299 0.2025,-0.0657 0.5754,-0.54446 0.82866,-1.06401 z m 1.4662,-9.04729 c 1.03274,-0.77053 1.9954,-1.32822 2.13925,-1.23932 0.14384,0.0889 1.27223,-0.84371 2.50753,-2.07246 1.73567,-1.72648 2.55235,-2.28241 3.59436,-2.44679 0.834,-0.13156 1.86508,-0.67951 2.70282,-1.43636 0.74494,-0.67301 1.72567,-1.41879 2.1794,-1.65728 0.45373,-0.2385 1.33446,-0.8761 1.95718,-1.41689 0.62272,-0.54079 1.70617,-1.25561 2.40767,-1.58849 0.7015,-0.33289 1.51994,-0.97839 1.81877,-1.43446 0.29883,-0.45607 0.76319,-0.82921 1.03192,-0.82921 0.26872,0 0.48859,-0.24368 0.48859,-0.5415 0,-0.37327 -0.57539,-0.0955 -1.85208,0.89416 -1.01865,0.78962 -2.30196,1.70799 -2.85181,2.04081 -5.92149,3.58433 -11.20335,7.03089 -12.11077,7.9026 -0.61382,0.58967 -1.26529,0.9799 -1.4477,0.86716 -0.37823,-0.23376 -3.56124,1.66102 -4.22722,2.51637 -0.38892,0.49951 -0.62822,1.84262 -0.3283,1.84262 0.062,0 0.95764,-0.63043 1.99039,-1.40096 z m 9.27402,-0.32309 c 1.04124,-0.9417 1.27329,-1.80373 0.48555,-1.80373 -0.52523,0 -3.39597,2.48441 -3.39597,2.93896 0,0.15272 0.15875,0.17957 0.35278,0.0597 0.19403,-0.11992 0.35278,-0.0305 0.35278,0.19876 0,0.46029 0.51459,0.13503 2.20486,-1.39365 z m -19.84375,0.12749 c 0,-0.35082 -0.56197,-0.1249 -1.41111,0.56731 l -0.88195,0.71894 1.14653,-0.55946 c 0.63059,-0.3077 1.14653,-0.63475 1.14653,-0.72679 z m 6.65652,-1.34631 c 0.2161,-0.26039 0.30376,-0.56259 0.19479,-0.67156 -0.21338,-0.21337 1.83523,-1.66932 4.50754,-3.2035 0.9116,-0.52335 1.73404,-1.07546 1.82764,-1.22691 0.30393,-0.49177 -1.26939,-0.39995 -2.30268,0.13439 -0.55332,0.28613 -1.00603,0.43313 -1.00603,0.32666 0,-0.10647 -0.39688,0.0665 -0.88195,0.38429 -0.48507,0.31783 -0.88194,0.45563 -0.88194,0.30623 0,-0.1494 -0.3175,0.0157 -0.70556,0.36688 -0.38805,0.35119 -0.70555,0.5232 -0.70555,0.38226 0,-0.14095 -0.23529,-0.021 -0.52287,0.2666 -0.28758,0.28758 -0.70643,0.58406 -0.93078,0.65884 -0.30179,0.1006 -0.285,0.47592 0.0646,1.44261 0.51256,1.41747 0.74053,1.55892 1.34282,0.83321 z m 12.63555,-8.68124 c 1.22259,-0.74546 2.19823,-2.13422 1.49935,-2.13422 -0.54482,0 -2.7932,1.08421 -2.82675,1.36311 -0.0149,0.12341 -0.0802,0.5022 -0.14517,0.84175 -0.15047,0.78598 0.0863,0.77463 1.47257,-0.0706 z m -7.65041,-2.487 c 1.04023,-0.77611 2.15224,-1.41111 2.47114,-1.41111 0.3189,0 1.57614,-1.03188 2.79386,-2.29306 1.85063,-1.91667 2.40618,-2.29305 3.38461,-2.29305 0.87662,0 1.63758,-0.39864 3.03037,-1.5875 1.02288,-0.87313 2.01305,-1.5875 2.20036,-1.5875 0.18731,0 0.90403,-0.43656 1.59272,-0.97014 0.68869,-0.53358 1.96286,-1.36701 2.8315,-1.85208 1.51128,-0.84394 2.28497,-1.76389 1.48345,-1.76389 -0.20852,0 -1.0917,0.54392 -1.96262,1.20871 -0.87092,0.66479 -1.90845,1.31184 -2.30562,1.4379 -1.46763,0.46581 -9.74172,5.56529 -10.99696,6.77763 -0.77128,0.74492 -1.50982,1.1724 -1.81993,1.05341 -0.55571,-0.21325 -3.62984,1.57092 -4.3605,2.53075 -0.38314,0.5033 -0.64883,2.16104 -0.34637,2.16104 0.062,0 0.96377,-0.635 2.00399,-1.41111 z m -11.6549,-0.52246 c 2.1146,-1.07155 2.46637,-1.54722 1.07285,-1.45074 -0.58034,0.0402 -1.49273,0.48078 -2.02753,0.97911 -0.5348,0.49834 -1.21049,0.99271 -1.50153,1.09862 -0.41215,0.14997 -0.39005,0.1987 0.0999,0.2204 0.34599,0.0153 1.40632,-0.36601 2.35628,-0.84739 z m 33.16354,-14.64698 c 0,-0.47037 -0.038,-0.47037 -0.34197,0 -0.18809,0.29104 -0.34197,0.76729 -0.34197,1.05833 0,0.47037 0.038,0.47037 0.34197,0 0.18809,-0.29104 0.34197,-0.76729 0.34197,-1.05833 z m -54.71475,26.19375 c -0.43881,-0.55953 -0.42633,-0.57201 0.1332,-0.1332 0.33955,0.2663 0.61736,0.54411 0.61736,0.61736 0,0.29035 -0.2897,0.10348 -0.75056,-0.48416 z m 8.48497,-3.52778 -0.85524,-0.97014 0.97013,0.85524 c 0.53358,0.47039 0.97014,0.90695 0.97014,0.97014 0,0.27668 -0.28568,0.0515 -1.08503,-0.85524 z"
         id="path6047" />
      <path
         style="fill:#85837a;stroke-width:0.352778"
         d="m -673.81031,-301.59271 c -7.00962,-5.63822 -13.85032,-11.49848 -14.73487,-12.62301 -0.40406,-0.51367 -0.72982,-1.19036 -0.72392,-1.50374 0.01,-0.52294 0.0382,-0.52274 0.34501,0.002 0.18386,0.31469 1.17122,0.98453 2.19414,1.48853 1.9157,0.94387 3.67606,2.11742 9.67178,6.44768 5.01838,3.6244 6.25922,4.28118 6.97148,3.69006 0.41072,-0.34087 0.4674,-0.59896 0.20182,-0.91896 -0.29564,-0.35624 -0.13822,-0.36392 0.7894,-0.0385 0.63729,0.22354 1.38166,0.54874 1.65418,0.72267 0.32924,0.21013 0.41662,0.18864 0.26043,-0.0641 -0.12927,-0.20917 0.20339,-0.69024 0.73925,-1.06905 1.19378,-0.84389 4.3054,-2.13941 5.0421,-2.09927 0.81944,0.0446 2.48494,-1.16992 2.82279,-2.05853 0.16493,-0.4338 1.41021,-1.67464 2.76729,-2.75744 1.35709,-1.08279 2.58599,-2.16055 2.73089,-2.395 0.26944,-0.43596 0.43479,-2.04942 0.21004,-2.04942 -0.0685,0 -0.78808,0.45264 -1.59915,1.00588 -0.81107,0.55323 -2.79811,1.76567 -4.41564,2.69433 -2.08106,1.19477 -2.8031,1.77584 -2.46945,1.98733 0.3782,0.23972 0.36613,0.29995 -0.061,0.30428 -0.29287,0.003 -0.72144,0.30796 -0.95238,0.67774 -0.23094,0.36979 -1.02319,0.86848 -1.76056,1.10821 -0.73736,0.23973 -1.93908,0.90548 -2.67047,1.47943 -0.7344,0.57631 -1.56365,0.95382 -1.85209,0.84314 -0.28725,-0.11032 -0.52227,-0.0408 -0.52227,0.1543 0,0.74825 -15.52945,-13.14447 -19.08194,-17.07081 -1.80249,-1.99217 -2.79029,-3.3844 -2.79029,-3.93272 0,-0.11653 0.46984,0.32325 1.04409,0.97728 1.29635,1.47647 3.72789,3.18735 4.62372,3.25335 0.36987,0.0272 1.42874,0.68414 2.35304,1.45976 0.9243,0.77562 2.15679,1.70815 2.73888,2.07228 0.58208,0.36414 1.53675,1.06592 2.12149,1.55952 0.58474,0.49359 1.80037,1.28626 2.7014,1.76147 1.38903,0.73259 1.72435,0.79255 2.20438,0.39417 0.43171,-0.35829 0.4712,-0.58427 0.1663,-0.95165 -0.32216,-0.38818 -0.10876,-0.37908 1.09834,0.0468 1.74002,0.61391 1.86772,0.63186 1.61775,0.2274 -0.20706,-0.33503 1.00479,-0.97315 3.14311,-1.65507 0.77612,-0.24751 2.02083,-0.7105 2.76604,-1.02887 0.86043,-0.36761 1.25967,-0.42473 1.09391,-0.15653 -0.19197,0.31063 0.009,0.35457 0.75977,0.16614 1.20748,-0.30307 1.97042,-0.86927 1.71914,-1.27585 -0.18716,-0.30284 1.64838,-1.64025 4.49083,-3.27212 0.9116,-0.52335 1.73404,-1.07546 1.82764,-1.22691 0.30393,-0.49177 -1.26939,-0.39995 -2.30268,0.13439 -0.55332,0.28613 -1.00603,0.43313 -1.00603,0.32666 0,-0.10647 -0.39688,0.0665 -0.88195,0.38429 -0.48507,0.31783 -0.88194,0.45563 -0.88194,0.30623 0,-0.1494 -0.3175,0.0157 -0.70556,0.36688 -0.38805,0.35119 -0.70555,0.52828 -0.70555,0.39355 0,-0.25721 -0.11796,-0.1738 -2.13586,1.51042 -0.68966,0.57561 -1.72153,1.14864 -2.29306,1.2734 -0.57153,0.12475 -1.95089,0.5514 -3.06524,0.94811 -2.38983,0.85076 -2.29354,0.89195 -6.08779,-2.60414 -1.35819,-1.25146 -4.85069,-4.15985 -7.76111,-6.4631 -5.61456,-4.44324 -10.40694,-8.88943 -10.40694,-9.65517 0,-0.254 0.75406,0.16056 1.67569,0.92124 1.69754,1.4011 5.12254,3.26875 5.99441,3.26875 0.44943,0 6.20824,2.92308 6.97446,3.54012 0.19638,0.15815 1.27826,0.63221 2.40418,1.05347 1.92883,0.72167 2.08527,0.7314 2.70751,0.16828 0.73632,-0.66636 1.40758,-0.44712 1.41581,0.46242 0.003,0.3281 0.16621,0.83467 0.36275,1.12571 0.26503,0.39245 0.33199,0.17278 0.25918,-0.85029 -0.0742,-1.04295 -0.26145,-1.40294 -0.76754,-1.47572 -0.76395,-0.10988 -2.00626,-1.20177 -1.36731,-1.20177 0.22415,0 0.50566,0.15875 0.62558,0.35278 0.11991,0.19403 0.59616,0.35278 1.05833,0.35278 0.46217,0 0.93842,0.15875 1.05833,0.35277 0.11992,0.19403 0.93241,0.35278 1.80553,0.35278 1.03826,0 1.50675,-0.13066 1.35409,-0.37767 -0.13919,-0.22521 -0.82403,-0.2978 -1.69651,-0.17982 l -1.46311,0.19786 1.76389,-0.87398 c 0.97014,-0.48069 2.04959,-0.87602 2.39877,-0.87851 0.34919,-0.002 1.10188,-0.24604 1.67265,-0.5412 0.61244,-0.3167 1.40236,-0.44514 1.92734,-0.31338 0.51158,0.1284 1.11248,0.0383 1.41416,-0.2121 0.28852,-0.23945 0.52458,-0.31195 0.52458,-0.16111 0,0.15085 0.3175,-0.0131 0.70556,-0.36425 0.38805,-0.35119 0.70555,-0.8185 0.70555,-1.03848 0,-0.21997 0.87313,-0.90974 1.94028,-1.53282 1.06715,-0.62308 2.81957,-1.6464 3.89427,-2.27405 1.07469,-0.62765 2.18626,-1.49567 2.47014,-1.92894 0.30994,-0.47302 0.7283,-0.70635 1.04714,-0.584 0.70733,0.27143 5.06942,-2.34928 7.00687,-4.20966 0.85048,-0.81666 1.92302,-1.76571 2.3834,-2.10901 0.46039,-0.34329 1.69172,-1.26007 2.7363,-2.03728 1.34666,-1.00197 2.11645,-1.3525 2.64583,-1.2048 0.51633,0.14406 0.60256,0.10819 0.27957,-0.11631 -0.38122,-0.26498 -0.36617,-0.42549 0.0819,-0.87356 0.30192,-0.30191 0.75021,-0.6222 0.99621,-0.71174 0.29509,-0.10741 0.0272,-0.61628 -0.78745,-1.49559 -1.24264,-1.34133 -1.03588,-1.35427 0.84145,-0.0526 l 1.01785,0.7057 -0.18202,3.55798 c -0.20686,4.04375 -0.81668,5.86772 -2.26518,6.77516 -0.54978,0.34442 -1.06108,0.6696 -1.13621,0.72262 -0.0751,0.053 0.38381,0.58254 1.01989,1.17673 l 1.1565,1.08033 -0.22858,2.72241 c -0.29821,3.55174 -0.77477,5.19124 -1.73516,5.96955 -0.65977,0.53467 -0.78294,0.99084 -0.79023,2.92646 -0.0134,3.55818 -0.38062,4.70696 -2.12485,6.64697 -5.18524,5.76723 -25.35237,22.33895 -28.76428,23.63615 -0.82868,0.31506 -1.34582,-0.009 -6.02022,-3.76853 z m 5.69715,-1.99653 c 0,-0.26814 -0.15875,-0.58564 -0.35278,-0.70556 -0.20087,-0.12415 -0.35278,0.17967 -0.35278,0.70556 0,0.52589 0.15191,0.8297 0.35278,0.70555 0.19403,-0.11991 0.35278,-0.43741 0.35278,-0.70555 z m 1.41111,0.35277 c 0.35968,-0.43339 0.33558,-0.52916 -0.13319,-0.52916 -0.3148,0 -0.57236,0.23812 -0.57236,0.52916 0,0.29105 0.0599,0.52917 0.13319,0.52917 0.0733,0 0.33082,-0.23812 0.57236,-0.52917 z m 5.69941,-1.67676 c 1.44477,-1.74793 1.46511,-1.8019 0.36521,-0.96907 -0.64062,0.48507 -1.50884,1.4291 -1.92938,2.09785 -1.04205,1.65711 -0.2899,1.11432 1.56417,-1.12878 z m -4.11191,0.0893 c 0.27759,-0.44915 -0.53971,-0.44915 -1.23472,0 -0.43021,0.27802 -0.38462,0.34299 0.24376,0.34738 0.42511,0.003 0.87104,-0.15335 0.99096,-0.34738 z m 10.64855,-4.23333 c 0.21521,0 1.36969,-1.10358 2.56551,-2.45241 1.19583,-1.34882 2.50948,-2.55881 2.91923,-2.68886 0.83258,-0.26426 9.79588,-8.1962 9.79588,-8.66873 0,-0.16561 0.2551,-0.30111 0.56691,-0.30111 0.35348,0 0.49209,-0.19496 0.36818,-0.51787 -0.1093,-0.28483 -0.0469,-0.6117 0.13865,-0.72637 0.18555,-0.11469 0.33737,-0.35835 0.33737,-0.54149 0,-0.18313 -0.59531,0.32833 -1.32292,1.13659 -0.7276,0.80826 -4.14073,3.83054 -7.58472,6.71619 -3.44399,2.88565 -6.26181,5.36105 -6.26181,5.5009 0,0.13984 -0.43656,0.45441 -0.97013,0.69903 -1.17567,0.53898 -3.06436,2.22454 -3.58709,3.20127 -0.80285,1.50013 -0.3228,1.55422 1.13099,0.12742 0.83197,-0.81651 1.68874,-1.48456 1.90395,-1.48456 z m -8.93661,-6.75675 c 0.90699,-0.99983 1.60239,-1.86457 1.54532,-1.92164 -0.20627,-0.20626 -2.36621,1.67752 -3.09176,2.69646 -1.1934,1.67598 -0.2464,1.2015 1.54644,-0.77482 z m -8.13833,-0.387 c -0.36266,-0.67747 -0.66547,-0.14925 -0.50559,0.88195 0.17056,1.10003 0.18729,1.11076 0.4125,0.26458 0.1291,-0.48507 0.17099,-1.00101 0.0931,-1.14653 z m 1.66389,0.97014 c 0.35968,-0.43339 0.33558,-0.52917 -0.13319,-0.52917 -0.3148,0 -0.57236,0.23813 -0.57236,0.52917 0,0.29104 0.0599,0.52917 0.13319,0.52917 0.0732,0 0.33082,-0.23813 0.57236,-0.52917 z m 1.49931,-1.46836 c -0.24254,-0.0979 -0.63941,-0.0979 -0.88195,0 -0.24253,0.0979 -0.0441,0.17794 0.44097,0.17794 0.48507,0 0.68351,-0.0801 0.44098,-0.17794 z m 11.18709,-1.87288 c 1.03274,-0.77053 1.9954,-1.32822 2.13925,-1.23932 0.14384,0.0889 1.27223,-0.84371 2.50753,-2.07246 1.73567,-1.72648 2.55235,-2.28241 3.59436,-2.44679 0.834,-0.13156 1.86508,-0.67951 2.70282,-1.43636 0.74494,-0.67301 1.72567,-1.41879 2.1794,-1.65728 0.45373,-0.2385 1.33446,-0.8761 1.95718,-1.41689 0.62272,-0.54079 1.70617,-1.25561 2.40767,-1.58849 0.7015,-0.33289 1.51994,-0.97839 1.81877,-1.43446 0.29883,-0.45607 0.84257,-0.82921 1.2083,-0.82921 0.36574,0 0.66499,-0.23813 0.66499,-0.52917 0,-0.76229 -0.16938,-0.69224 -2.34601,0.97014 -1.0797,0.82462 -2.46199,1.80445 -3.07174,2.17741 -6.8427,4.18536 -10.50135,6.56833 -11.59048,7.54917 -0.7203,0.64868 -1.45113,1.09196 -1.62409,0.98506 -0.36515,-0.22567 -3.5598,1.69185 -4.21004,2.52699 -0.38892,0.49951 -0.62822,1.84262 -0.3283,1.84262 0.062,0 0.95764,-0.63043 1.99039,-1.40096 z m 9.27402,-0.32309 c 1.04124,-0.9417 1.27329,-1.80373 0.48555,-1.80373 -0.52523,0 -3.39597,2.48441 -3.39597,2.93896 0,0.15272 0.15875,0.17957 0.35278,0.0597 0.19403,-0.11992 0.35278,-0.0305 0.35278,0.19876 0,0.46029 0.51459,0.13503 2.20486,-1.39365 z m -14.5168,-10.00172 c 1.66631,-1.92504 1.76161,-2.1108 0.76064,-1.4826 -1.44369,0.90603 -3.54673,3.68337 -2.78911,3.68337 0.0679,0 0.98073,-0.99035 2.02847,-2.20077 z m -6.73806,0.26049 c 0.35968,-0.43339 0.33557,-0.52916 -0.1332,-0.52916 -0.3148,0 -0.57236,0.23812 -0.57236,0.52916 0,0.29105 0.0599,0.52917 0.13319,0.52917 0.0733,0 0.33082,-0.23812 0.57237,-0.52917 z m 20.70318,-0.15883 c 1.22259,-0.74546 2.19823,-2.13422 1.49935,-2.13422 -0.54482,0 -2.7932,1.08421 -2.82675,1.36311 -0.0149,0.12341 -0.0802,0.5022 -0.14517,0.84175 -0.15047,0.78598 0.0863,0.77463 1.47257,-0.0706 z m -7.65041,-2.487 c 1.04023,-0.77611 2.15224,-1.41111 2.47114,-1.41111 0.3189,0 1.57614,-1.03188 2.79386,-2.29306 1.85063,-1.91667 2.40618,-2.29305 3.38461,-2.29305 0.87662,0 1.63758,-0.39864 3.03037,-1.5875 1.02288,-0.87313 2.01305,-1.5875 2.20036,-1.5875 0.18731,0 0.90403,-0.43656 1.59272,-0.97014 0.68869,-0.53358 1.96286,-1.36701 2.8315,-1.85208 1.51128,-0.84394 2.28497,-1.76389 1.48345,-1.76389 -0.20852,0 -1.0917,0.54392 -1.96262,1.20871 -0.87092,0.66479 -1.90845,1.31184 -2.30562,1.4379 -1.46763,0.46581 -9.74172,5.56529 -10.99696,6.77763 -0.77128,0.74492 -1.50982,1.1724 -1.81993,1.05341 -0.55571,-0.21325 -3.62984,1.57092 -4.3605,2.53075 -0.38314,0.5033 -0.64883,2.16104 -0.34637,2.16104 0.062,0 0.96377,-0.635 2.00399,-1.41111 z m 21.86101,-15.40883 c -0.0106,-0.60314 -0.043,-0.60055 -0.52917,0.0422 -0.72272,0.95553 -0.7138,1.85451 0.0112,1.1295 0.29104,-0.29104 0.52412,-0.81832 0.51795,-1.17173 z"
         id="path6045" />
      <path
         style="fill:#817d72;stroke-width:0.352778"
         d="m -673.81031,-301.59271 c -7.00962,-5.63822 -13.85032,-11.49848 -14.73487,-12.62301 -0.40406,-0.51367 -0.72982,-1.19036 -0.72392,-1.50374 0.01,-0.52294 0.0382,-0.52274 0.34501,0.002 0.18386,0.31469 1.17122,0.98453 2.19414,1.48853 1.9157,0.94387 3.67606,2.11742 9.67178,6.44768 5.01838,3.6244 6.25922,4.28118 6.97148,3.69006 0.41072,-0.34087 0.4674,-0.59896 0.20182,-0.91896 -0.29564,-0.35624 -0.13822,-0.36392 0.7894,-0.0385 0.63729,0.22354 1.38166,0.54874 1.65418,0.72267 0.32924,0.21013 0.41662,0.18864 0.26043,-0.0641 -0.12927,-0.20917 0.20339,-0.69024 0.73925,-1.06905 1.12537,-0.79553 4.25391,-2.12462 5.03123,-2.1374 0.51894,-0.009 0.79861,-0.0771 2.36482,-0.57979 0.42753,-0.13723 1.02433,-0.62649 1.32624,-1.08725 0.54413,-0.83046 2.58019,-2.10711 2.88091,-1.80639 0.086,0.086 -0.80185,0.98656 -1.97306,2.00119 -1.17121,1.01464 -2.12947,1.75238 -2.12947,1.63943 0,-0.40489 -3.08603,2.80326 -3.69356,3.83972 -0.36553,0.6236 0.27431,0.11642 1.55768,-1.23472 1.19792,-1.26119 2.0098,-1.94631 1.80418,-1.5225 -0.51419,1.05981 -0.48036,1.16972 0.35999,1.16972 0.89161,0 3.1992,-1.85162 6.20357,-4.97775 1.2326,-1.28255 3.46999,-3.17382 4.97198,-4.20282 1.50199,-1.029 4.08026,-3.05392 5.72949,-4.49983 l 2.99862,-2.62892 -2.46945,2.38486 c -8.15988,7.8804 -23.3268,20.14218 -26.3238,21.28165 -0.81277,0.309 -1.36114,-0.0354 -6.00807,-3.77316 z m 5.69715,-1.99653 c 0,-0.26814 -0.15875,-0.58564 -0.35278,-0.70556 -0.20087,-0.12415 -0.35278,0.17967 -0.35278,0.70556 0,0.52589 0.15191,0.8297 0.35278,0.70555 0.19403,-0.11991 0.35278,-0.43741 0.35278,-0.70555 z m 1.41111,0.35277 c 0.35968,-0.43339 0.33558,-0.52916 -0.13319,-0.52916 -0.3148,0 -0.57236,0.23812 -0.57236,0.52916 0,0.29105 0.0599,0.52917 0.13319,0.52917 0.0733,0 0.33082,-0.23812 0.57236,-0.52917 z m 1.5875,-1.5875 c 0.27759,-0.44915 -0.53971,-0.44915 -1.23472,0 -0.43021,0.27802 -0.38462,0.34299 0.24376,0.34738 0.42511,0.003 0.87104,-0.15335 0.99096,-0.34738 z m -8.11389,-4.85693 c -9.02009,-7.79639 -15.60654,-14.13616 -17.12761,-16.48612 -1.01338,-1.56562 -0.83389,-1.77859 0.35642,-0.42291 1.29635,1.47647 3.72789,3.18735 4.62372,3.25335 0.36987,0.0272 1.42874,0.68414 2.35304,1.45976 0.9243,0.77562 2.15679,1.70815 2.73888,2.07228 0.58208,0.36414 1.53675,1.06592 2.12149,1.55952 0.58474,0.49359 1.80037,1.28626 2.7014,1.76147 1.38903,0.73259 1.72435,0.79255 2.20438,0.39417 0.43171,-0.35829 0.4712,-0.58427 0.1663,-0.95165 -0.32216,-0.38818 -0.10876,-0.37908 1.09834,0.0468 1.74002,0.61391 1.86772,0.63186 1.61775,0.2274 -0.20706,-0.33503 1.00479,-0.97315 3.14311,-1.65507 0.77612,-0.24751 2.02083,-0.7105 2.76604,-1.02887 0.74521,-0.31838 1.25254,-0.4132 1.1274,-0.21071 -0.14603,0.23628 0.19001,0.32007 0.93813,0.23393 0.64111,-0.0738 1.41664,-0.15197 1.7234,-0.17366 0.30677,-0.0217 0.76222,-0.42148 1.01212,-0.88843 0.55129,-1.03009 2.4361,-2.10272 3.37662,-1.92159 0.83657,0.16111 3.90491,-2.52707 3.30655,-2.89688 -0.28563,-0.17653 -0.28575,-0.30652 -3.6e-4,-0.48287 0.21475,-0.13272 0.57372,-0.12803 0.79773,0.0104 0.24678,0.15252 0.31174,0.0971 0.16485,-0.14054 -0.14029,-0.22701 0.19665,-0.61932 0.79979,-0.93122 0.79609,-0.41167 1.07766,-0.43605 1.19231,-0.10322 0.23501,0.68224 4.64215,-1.76295 6.73886,-3.73888 1.10209,-1.0386 1.5336,-1.62857 1.10385,-1.50922 -0.67734,0.18811 -0.67898,0.17871 -0.0409,-0.23511 0.36554,-0.23708 1.10284,-0.78824 1.63843,-1.2248 1.11209,-0.90647 1.72878,-1.07102 0.89715,-0.23939 -0.93066,0.93067 -0.61615,1.39056 0.33798,0.4942 0.49079,-0.46107 0.81011,-1.05261 0.7096,-1.31454 -0.10051,-0.26192 -0.0425,-0.38951 0.12902,-0.28354 0.17148,0.10598 0.39807,-0.0322 0.50355,-0.30707 0.11261,-0.29345 0.47551,-0.42556 0.87909,-0.32002 0.37803,0.0989 0.77867,0.0319 0.8903,-0.14868 0.36815,-0.59567 -0.493,-2.89225 -1.233,-3.28829 -0.71018,-0.38008 -1.31887,-0.0172 -3.30007,1.96717 -1.04668,1.04838 -4.56218,3.40081 -6.87917,4.60327 -1.4552,0.75522 -3.41415,1.97325 -4.3532,2.70674 -0.93906,0.73349 -1.88132,1.33362 -2.09393,1.33362 -0.21261,0 -0.71429,0.30725 -1.11485,0.68279 -0.40056,0.37554 -2.07767,1.35339 -3.7269,2.173 -3.54572,1.76211 -4.52019,2.45728 -4.31353,3.07723 0.23207,0.69623 -0.91704,1.76194 -2.16125,2.00437 -0.61047,0.11895 -2.02169,0.54378 -3.13605,0.94407 -2.38966,0.85837 -2.2918,0.90013 -6.08785,-2.59762 -1.35819,-1.25146 -4.85069,-4.15985 -7.76111,-6.4631 -5.61456,-4.44324 -10.40694,-8.88943 -10.40694,-9.65517 0,-0.254 0.75406,0.16056 1.67569,0.92124 1.69754,1.4011 5.12254,3.26875 5.99441,3.26875 0.44943,0 6.20824,2.92308 6.97446,3.54012 0.19638,0.15815 1.27826,0.63221 2.40418,1.05347 1.92883,0.72167 2.08527,0.7314 2.70751,0.16828 0.73632,-0.66636 1.40758,-0.44712 1.41581,0.46242 0.003,0.3281 0.16621,0.83467 0.36275,1.12571 0.26503,0.39245 0.33199,0.17278 0.25918,-0.85029 -0.0742,-1.04295 -0.26145,-1.40294 -0.76754,-1.47572 -0.76395,-0.10988 -2.00626,-1.20177 -1.36731,-1.20177 0.22415,0 0.50566,0.15875 0.62558,0.35278 0.11991,0.19403 0.59616,0.35278 1.05833,0.35278 0.46217,0 0.93842,0.15875 1.05833,0.35277 0.11992,0.19403 0.93241,0.35278 1.80553,0.35278 1.03826,0 1.50675,-0.13066 1.35409,-0.37767 -0.13919,-0.22521 -0.82403,-0.2978 -1.69651,-0.17982 l -1.46311,0.19786 1.76389,-0.87398 c 0.97014,-0.48069 2.04959,-0.87602 2.39877,-0.87851 0.34919,-0.002 1.06356,-0.22455 1.5875,-0.49345 0.52869,-0.27132 1.64866,-0.43801 2.51668,-0.37454 2.18053,0.15942 3.45958,-0.15913 3.65609,-0.91057 0.20603,-0.78788 2.92678,-2.22632 3.786,-2.00163 0.76575,0.20025 4.20502,-3.10952 3.48172,-3.35062 -0.31849,-0.10616 -0.26978,-0.22471 0.1601,-0.38967 0.4188,-0.16071 0.53647,-0.10543 0.36526,0.17159 -0.17736,0.28697 -0.0515,0.32479 0.42265,0.12699 0.37138,-0.15494 1.06853,-0.36608 1.54922,-0.4692 0.4807,-0.10312 1.63862,-0.63833 2.57317,-1.18935 0.93454,-0.55103 1.81125,-1.0029 1.94823,-1.00415 0.55176,-0.005 3.63053,-2.93826 3.48423,-3.31951 -0.2087,-0.54388 2.12509,-2.07691 2.42443,-1.59257 0.2858,0.46244 1.21956,-0.26468 1.21956,-0.94967 0,-0.26729 0.23813,-0.48597 0.52917,-0.48597 0.29104,0 0.52917,-0.17727 0.52917,-0.39393 0,-0.22811 0.31593,-0.3113 0.75059,-0.19763 0.70397,0.18409 0.73726,0.099 0.53592,-1.36997 -0.11808,-0.86144 -0.0987,-1.56868 0.0432,-1.57165 0.14181,-0.003 0.49413,-0.1548 0.78293,-0.33739 0.43561,-0.27542 0.31538,-0.55404 -0.70556,-1.63508 -1.24047,-1.3135 -1.02429,-1.31937 0.84553,-0.023 l 1.01785,0.7057 -0.18202,3.55798 c -0.20686,4.04375 -0.81668,5.86772 -2.26518,6.77516 -0.54978,0.34442 -1.06108,0.6696 -1.13621,0.72262 -0.0751,0.053 0.38381,0.58254 1.01989,1.17673 l 1.1565,1.08033 -0.22858,2.72241 c -0.29821,3.55174 -0.77477,5.19125 -1.73516,5.96955 -0.65977,0.53467 -0.78294,0.99084 -0.79023,2.92646 -0.011,2.9239 -0.35954,4.53544 -1.22079,5.64445 l -0.68491,0.88194 0.51682,-1.73386 c 0.28426,-0.95362 0.44932,-1.80137 0.36681,-1.88388 -0.0825,-0.0825 -0.91784,0.61835 -1.85629,1.55747 -1.45757,1.45863 -11.96621,10.53003 -14.03379,12.11444 -0.61478,0.47111 -0.60518,0.40737 0.0875,-0.58096 0.84837,-1.21044 1.79488,-2.02892 5.54436,-4.79447 2.80274,-2.06723 6.16256,-5.1511 9.38148,-8.61095 0.68828,-0.73979 0.66914,-2.3367 -0.0332,-2.77078 -0.15122,-0.0935 -1.87966,1.09866 -3.84096,2.64917 -1.96132,1.5505 -3.70807,2.8191 -3.88168,2.8191 -0.62785,0 -5.3298,3.33205 -5.3298,3.77698 0,0.25099 -0.24483,0.45635 -0.54406,0.45635 -0.29923,0 -0.73579,0.15323 -0.97014,0.34051 -0.23434,0.18728 -0.98171,0.79717 -1.6608,1.35532 -0.6791,0.55815 -2.34597,1.66956 -3.70417,2.46981 -3.60559,2.12441 -3.48133,2.01481 -3.08569,2.72178 0.46886,0.83781 -0.66625,2.13159 -2.35003,2.67853 -0.69688,0.22637 -1.86547,0.88118 -2.59686,1.45514 -0.7314,0.57395 -1.55458,0.9573 -1.82929,0.85188 -0.27472,-0.10541 -0.54943,-0.0625 -0.61048,0.0954 -0.061,0.15791 -1.85723,-1.22224 -3.99154,-3.067 z m 10.29274,-6.57931 c 1.22698,-1.24522 2.23087,-2.36874 2.23087,-2.49672 0,-0.38741 -3.78253,2.9711 -4.38947,3.8974 -0.96851,1.47814 -0.16309,0.95551 2.1586,-1.40068 z m -8.60524,0.0592 c -0.36266,-0.67747 -0.66547,-0.14925 -0.50559,0.88195 0.17056,1.10003 0.18729,1.11076 0.4125,0.26458 0.1291,-0.48507 0.17099,-1.00101 0.0931,-1.14653 z m 1.66389,0.97014 c 0.35968,-0.43339 0.33558,-0.52917 -0.13319,-0.52917 -0.3148,0 -0.57236,0.23813 -0.57236,0.52917 0,0.29104 0.0599,0.52917 0.13319,0.52917 0.0732,0 0.33082,-0.23813 0.57236,-0.52917 z m 13.78106,-2.99861 c 0.16298,0 1.37548,-0.97237 2.69444,-2.16081 1.68047,-1.51418 3.55939,-2.72775 6.27867,-4.05529 2.1343,-1.04196 5.30049,-2.89459 7.03597,-4.11695 3.14001,-2.21162 4.02592,-3.33163 4.06062,-5.13363 0.015,-0.78139 -0.10421,-0.73924 -2.18895,0.77364 -2.42285,1.75824 -15.10031,9.95691 -18.38359,11.88889 -2.01095,1.1833 -4.81155,3.58791 -4.81155,4.13121 0,0.14824 0.35718,0.43131 0.79375,0.62906 0.65631,0.29727 1.09076,0.15905 2.50903,-0.79829 0.9434,-0.63681 1.84863,-1.15783 2.01161,-1.15783 z m -12.28175,1.53025 c -0.24254,-0.0979 -0.63941,-0.0979 -0.88195,0 -0.24253,0.0979 -0.0441,0.17794 0.44097,0.17794 0.48507,0 0.68351,-0.0801 0.44098,-0.17794 z m 18.07986,-9.64414 c 0.11991,-0.19403 -0.0201,-0.35278 -0.31114,-0.35278 -0.29104,0 -0.62728,0.15875 -0.7472,0.35278 -0.11991,0.19403 0.0201,0.35278 0.31114,0.35278 0.29105,0 0.62728,-0.15875 0.7472,-0.35278 z m -9.34861,-5.48316 c 0,-0.37437 -3.41141,2.49152 -4.13786,3.47617 -1.53191,2.07638 -0.78598,1.72291 1.66841,-0.79061 1.3582,-1.39092 2.46945,-2.59942 2.46945,-2.68556 z m -9.525,3.1901 c 0.35968,-0.43339 0.33557,-0.52916 -0.1332,-0.52916 -0.3148,0 -0.57236,0.23812 -0.57236,0.52916 0,0.29105 0.0599,0.52917 0.13319,0.52917 0.0733,0 0.33082,-0.23812 0.57237,-0.52917 z m 12.17083,-1.05961 c 0.58208,-0.42853 1.39605,-0.88588 1.80882,-1.01634 0.41277,-0.13045 1.92089,-1.27165 3.35139,-2.53598 2.56036,-2.26297 3.3345,-2.71424 7.53979,-4.39516 1.16417,-0.46534 2.89146,-1.44692 3.83844,-2.18129 0.94698,-0.73438 1.91059,-1.33523 2.14136,-1.33523 0.23077,0 1.06059,-0.54867 1.84402,-1.21926 0.9964,-0.85287 1.56016,-1.70399 1.87607,-2.83234 0.2484,-0.88719 0.36413,-1.70058 0.25717,-1.80753 -0.20967,-0.20968 -1.75865,0.67477 -2.90151,1.65672 -0.81441,0.69975 -13.14554,8.33285 -16.04329,9.93097 -3.34915,1.84707 -5.62506,3.47255 -6.41464,4.58141 l -0.76057,1.06813 0.83967,0.63336 c 0.8951,0.67517 0.9892,0.65554 2.62328,-0.54746 z m 14.64028,6.39447 c 0,-0.0733 0.27781,-0.35106 0.61736,-0.61736 0.55952,-0.43881 0.572,-0.42633 0.13319,0.1332 -0.46086,0.58764 -0.75055,0.77451 -0.75055,0.48416 z"
         id="path6043" />
      <path
         style="fill:#5c6c71;stroke-width:0.352778"
         d="m -673.81031,-301.59271 c -7.00962,-5.63822 -13.85032,-11.49848 -14.73487,-12.62301 -0.40406,-0.51367 -0.72982,-1.19036 -0.72392,-1.50374 0.01,-0.52294 0.0382,-0.52274 0.34501,0.002 0.18386,0.31469 1.17122,0.98453 2.19414,1.48853 1.9157,0.94387 3.67606,2.11742 9.67178,6.44768 5.01838,3.6244 6.25922,4.28118 6.97148,3.69006 0.41072,-0.34087 0.4674,-0.59896 0.20182,-0.91896 -0.29564,-0.35624 -0.13822,-0.36392 0.7894,-0.0385 0.63729,0.22354 1.38166,0.54874 1.65418,0.72267 0.32924,0.21013 0.41662,0.18864 0.26043,-0.0641 -0.12927,-0.20917 0.20339,-0.69024 0.73925,-1.06905 1.31437,-0.92914 4.64831,-2.33517 4.91196,-2.07152 0.11662,0.11662 0.51102,0.052 0.87644,-0.14354 0.51326,-0.27469 0.71566,-0.22201 0.88972,0.23157 0.1542,0.40186 -0.17139,0.93548 -1.03173,1.69091 -0.69136,0.60706 -1.52551,1.58 -1.85365,2.16209 -0.40237,0.71376 -0.012,0.42661 1.19899,-0.88195 l 1.7956,-1.94027 0.004,1.11767 c 0.006,1.80862 -0.2686,2.14443 -3.84671,4.69905 -5.20018,3.71271 -4.35507,3.79449 -10.31321,-0.99797 z m 5.69715,-1.99653 c 0,-0.26814 -0.15875,-0.58564 -0.35278,-0.70556 -0.20087,-0.12415 -0.35278,0.17967 -0.35278,0.70556 0,0.52589 0.15191,0.8297 0.35278,0.70555 0.19403,-0.11991 0.35278,-0.43741 0.35278,-0.70555 z m 1.41111,0.35277 c 0.35968,-0.43339 0.33558,-0.52916 -0.13319,-0.52916 -0.3148,0 -0.57236,0.23812 -0.57236,0.52916 0,0.29105 0.0599,0.52917 0.13319,0.52917 0.0733,0 0.33082,-0.23812 0.57236,-0.52917 z m 1.5875,-1.5875 c 0.27759,-0.44915 -0.53971,-0.44915 -1.23472,0 -0.43021,0.27802 -0.38462,0.34299 0.24376,0.34738 0.42511,0.003 0.87104,-0.15335 0.99096,-0.34738 z m -8.11389,-4.85693 c -9.02009,-7.79639 -15.60654,-14.13616 -17.12761,-16.48612 -1.01338,-1.56562 -0.83389,-1.77859 0.35642,-0.42291 1.29635,1.47647 3.72789,3.18735 4.62372,3.25335 0.36987,0.0272 1.42874,0.68414 2.35304,1.45976 0.9243,0.77562 2.15679,1.70815 2.73888,2.07228 0.58208,0.36414 1.53675,1.06592 2.12149,1.55952 0.58474,0.49359 1.80037,1.28626 2.7014,1.76147 1.38903,0.73259 1.72435,0.79255 2.20438,0.39417 0.43171,-0.35829 0.4712,-0.58427 0.1663,-0.95165 -0.32216,-0.38818 -0.10876,-0.37908 1.09834,0.0468 1.74002,0.61391 1.86772,0.63186 1.61775,0.2274 -0.20706,-0.33503 1.00479,-0.97315 3.14311,-1.65507 0.77612,-0.24751 2.02083,-0.7105 2.76604,-1.02887 0.77715,-0.33202 1.24962,-0.40847 1.10797,-0.17928 -0.16304,0.26382 0.0329,0.35988 0.57665,0.2827 1.54797,-0.21972 1.17327,0.99644 -0.94382,3.06339 -1.10537,1.07918 -1.89336,2.0751 -1.7511,2.21315 0.14226,0.13805 0.92526,-0.50306 1.74,-1.42469 0.81473,-0.92164 1.5918,-1.6757 1.72683,-1.6757 0.13502,0 0.24549,0.85614 0.24549,1.90254 0,1.40582 -0.14503,1.95818 -0.55552,2.11571 -0.48635,0.18663 -0.46698,0.32575 0.15563,1.11726 l 0.71116,0.90409 -0.74066,0.85183 c -0.40737,0.46851 -1.31084,1.03705 -2.00772,1.26341 -0.69688,0.22637 -1.86547,0.88118 -2.59686,1.45514 -0.7314,0.57395 -1.55458,0.9573 -1.82929,0.85188 -0.27472,-0.10541 -0.54943,-0.0625 -0.61048,0.0954 -0.061,0.15791 -1.85723,-1.22224 -3.99154,-3.067 z m 1.6875,-6.52015 c -0.36266,-0.67747 -0.66547,-0.14925 -0.50559,0.88195 0.17056,1.10003 0.18729,1.11076 0.4125,0.26458 0.1291,-0.48507 0.17099,-1.00101 0.0931,-1.14653 z m 1.66389,0.97014 c 0.35968,-0.43339 0.33558,-0.52917 -0.13319,-0.52917 -0.3148,0 -0.57236,0.23813 -0.57236,0.52917 0,0.29104 0.0599,0.52917 0.13319,0.52917 0.0732,0 0.33082,-0.23813 0.57236,-0.52917 z m 1.49931,-1.46836 c -0.24254,-0.0979 -0.63941,-0.0979 -0.88195,0 -0.24253,0.0979 -0.0441,0.17794 0.44097,0.17794 0.48507,0 0.68351,-0.0801 0.44098,-0.17794 z m 15.25764,7.64197 c 0.35118,-0.38806 0.71789,-0.70556 0.8149,-0.70556 0.097,0 -0.11094,0.3175 -0.46213,0.70556 -0.35118,0.38806 -0.71789,0.70556 -0.81491,0.70556 -0.097,0 0.11095,-0.3175 0.46214,-0.70556 z m 1.5875,-1.19153 c 0,-0.0733 0.27781,-0.35106 0.61736,-0.61736 0.55952,-0.43881 0.572,-0.42633 0.13319,0.1332 -0.46086,0.58764 -0.75055,0.77451 -0.75055,0.48416 z m -9.87254,-3.63039 c 0.005,-0.28159 11.99935,-8.26059 14.86126,-9.88618 2.97465,-1.68963 0.73663,-0.0149 -5.59593,4.18744 -7.89358,5.23827 -9.27226,6.08624 -9.26533,5.69874 z m -11.90393,-7.1803 c -1.31385,-1.16844 -5.08756,-4.29427 -8.38603,-6.94627 -6.33073,-5.08997 -11.1125,-9.51727 -11.1125,-10.28872 0,-0.254 0.75406,0.16056 1.67569,0.92124 1.69754,1.4011 5.12254,3.26875 5.99441,3.26875 0.44943,0 6.20824,2.92308 6.97446,3.54012 0.19638,0.15815 1.27826,0.63221 2.40418,1.05347 1.92883,0.72167 2.08527,0.7314 2.70751,0.16828 0.73632,-0.66636 1.40758,-0.44712 1.41581,0.46242 0.003,0.3281 0.16621,0.83467 0.36275,1.12571 0.26503,0.39245 0.33199,0.17278 0.25918,-0.85029 -0.0742,-1.04295 -0.26145,-1.40294 -0.76754,-1.47572 -0.76395,-0.10988 -2.00626,-1.20177 -1.36731,-1.20177 0.22415,0 0.50566,0.15875 0.62558,0.35278 0.11991,0.19403 0.59616,0.35278 1.05833,0.35278 0.46217,0 0.93842,0.15875 1.05833,0.35277 0.11992,0.19403 0.93241,0.35278 1.80553,0.35278 1.03826,0 1.50675,-0.13066 1.35409,-0.37767 -0.13919,-0.22521 -0.82403,-0.2978 -1.69651,-0.17982 l -1.46311,0.19786 1.76389,-0.87398 c 0.97014,-0.48069 2.04959,-0.87602 2.39877,-0.87851 0.34919,-0.002 1.06356,-0.2231 1.5875,-0.49022 0.52394,-0.26712 1.58762,-0.44496 2.36373,-0.39521 l 1.41111,0.0905 0.0941,2.95285 c 0.0517,1.62407 0.13262,3.07645 0.17975,3.2275 0.0471,0.15106 1.9098,-0.94937 4.13927,-2.4454 2.22948,-1.49602 4.92672,-3.22658 5.99387,-3.84569 4.98792,-2.89371 8.06012,-4.77616 9.42197,-5.77316 0.81646,-0.59773 1.66492,-1.08679 1.88546,-1.08679 0.70635,0 -2.9767,2.87935 -6.08261,4.7553 -0.69691,0.42092 -8.53379,5.13349 -9.39856,5.65165 -0.32382,0.19403 -1.30314,0.84639 -2.17626,1.44969 -1.81803,1.25621 -3.88056,2.36287 -3.88056,2.08214 0,-0.10475 -0.67468,0.24176 -1.4993,0.77002 -0.82462,0.52825 -1.54494,0.98624 -1.60071,1.01775 -0.0558,0.0315 0.0885,0.47402 0.32055,0.98338 0.35588,0.78104 0.32273,1.03575 -0.21161,1.62619 -0.34846,0.38505 -1.20709,0.8043 -1.90805,0.93167 -0.70097,0.12737 -2.03443,0.52735 -2.96324,0.88884 -0.92882,0.36149 -1.83823,0.65726 -2.02091,0.65726 -0.18269,0 -1.40713,-0.956 -2.72097,-2.12444 z m 12.06759,-9.46501 c -0.23672,-0.23845 -1.62821,0.93436 -2.48266,2.09251 -1.48778,2.01657 -0.91528,1.9984 0.88358,-0.028 0.9473,-1.06715 1.66688,-1.99615 1.59908,-2.06445 z m -7.93001,1.88806 c 0.35968,-0.43339 0.33557,-0.52916 -0.1332,-0.52916 -0.3148,0 -0.57236,0.23812 -0.57236,0.52916 0,0.29105 0.0599,0.52917 0.13319,0.52917 0.0733,0 0.33082,-0.23812 0.57237,-0.52917 z m 30.87408,5.33027 c 0.47304,-1.57178 0.19679,-4.0955 -0.54631,-4.99089 -0.21787,-0.26251 0.0255,-0.65454 0.72949,-1.17502 0.92708,-0.68542 1.08306,-0.71171 1.27378,-0.21472 0.33867,0.88255 -0.2009,5.11939 -0.81742,6.41861 -0.8267,1.74215 -1.16915,1.72181 -0.63954,-0.038 z m 1.7645,-8.46675 c 1.05108,-2.51557 0.49253,-6.16308 -1.14911,-7.50414 l -0.9742,-0.79583 1.0548,-0.8601 1.0548,-0.86009 0.97283,0.69271 c 0.53506,0.381 1.07742,1.10943 1.20525,1.61874 0.36047,1.43623 -0.4801,6.83425 -1.21815,7.82279 -1.03641,1.38816 -1.54812,1.32647 -0.94622,-0.11408 z m 1.59332,-12.50951 c 0.5678,-1.49434 0.6203,-2.16009 0.3561,-4.51596 -0.30813,-2.74755 -0.2465,-2.9911 0.86616,-3.42334 0.19403,-0.0754 -0.20284,-0.7368 -0.88194,-1.46983 -1.23333,-1.33127 -1.03507,-1.35291 0.79375,-0.0866 0.89726,0.62127 0.97014,0.85183 0.97014,3.069 0,3.10565 -0.54807,5.97563 -1.34773,7.05745 -1.11287,1.50553 -1.45864,1.21725 -0.75648,-0.6307 z"
         id="path6041" />
      <path
         style="fill:#326d93;stroke-width:0.352778"
         d="m -672.0059,-300.1595 c -6.46546,-5.16702 -15.44241,-12.77252 -16.35298,-13.85467 -0.50652,-0.60197 -0.91612,-1.36012 -0.91022,-1.68478 0.01,-0.53928 0.0396,-0.54085 0.34501,-0.0181 0.18386,0.31469 1.17122,0.98452 2.19414,1.48852 1.9157,0.94388 3.67606,2.11743 9.67178,6.44768 5.01838,3.6244 6.25922,4.28119 6.97148,3.69006 0.41072,-0.34086 0.4674,-0.59896 0.20182,-0.91896 -0.29564,-0.35623 -0.13822,-0.36392 0.7894,-0.0385 0.63729,0.22354 1.38166,0.54875 1.65418,0.72267 0.32924,0.21014 0.41662,0.18864 0.26043,-0.0641 -0.12927,-0.20917 0.20339,-0.69024 0.73925,-1.06904 1.31437,-0.92914 4.64831,-2.33517 4.91196,-2.07153 0.11662,0.11663 0.49427,0.061 0.83923,-0.12362 0.57227,-0.30627 0.62921,-0.12066 0.65018,2.11951 l 0.023,2.45518 -3.4453,2.4598 c -5.08509,3.63054 -4.60808,3.60486 -8.54334,0.45991 z m 3.89274,-3.42974 c 0,-0.26814 -0.15875,-0.58564 -0.35278,-0.70556 -0.20087,-0.12415 -0.35278,0.17967 -0.35278,0.70556 0,0.52589 0.15191,0.8297 0.35278,0.70555 0.19403,-0.11991 0.35278,-0.43741 0.35278,-0.70555 z m 1.41111,0.35277 c 0.35968,-0.43339 0.33558,-0.52916 -0.13319,-0.52916 -0.3148,0 -0.57236,0.23812 -0.57236,0.52916 0,0.29105 0.0599,0.52917 0.13319,0.52917 0.0733,0 0.33082,-0.23812 0.57236,-0.52917 z m 6.18209,-2.57856 c -0.27991,-0.2799 -1.35143,0.81931 -2.06066,2.11392 -0.59716,1.09004 -0.54236,1.0639 0.80006,-0.38159 0.79263,-0.85348 1.35989,-1.63303 1.2606,-1.73233 z m -4.59459,0.99106 c 0.27759,-0.44915 -0.53971,-0.44915 -1.23472,0 -0.43021,0.27802 -0.38462,0.34299 0.24376,0.34738 0.42511,0.003 0.87104,-0.15335 0.99096,-0.34738 z m -8.11389,-4.85693 c -9.02009,-7.79639 -15.60654,-14.13616 -17.12761,-16.48612 -1.01338,-1.56562 -0.83389,-1.77859 0.35642,-0.42291 1.29635,1.47647 3.72789,3.18735 4.62372,3.25335 0.36987,0.0272 1.42874,0.68414 2.35304,1.45976 0.9243,0.77562 2.15679,1.70815 2.73888,2.07228 0.58208,0.36414 1.53675,1.06592 2.12149,1.55952 0.58474,0.49359 1.80037,1.28626 2.7014,1.76147 1.38903,0.73259 1.72435,0.79255 2.20438,0.39417 0.43171,-0.35829 0.4712,-0.58427 0.1663,-0.95165 -0.32216,-0.38818 -0.10876,-0.37908 1.09834,0.0468 1.74002,0.61391 1.86772,0.63186 1.61775,0.2274 -0.20706,-0.33503 1.00479,-0.97315 3.14311,-1.65507 0.77612,-0.24751 2.02083,-0.7105 2.76604,-1.02887 0.87457,-0.37365 1.26149,-0.42768 1.09137,-0.15241 -0.18472,0.29887 -0.0451,0.36932 0.46673,0.23548 0.52703,-0.13782 0.78142,0.005 0.914,0.51155 0.13518,0.51691 -0.33479,1.20875 -1.77867,2.61844 -1.07932,1.05374 -1.84599,2.02885 -1.70373,2.1669 0.14226,0.13805 0.92526,-0.50306 1.74,-1.42469 0.81473,-0.92164 1.612,-1.6757 1.77171,-1.6757 0.46252,0 -0.007,3.57309 -0.51091,3.88424 -0.35546,0.21969 -0.30003,0.4941 0.2532,1.25356 l 0.70828,0.97231 -0.71001,0.81658 c -0.3905,0.44912 -1.28018,1.00179 -1.97706,1.22815 -0.69688,0.22637 -1.86547,0.88118 -2.59686,1.45514 -0.7314,0.57395 -1.55458,0.9573 -1.82929,0.85188 -0.27472,-0.10541 -0.54943,-0.0625 -0.61048,0.0954 -0.061,0.15791 -1.85723,-1.22224 -3.99154,-3.067 z m 1.6875,-6.52015 c -0.36266,-0.67747 -0.66547,-0.14925 -0.50559,0.88195 0.17056,1.10003 0.18729,1.11076 0.4125,0.26458 0.1291,-0.48507 0.17099,-1.00101 0.0931,-1.14653 z m 1.66389,0.97014 c 0.35968,-0.43339 0.33558,-0.52917 -0.13319,-0.52917 -0.3148,0 -0.57236,0.23813 -0.57236,0.52917 0,0.29104 0.0599,0.52917 0.13319,0.52917 0.0732,0 0.33082,-0.23813 0.57236,-0.52917 z m 1.49931,-1.46836 c -0.24254,-0.0979 -0.63941,-0.0979 -0.88195,0 -0.24253,0.0979 -0.0441,0.17794 0.44097,0.17794 0.48507,0 0.68351,-0.0801 0.44098,-0.17794 z m -4.93133,-4.36025 c -1.31385,-1.16844 -5.08756,-4.29427 -8.38603,-6.94627 -6.33073,-5.08997 -11.1125,-9.51727 -11.1125,-10.28872 0,-0.254 0.75406,0.16056 1.67569,0.92124 1.69754,1.4011 5.12254,3.26875 5.99441,3.26875 0.44943,0 6.20824,2.92308 6.97446,3.54012 0.19638,0.15815 1.27826,0.63221 2.40418,1.05347 1.92883,0.72167 2.08527,0.7314 2.70751,0.16828 0.73632,-0.66636 1.40758,-0.44712 1.41581,0.46242 0.003,0.3281 0.16621,0.83467 0.36275,1.12571 0.26503,0.39245 0.33199,0.17278 0.25918,-0.85029 -0.0742,-1.04295 -0.26145,-1.40294 -0.76754,-1.47572 -0.76395,-0.10988 -2.00626,-1.20177 -1.36731,-1.20177 0.22415,0 0.50566,0.15875 0.62558,0.35278 0.11991,0.19403 0.59616,0.35278 1.05833,0.35278 0.46217,0 0.93842,0.15875 1.05833,0.35277 0.11992,0.19403 0.93241,0.35278 1.80553,0.35278 1.03826,0 1.50675,-0.13066 1.35409,-0.37767 -0.13919,-0.22521 -0.82403,-0.2978 -1.69651,-0.17982 l -1.46311,0.19786 1.76389,-0.87398 c 0.97014,-0.48069 2.05214,-0.87602 2.40444,-0.87851 0.35231,-0.002 0.98731,-0.19525 1.41112,-0.42833 0.4238,-0.23308 1.438,-0.43151 2.25376,-0.44097 1.68482,-0.0195 1.75055,0.10023 1.84333,3.35854 0.0763,2.68071 -0.38439,3.69071 -2.0776,4.55452 -0.78393,0.39993 -1.42532,0.80888 -1.42532,0.90878 0,0.0999 0.25904,0.57698 0.57566,1.0602 0.53601,0.81806 0.53267,0.92607 -0.0484,1.56819 -0.34326,0.37929 -1.19762,0.79383 -1.89858,0.9212 -0.70097,0.12737 -2.03443,0.52735 -2.96324,0.88884 -0.92882,0.36149 -1.83823,0.65726 -2.02091,0.65726 -0.18269,0 -1.40713,-0.956 -2.72097,-2.12444 z m 12.06759,-9.46501 c -0.23672,-0.23845 -1.62821,0.93436 -2.48266,2.09251 -1.48778,2.01657 -0.91528,1.9984 0.88358,-0.028 0.9473,-1.06715 1.66688,-1.99615 1.59908,-2.06445 z m -7.93001,1.88806 c 0.35968,-0.43339 0.33557,-0.52916 -0.1332,-0.52916 -0.3148,0 -0.57236,0.23812 -0.57236,0.52916 0,0.29105 0.0599,0.52917 0.13319,0.52917 0.0733,0 0.33082,-0.23812 0.57237,-0.52917 z m 30.86693,5.35406 c 0.44511,-1.47899 0.28675,-3.79192 -0.32769,-4.78611 -0.32247,-0.52177 0.73881,-1.80267 1.49359,-1.80267 1.09203,0 -0.1292,7.18847 -1.34935,7.94256 -0.15134,0.0935 -0.0688,-0.51567 0.18345,-1.35378 z m 1.73425,-7.8235 c 0.43814,-1.16538 0.66733,-4.25575 0.41527,-5.59935 -0.12991,-0.69248 -0.65546,-1.75732 -1.1679,-2.36632 l -0.93171,-1.10727 0.85755,-0.65916 c 1.11567,-0.85756 1.24982,-0.84381 2.33275,0.23912 0.87308,0.87308 0.90381,1.0348 0.68708,3.61597 -0.29313,3.49097 -0.74925,5.08204 -1.69491,5.91232 -0.75243,0.66062 -0.75959,0.66011 -0.49813,-0.0353 z m 1.2693,-11.51028 c 0.002,-0.0723 0.24023,-0.91068 0.52917,-1.86315 0.63076,-2.07926 0.67326,-4.26503 0.11411,-5.86902 -0.23599,-0.67695 -0.27358,-1.22802 -0.0882,-1.2931 1.35191,-0.47464 1.37266,-0.77733 0.14258,-2.07982 -1.24047,-1.3135 -1.02429,-1.31937 0.84553,-0.023 l 1.01785,0.7057 -0.18202,3.55798 c -0.18478,3.6121 -0.74416,5.63677 -1.79903,6.5116 -0.32109,0.26629 -0.58209,0.42504 -0.57999,0.35277 z"
         id="path6039" />
    </g>
  </g>
</svg>
