<svg xmlns="http://www.w3.org/2000/svg" width="277.3" height="277.3" viewBox="0 0 73.4 73.4">
  <path d="M44.7 210.1v-36.7H118v73.4H44.7Z" style="fill:#fefefe;stroke-width:.352778" transform="translate(-44.5 -173.2)"/>
  <path d="m78.5 236.4-14-11-6.3-4.6-.8-5.8a16000.3 16000.3 0 0 0-3.4-26.3l-.2-1.9 3-1.4 3.2-1.5 4.6 2.4 4.5 2.4-.1-4.2-.2-4.2 2.3-1.1c1.3-.6 2.6-1.2 2.9-1.2a422.9 422.9 0 0 1 34.4 15.1c0 .3-.9 8.2-2.2 17.5l-2.3 17-1.6 1.6c-2.7 2.7-2.7 2.8-6 .7l-3-1.8-.5 4.9-.2 4.8-2.5 2.4a11.3 11.3 0 0 1-3 2.3 85 85 0 0 1-8.6-6.1z" style="fill:#d5ebea;stroke-width:.352778" transform="translate(-44.5 -173.2)"/>
  <path d="m73.3 232.2-14.3-11c-.7-.6-.9-1.6-1.6-6.9a3868.6 3868.6 0 0 0-3.3-26.2v-1.4l3-1.3 3-1.3 4.5 2.3c2.5 1.2 4.5 2.2 4.6 2.1l-.2-4c-.2-2.7-.1-4 .2-4.2a12 12 0 0 1 2.7-1.4l2.3-1 16.7 7.3c9.2 4 17 7.5 17.2 7.7.3.4 0 3.5-1.7 15.6l-2.3 17.2c-.2 2-.3 2.2-2.4 4l-2.4 2-3.2-2c-2.7-1.8-3-1.9-3-1.2l-.4 5.2-.3 4.5-2.4 2.2a15.6 15.6 0 0 1-2.8 2.2c-.2 0-6.5-4.7-13.9-10.4zm-4.8-19.3c-.2-.7-.2-1.4 0-1.4l2.2 1.3c1.2.6 2.4 1.2 2.7 1.2.7 0 .6-1.6-.2-3.5-.3-.8-.5-1.4-.3-1.2.3.1.3 0 0-.6-.2-.4-.3-.7-.1-.7.2 0 .1-.1 0-.3-.3-.1-.8-1-1.3-1.8a12 12 0 0 0-2-3 8.8 8.8 0 0 1-1.2-1.8l-.4-.7a183.3 183.3 0 0 1-6-6.5l-1.3-1.4v1.2c0 1.6-.4 1.7-1.7.5l-1.2-1.2v1.8a108 108 0 0 0 2 14.5c.9 1 7.5 5 8.2 5 .7 0 .7 0 .6-1.4z" style="fill:#c8e5e6;stroke-width:.352778" transform="translate(-44.5 -173.2)"/>
  <path d="m74.8 233.3-14.2-10.8a8 8 0 0 1-2.3-2.4 1114.4 1114.4 0 0 1-4-29.2c-.2-1.6-.4-3.2-.3-3.5.1-.5 1-1.2 3.1-2l3-1.3 4.5 2.3 4.6 2.1-.1-4c-.3-2.8-.2-4 0-4.2l2.7-1.4 2.3-1 10.3 4.5 16.8 7.3a44 44 0 0 1 7 3.5c.1.3-.5 5.7-1.5 13-1 7-2 14.5-2.2 17l-.6 4.4-2.2 2a21 21 0 0 1-2.3 2 38 38 0 0 1-3.2-1.9l-3-2-.4 5.3-.5 5.2-2.4 2.1a15.6 15.6 0 0 1-2.7 2.2c-.2 0-5.8-4.1-12.4-9.2zM72 215.6c0-.7 0-1.3.2-1.4 0-.2.8 0 1.5.5 2 1 2.6 1 2.5-.5 0-.7-.1-1.3-.3-1.3 0 0-.3-.6-.4-1.3-.1-.7-.5-2-1-2.8L74 207c0-.1-.4-.8-1-1.5a14 14 0 0 1-1.3-2.3l-1.3-2a41.3 41.3 0 0 0-8.7-9l-1.5-.8v2.9l-1-1-1.5-.8c-.4 0-.6 3-.2 5l1 5.9 1 5.7c.7 1.2 10.9 7.7 12 7.7.6 0 .7-.2.6-1.2z" style="fill:#bce5e2;stroke-width:.352778" transform="translate(-44.5 -173.2)"/>
  <path d="M75.5 233.8 61.3 223a14 14 0 0 1-3-2.8c-.3-1.2-2-14.4-2-16v-4.8l.1-3.2 1 4.8a47.8 47.8 0 0 0 2.1 8.1c.7 1.2 10.9 7.7 12 7.7.6 0 .7-.2.6-1.2 0-.7 0-1.3.2-1.4 0-.2.8 0 1.5.5 2 1 2.6 1 2.5-.5 0-.7-.1-1.3-.3-1.3 0 0-.3-.6-.4-1.4l-.5-1.9-1-2c-.3-.8-1-2-1.4-2.6-.5-.6-.9-1.3-.9-1.5 0-.2-.3-.8-.7-1.3-.4-.5-.6-1-.5-1.3v-.3c-.7.1-1.2 0-1.4-.6-.2-.5-.1-.5.4 0 .4.2-.4-1-1.7-2.6a14.4 14.4 0 0 0-4.8-4.5l-2.8-1.5-.1 1.1v1l-1-.8c-1.4-1-1.8-1.2-1.8-.3 0 .4-.1.4-.3.2-.2-.7-.8-.2-.8.7 0 1.3-2-3.1-2.2-4.8V187l3-1.5L60 184l4.5 2.4c2.5 1.2 4.6 2.2 4.7 2.1l-.1-4a17 17 0 0 1 0-4.2l2.7-1.4 2.3-1 10.3 4.5 16.8 7.3a44 44 0 0 1 7 3.5c.1.3-.5 5.7-1.5 13-1 7-2 14.5-2.2 17l-.6 4.4-2.2 2a21 21 0 0 1-2.3 2 38 38 0 0 1-3.2-1.9l-3-2-.4 5.3-.5 5.2-2.4 2.1a15.1 15.1 0 0 1-2.7 2.2c-.2 0-5.5-3.9-11.7-8.7zM56 195c0-.4.1-.6.2-.4v.9c-.1.2-.2 0-.2-.5z" style="fill:#c4dee0;stroke-width:.352778" transform="translate(-44.5 -173.2)"/>
  <path d="m80.8 238-21.7-16.7c-.6-.5-.8-1.4-1.4-5.4a95 95 0 0 1-1.4-16.5l.1-3.2 1 4.7a101 101 0 0 0 2.6 11c.3 1.5.6 2.2 1 2.2.3-.1.3 0 0 .4-.3.3-.4.7-.3.8.1.1.2 0 .2-.2s.2-.4.4-.4.3.1.2.2c-.1.1 0 .5.3.8.3.3.7.4.8.3.1-.2 0-.4-.2-.7-.2-.2-.4-.6-.4-.9 0-.3.1-.3.6.2.3.4.5.5.3.2-.4-.6.1-1.4.5-.8.3.4.3.2.2-.5-.3-1.3-.4-1.3 5.4 2.4a28 28 0 0 0 5.2 2.8c.4-.2.4-.7-.1-2.7-.2-.8.2-.8 2.1.2 2.5 1.2 2.6.7 1.1-4-1.4-4.4-3-7-7.1-12l-3.7-4.6c-.8-1-4-3.2-6-4.1-.2 0-.3.4-.3 1v1l-1-.8c-1.4-1-1.8-1.2-1.8-.3 0 .4-.1.4-.3.2-.2-.7-.8-.2-.8.7 0 1.3-2-3.1-2.2-4.8V187l3-1.5 3-1.4 4.4 2.3c2.5 1.3 4.6 2.2 4.7 2.1v-4c-.3-2.8-.3-3.9 0-4.2.3-.2 1.5-.9 2.7-1.4l2.2-1 17 7.4c9.2 4 17 7.6 17 7.9.5.7-4.2 34.3-4.8 35l-2.2 2-1.7 1.5-3.1-2c-2.6-1.7-3.1-1.9-3.2-1.4l-.4 5.3-.4 4.6-2.4 2.1a15 15 0 0 1-2.7 2.2c-.2 0-3-2-6.4-4.6zM56 195c0-.5.1-.7.2-.5v.9c-.1.2-.2 0-.2-.5z" style="fill:#c1dadd;stroke-width:.352778" transform="translate(-44.5 -173.2)"/>
  <path d="m80.8 238-21.7-16.7c-.6-.5-.8-1.4-1.4-5.4a95 95 0 0 1-1.4-16.5l.1-3.2 1 4.7a112.7 112.7 0 0 1 3.5 18c0 .3 1.2 1.3 2.7 2.3 2 1.5 2.8 2 3 1.6.3-.2.6-.2.8-.1.2.3.6-1.3.4-2.2 0-.4.2-.9.5-1 .3-.4.5-1 .5-2v-1.4c.2 0 1.4.7 2.7 1.6 4.6 3 5.1 3 4.6.7-.4-1.8-.1-2 1.8-1 1 .4 1.7.7 1.8.6.3-2.4-.3-4.4-2.8-8.4a70.7 70.7 0 0 0-7-9.8l-3.4-4.2c-.8-1-4-3.2-6-4.1-.2 0-.3.4-.3 1v1l-1-.8c-1.4-1-1.8-1.2-1.8-.3 0 .4-.1.4-.3.2-.2-.7-.8-.2-.8.7 0 1.3-2-3.1-2.2-4.8V187l3-1.5 3-1.4 4.4 2.3c2.5 1.3 4.6 2.2 4.7 2.1v-4c-.3-2.7-.3-3.9 0-4.2L72 179l2.3-1 15.5 6.7 17 7.4c.7.4 1.5.9 1.6 1.1l-2.2 17.6-2.3 17-2.3 2-2.2 2-3-2c-1.6-1.2-3-2-3.1-2l-.5 5.2-.4 5.2-2.4 2.1a15 15 0 0 1-2.7 2.2c-.2 0-3-2-6.4-4.6zM56 195c0-.5.1-.7.2-.5v.9c-.1.2-.2 0-.2-.5z" style="fill:#b8e3db;stroke-width:.352778" transform="translate(-44.5 -173.2)"/>
  <path d="m78.9 236.3-14-10.7c-3.4-2.6-6.3-5-6.5-5.4-.6-1.4-1.8-12-1.5-13.7.2-2 .7-2.1 1.2-.3.2.8.7 2 1 2.6.4.7.8 2.6 1 4.8.8 5.9.6 5.5 3.5 7.7 2 1.4 2.8 1.8 3 1.5.3-.2.6-.2.8-.1.2.3.6-1.3.4-2.2 0-.4.2-.9.5-1 .3-.4.5-1 .5-2v-1.4c.2 0 1.4.7 2.7 1.6 4.6 3 5.1 3 4.6.7-.4-1.8-.1-2 1.8-1 1 .4 1.7.7 1.8.6.3-2.4-.3-4.4-2.8-8.4a70.7 70.7 0 0 0-7-9.8l-3.4-4.2c-.8-1-4-3.2-6-4.1-.2 0-.3.4-.3 1v1l-1-.8c-.7-.5-1.4-1-1.6-1-.3 0-.6-.3-.8-.7-.2-.7-.2-.7-.6 0-.5.5-.6.4-1.4-1.3-.5-1-.8-2-.7-2.4.1-.3 1.5-1.2 3-1.9l3-1.3 4.4 2.3c2.5 1.3 4.6 2.2 4.8 2 .4-.4.3-6-.2-6.8-.6-1-.1-1.4 2.8-2.6l2.3-1 15.5 6.7 17 7.4c.7.4 1.5.9 1.6 1.1l-2.2 17.6-2.3 17-2.3 2-2.2 2-3-2c-1.6-1.2-3-2-3.1-2l-.5 5.2-.4 5.2-2.4 2.1a14.1 14.1 0 0 1-2.7 2.2c-.2 0-4-2.8-8.3-6.2z" style="fill:#b9dce1;stroke-width:.352778" transform="translate(-44.5 -173.2)"/>
  <path d="m78.9 236.3-14-10.7c-3.4-2.6-6.3-5-6.5-5.4-.6-1.4-1.8-12-1.5-13.7.2-2 .7-2.1 1.2-.3.2.8.7 2 1 2.6.4.7.8 2.6 1 4.8.8 5.9.6 5.5 3.5 7.7 2 1.4 2.8 1.8 3 1.5.3-.2.6-.2.8-.1.2.3.6-1.3.4-2.2 0-.4.2-.9.5-1 .3-.4.5-1 .5-2v-1.4c.2 0 1.4.7 2.7 1.6 4.6 3 5.1 3 4.6.7-.4-1.8-.1-2 1.8-1 1 .4 1.7.7 1.8.6.2-1.5 0-2.4-.7-4.7a51.3 51.3 0 0 0-7.6-13.5c-2.1-3-2.8-3.7-4.9-4.9-1.3-.8-2.3-1.6-2.2-1.8 0-.1 0-.3-.3-.3-1-.1-1.3-.2-2.5-.9-1-.5-1.4-.6-1.6-.2-.2.3-.5.2-1.1-.5-1-1-1.4-1-1.4-.2 0 .5 0 .5-.5 0-.4-.6-.5-.6-.8 0-.3.5-.5.3-1.3-1.2-.5-1-.8-2.1-.7-2.5.1-.3 1.5-1.2 3-1.9l3-1.3 4.4 2.3a20 20 0 0 0 4.7 2c.5-.4.4-6-.1-6.8-.6-1-.1-1.4 2.8-2.6l2.3-1 10.5 4.6 16.9 7.3c3.5 1.5 6.4 3 6.6 3.3.1.3-.8 8-2.1 17.6l-2.3 17-2.2 2-2.3 2-3-2c-1.6-1.2-3-2-3.1-2l-.5 5.2-.4 5.2-2.4 2.1a14.1 14.1 0 0 1-2.7 2.2c-.2 0-4-2.8-8.3-6.2z" style="fill:#b8d5d9;stroke-width:.352778" transform="translate(-44.5 -173.2)"/>
  <path d="M78.9 236.4a2092.6 2092.6 0 0 0-20.3-15.8c-.2-.3-2-11.5-2-12.7 0-1 1-.9 2 .3.8 1 1 1.8 1.5 6.2l.6 5 3.9 2.8a65 65 0 0 0 8.9 6.3c.7 0 1.1-2.4 1-5 0-1.6-.2-3-.4-3.1-.4-.8.7-.4 2.7.8 1.2.7 2.3 1.2 2.5 1 .2-.1.3-.8.2-2l-.3-1.6 1.8.8c2 1.1 2 1.1 2.2.3a28 28 0 0 0-4.1-9.7 66.6 66.6 0 0 1-4.2-7l-.2-.4c0-.3-.7-1.4-1.4-2.6a13 13 0 0 0-5-4.2 35.5 35.5 0 0 1-3.1-2c.2 0 .3 0 .2-.2-.2-.2-.5-.3-.9-.2-.3.2-.4.1-.3-.1.1-.2 0-.5-.3-.6-.3-.1-.5 0-.4.1.1.2-.6-.2-1.7-.7-1.1-.6-2-1-2-.7 0 .2-.5 0-1-.5-1-.9-1.2-.9-1.5-.4-.3.5-.4.6-.7.2-.2-.4-.3-.4-.3 0 0 .2-.2.4-.4.4-.7 0-2-3-1.8-3.8.1-.3 1.5-1.2 3-1.9l3-1.3 4.6 2.4 4.6 2.4.4-.9c.5-1.2.5-3.7-.1-5.2-1-2.2-.8-2.5 2-3.7L74 178l17 7.4c9.2 4 17 7.5 17 7.8.2.3-.7 8.2-2 17.6l-2.4 17-2.2 2c-1.2 1-2.4 1.7-2.6 1.6a140.2 140.2 0 0 1-5.7-3.6l-.3 3.4c-.5 7.3-.4 6.8-3.1 9.2a17.7 17.7 0 0 1-2.7 2.1c-.2 0-3.8-2.8-8.2-6.1zm-6.2-47.5c0-.1 0-.3.2-.3s.3-.2.2-.5c0-.3 0-.6.2-.6.5 0 .4-1.7-.3-2.9-.6-1.1-.6-1.1-.9-.3-.4 1.2 0 5 .7 5v-.4zm-1.3-4c-.1-.4-.2-.2-.2.3 0 .6 0 .9.2.7a2 2 0 0 0 0-1z" style="fill:#a9cad2;stroke-width:.352778" transform="translate(-44.5 -173.2)"/>
  <path d="M86.5 242.2c-.2-.3-14.8-11.6-23.2-17.9l-4.8-3.6-.4-2.4c-.7-4.7-1.5-10.7-1.3-10.9 0 0 .7.3 1.4 1 1.2 1 1.2 1 1.8 5.8.4 3.6.7 5 1.2 5.5a403 403 0 0 0 16.2 12c1 .5 1.2.3 1.4-1.1 0-.6.2-1.3.4-1.6.1-.2.2-1.6.1-3.2l-.1-2.7 1.6 1c2.2 1.2 2.7 1 2.3-1.1-.2-1-.3-1.8-.2-1.9l2.2 1 2 1.2-.2-2c-.1-1.5-.7-3-2.5-6.5a79.2 79.2 0 0 0-8.2-13.2c-1.3-2-1.4-2-4.8-4-1.7-1-2.7-1.9-2.7-2.3 0-.7-3.8-3-6.6-3.7-2.6-.8-4.4-1.6-4.2-2 .3-.5 0-.3-.7.3-.5.5-.5.5-.5 0 0-.4-.2-.6-.4-.6s-.3.2-.3.4c0 .6-.6.3-1.2-.8-.7-1.2-.6-1.2 1.3-.3l1.5.7-1.3-1a5.6 5.6 0 0 0-1.5-1.1l-.2-.3c0-.3 4.7-2.5 5.3-2.5.2 0 2.5 1 5.1 2.3 3.8 2 4.8 2.3 5 2 .3-.4.7-.5 1.3-.3.7.1.9.4.9 1.1 0 .7.2.9.6.8.4 0 .7-.4.7-.8l.2-2c.3-2-.1-4.2-.9-4.4-.4-.1-.8 0-1 .2-.1.3-.3.1-.5-.4-.2-.8-.2-.8-.5-.2-.2.6-.3.5-1-.6-.4-.7-.7-1.5-.6-1.7.1-.1 1.3-.8 2.5-1.3l2.4-1.1 11 4.8 16.8 7.3c5 2.1 6 2.7 6.2 3.4 0 .5-.8 8-2 16.8l-2.2 16.6c0 1-4.4 4.9-5 4.5a144.2 144.2 0 0 1-5.7-3.6l-.5 5.2a26 26 0 0 1-.8 5.5c-2.5 2.3-4.6 4-4.9 4-.2 0-.4 0-.5-.3zm-9.7-42.8-.5-.4c-.3 0-.6 0-.6.2s.3.3.6.3l.5-.1zm-2.4-1.3c-.8-.6-1.5-.9-1.8-.8-.4.2-.4.3.3.6l1.4.8c.2.3.6.5.8.5.3 0 0-.5-.7-1z" style="fill:#99c3cb;stroke-width:.352778" transform="translate(-44.5 -173.2)"/>
  <path d="m86.5 242.2-7.7-6a1674.3 1674.3 0 0 1-20.4-15.6 2279.6 2279.6 0 0 0-1.5-13c.2-.1 1.8 1 2.2 1.7.2.4.5 2.3.7 4.3.7 6.2.2 5.4 7.3 10.7 8.1 6 13.4 9.8 13.9 9.8.2 0 .4-.5.5-1.1l.5-3c.2-1 .3-2.4.2-3.2v-1.5l1.7.7c1.5.8 2.5.7 2.2 0l-.3-1.4c0-.5-.3-1.2-.4-1.6-.3-.7-.3-.7.7 0l1 .5v-6.2l-3-5.6a74 74 0 0 0-6-10.1c-1.1-1-1-1 1.7.4a677.7 677.7 0 0 1 6.5 3.3c0-.1.3 0 .7.4.6.6.7.6 1 0 .3-.6.1-.8-1-1.3-.9-.4-1.7-.6-2-.5a69.5 69.5 0 0 0-10.7-6.3l-6.3-3.4c-2-1.1-4.9-2.4-6.2-2.8a8.6 8.6 0 0 1-3-1.5 13 13 0 0 0-2.4-2l-2-1.2 2.6-1.2a17 17 0 0 1 3-1.1l5 2.3c3.8 2 4.8 2.3 5 2 .3-.4.7-.5 1.3-.3.7.1.9.4.9 1.1 0 .7.2.9.6.8.7-.1.8-1 1-4.5 0-2.2 0-2.2-1.2-2.8-.6-.4-1-.7-.9-.8.1-.1-.4-.6-1-1-.8-.4-1.3-.8-1.3-.9l2.3-1.2 2.3-1 6.8 2.9a563 563 0 0 1 26.7 11.8c0 .2-.9.9-2 1.6-1 .7-2 1.4-2 1.6 0 .6.4.4 2.6-1 2-1.4 2-1.5 2-.7l-2 16.3a659 659 0 0 0-2.2 16.2c0 .6-.6 1.4-2.3 2.8l-2.3 2-3-2-3.1-1.8-.5 5.2a26 26 0 0 1-.8 5.5c-2.5 2.3-4.6 4-4.9 4-.2 0-.4 0-.5-.3zm8-39.7c0-.2-2 .8-3.8 2-.8.6-1.6 1.2-1.6 1.4a24.7 24.7 0 0 0 5.3-3.5zm2.1-9.3c-1.8-1.1-5.8-2.9-5.5-2.4.3.4 5.7 3 6.3 3 .2 0-.1-.2-.8-.6zM81.2 186c-2.4-1.2-4.8-2-4.3-1.4a26 26 0 0 0 6 2.5c.4 0-.3-.5-1.7-1.1zm-26 3c-.5-.4-.3-.7.2-.5.3 0 .6.3.6.5 0 .4-.5.4-.9 0zm14.8-6.7c-.5-1-.5-1 .3-.7.5.2.7.6.6 1-.3 1-.3.9-1-.3z" style="fill:#9bc4bd;stroke-width:.352778" transform="translate(-44.5 -173.2)"/>
  <path d="M83 239.3a51176.5 51176.5 0 0 1-24.3-18.6c-.3-.3-2-12.8-1.9-13 .4-.3 2.4 1.5 2.5 2.2l.7 5.1c.3 2.4.7 4.5.8 4.7A369 369 0 0 0 81 234c.2 0 .4-.5.5-1.1l.5-3c.2-1 .3-2.4.2-3.2v-1.5l1.7.7c1.5.8 2.5.7 2.2 0l-.3-1.4c0-.5-.3-1.2-.4-1.6-.3-.7-.3-.7.7 0l1 .5v-6.2l-3-5.6a74 74 0 0 0-6-10.1c-1.1-1-1-1 1.7.4a677.7 677.7 0 0 1 6.5 3.3c0-.1.3 0 .7.4.6.6.7.6 1 0 .3-.6.1-.8-1-1.3-.9-.4-1.7-.6-2-.5a69.5 69.5 0 0 0-10.7-6.3l-6.3-3.4c-2-1.1-4.9-2.4-6.2-2.8a8.6 8.6 0 0 1-3-1.5 13 13 0 0 0-2.4-2l-2-1.2 2.6-1.2a21 21 0 0 1 3-1.1l7 3.3a164 164 0 0 0 6.8 3.4v-7.5l-1.2-.7c-.6-.3-1-.6-.9-.7.1-.1-.4-.6-1-1-.8-.4-1.3-.9-1.2-1L72 179l2.2-1 2.7 1.2c9 3.8 30.7 13.4 30.7 13.6 0 .2-.9.9-2 1.6-1 .7-2 1.4-2 1.6 0 .6.4.4 2.6-1l2-1.5v1l-2.2 17.1-2.2 16.2-1.9 1.7c-1 1-2.1 1.8-2.4 1.8-.3 0-1.8-.8-3.3-1.8l-3-1.7-.4 5.2-.4 5.1-2.2 2-2.6 2.2c-.2.1-2-1-4.6-3zm11.4-36.8c0-.2-2 .8-3.7 2-.8.6-1.6 1.2-1.6 1.4a24.7 24.7 0 0 0 5.3-3.5zm2.2-9.3c-1.8-1.1-5.8-2.9-5.5-2.4.3.4 5.7 3 6.3 3 .2 0-.1-.2-.8-.6zM81.2 186c-2.4-1.2-4.8-2-4.3-1.4a26 26 0 0 0 6 2.5c.4 0-.3-.5-1.7-1.1zm-26 3c-.5-.4-.3-.7.2-.5.3 0 .6.3.6.5 0 .4-.5.4-.9 0z" style="fill:#87c8c9;stroke-width:.352778" transform="translate(-44.5 -173.2)"/>
  <path d="M86.7 242.1c-.2-.2-.4-.8-.4-1.4-.1-.8-2.2-2.5-12.5-10.3C67 225.3 61 221 60.5 221c-1.7-.4-2.1-1.3-2.8-6.3l-.8-5.8c-.1-.6 0-1.2.1-1.2.6 0 2.3 2 2.4 2.7a86 86 0 0 0 1.4 9.4C62.6 221.3 80.5 234 81 234c.2 0 .4-.5.5-1.1l.5-3c.2-1 .3-2.4.2-3.2v-1.5l1.7.7c1.5.8 2.5.7 2.2 0l-.3-1.4c0-.5-.3-1.2-.4-1.6-.3-.7-.3-.7.7 0l1 .5v-6.2l-3-5.6a74 74 0 0 0-6-10.2l-1.1-1 2 1.2a872.8 872.8 0 0 1 8.5 4.5 4 4 0 0 0 1.4-.9c1.2-1 1-1.5-1.5-2.7a73 73 0 0 1-2.2-1.1c-.8-.4-.9-1.5-.2-1.7.3-.2.2-.2-.1-.2-.4 0-1-.4-1.6-.8-.5-.5-1.3-.9-1.7-.9-2.7-.4-4.8-.9-5.2-1.4-.2-.3-.6-.5-.8-.5-.3 0-1.3-.5-2.4-1a11 11 0 0 0-4-1.3c-2.3-.3-7.2-2.6-12-5.5l-2.6-1.6 2.7-1.2 2.6-1.2 6.9 3.4c3.7 2 6.9 3.5 7 3.5 0 0 .2-1.7.2-3.7 0-3.4-.1-3.7-.8-4.2-.6-.4-.4-.4.6 0l7.6 3.6 16.2 7.5c4.4 2.1 5 2.3 5.5 1.7a19 19 0 0 0-5.7-3c-.2 0-.3-.2-.2-.5 0-.2-.1-.4-.3-.4-.2 0-.3-.1-.2-.3.1-.2 0-.4-.1-.4a6 6 0 0 1-1.7-.8c-.8-.5-2.3-1.2-3.5-1.6a351.8 351.8 0 0 1-19.4-7.4c-2.6-1.3-2.8-1.4-2-1.8l2.5-1 1.5-.7 4 1.7a1561.3 1561.3 0 0 1 29.5 13l-1.9 1.5a6 6 0 0 0-2 1.8c0 .5.4.3 2.1-.8a8 8 0 0 1 2.4-1.3c0 .1-.8 7.7-2 16.9l-2.3 16.7-2 1.8c-1 1-2.1 1.9-2.4 1.9a16 16 0 0 1-3.3-1.8l-3-1.7-.4 5.2-.4 5.1-2.2 2c-2.6 2.4-3 2.6-3.4 2zm5-37.4c2.3-1.6 3.4-2.7 2.9-2.7s-5.8 3.6-5.8 4c0 .5.7.2 3-1.3z" style="fill:#95bbc6;stroke-width:.352778" transform="translate(-44.5 -173.2)"/>
  <path d="M86.7 242.1c-.2-.2-.4-.8-.4-1.4-.1-.8-2.2-2.5-12.5-10.3C67 225.3 61 221 60.5 221c-1.7-.4-2.1-1.3-2.8-6.3l-.8-5.8c-.2-1.3-.2-1.4 1-.6 1 .7 1.4 1.9 2 6.1l.5 4.3c.1.7 1.7 2 6.6 5.7C76 231 82.8 236 83.2 236c.5 0 .8-2 .8-5.6 0-2 .1-3.6.3-3.6l1.3.5c.6.3 1.1.4 1.2.2l.3-6.7v-6.5l-1.2-2.4c-2-3.5-4.9-8-5.7-9l-.8-.9 1 .6a152.1 152.1 0 0 1 7.1 3.7 4 4 0 0 0 1.4-.9c1.2-1 1-1.5-1.5-2.7a73 73 0 0 1-2.2-1.1c-.8-.4-.9-1.5-.2-1.7.3-.2.2-.2-.1-.2-.4 0-1-.4-1.6-.8-.5-.5-1.3-.9-1.7-.9-2.7-.4-4.8-.9-5.2-1.4-.2-.3-.6-.5-.8-.5-.3 0-1.3-.5-2.4-1a11 11 0 0 0-4-1.3c-2.3-.3-7.2-2.6-12-5.5l-2.6-1.6 2.7-1.2 2.7-1.1 6.8 3.4 7 3.4.2-2c0-1.1 0-2 .2-1.8.1.1.5 0 .8-.3.5-.4.7-.5 1-.1 0 .2 0 .3-.2.1-.3-.1-.4 0-.4.4 0 .3.1.4.3.3.2-.1.7 0 1 .2.5.4.5.4.3 0-.3-.4-.2-.4.3-.2s.6.1.2-.3c-.2-.3-.6-.5-.7-.4-.1 0-.3 0-.3-.4 0-.3.2-.4.5-.1.4.4 1-.5.6-1.1a43 43 0 0 1 8 3.3l12 5.6c3 1.4 4.7 2 5.2 1.9.4-.1.8 0 .8.2s1-.3 2.1-1.1a8 8 0 0 1 2.4-1.3c.2.2-.4 4.8-3.2 25.2l-1.2 8.6-2 1.7c-1 1-2 1.8-2.3 1.8-.3 0-1.8-.8-3.3-1.8a11 11 0 0 0-3-1.7l-.4 5.2-.4 5.1-2.2 2c-2.6 2.4-3 2.6-3.4 2zm5-37.4c2.3-1.6 3.4-2.7 2.9-2.7s-5.8 3.6-5.8 4c0 .5.7.2 3-1.3zm8.7-10.4-3-1.3c-.2 0-.3-.2-.2-.5 0-.2-.1-.4-.3-.4-.2 0-.3-.1-.2-.3.1-.2 0-.4-.1-.4a6 6 0 0 1-1.7-.8c-.8-.5-2.3-1.2-3.5-1.6a351.8 351.8 0 0 1-19.4-7.4c-2.6-1.3-2.8-1.4-2-1.8l2.5-1 1.5-.7 4 1.7a1561.3 1561.3 0 0 1 29.5 13 25 25 0 0 1-4 2.7c-.2 0-1.6-.5-3-1.2zm-26-10.5c-.6-.5-.6-.5.3-.1 1 .5 1.2.7.8.7-.2 0-.7-.3-1-.6z" style="fill:#75c8cb;stroke-width:.352778" transform="translate(-44.5 -173.2)"/>
  <path d="M86.7 242.1c-.2-.2-.4-.8-.4-1.4-.1-.8-2.2-2.5-12.5-10.3C67 225.3 61 221 60.5 221c-1.7-.4-2.1-1.3-2.8-6.3l-.8-5.8c-.2-1.3-.2-1.4 1-.6 1 .7 1.4 1.9 2 6.1l.5 4.3c.1.7 1.7 2 6.6 5.7C76 231 82.8 236 83.2 236c.5 0 .8-2 .8-5.6 0-2 .1-3.6.3-3.6l1.3.5c.6.3 1.1.4 1.2.2l.3-6.7v-6.5l-1.2-2.4c-2-3.5-4.9-8-5.7-9l-.8-.9 1 .6a152.1 152.1 0 0 1 7.1 3.7 4 4 0 0 0 1.4-.9c1.2-1 1-1.5-1.5-2.7-2.6-1.3-2.9-1.4-2.9-2.1 0-.3.2-.6.4-.6.6 0 .4-1-.3-1.6-.4-.3-1-.5-1.4-.5-.4 0-.9-.3-1.1-.6-.3-.3-.6-.4-.7-.3-.2.2-2.3-1.4-3.7-2.8-1.7-1.8-3.9-2.5-7.3-2.3-5.4.2-6.2.1-8-.9a7 7 0 0 0-1.9-.9l-3-1.7-2.8-1.7 2.5-1.1c3-1.3 3.4-1.4 3.1-.4-.3 1 .2 2.4.8 2.2.3-.1.5-.4.5-.6 0-1.2 1.4-.9 6.6 1.7l5.6 2.7.2-2c0-1.1 0-2 .2-1.8.1.1.5 0 .8-.3.5-.4.7-.5 1-.1 0 .2 0 .3-.2.1-.3-.1-.4 0-.4.4 0 .3.1.4.3.3.2-.1.7 0 1 .2.5.4.5.4.3 0-.3-.4-.2-.4.3-.2s.6.1.2-.3c-.2-.3-.6-.5-.7-.4-.1 0-.3 0-.3-.4 0-.3.2-.4.5-.1.4.4 1-.5.6-1.1a43 43 0 0 1 8 3.3l12 5.6c2.9 1.4 4.7 2 5.2 1.9.4-.1.8 0 .9.2 0 .3 1-.2 2.1-1 1.2-.9 2.2-1.5 2.3-1.4.2.2-.4 4.8-3.2 25.2l-1.2 8.6-2 1.7c-1 1-2 1.8-2.3 1.8-.3 0-1.8-.8-3.3-1.8a11 11 0 0 0-3-1.7l-.4 5.2-.4 5.1-2.2 2c-2.6 2.4-3 2.6-3.4 2zm5-37.4c2.3-1.6 3.4-2.7 2.9-2.7s-5.8 3.6-5.8 4c0 .5.7.2 3-1.3zm8.7-10.4-3-1.3c-.2 0-.3-.2-.2-.5 0-.2-.1-.4-.3-.4-.2 0-.3-.1-.2-.3.1-.2 0-.4-.2-.4-.4 0-1-.3-3-2-1-1-3.4-2.2-6.2-3.4a12 12 0 0 0-5.4-1.3c-1.9 0-3-.2-4.7-1l-5.1-2.2a8.7 8.7 0 0 1-2.6-1.3A21 21 0 0 1 72 179l2.1-1 4 1.7a1586.7 1586.7 0 0 1 29.5 13 25 25 0 0 1-4 2.7c-.2 0-1.6-.5-3-1.2zm-26-10.5c-.6-.5-.6-.5.3-.1 1 .5 1.2.7.8.7-.2 0-.7-.3-1-.6z" style="fill:#89b7c3;stroke-width:.352778" transform="translate(-44.5 -173.2)"/>
  <path d="M86.7 242.1c-.2-.2-.4-.8-.4-1.4-.1-.8-2.2-2.5-12.5-10.3C67 225.3 61 221 60.5 221c-1.8-.4-2-1.2-3-7.3l-.7-5.9 1.2.8c1 .8 1 1.1 1.7 5.6.3 2.7.8 5 1 5.3.6.8 15.7 12 21.3 15.8 2.7 1.9 3 2 3.4 1.5.5-.7.5-.7.7-4.2l.4-2.9c0-.2 0-.4-.3-.4s-.2-.2.1-.4c.6-.4 1-4.6 1-13 0-4.6 0-5.9-.5-6.9-.3-.7-.8-1.1-1-1-.2.1-.3 0-.1 0 .1-.2 0-.8-.4-1.3-1.2-1.7-1.2-1.8.6-1 1.1.6 1.9.8 2 .6.2-.2.4-.2.7 0 .3.3 1.2-.2 3.3-1.6 2.6-1.7 3.5-2.6 2.5-2.6l-2.3 1.3c-2 1.3-2 1.3-2.7.6-.4-.4-1.4-1-2.2-1.4-2.5-1.2-2.7-1.4-2.7-2 0-.3.2-.6.4-.6.6 0 .4-1-.3-1.6-.4-.3-1-.5-1.4-.5-.4 0-.9-.3-1.1-.6-.3-.3-.6-.4-.7-.3-.2.2-2.3-1.4-3.7-2.8-1.7-1.8-3.9-2.5-7.3-2.3-5.4.2-6.2.1-8-.9a7 7 0 0 0-1.9-.9 24 24 0 0 1-3-1.7l-2.9-1.7 2.7-1.1c3.2-1.3 3.2-1.4 3-.4-.3 1 .2 2.4.8 2.2.3-.1.5-.4.5-.6 0-1.2 1.4-.9 6.6 1.7l5.6 2.7.2-2c0-1.1 0-2 .2-1.8.1.1.5 0 .8-.3.5-.4.7-.5 1-.1 0 .2 0 .3-.2.1-.3-.1-.4 0-.4.3s.2.5.5.4c.2-.1.6 0 .7.2.1.2.7.3 1.5.1h1c-.2.4.4 1.3.9 1.3.7 0 .3-1-.7-1.5-.5-.3-.7-.6-.5-.6.3 0 .5-.3.5-.6 0-.5-.1-.5-.7 0-.5.4-.5.3-.1-.2.5-.7.7-.6 14.5 5.8a62.8 62.8 0 0 0 10.5 4.2c.3.3 1 0 2.4-1.1 1-.8 2-1.4 2.2-1.3l-.8 7-2.2 16.8-1.4 10-2 1.7c-1 1-2 1.8-2.3 1.8-.3 0-1.8-.8-3.3-1.8-1.5-1-2.8-1.8-2.9-1.7l-.5 5.2-.4 5.1-2.2 2c-2.6 2.4-3 2.6-3.4 2zm14.8-48-3.3-1.5c-.7-.3-1.3-.7-1.3-.9 0-.1-.2-.3-.4-.3-.4 0-1-.3-3-2-1-1-3.4-2.2-6.2-3.4a12 12 0 0 0-5.4-1.3 10 10 0 0 1-4.7-1 447 447 0 0 0-5.1-2.2l-2.8-1.2 2.3-1.1L74 178l2.9 1.2 26.3 11.5 4.3 2-1.6 1c-.8.6-1.8 1.1-2 1.1a14 14 0 0 1-2.4-.9zm-24.2-6.7c.2-.3.4-.5.5-.4 0 .1 0 .4-.3.6-.3.4-.4.3-.2-.2z" style="fill:#89b3b8;stroke-width:.352778" transform="translate(-44.5 -173.2)"/>
  <path d="m86.5 241.8-.3-1.2c0-.6-3.5-3.5-12.4-10.2C67 225.3 61 221 60.5 221c-1.8-.4-2-1.2-3-7.3l-.7-5.9 1.2.8c1 .9 1 1.1 1.7 5.8.5 4.1.7 5 1.4 5.6a534 534 0 0 0 25.2 18.4c.3 0 1-17.9 1-24.7v-5l-1.2-1.6-1.2-1.7 1.4.6c.9.4 1.5.5 1.6.3.2-.2.4-.2.7 0 .3.3 1.2-.2 3.3-1.6 2.6-1.7 3.5-2.6 2.5-2.6l-2.3 1.3c-2 1.3-2 1.3-2.7.6-.4-.4-1.4-1-2.2-1.4-2.5-1.2-2.7-1.4-2.7-2 0-.3.2-.6.4-.6.6 0 .4-1-.3-1.6-.4-.3-1-.5-1.4-.5-.4 0-.9-.3-1.1-.6-.3-.3-.6-.4-.7-.3-.2.2-2.3-1.4-3.7-2.8-1.7-1.8-3.9-2.5-7.3-2.3-5.4.2-6.2.1-8-.9a7 7 0 0 0-1.9-.9 24 24 0 0 1-3-1.7l-2.9-1.7 2.7-1.1c3.2-1.3 3.2-1.4 3-.4-.3 1 .2 2.4.8 2.2.3-.1.5-.4.5-.6 0-1.2 1.4-.9 6.7 1.7 8 4 7.6 3.8 8.5 3 .9-.6 2.9-.6 6.6-.2 1.2 0 1.4 0 1.2-.5-.2-.4 0-.4.8.2 1 .6 1 .6.6 0-.5-.6-.5-.7 0-.5.4.2.7 0 .8-.2.1-.3 0-.5-.2-.5s-.3-.1-.2-.2c0-.1 3.7 1.4 8 3.5 5 2.3 8.1 3.5 8.3 3.3.3-.2.6-.1.8.1.3.3 1 0 2.3-1 1.1-.9 2.1-1.5 2.2-1.5.3 0 .2.5-2.3 19l-2 14.8-2 1.8c-1 1-2 1.8-2.3 1.8-.3 0-1.8-.9-3.4-2l-2.8-1.8-.3 2-.4 5.3-.3 3.4-2.2 2c-2.3 2-3.2 2.4-3.5 1.6zm15-47.8-3.3-1.4c-.7-.3-1.3-.7-1.3-.9 0-.1-.2-.3-.4-.3-.4 0-1-.3-3-2-1-1-3.4-2.2-6.2-3.4a12 12 0 0 0-5.4-1.3 10 10 0 0 1-4.7-1l-5.1-2.2-2.8-1.2 2.4-1L74 178l2.8 1.2 26.3 11.5 4.3 2-1.6 1c-.8.6-1.8 1.1-2 1.1a14 14 0 0 1-2.4-.9z" style="fill:#59c9d1;stroke-width:.352778" transform="translate(-44.5 -173.2)"/>
  <path d="m86.5 241.8-.3-1.2c0-.6-3.5-3.5-12.4-10.2C67 225.3 61 221 60.5 221c-1.8-.4-2-1.2-3-7.3l-.7-5.9 1.2.8c1 .9 1 1.1 1.7 5.8.5 4.1.7 5 1.4 5.6a534 534 0 0 0 25.2 18.4c.3 0 1-17.9 1-24.7v-5l-1.2-1.6-1.2-1.7 1.4.6c.9.4 1.5.5 1.6.3.2-.2.4-.2.7 0 .3.3 1.2-.2 3.3-1.6 2.6-1.7 3.5-2.6 2.5-2.6l-2.3 1.3c-2 1.3-2 1.3-2.7.6-.4-.4-1.4-1-2.2-1.4-2.5-1.2-2.7-1.4-2.7-2 0-.3.2-.6.4-.6.6 0 .4-1-.3-1.6-.4-.3-1-.5-1.4-.5-.4 0-.9-.3-1.1-.6-.3-.3-.6-.4-.7-.3-.2.2-2.3-1.4-3.6-2.8-1-.9-5-3-6-3-.6 0-3.6-1.7-4.7-2.7l-1-.9 1.3.6 4.2 2c4.1 2 4.3 2 5.2 1.4.9-.7 2.9-.7 6.6-.3 1.2 0 1.4 0 1.2-.5-.2-.4 0-.4.8.2 1 .6 1 .6.6 0-.5-.6-.5-.7 0-.5.4.2.7 0 .8-.2.1-.3 0-.5-.2-.5s-.3-.1-.2-.2c0-.1 3.7 1.4 8 3.5 5 2.3 8.1 3.5 8.3 3.3.7-.5 1.2.4 1 2.1-.1 1.2 0 1.5.2 1.1.2-.3.4-.7.4-1 0-.9 3-4.6 3.6-4.6.4 0 .4 0-2.2 19l-2 14.8-2 1.8c-1 1-2 1.8-2.3 1.8-.3 0-1.8-.9-3.4-2l-2.8-1.8-.3 2-.4 5.3-.3 3.4-2.2 2c-2.3 2-3.2 2.4-3.5 1.6zm15-47.8-3.3-1.4c-.7-.3-1.3-.7-1.3-.9 0-.1-.2-.3-.4-.3-.4 0-1-.3-3-2a32 32 0 0 0-7.2-3.8c-5-2-5.5-2.3-8.7-4.5-1.5-1-2.8-1.6-3-1.5-.1.1-.3.8-.3 1.6v1.3l-2.5-1-2.5-1.2 2.4-1.1 2.4-1 2.8 1.1 26.3 11.5 4.3 2-1.6 1c-.8.6-1.8 1.1-2 1.1a14 14 0 0 1-2.4-.9zm-44.2-5.7-2.7-1.7 2.7-1.1c1.5-.6 2.8-1.2 2.9-1.1l.3 2.8c0 1.5 0 2.8-.2 2.8l-3-1.7z" style="fill:#75c0bd;stroke-width:.352778" transform="translate(-44.5 -173.2)"/>
  <path d="M86.7 241c0-1-.7-1.5-13.3-11a232.2 232.2 0 0 1-13.2-10.4 660.5 660.5 0 0 0 26.1 18.7c.3 0 1-17.9 1-24.7v-5l-1.2-1.6-1.2-1.7 1.4.6c.9.4 1.5.5 1.6.3.2-.2.4-.2.7 0 .3.3 1.2-.2 3.3-1.6 1.6-1 2.9-2 2.9-2.2 0-.3-7.1-4-7.9-4-.3 0-.7.3-1 .7-.3.5-.3.5-.2-.2.2-.7.1-.8-.3-.4-.3.2-.5.3-.5 0 0-.2-.5-.5-1-.7-.6-.2-1.1-.3-1.1-.1l-.7-.5c-.4-.3-.7-.5-.7-.3 0 .3-2.4-1.4-3.7-2.8-.6-.6-1-1.2-1-1.4 0-.1 0-.2-.2 0-.2 0-1.2-.3-2.3-.8l-2.3-.8c-.7 0-3.7-1.7-4.8-2.7l-1-.9 1.3.6a69 69 0 0 1 4.7 2.3 11 11 0 0 0 3.4 1.5c.1-.1.2 0 .2.2s.4 0 1-.4c.8-.9 2.4-1 6.7-.5 1.2 0 1.4 0 1.2-.5-.2-.4 0-.4.8.2 1 .6 1 .6.6 0-.5-.6-.5-.7 0-.5.4.2.7 0 .8-.2.1-.3 0-.5-.2-.5s-.3-.1-.2-.2c0-.1 3.7 1.4 8 3.5 5 2.3 8.1 3.5 8.3 3.3.7-.5 1.2.4 1 2.1-.1 1.2 0 1.5.2 1.1.2-.3.4-.7.4-1 0-.9 3-4.6 3.6-4.6.4 0 .4 0-2.2 19l-2 14.8-2 1.8c-1 1-2 1.8-2.3 1.8-.3 0-1.8-.9-3.4-2l-2.8-1.8-.3 2-.4 5.3-.3 3.4-2.2 2c-2.7 2.3-3.3 2.5-3.3.9zM59 219.4c-.5-.5-.8-2.1-1.3-5.9-.4-2.8-.6-5.3-.5-5.4.1 0 .5.2.9.6.4.5.8 2.2 1.2 6 .3 2.7.6 5.1.5 5.2-.1.1-.5-.1-.8-.5zm32-15.7a9 9 0 0 1 2.6-1.6l-1.5 1.1c-.8.6-1.3.8-1 .5zm-5.7-3.5c.1-.2.3-.3.4-.3 0 0 .2.1.2.3 0 .2-.2.4-.4.4s-.3-.2-.2-.4zm19-6.2c-1.2-.3-1.5-.8-1.2-1.7.2-.5.2-1 0-1-.2-.2-.3-.2-.3 0 .2.8 0 1.4-.5 1.4-.3 0-.4-.2-.4-.4.2-.5-1.5-.7-1.8-.2 0 .2-.3.4-.5.4s-.3-.2-.2-.4c.2-.2 0-.3-.1-.3-.2 0-.4-.3-.4-.6 0-.6-.6-.7-.8 0-.1.3-.3.3-.6 0-.4-.4-.4-.5.1-.5.4 0 .5-.2.4-.4-.1-.2-.7-.2-1.4-.1-1 .1-1.2 0-1-.4.2-.5 0-.6-1-.4l-1.4-.1c-.2-.6-3.2-2.1-7-3.7-5-2-5.5-2.3-8.7-4.5-1.5-1-2.8-1.6-3-1.5-.1.1-.3.8-.3 1.6v1.4l-2.3-1.1c-1.2-.7-2.1-1.3-2-1.4.1-.2 1.1-.7 2.2-1.1l2-.9 7.2 3.2a14592.8 14592.8 0 0 0 22.5 10c1.8.6 2.5 1.1 2.5 1.6 0 .3-.2.7-.4.8-.3.2-.3 0-.2-.5.1-.5 0-.7-.2-.6-.2 0-.6-.1-.9-.4-.7-.7-1-.3-.3.6.3.4.6.6.7.5.2-.1.3 0 .3.3l-.1.6-.8-.2zm-3.5-3.7c-.2-.3-2.2-.6-2.2-.2 0 .1.3.4.7.6.6.4.7.3.5 0-.1-.3 0-.2.2 0 .3.5.5.6.7.3.2-.2.2-.5.1-.7zm5.9 2.5c0-.2.1-.3.3-.3.2 0 .3.1.2.3l-.4.4-.1-.4zm-48-3.7c-1-.6-1.4-1.1-1.3-1.5l.2-1.3c0-.6.4-1 1-1.4l1.4-.5c.2 0 .3 1.2.4 2.8v2.8l-1.6-1z" style="fill:#74bcc2;stroke-width:.352778" transform="translate(-44.5 -173.2)"/>
  <path d="M86.7 241c0-1-.7-1.5-13.3-11a232.2 232.2 0 0 1-13.2-10.4 660.5 660.5 0 0 0 26.1 18.7c.3 0 1-17.9 1-24.7v-5l-1.2-1.6-1.2-1.7 1.3.5c2 1 3.2.8 6-1.3 1.4-1 2.6-2 2.6-2.2a976.1 976.1 0 0 1-18.2-9.7c-.7-.4-.7-.4.1-1 .9-.7 2.8-.9 6.7-.4 1.2 0 1.4 0 1.2-.5-.2-.4 0-.4.8.2 1 .6 1 .6.6 0-.5-.6-.5-.7 0-.5.4.2.7 0 .8-.2.1-.3 0-.5-.2-.5s-.3-.1-.2-.2c0-.1 3.8 1.5 8.2 3.5 5 2.4 8.1 3.6 8.2 3.4.1-.3.3-.3.6 0 .3.2.4.9.3 2-.1 1.2 0 1.5.2 1.1.2-.3.4-.7.4-1 0-.6 2-3.5 3-4 .5-.5.7-.5.8-.2l-2.2 17-2.2 16.4-2 1.8c-1 1-2 1.8-2.3 1.8-.3 0-1.8-.9-3.4-2l-2.8-1.8-.3 2-.4 5.3-.3 3.4-2.2 2c-2.7 2.3-3.3 2.5-3.3.9zM59 219.4c-.5-.5-.8-2.1-1.3-5.9-.4-2.8-.6-5.3-.5-5.4.1 0 .5.2.9.6.4.5.8 2.2 1.2 6 .3 2.7.6 5.1.5 5.2-.1.1-.5-.1-.8-.5zm12.8-28.2c-1.3-.4-3.5-1.7-4.7-2.7l-1-.9 1 .5a53.6 53.6 0 0 1 5.8 3c1 .4.4.5-1 0zM58.6 189c-.6-.3-1-.8-1-1v-1.4c.1-.8.4-1.2 1.2-1.6l1.2-.5.4 2.7c.3 2.9 0 3-1.8 1.8zm35-1.7-3.9-1.6c-.7-.3-2.2-.7-3.2-.8-1 0-2.4-.3-3.2-.5a36.5 36.5 0 0 1-8.8-5.2s-.2.7-.2 1.6c0 1.8-.2 1.9-2.8.5l-2-1 2.3-1 2.2-1 5.9 2.5a424 424 0 0 1 16.6 7.4c.3.3-.6 0-3-.9z" style="fill:#71aeb2;stroke-width:.352778" transform="translate(-44.5 -173.2)"/>
  <path d="M86.7 241c0-1.2-.3-1.4-9.4-8.3l-9.3-7.3 4 2.8c9.4 7 14.4 10.6 14.5 10.4.2-.1.7-13.2 1-24l.5-8c0-.2.3-.2.6-.1.8.2 6.1-3.4 6.2-4.2 0-.4-.2-.7-.3-.7-.6 0-16.5-8.3-16.6-8.7 0-.3.1-.3.8 0 .5.1 1.5.2 2.2.1.8-.1 1.3 0 1.4.4.1.3.5.5.8.5.4 0 .8.1 1 .3.2.5 1.5.5 1.5 0 0-.1.2-.2.5 0 .3 0 .6.3.6.4 0 .2-.2.3-.4.1-.3-.1-.4 0-.2.2.2.3.4.3.8 0 .2-.2.5-.2.5 0 0 .1.5.2 1.1.2a4 4 0 0 1 1.7.2c.4.2.7.2.9 0 .1-.2.3-.3.5-.2.1 0 .5-.4.9-1 .3-.7.7-1.3.9-1.3l4.5 2a26 26 0 0 0 5 1.8c.8 0 .9 0 .8 1.7-.1 1.3 0 1.6.2 1.2.2-.3.4-.7.4-1 0-1 3.3-5 3.8-4.5l-1.7 13.3-2.3 16.8-.5 3.6-1.8 1.8c-2 1.8-3.1 2.2-3.1 1.1 0-.8-.7-1.4-1.3-1.2-.3.1-1.4-.3-2.4-.9l-2-1-.1 2.3a558 558 0 0 0-.5 5.4l-.2 3-2.2 2c-2.7 2.4-3.3 2.5-3.3.8zm6.2-45.9c0-.3-.1-.5-.3-.5-.4 0-.4.5 0 .8.3.3.3.3.3-.3zm-11-1.6c.1-.2 0-.3-.2-.3s-.3.1-.3.3l.1.4.4-.4zm-15 31.2c-.5-.6-.5-.6 0-.2l.7.6c0 .3-.3.2-.7-.4zm-1.5-1c-.4-.7-.4-.7.2-.2l.6.6c0 .3-.3 0-.8-.5zm-1.4-1.2c-.4-.5-.4-.5.2 0l.6.5c0 .3-.3.1-.8-.5zm-1.4-1c-.4-.6-.4-.6.2-.1l.6.6c0 .3-.3 0-.8-.5zm-1.5-1c-.4-.3-.5-.5-.3-.5s.6.2.8.5c.6.7.4.7-.5 0zm10.7-29.4c-1.3-.4-3.5-1.7-4.7-2.7l-1-.9 1 .5a53.6 53.6 0 0 1 5.8 3c1 .4.4.5-1 0zm-13-2.2-1-.7.8-1.8c.8-1.4 1-1.7 1.3-1.3.4.8.8 4.6.4 4.5L59 189zm24.1-4.7c-1.5-.5-5.7-3.1-7.2-4.4l-1.2-1 1.6.4c1.7.5 9 3.6 11.1 4.8l1.4.7h-2.3a13 13 0 0 1-3.4-.5zm-10.3-2.6c-1.5-.8-1.5-2 .2-2.8 1.3-.7 1.5-.5 1.5 1.5 0 1-.1 2-.3 2a8 8 0 0 1-1.4-.7z" style="fill:#54b5c7;stroke-width:.352778" transform="translate(-44.5 -173.2)"/>
  <path d="M86.7 241c0-1.2-.3-1.4-9.4-8.3l-9.3-7.3 4 2.8c9.4 7 14.4 10.6 14.5 10.4.2-.1.7-13.2 1-24l.5-8c0-.2.3-.2.6-.1.5.1.6.9.4 5-.2 3.3-.1 5 .1 5s.4-.2.3-.3a27 27 0 0 1 1.4-7.3c1.1-3.4 2-4.9 3-5.5 1-.4 1.4-1.8.7-1.8-.6 0-16.5-8.3-16.6-8.7 0-.3.1-.3.8 0 .5.1 1.5.2 2.2.1.8-.1 1.3 0 1.4.4.1.3.5.5.8.5.4 0 .8.1 1 .3.2.5 1.5.5 1.5 0 0-.1.2-.2.5 0 .3 0 .6.3.6.4 0 .2-.2.3-.4.1-.3-.1-.4 0-.2.2.2.3.4.3.8 0 .2-.2.5-.2.5 0 0 .1.5.2 1.1.2a4 4 0 0 1 1.7.2c.4.2.7.2.9 0 .1-.2.3-.3.5-.2.1 0 .5-.4.9-1 .3-.7.7-1.3.9-1.3l4.6 2c2.8 1.3 4.5 1.8 5 1.7.8-.3.8-.5-.8 13.9-1.2 9.8-1.2 10.2-.8 9.7.8-.8 1.6-4.3 2.7-12 .7-4.6 1.5-9.1 1.8-10.1.5-2 1.8-4.3 2.1-4a14794.6 14794.6 0 0 0-4 30.1l-.4 3.6-1.8 1.8c-2 1.8-3.1 2.2-3.1 1.1 0-.8-.7-1.4-1.3-1.2-.3.1-1.4-.3-2.4-.9l-2-1-.1 2.3a558 558 0 0 0-.5 5.4l-.2 3-2.2 2c-2.7 2.4-3.3 2.5-3.3.8zm2-16.1c-.1-.3-.2-.2-.2.2 0 .3 0 .6.1.4.2 0 .2-.4 0-.6zm4.2-29.8c0-.3-.1-.5-.3-.5-.4 0-.4.5 0 .8.3.3.3.3.3-.3zm-11-1.6c.1-.2 0-.3-.2-.3s-.3.1-.3.3l.1.4.4-.4zm-15 31.2c-.5-.6-.5-.6 0-.2l.7.6c0 .3-.3.2-.7-.4zm-1.5-1c-.4-.7-.4-.7.2-.2l.6.6c0 .3-.3 0-.8-.5zm-1.4-1.2c-.4-.5-.4-.5.2 0l.6.5c0 .3-.3.1-.8-.5zm-1.4-1c-.4-.6-.4-.6.2-.1l.6.6c0 .3-.3 0-.8-.5zm-1.5-1c-.4-.3-.5-.5-.3-.5s.6.2.8.5c.6.7.4.7-.5 0zM58.9 189l-1.2-.7 1-1.8c.6-1.3 1-1.7 1.1-1.3.4.7.8 4.6.5 4.5a6 6 0 0 1-1.4-.7zm26.1-5c-2.4-.6-5.8-2.4-7.4-3.7l-1-.9 1.7.7c2.4 1 7.9 3.3 9.1 4 1.4.8.4.7-2.4 0zm-12.5-2.4c-1.5-.8-1.5-2 .2-2.8 1.3-.7 1.5-.5 1.5 1.5 0 1-.1 2-.3 2a8 8 0 0 1-1.4-.7z" style="fill:#51a8b5;stroke-width:.352778" transform="translate(-44.5 -173.2)"/>
  <path d="M86.7 241c0-1.2-.3-1.4-9.4-8.3l-9.3-7.3 4 2.8a194 194 0 0 0 14.5 10.4l.7-14.6c.6-15.7.7-17.4 1.3-17.4.3 0 .3 2 .2 7.1-.7 21-.7 20 0 18.5a40 40 0 0 0 1.8-9.4 278.9 278.9 0 0 1 1.3-11.5c.3-3.2 1-5.8 2.1-7.4 1.1-1.6 1-2-.3-2.6-4.8-2.4-15.8-8.2-15.8-8.5 0-.2.4-.2 1 0 .4.2 1.4.3 2 .2 1-.1 1.4 0 1.5.4.1.3.5.5.8.5.4 0 .8.1 1 .3.2.5 1.5.5 1.5 0 0-.1.2-.2.5 0 .3 0 .6.3.6.4 0 .2-.2.3-.4.1-.3-.1-.4 0-.2.2.2.3.4.3.8 0s.5-.3.5.3c0 .4 0 .5.3.2.2-.5 2-.4 2.8 0 .2.2.4.1.6-.1 0-.2.3-.3.5-.2.1 0 .5-.4.9-1 .3-.7.7-1.3.9-1.3l4.6 2c2.8 1.2 4.5 1.8 5 1.7.8-.3.9-2-1 14.7-1.2 10-1.4 12.7-1 11.6.1-.3.3-.6.5-.7.8-.6 1.9-4.6 2.6-9.8l1.5-9c.6-3.8 2-8.5 2.2-7.4l-1.6 12.7-2 15.5-.6 3.6-1.8 1.8c-2 1.8-3.1 2.2-3.1 1.1 0-.8-.7-1.4-1.3-1.2-.3.1-1.4-.3-2.4-.9l-2-1-.1 2.3a558 558 0 0 0-.5 5.4l-.2 3-2.2 2c-2.7 2.4-3.3 2.5-3.3.8zm2.4-43.4-.8-.5c-.7-.4-.7-.4 0 .1.6.6.8.7.8.4zm.7-.8c-.2-.2-.5-.4-.6-.2-.1.1 0 .3.2.4.2 0 .3.3.2.5-.1.2 0 .3.2.1.3-.2.3-.4 0-.8zm-2.6-.4-.1-.5c-.2-.1-.3 0-.3.3 0 .6 0 .6.4.2zm-2.9-1c-.1-.2-.3-.4-.4-.3l.1.5c.3.6.6.5.3-.1zm8.6-.3c0-.3-.1-.5-.3-.5-.4 0-.4.5 0 .8.3.3.3.3.3-.3zm-11-1.6c.1-.2 0-.3-.2-.3s-.3.1-.3.3l.1.4.4-.4zm-15 31.2c-.5-.6-.5-.6 0-.2l.7.6c0 .3-.3.2-.7-.4zm-1.5-1c-.4-.7-.4-.7.2-.2l.6.6c0 .3-.3 0-.8-.5zm-1.4-1.2c-.4-.5-.4-.5.2 0l.6.5c0 .3-.3.1-.8-.5zm-1.4-1c-.4-.6-.4-.6.2-.1l.6.6c0 .3-.3 0-.8-.5zm-1.5-1c-.4-.3-.5-.5-.3-.5s.6.2.8.5c.6.7.4.7-.5 0zm-1.9-31.4c-1-.7-1-1.9-.2-3.4l.6-1.2.3 1.4c.2.8.3 2 .2 2.6 0 1.1-.1 1.2-.9.6zm13.7-7.4c-1-.5-1.5-1.6-1.1-2.2.3-.4 1.8-1.2 2-1 .2.1.3 3.4.1 3.5 0 .1-.5 0-1-.3z" style="fill:#6699a4;stroke-width:.352778" transform="translate(-44.5 -173.2)"/>
  <path d="M86.7 240.9c0-1.3-.2-1.5-2.3-3a17 17 0 0 1-2.3-2l1.6 1c3.2 2.4 2.8 2.7 3.2-2l.4-4.7.6-22.1c.1-.8.4-1.5.6-1.5.3 0 .3 2 .2 7.1-.7 21-.7 20 0 18.5a40 40 0 0 0 1.8-9.4 278.9 278.9 0 0 1 1.3-11.5c.3-3.2 1-5.8 2.1-7.4.5-.7.9-1.4.9-1.7a45 45 0 0 0-6.2-3.6c-5.7-2.9-7.2-3.9-5.6-3.6.4 0 .9.4 1.1.6.4.5.4.5.2-.1s-.1-.7.3-.3c.2.2.8.3 1.3.3.7 0 1 .2.8 1 0 .1.1.2.3 0 .2 0 .3-.3.2-.5-.3-.5.8-.2 1.5.5.4.3.9.5 1 .4.3 0 .6 0 .8.3.3.3.6.5.8.4.2-.1.3 0 .3.1 0 .2.2.4.4.4l1.4.8c1 .6 1.2.7 1.8.3.7-.4 1-.5 1-.1-.3 1.3.7 1.3 1.7 0 .4-.4.8-.6.8-.4 0 .3.4.4 1 .3.7-.2.8-.1.3.2-.4.2-.6.5-.6.7 0 .2.1.3.3.2.2-.2.4 0 .4.2s.2.1.5-.3c.5-.6.5-.6.5 0 0 1.1.7.6 1-.7.4-3.2 1.7-4 1.3-.9a993 993 0 0 0-2.6 24.1c0 .6.1.7.2.3.1-.3.3-.6.5-.7.8-.6 1.9-4.6 2.6-9.8l1.5-9c.6-3.8 2-8.5 2.2-7.4a7065 7065 0 0 0-3.8 29.5c-.3 2.2-.4 2.4-2.2 4.1-2.3 2.1-3.1 2.3-3.1.6 0-1.1-.2-1.3-2-2.2-1-.5-2-.8-2.4-.7-.4.2-.6.1-.6-.2 0-.3-.1-.3-.4.2-.2.3-.5 3-.7 5.8l-.4 5.2-2.3 2c-2.7 2.4-3.2 2.5-3.2.7zm9.1-41c0-.2-.1-.4-.3-.4-.2 0-.4.2-.5.4-.2.2 0 .3.3.3s.5-.1.5-.3zm-6.7-2.3-.8-.5c-.7-.4-.7-.4 0 .1.6.6.8.7.8.4zM81 235.2c-.5-.5-.5-.5.1 0l.6.5c0 .3-.3.1-.7-.5zm15.7-35.7c-.1-.2 0-.3.2-.3s.3.1.3.3l-.1.4-.4-.4zm-37.5-10.4c-1-.7-1-1.3 0-2.1.9-.8 1-.6 1 1.2-.2 1.4-.2 1.5-1 1zm13.8-7.3c-1-.4-1-.5-.3-2 .9-1.7 1.2-1.6 1.3.4v1.9l-1-.3z" style="fill:#63929b;stroke-width:.352778" transform="translate(-44.5 -173.2)"/>
  <path d="M86.9 239.8a284 284 0 0 0 .7-17.9c.1-13 .2-15.3 1-15.3.2 0 .2 2.1 0 7.1-.6 21-.6 20 0 18.5 1-2.4 1.5-5.1 2-9.4a278.9 278.9 0 0 1 1.2-11.5c.3-3.2 1-5.8 2.1-7.4.5-.7.9-1.4.9-1.7a45 45 0 0 0-6.2-3.6c-5.7-2.9-7.2-3.9-5.6-3.6.4 0 .9.4 1.1.6.4.5.4.5.2-.1s-.1-.7.3-.3c.2.2.8.3 1.3.3.7 0 1 .2.8 1 0 .1.1.2.3 0 .2 0 .3-.3.2-.5-.3-.5.8-.2 1.5.5.4.3.9.5 1 .4.3 0 .6 0 .8.3.3.3.6.5.8.4h.3c0 .2.5.5 1 .8 1.2.5 3.2 2.4 3.2 2.9 0 .2.3.3.6.3s.5.2.5.5c0 .2.6 1 1.3 1.8a6 6 0 0 1 1.4 1.8c0 .2.2.3.4.3.3-.1.4 0 .3.4-.1.3 0 .6.1.7.2.1.3.4.2.6-.1.1 0 .3.2.3s.3-.2.3-.4c0-1.3 1.2-9.8 1.5-10.5.5-1.3 1-.5.8 1.3a993 993 0 0 0-2.6 24.1c0 .6.1.7.2.3.1-.3.3-.6.5-.7.8-.6 1.9-4.6 2.6-9.8a97.8 97.8 0 0 1 2.8-14.7c.5-1.8.8-2.2.8-1.6.1.5-.8 7.8-2 16.2l-2 15.4-2 1.8c-1.2 1-2.2 1.9-2.5 1.8-.2-.1-.3-.7-.3-1.3.1-1 0-1.2-1.5-1.8l-2.8-1.3c-.5-.2-1.1-.4-1.3-.2l-.7 5.7-.3 5.5-2.4 2.2a13 13 0 0 1-2.7 2.2c-.2 0-.3-.8-.3-2.4zm12.2-13.4c.4-2 .3-4.4 0-4.1-.3.1-.4.7-.4 1.2 0 .7-.2 1-.5 1s-.7.5-1 1c-.4.8-.4 1 .4 1.6 1.2.9 1.3.8 1.5-.7zm.6-5c0-.2-.1-.4-.3-.4-.2 0-.4.2-.4.4s.2.4.4.4.3-.2.3-.4zm-10.6-23.8-.8-.5c-.7-.4-.7-.4 0 .1.6.6.8.7.8.4zm-29.9-8.5c-1-.7-1-1.3 0-2.1.9-.8 1-.6 1 1.2-.2 1.4-.2 1.5-1 1zm13.8-7.3c-.4-.2-.8-.5-.8-.8 0-.4 1-1.8 1-1.4 0 .2.2.1.4-.1.2-.4.3 0 .4 1 .2 1.7 0 1.8-1 1.3z" style="fill:#4f98a5;stroke-width:.352778" transform="translate(-44.5 -173.2)"/>
  <path d="m86.9 239.8.3-3.9c.2-1.2.3-1.4.7-1 .3.2.6.3.7.2l1-2.8c1-2.6 2-9.6 2-13.2 0-2.2 1.3-10 2-12.2.2-.9.8-2 1.2-2.4.4-.4.5-.7.4-.7-.2 0-.3-.3-.2-.6.2-.4.3-.5.5 0 .2.2.3.2.3 0 0 0 .3 0 .6.3.4.2.5.3.4 0-.1-.2 0-.5.2-.8.5-.3.5-.3.4.3-.2.5 0 .8.3.8.7 0 .8.3.2 1-.4.4-.4.4.2 0 .5-.4.7-.4 1.2.2.6.6.6.6-.1.2-.7-.5-.7-.5 0 .2.3.5.7.7 1 .6 0 0 .2 0 .2.2s-.2.4-.4.4c-.3 0-.2.2.2.4.3.2.5.5.4.7-.1.1 0 .3.1.3.2 0 .5-1.6.8-3.6l.8-5.6c.6-2.4 1.3-2.7 1-.4-.3 3.7-1.5 14.6-2 18.2-1 7.2-1 8.4-.5 8.3.5-.2 2-3.9 2.4-5.8a202.4 202.4 0 0 1 2.3-15.9c.7-3.4 2-7.9 2.2-7.3a17054.6 17054.6 0 0 0-3.6 28l-.5 3.7-2 1.8c-1 1-2.1 1.9-2.4 1.8-.2-.1-.4-.7-.4-1.3 0-1-.1-1.3-2.6-2.5-2.1-1.1-2.7-1.3-3-1l-.6 6-.3 5.4-2.4 2.2a13 13 0 0 1-2.7 2.2c-.2 0-.3-.8-.3-2.4zm12.2-13.4c.4-2 .3-4.4 0-4.1-.3.1-.4.7-.4 1.2 0 .7-.2 1-.5 1s-.7.5-1 1c-.4.8-.4 1 .4 1.6 1.2.9 1.3.8 1.5-.7zm.6-5c0-.2-.1-.4-.3-.4-.2 0-.4.2-.4.4s.2.4.4.4.3-.2.3-.4zm.5-6.7c.2-.2 0-.4-.1-.4-.2 0-.4.2-.4.4s0 .4.2.4l.3-.4zm.2-1.6c-.2-.1-.4 0-.5.4-.2.5-.1.6.2.2.3-.2.4-.5.3-.6zm0-1.5c-.1-1-.5-1.5-1.1-1.5-.2 0 0 .4.2.8.6.9.7 1.5.2 1.2-.2-.2-.3-.1-.3.1s.2.4.5.4.5-.3.4-1zm.2-2.6c0-.3-.2-.5-.4-.4-.3.1-.4.3-.3.5 0 .1 0 .3-.3.4-.2.1 0 .2.3.2.4 0 .7-.3.7-.7zm-12.8 17.5c0-.8 0-1 .2-.6v1.4c-.1.4-.2 0-.2-.8zm.3-12.5c0-.9.1-2.2.3-3 .3-1.3.3-1.2.3 1a9 9 0 0 1-.3 3c-.2.4-.3.1-.3-1zm7-12c0-.2.2-.4.3-.5.2-.1.3 0 .3.3s-.1.6-.3.6c-.1 0-.3-.2-.3-.4zm-22-20.4c0-.2 0-.6.3-1 .5-.6.5-.6.5.3 0 1-.4 1.3-.8.7z" style="fill:#3a97a3;stroke-width:.352778" transform="translate(-44.5 -173.2)"/>
  <path d="M86.9 239.8c.1-3.6.4-5.5 1-5 .6.6.8.4 1.7-2.4 1-3 1.2-4 1.5-6.1a1516.8 1516.8 0 0 1 1.2-9.6 44.7 44.7 0 0 1 2.9-13c-.2 0-.3-.2-.2-.5.2-.4.3-.5.5 0 .2.2.3.2.3 0 0 0 .3 0 .6.3.4.2.5.3.4 0-.1-.2 0-.5.2-.8.5-.3.5-.3.4.3-.2.5 0 .8.3.8.7 0 .8.3.2 1-.4.4-.4.4.2 0 .5-.4.7-.4 1.2.2.6.6.6.6-.1.2-.7-.5-.7-.5 0 .2.3.5.7.7 1 .6 0 0 .2 0 .2.2s-.2.4-.4.4c-.3 0-.2.2.2.4.3.2.5.5.4.7-.1.1 0 .3.1.3.2 0 .5-1.6.8-3.6.5-4.7 1.2-7.4 1.7-7.6.3-.1.3.2.2.8l-3 26.9c0 1 .8.2 1.5-1.5.3-1 1-2 1.3-2.4.4-.3.9-1 1-1.4.4-.8.4-.8.4.3l-.5 4.5-.5 3.6-2 1.8c-1 1-2.1 1.9-2.4 1.8-.2-.1-.4-.7-.4-1.3 0-1-.1-1.3-2.6-2.5-2.1-1.1-2.7-1.3-3-1l-.6 6-.3 5.4-2.4 2.2a13 13 0 0 1-2.7 2.2c-.2 0-.3-.8-.3-2.4zm12.2-13.4c.4-2 .3-4.4 0-4.1-.3.1-.4.7-.4 1.2 0 .7-.2 1-.5 1s-.7.5-1 1c-.4.8-.4 1 .4 1.6 1.2.9 1.3.8 1.5-.7zm.6-5c0-.2-.1-.4-.3-.4-.2 0-.4.2-.4.4s.2.4.4.4.3-.2.3-.4zm.5-6.7c.2-.2 0-.4-.1-.4-.2 0-.4.2-.4.4s0 .4.2.4l.3-.4zm.2-1.6c-.2-.1-.4 0-.5.4-.2.5-.1.6.2.2.3-.2.4-.5.3-.6zm0-1.5c-.1-1-.5-1.5-1.1-1.5-.2 0 0 .4.2.8.6.9.7 1.5.2 1.2-.2-.2-.3-.1-.3.1s.2.4.5.4.5-.3.4-1zm.2-2.6c0-.3-.2-.5-.4-.4-.3.1-.4.3-.3.5 0 .1 0 .3-.3.4-.2.1 0 .2.3.2.4 0 .7-.3.7-.7zm-12.8 17.5c0-.8 0-1 .2-.6v1.4c-.1.4-.2 0-.2-.8zm7.3-24.5c0-.2.2-.4.3-.5.2-.1.3 0 .3.3s-.1.6-.3.6c-.1 0-.3-.2-.3-.4zm-22-20.4c0-.2 0-.6.3-1 .5-.6.5-.6.5.3 0 1-.4 1.3-.8.7z" style="fill:#4d8b97;stroke-width:.352778" transform="translate(-44.5 -173.2)"/>
  <path d="M87.1 239.3c.2-3.6.4-4 1.5-3.9.7.2.8 0 1.4-2.2.9-4.1 1.4-7.7 2.3-16.8.6-6.2 2-11.2 2.8-10.7.4.2 1.4 3.3 1.6 4.8 0 .7.2 1.5.4 1.8.1.4 0 .6-.2.6-.3 0-.3.2 0 .7.2.3.2 1 0 1.4 0 .6 0 .8.3.6.5-.3.3.9-.3 1.3-.5.3-.4.3 0 .2.5-.2.6 0 .5 1.4-.1 1-.4 1.8-.6 2-.3.3-.3.2 0-.1.1-.4 0-.4-.2-.3-.3.2-.4.5-.3.8v.7c-.2 0-.3.6-.2 1.1.1.7 0 .9-.2.5-.3-.4-.5-.3-1 .3-.5.4-.8.8-.8 1 0 .1.7.8 1.6 1.4 2 1.6 1.8 1.9-.4.5-1-.6-1.8-1-2-.8-.1.1-.4 3-.6 6.2l-.4 6-2.4 2.2a15.3 15.3 0 0 1-2.7 2.2c-.1 0-.2-1.2 0-2.9zm12.1-9.1c.2-1 0-1.2-.8-2-.7-.6-.8-.7-.2-.5.7.4.8.3 1-1.8.2-1.7.3-2 .5-1.3.2.5.3.6.3.4 0-.4.2-.3.6.1.8.7 1 .5 2-2.3l1-2.5c.2 0 .5-.5.7-1 .4-1.2.4-.5-.2 4.2l-.5 4-2 2a9 9 0 0 1-2.2 1.8c-.2 0-.3-.5-.2-1.1zm-2.8-8c-.1-.2 0-.3.3-.3s.4.1.3.3l-.3.3-.3-.3zm3.4-1.3c0-.8 0-1 .2-.6v1.4c-.1.3-.2 0-.2-.8zm.3-2.1.4-4.6c.3-3.2.5-3.7.7-2.7V210c0-1.7 0-2.7.2-2.6.2.1.2-.2.2-.7-.2-1.7.7-7.3 1.3-7.5.3 0 .4.2.2 1l-1 8.5c-.5 4.4-.9 6.7-1 5.8 0-1.1-.2-.8-.5 1.8-.2 1.7-.5 2.8-.5 2.5zm1.6-10.5c0-.3-.2 0-.2.4 0 .5.1.7.2.4.1-.2.1-.6 0-.8z" style="fill:#398993;stroke-width:.352778" transform="translate(-44.5 -173.2)"/>
  <path d="M87 240.4c0-2.6.4-4.7.7-4.1.5.7 1.7-.6 2-2 .1-.7.4-1.4.7-1.6.3-.3.5-.7.5-1 0-.4.1-.8.3-1 .4-.2 1.4-3.8 1.7-6.2 0-1.1.4-2 .6-2 .2 0 .2-.1 0-.4-.3-.3-.3-.9-.1-1.7l.5-4.6a63.3 63.3 0 0 1 .5-6.4c0-1 .3-.8.5.5.1.6.4 1.1.6 1.2.2 0 .2.4 0 .7-.4.9.2 2.3.9 2 .3 0 .4 0 .3.2-.1.2 0 .3.1.3.2 0 .3.4.2.8-.1.5 0 .7.2.5.5-.3.3.9-.3 1.3-.5.3-.4.3 0 .2.5-.2.6 0 .5 1.4-.1 1-.4 1.8-.6 2-.3.3-.3.2 0-.1.1-.4 0-.4-.2-.3-.3.2-.4.5-.3.8v.7c-.2 0-.3.6-.2 1.1.1.7 0 .9-.2.5-.3-.4-.5-.3-1 .3-.5.4-.8.8-.8 1 0 .1.7.8 1.6 1.4 2.1 1.6 1.8 1.8-.5.4l-2-1-.5 6.4-.4 6.1-2.4 2.2a17.3 17.3 0 0 1-2.6 2.2c-.2 0-.3-.8-.3-1.8zm12.2-10.2c.2-1 0-1.2-.8-2-.7-.6-.8-.7-.2-.5.7.4.8.3 1-1.8.2-1.2.4-1.8.4-1.4.1.7.2.8.5.4.2-.4.3-.3.3.3 0 1.2 1 1 1.4-.4.2-.6.9-1.7 1.5-2.4l1-1.2-.2 2.3c-.3 3.9-.5 4.1-2.5 6-1 1-2 1.8-2.3 1.8-.1 0-.2-.5 0-1.1zm-2.8-8c-.1-.2 0-.3.3-.3s.4.1.3.3l-.3.3-.3-.3zm3.4-1.3c0-.8 0-1 .2-.6v1.4c-.1.3-.2 0-.2-.8zm.3-2.7a46.2 46.2 0 0 1 1-6.7 46.2 46.2 0 0 1-1 6.7zm-4.3-5.5c-.5-.6-.4-.6.1-.2.4.3.6.6.6.7 0 .2-.3 0-.7-.5zm5.4-4.2c0-.8 0-1 .2-.6v1.4c-.1.4-.2 0-.2-.8zm.3-3.5c0-.4.1-.5.2-.2v.6c-.1.1-.2 0-.2-.4z" style="fill:#457c89;stroke-width:.352778" transform="translate(-44.5 -173.2)"/>
  <path d="M87.4 239.8c0-2.1 0-2.6.7-3.2.5-.4 1-.7 1.4-.7.4 0 .6-.7 1-2.4.2-1.3.6-2.5.7-2.7.5-.6 1.1-2.9 1.6-5.8.6-3 .6-3-.2 6.8-.2 3.3-.6 6.2-.8 6.5a33 33 0 0 1-2.4 2.2l-2 1.8zm12-9.8.5-3c.2-1 .4-1.6.5-1.4.2.3.7.4 1.1.3.7 0 1-.4 1.3-1.8.4-1.7 1.5-3.3 1.5-2.2l-.4 3.1c-.4 2.7-.8 3.3-3.3 5.3l-1.3 1.1zm-6.1-8c-.1-.2 0-.9 0-1.6.2-.7.5-2.8.6-4.6a63.3 63.3 0 0 1 .5-6.4c0-1 .3-.8.5.5.1.6.4 1.1.5 1.3.2 0 .3.4.1.6-.2.3 0 1.2.2 2l.2 1.4c-.2 0-.3.2-.4.6 0 1.3-.2 2.2-.5 2.5-.3.2-.2.3.1.3.5 0 .5 0 0 .3-.4.3-.4.4 0 .4s.4 0 0 .4c-.4.2-.7.6-.7.9 0 .3.2.4.5.2.2-.1.3 0 .1.1l-.6.4h-.7c-.2 0-.3.3-.2.5.3.3.1.4-.2.1z" style="fill:#387a88;stroke-width:.352778" transform="translate(-44.5 -173.2)"/>
  <path d="M87.4 242a14 14 0 0 1 2-4.7 11 11 0 0 0 1.5-2.5l1-3 .7-1.8-.2 4c0 2-.3 4-.5 4.3-.7.8-4.5 4-4.5 3.7zm12.3-11.7c0-1.1 1-2.9 2.2-3.7.6-.4 1.3-1.2 1.6-1.7.4-.8.5-.8.3 1-.3 1.8-.7 2.4-2.8 4-1.1 1-1.3 1-1.3.4z" style="fill:#2b666f;stroke-width:.352778" transform="translate(-44.5 -173.2)"/>
</svg>