<svg xmlns="http://www.w3.org/2000/svg" width="277.3" height="277.3" viewBox="0 0 73.4 73.4">
  <path d="M44.6 212.4v-36.7H118V249H44.6Zm38.7 27.3a59.5 59.5 0 0 0 25.4-11.3c5-4.2 5.4-10.5 1.2-16.8l-1.4-2 1-.6c2-1 5.2-4 6.4-6 1-1.7 1.1-2.2 1-3.6-.3-2.6-1.5-5-4-7.3a17.6 17.6 0 0 0-13.4-5 64 64 0 0 0-17.6 3.3 24.5 24.5 0 0 0-9.3 4.8l-.9 1.1-1.5-.8c-2.2-1-4.2-1.3-8-.8-2.4.3-3.6.6-5.2 1.5a10.4 10.4 0 0 0-4.6 4.8l-1.3 1.8c-.2 0 .7-1.8 1.3-2.8 1.2-1.8 1.2-1.9 0-1.1-1.8 1.4-3.6 4.4-5.6 9.7l-.4 1.1.2-1.2.7-2.5c.3-.6.5-1.2.4-1.3-.3-.3-1.7 4-2.1 7-1 6.3 1 14.3 4.5 17.6 3.4 3.1 7.7 2.5 14.2-2l2.2-1.4-.7 1.8c-2.4 5.3-2.3 10 .2 11.7 2 1.3 3.4 1.6 8.3 1.4 3.2-.1 6.1-.5 9-1zm-5.1-27.9a10 10 0 0 0 1.4-4.5v-1l1.5.9c.9.4 1.6.9 1.6 1 0 .2-.4.5-1 .7-.4.2-1.6 1-2.5 2l-1 1zm8-4.1c0-.2 1.1-.8 2.3-1.4 2-1 2.5-1.1 6-1.2l4-.1-3.9.3c-3.3.2-4 .4-6.2 1.5l-2.2.9zm18.4-19.6h.6c.1.2 0 .3-.4.2-.4 0-.5 0-.2-.2zm-1.8-.3c.2-.1.6-.1.8 0 .3 0 0 .2-.4.2-.5 0-.7-.1-.4-.2zm-3-.4h1.2c.3.1 0 .2-.6.2-.7 0-1-.1-.6-.2z" style="fill:#fefefe;stroke-width:.352778" transform="translate(-44.6 -175.7)"/>
  <path d="M75 219.8a48.8 48.8 0 0 1 11-12.1c-.2.4-.1.4.5 0 .4-.2.6-.6.5-.7 0-.2.1-.2.4 0 .5.1.6 0 .4-.2-.2-.3 0-.4.4-.2s.5.1.3-.2c-.2-.3 0-.3.4-.2.3.2.5.1.4 0-.3-.4-.2-.4 4.5-.7 2.4-.1 2.8-.1 1.8.2-2.9.7-7.3 3.6-11.9 7.9-4.3 4-7.2 6.4-8.4 7l-1.2.6.8-1.4zM46 218c0-1 0-1-.3-.1 0 .5-.2-1.1-.1-3.5 0-4.4.8-8 1.9-9.6.3-.4.3-.4.1.2a25 25 0 0 0-1.2 4.2l.7-1.4c1-2.6 2.3-5.5 3-6.3.3-.4.2 0-.3 1.1a29 29 0 0 0-2.5 10.5c-.2 4-.5 5.9-1 5.9-.1 0-.3-.5-.3-1zm28.3-2.6c1-1.2 2.2-2.3 2.6-2.5a39.1 39.1 0 0 1-4.3 4.7l1.7-2.2zm-29.2-.7c0-.5 0-.7.1-.4v.9l-.1-.5zm4.7-2.4c-.6-1 .5-9.6 1.2-9.6.5 0 1.5-2 1.2-2.5-.1-.2 0-.3.2-.2.3 0 .5-.1.6-.3.2-.6-.8-.4-1.7.4l-.8.7.8-1c.4-.5 1-.8 1.4-.8.8.1 1.5-.5 1.2-1-.1-.2 0-.2.2 0 .2 0 .4 0 .4-.2s.4-.5.8-.7a60.3 60.3 0 0 0-4.9 14.1c-.2 1-.4 1.4-.6 1.1zm5.7-1.3c0-.4 0-1.7.3-3 .3-1.2.4-2.8.3-3.5-.3-2 1.4-6.9 3-8.5 1-1.1 1.5-1.3 3.4-1.5H64c-1.7.6-2.6 2.4-5.6 10.4-2.6 6.8-2.7 7-2.9 6zm24.2-.7c.3-.3.6-.5.7-.4l.7-.6c.3-.4.6-.6.6-.4 0 .1.3 0 .7-.4.4-.3.7-.4.7-.3a14 14 0 0 1-3.7 2.6c-.1 0 0-.2.3-.5zm4.5-2.8.5-.3c.3-.1.5 0 .3.1-.2.4-.8.5-.8.2zm14.3-2.3c-.1-.1.2-.2.7 0l.8.2c0 .3-1.3.1-1.5-.2zm-1.3-9-6.4-.3c-6.7-.3-7.2-.4-7.5-1.1-.1-.4.6-.5 2.9-.7 3.2-.3 13 0 14.6.4 1 .2 1.4.8.5.8l-1.5.5c-1 .5-2.3.7-2.6.4zM72.9 195c.4-.5.9-.9 1-.9l-.7.9c-.4.5-.9.9-1 .9l.7-1zm7.8-3.2c.4-.3 5-1.6 9-2.3 5.3-1 10.8-1 13.9 0 3.3 1.1 3.5 1.3 1.7 1.8-1 .3-2 .3-3.7 0a42 42 0 0 0-5.5-.4c-1.8 0-4.2-.1-5.2-.3-1.5-.2-3 0-6 .6-4.6.9-4.5.9-4.2.6zm26.3-2.4c-.5-.2-1-.5-1-.7 0-.2 2 .6 2.5 1 .2.3-.5.1-1.5-.3zm-21.5-.1h.7c.1.1-.1.2-.5.2s-.5-.1-.2-.2zm1.4-.4h.7c.1.2-.1.3-.5.2-.4 0-.5 0-.2-.2zm1.4-.3h.9c.2 0 0 .2-.5.2-.4 0-.6-.1-.4-.2zm16.8-.1.4-.4.2.4c0 .2-.2.3-.4.3s-.3-.1-.2-.3zm-14.7-.3h.9c.2.1 0 .2-.4.2-.5 0-.7 0-.5-.2zm13.2.1.5-.5c.4-.4.5-.4.3 0-.2.6-.8 1-.8.5zm-10.9-.4H94c.4 0 .1.1-.6.1s-1 0-.6-.1zm9-.1c-.2-.3-1.3-.4-3-.2-1.8 0-2.5 0-2-.2 1-.5 6.2-.4 6 0-.1.7-.8.8-1 .4z" style="fill:#e3dbcb;stroke-width:.352778" transform="translate(-44.6 -175.7)"/>
  <path d="M51.1 229.8c0-.3.1-.4.3-.3.2.1.2.3.1.5-.3.5-.4.4-.4-.2zm-2.4-2.3c-.1-.2 0-.3.2-.3s.3.1.3.3l-.1.4-.4-.4zm27.2-7.1c.8-.5 4.5-3.6 8-6.8 2.8-2.7 7-5.9 9-6.9 1.6-.8 6.2-1.9 5.9-1.4-.1.2-.6.4-1 .4-2 0-7 3.2-13 8.5a35.3 35.3 0 0 1-7.5 5.5c-.7.6-1.5 1.1-1.7 1.1-.3 0-.1-.2.3-.4zm-30.2-.4c0-.3.2-.7.5-.9.4-.1.7-1.1.9-2.4.3-1.9.3-2 .3-.6 0 .9-.2 2.2-.5 3-.6 1.4-1.2 1.8-1.2.9zm26.1-1.2c0-.2.6-1 1.4-1.7.8-.7 1.3-1.5 1.2-1.7-.1-.2 0-.2.1-.1.4.2 2.6-1.8 2.6-2.4 0-.2.2-.4.5-.4s-.8 1.4-2.5 3.2c-3 3.4-3.3 3.6-3.3 3zm-26.2-1.3a3 3 0 0 1-.2-1c0-.3.1 0 .3.4l.2 1s-.2-.1-.3-.4zm3.8-4.6a8 8 0 0 1 0-2.2v-1.3l.1 1.4c0 .8.2 1.6.4 1.7.5.3.5 1.3 0 1.3-.1 0-.4-.4-.5-.9zm5.5-1.3c0-.9.2-3 .5-4.9.3-2.9.4-3.2.7-2.1.1.7 0 2.2-.3 3.5a8.8 8.8 0 0 0-.2 3c.2.7.2.7.5-.1.1-.4.3-.7.4-.7.3.3-1 2.8-1.3 2.8-.2 0-.3-.7-.3-1.5zm-4.6.2c0-.4.1-.5.2-.2v.7c-.1 0-.2-.1-.2-.5zm28.4-.2c0-.3 0-.6.2-.6.7 0 1-.1.8-.4 0-.2 0-.4.1-.3.7 0 1.2 0 1-.4v-.3c.7 0 1.3 0 1.1-.4-.1-.1 0-.3.3-.3l.5.1-2 1.7c-1.6 1.3-2 1.5-2 1zm-28-1.7c0-.5 0-.7.2-.5v1c-.1.2-.2 0-.2-.5zm-1-2.3c0-.8 0-1 .1-.6v1.4l-.1-.8zm44.8-2.9h1.2c.3 0 0 .2-.6.2-.7 0-1-.1-.6-.2zm4.4-8.3 1.3-.7c.2-.2.6-.3 1-.3.3 0 .6-.2.7-.4 0-.2.4-.3.9-.1.9.3.7.9-.3.9-.3 0-.8.2-1 .5-.3.3-1 .5-2.1.5h-1.7zm-37 0 .6-.7c.6-.4.6-.4.2.2-.5.5-.8.7-.8.4zm22-.2c-1.8-.2-2.6-.4-2.6-1 0-.8 1.4-1 2.2-.2.6.6 1.1.8 3.2.8 1.4 0 2.4 0 2.2.1-.6.2-3.8.4-5 .3zm8.5 0h3.3c1 0 .2.2-1.7.2-1.8 0-2.6-.1-1.6-.2zm8.3-1.7h.6c.2.1 0 .2-.4.2s-.5-.1-.2-.2zm-16.1-.4h1c.3.1 0 .2-.6.2-.5 0-.7 0-.4-.2zm13.4 0h1c.3.1 0 .2-.6.2-.5 0-.7 0-.4-.2zm-6.2-.3a5 5 0 0 1 1.6 0c.5 0 .1.1-.8.1-.8 0-1.2 0-.8-.1zm12.9-2.4 2-.7c.1-.1.5 0 .7.3.4.4.4.5-.2.5l-2.4.2-1.8.2zm-21.3-.1h.7c0 .1-.1.2-.5.2s-.5 0-.2-.2zm17.8 0h1c.3.1 0 .2-.6.2s-.8-.1-.4-.2zm-16-.4h.6c.1.2 0 .3-.4.3s-.5-.1-.3-.3zm5 0-1.4-.6h.6c.5.2 3.2.4 6 .5l5.2.3H96c-2.5 0-5.1-.1-5.8-.3zm13.4-3.2c-.9-.3-.9-.3-.1-.4.4 0 .8.2 1 .4v.3l-1-.3z" style="fill:#d9d4c9;stroke-width:.352778" transform="translate(-44.6 -175.7)"/>
  <path d="M70 226.6a40.7 40.7 0 0 1 7-10l-.8 1c-1 1.3-2 3.2-1.8 3.4.3.3 2-.5 3.2-1.4.5-.5 1.7-1.3 2.5-1.7.8-.4 2.7-1.8 4.2-3.2a83.7 83.7 0 0 1 6.2-5 691 691 0 0 0-10.3 8.9 43.4 43.4 0 0 0-8.7 8.1c-3.4 4.5-3.7 4.5-1.5-.1zm-20.2 1.7-.7-1 1 .9c1 .9 1 1 .6 1l-1-.9zm-2.4-3.5c-1.2-3-1.4-4-.7-5.2.4-.8.6-2.3.8-5.5l.2-4.4v5.5l-.4 6.5c-.1.7 0 1.7.3 2.6.7 2 .5 2.3-.2.5zm19.7 1c-.1-.2 0-.5.1-.6.6-.3.8 0 .4.5-.2.3-.4.4-.5.1zm1.2-2c0-.3.2-.7.5-1 .3-.3.5-.7.5-.9 0-.2.2-.4.5-.4.2 0 .3 0 .1-.2-.1-.1.1-.5.5-.7.4-.3.6-.7.5-1-.2-.1 0-.2.1 0h.5c0-.2.4-.7 1-1a60.2 60.2 0 0 0-3 4c-1 1.4-1.2 1.6-1.2 1.1zm-22.5-5.1c0-.5 0-.7.1-.4.1.2.1.6 0 .8l-.1-.4zm41.2-2c0-1.5 9.7-8.7 12.3-9.1l1.3-.2-1 .6-3.4 2.8c-4.6 3.6-9.2 6.5-9.2 5.9zm-41.6-1.5c0-.7.1-1 .2-.6v1.2c0 .3-.2 0-.2-.6zm30.5-.3c1.4-1.6 4-3.8 4-3.5a30.5 30.5 0 0 1-4 3.5zm2.3.1c.6-.7 1.2-1.2 1.3-1.2l-1 1.2a5 5 0 0 1-1.4 1.2l1-1.2zm-29.2.2c-.3-.5-.2-4.8.2-6.7.3-1.3.3-1 .1 1-.1 2.8 0 4.3.6 4.3.2 0 .6-1.5 1-3.2.2-1.8.6-3.6.8-4a129.3 129.3 0 0 0-.4 3.8c-.6 4.3-1.4 6-2.3 4.8zm5.4-2.8c-.1-1.4 0-3 .5-5 .4-1.6.6-2.3.5-1.6l-.4 4.4c-.2 2.7-.2 3 .3 2.8.7-.3.8-.2.3.8-.6 1.1-1 .8-1.2-1.4zm27.1-1.1 2.3-2.1s-.8 1-2 2a20.8 20.8 0 0 1-2.2 2.2c-.1 0 .8-1 2-2.1zm-.7-.7.8-.7c.1 0 0 .3-.4.7l-.9.7.5-.7zm-33-1.8c0-.5.2-.7.3-.4v.9c-.1.2-.2 0-.2-.5zm.4-1.6c0-.4.1-.5.2-.2v.7c-.1 0-.2-.1-.2-.5zm.4-1.2.3-1.2c.2-.5.3-.5.3-.2l-.3 1.2c-.2.5-.3.5-.3.2zm3.5-.7.3-1.2c.2-.5.3-.5.3-.2l-.3 1.2c-.2.5-.3.5-.3.2zm6.7-.9.3-.9c.2-.3.4-.3.4-.1l-.4.8c-.2.3-.3.4-.3.2zm-3.2-1.4c0-.4.1-.5.2-.2v.6c-.1.2-.2 0-.2-.4zm4-.9c.6-1.7 2.6-5.8 3.4-6.6 1.3-1.4 1.2-.6 0 1-.7.9-1.7 2.6-2.3 3.9-1 2.4-1.5 3.1-1 1.7zm28.6-1.2-2.8-.4 2-.3h3.4l1.8.4 1 .2 1.1.4c1 .3-3.7.1-6.5-.3zm-32.4-3.7c.3-.4.7-.7.8-.7l-.5.7c-.3.4-.7.7-.8.7l.5-.7zm16.8-.3c-.3-.2-.5-.5-.4-.7 0-.3.3-.1.6.3.5.8.5.8-.2.4zm28.7-.4c.3-.4.9-.7 1.2-.7.8 0 1.2-.6.6-.9-.8-.3.4-.2 1.3.2 1.4.5 1.1 1-.4 1-1 0-1.5.2-1.6.6-.1.2-.6.5-1 .5-.7 0-.8 0-.1-.7zm-42.7-.4.8-.8-.6 1-.9.7zm36.4.5h2.1l-1.1.1c-1.2 0-1.6 0-1-.1zm-14.2-.4-1.5-.3c-.4 0-.8-.3-.8-.4 0-.3 3.2-1.2 3.5-1 0 .1 0 .2-.3.2-.2 0-.4.2-.4.5 0 .6.6.8 2.7 1 .6.1.2.2-.7.2-1 0-2.1 0-2.5-.2zm5.7 0h2.3c.7.1.1.2-1.1.2-1.3 0-1.8-.1-1.2-.2zm-12.8-1.4c0-.8 2.4-2 4-2.2.3 0 .4-.2.3-.4-.1-.2 0-.2.4 0 .3 0 .5 0 .4-.2-.2-.2.3-.3 1.2-.2l5-.6c3.2-.6 4-.7 5.6-.3l1.8.5H91c-1 .1-3.5.5-5.7 1-6.4 1.3-7 1.4-6.8.7.2-.5 0-.4-1.7.2l-2 .7c-.2 0 0 .1.2.3.3.2.2.4-.4.7-.6.3-.8.2-.8-.2zm28-.3h.7c.1.1 0 .2-.5.2-.4 0-.5-.1-.2-.2zm-18.9-.4H84c.2.1 0 .2-.6.2s-.8 0-.5-.2zm16.8 0h.9c.2.1 0 .2-.5.2s-.7 0-.4-.2zm-13.7-.5a50 50 0 0 1 9.9 0c1.5.2-.2.3-4.6.3-4.3 0-6.3-.1-5.3-.3zm16.4-1.7c-1-.3-.9-.3.4-.2.8.1 2.2 0 3.2 0 1.7-.2 1.8-.3 1.5-.8-.4-.5-.4-.5.1-.1 1.2 1 .7 1.3-1.7 1.3-1.3 0-2.9 0-3.5-.2zm-3.8-.6a5 5 0 0 1 1.6 0c.5 0 .1.1-.8.1-.8 0-1.2 0-.8-.1zm10.2-1.2c-.6-.2-.6-.3-.1-.3.3 0 .7.1.8.3.2.4.2.4-.7 0zm-14.4-1.6h.7c.1.1 0 .2-.5.2-.4 0-.5-.1-.2-.2zm10.8-.5c-.5-.2-.5-.3 0-.3.3 0 .6.1.8.3.2.4.2.4-.8 0zm-10.4-.2h.7c0 .1-.1.2-.5.2s-.5-.1-.2-.2z" style="fill:#d3c8b3;stroke-width:.352778" transform="translate(-44.6 -175.7)"/>
  <path d="M64.3 235.6c.2-.6.3-.6.5-.3s.3-.4.3-1.8c0-2.4.5-4.6 1.1-4.6.2 0 .3-.1.1-.3-.3-.5.2-1.8.6-1.6.2.1.3 0 .3-.2s-.1-.3-.4-.3c-.2 0-.2-.2-.1-.4s.3-.3.5-.2c.4.3 1.1-1.5.9-2-.2-.2-.1-.3.1-.1.2 0 .7-.3 1-1 .5-.6 1.2-1.5 1.8-2l1-.9-1 1.3c-1.3 1.8-2.4 4.2-2.1 4.6.1.3 0 .3-.2.2-.2-.2-.4-.1-.5 0 0 .7-.1 1-.7 2.3-.4.8-.8 2-1 2.9-.9 3.4-1.2 4.3-1.5 4.7-.5.7-1 .5-.7-.3zm3-4.6c.1-.5.9-2.1 1.8-3.6a21 21 0 0 0 1.7-3c0-.2.1-.5.3-.6.4-.2.3 0-1.4 3.5l-1 2.6c.1 0 1-.8 2-2 2-3 5.8-6.6 8-8.1l1.8-1.2-2.5 2.5a11.1 11.1 0 0 1-2.7 2.3c-.1 0-.9.6-1.6 1.5l-3.9 4.4c-2.2 2.2-2.5 2.5-2.4 1.7zm-19-4.4-.2-1.4c0-.4-.1-.8-.3-.7-.5.3-.8-2.8-.4-3.6.2-.4.4-2 .5-3.5v-2.8l.4 2.3c1.3 6.4 1.6 9 1 9.4-.3.1-.4.3-.3.5.1.1 0 .3-.3.3a.5.5 0 0 1-.5-.5zm25-6 .5-.5c.6-.5.6-.5.2.1-.5.6-.8.8-.8.5zm-.1-2.5c.8-1 2.7-3 4.3-4.4l3-2.6-3 3.3a29.7 29.7 0 0 1-4.7 4.4c-.6.6-.4.4.4-.7zm9-1.2c1-1 1.8-1.7 2-1.7l-1.6 1.7c-1 1-1.8 1.8-2 1.8l1.6-1.8zm3 1.2c0-.6 2-2.6 4.5-4.6 2.6-2.2 2.1-1.6-1.2 1.3-.8.7-1.5 1.5-1.5 1.7 0 .9 3.6-1.4 10.3-6.6 2-1.5 2.9-2.4 2.6-2.6-.2-.1.2-.2 1-.2 1.3 0 1.3 0 .6.4l-.8.6a76.3 76.3 0 0 0-8.4 6c-3.1 2.5-7 4.7-7 4zm-36-1.5c-.4-.5-.7-1.6-.6-2.4V213l.2 1.2c.3 1.7 1.3 1.9 1.7.4.1-.6.3-1 .4-1 .1.2-.9 4.1-1 4.1l-.8-1zm26.8.6.7-.7c.5-.4.5-.4 0 .2-.4.6-.7.7-.7.5zm-21.6-2L54 213c-.1-1.5 0-2 .1-1.4.2.4.4 1.2.4 1.9 0 .9.1 1.1.6 1 .2-.2.5-.1.5 0 0 .5-1 1.2-1.2.9zm24.1-1 1-.8-.6.9-1 .9.6-1zm7.4-.6 1-.9-.6.9-1 .9.6-1zm-34.8-1.2c0-.5 0-.7.1-.5v.9l-.1-.4zm-2.5-.6c0-.6 0-.8.2-.4v1c-.1.3-.2 0-.2-.6zm39.6-.2.8-.7c.1 0 0 .4-.4.7l-.8.8c-.1 0 0-.4.4-.8zm5.3-1.1c1-.8 4.1-2.8 3.7-2.3a31.4 31.4 0 0 1-3.7 2.3zm-45.7-.5c0-.4.1-.5.3-.2v.7c-.2.1-.3-.1-.3-.5zm3.6-.5c0-.6.1-1 .2-.6v1.2c-.1.4-.2.1-.2-.6zm-2.5-.9c0-.5.1-.7.2-.4v1c0 .3-.2 0-.2-.6zm5.7-1c0-.4 0-.5.2-.3v.7c-.2.1-.3 0-.2-.4zm-2.5-1.4c0-.5 0-.5.2-.3v.7c-.2.1-.2 0-.2-.4zm7.4-2.7a18 18 0 0 1 2-4.4l-1 2.4a9 9 0 0 1-1 2zm34.4-1.7-1.5-.3H94c.7-.1 1.1-.2.8-.3l-1-.4c-1.7-.6-5.8-.8-7.8-.4-1.2.3-2.5-.1-2-.6a37 37 0 0 1 9.5 0c1.7.3 3 1.2 2.8 1.9-.1.5-.2.5-2.3 0zm-4.2-.6h.9c.2 0 0 .2-.4.2-.5 0-.7-.1-.5-.2zm-2.8-.4h.9c.2.1 0 .2-.5.2s-.7 0-.4-.2zm-25.3-2.5c0-.2.3-.5.6-.8a58 58 0 0 0-.6.9zm11.6-1.2c0-.2-.1-.2-.3-.1-.1 0-.3-.3-.3-.7 0-1 .7-1.6 3.7-2.9 1.1-.5 1.7-.8 1.2-.7-1.4.3-.4-.3 2-1.3 3.1-1.1 4.2-1.4 3.8-1-.2.2-1.4.7-2.7 1.1-1.8.6-2.3.9-2.3 1.5s.2.7 1.6.5a41.9 41.9 0 0 0-4.2 1.4c-1.7.6-2.2.7-1.4.2.3-.2.3-.4 0-.4l-.5.3c-.5.7.6.8 3.2.2 1.4-.3 2.7-.5 2.8-.3.1 0-.1.2-.5.2s-.8.1-.8.3c0 .4.9.7 2 .7.5 0 .8.2.8.4 0 .3-.5.3-1.5.1-2-.3-4-.2-5.4.4-.7.3-1.2.4-1.2.1zm26.4-.1h.9l-.5.1c-.5 0-.7 0-.4-.1zm2.8-.3c.1-.4.7-.6 1.6-.6 2.1 0 1.5-.8-1.3-1.5-1.3-.3-4.8-.8-7.7-1-3.6-.4-4.7-.6-3.2-.6 3 0 10 .9 12.2 1.6 2.3.8 2.8 1.9.8 1.9-.6 0-1.3.1-1.4.3-.4.6-1.3.4-1-.1zm-20.4-.1h.7c0 .1-.1.2-.5.2s-.5-.1-.2-.2zm4.5 0zm-21.1-2.1h.9c.2 0 0 .2-.5.2s-.7-.1-.4-.2zm18.3-.7h.7c.1.1 0 .2-.4.2-.5 0-.5-.1-.3-.2zm2.1-.4h1c.2.1 0 .2-.5.2s-.7 0-.5-.2zm-3.5-.3h.7c.1.1 0 .2-.5.2-.4 0-.5-.1-.2-.2zm1.4-.4h.7c.1.2 0 .2-.4.2-.5 0-.5 0-.3-.2zm1.8-.3h.7c.1.1-.1.2-.5.2s-.5-.1-.2-.2zm19.8-.2 1.8-.2c.8 0 .8 0 .2.2-.4.2-1.2.3-1.8.3-1 0-1 0-.2-.3zm-18-.2h.6c.2.1 0 .2-.4.2s-.5 0-.2-.2zm20.7-.5c-.1-.6 0-.6.3-.3.6.5.7 1 .2 1-.1 0-.4-.3-.5-.7zm-19.2.1H90c.2.2 0 .2-.6.2s-.8 0-.5-.2zm4.8-.3h3c.8 0 .1.1-1.5.1-1.7 0-2.3 0-1.5-.1zm16-.8c0-.2.1-.3.3-.2l.4.4-.4.1c-.2 0-.3-.1-.3-.3zm-22.8-1c-.1-.3 0-.3.3-.2.6.2.8.5.3.5-.2 0-.5-.2-.6-.4zm1.6-.4c-.3-.2-.4-.4-.2-.4l.9.4c.3.2.4.3.2.3l-1-.3zm7.3-1.3h.9c.2 0 0 .2-.4.2-.5 0-.7-.1-.5-.2z" style="fill:#c4baa5;stroke-width:.352778" transform="translate(-44.6 -175.7)"/>
  <path d="M64.3 234.3c-.2-.3-.1-.7 0-.8.2-.2.3 0 .4.6 0 1-.1 1-.4.2zm8.4-8.3.8-1c.2 0-.6 1.4-1 1.7-.2.1-.1-.2.2-.7zm1.9-2 .8-1c.3 0 .2 0 0 .6a3 3 0 0 1-.8 1c-.3.1-.3 0 0-.5zm4.6-4 1.4-1.3-1 1.2-1.4 1.3 1-1.3zm-6.4-1.1a5 5 0 0 1 1.7-1.4c.6-.2.6-.1 0 .3-.3.2-.6.6-.6.8 0 .2-.5.6-1 1l-1.1.5zm12.2-1.2 2.4-2.7-.7 1-1.5 2c0 .8 3.8-1.3 7.1-3.9a76.3 76.3 0 0 1 8.4-6c0-.2.4-.4.8-.6.8-.2.8-.2-.2-.5l-1-.2h1c1 0 1.2 0 1.2.6 0 .5-.6 1-2 1.6l-7.8 5.4a94.5 94.5 0 0 1-6.6 4.3l-1.4.5-1.3.5 1.6-2zm-36.6-.7c-.3-2-.2-2 .6-.7l.3.8c-.2 0-.4.2-.5.6 0 .6-.2.3-.4-.7zm1.2 1.2.3-1c.2-.2.4-.3.4 0l-.4.8c-.2.3-.3.4-.3.2zm34.2-2.5 1.4-1.2-1 1.2-1.4 1.2 1-1.2zm-30-1.2c-.4-2.2-.4-2.5 0-1.8.2.3.4 1 .4 1.4 0 1.2.3 1.5 1 1 .4-.4.4-.4 0 .3-.6 1.3-1 1-1.4-1zm36-1.5 2.6-2.2c1.6-1 .8-.2-1.9 1.9-1.9 1.5-2 1.5-.7.3zm-3 0 .8-.6c.1 0 0 .3-.4.7l-.9.7.5-.7zm2.3-1.9 1-.9-.7 1-1 .8.7-.9zm-37.7 0c0-.4 0-.5.2-.2v.7c-.2 0-.2-.1-.2-.5zm2.4-.7c0-.4.1-.5.3-.2v.6c-.2.2-.3 0-.3-.4zm37.2-.9.9-.7-.5.7-.8.7c-.1 0 0-.3.4-.7zm-36.8-.9c0-.4.1-.5.2-.2v.7c-.1.1-.2-.1-.2-.5zm38 0 .7-.5c.5-.5.6-.5.1.1-.4.6-.7.8-.7.5zm6.7-1.4h.7c.1.1-.1.2-.5.2s-.5-.1-.2-.2zm-12.8-.6c.1-.1.4-.2.6 0 .4.2.4.3-.2.3-.3 0-.5 0-.4-.3zM55 205.1c0-.4.1-.5.2-.2v.7c-.1 0-.2-.1-.2-.5zm3.9.4c0-.2.3-1 .7-1.6.3-.7.6-1 .6-.9l-.6 1.6c-.4.7-.7 1-.7.9zm-3.5-2.2c0-.4 0-.5.2-.2v.7c-.2.1-.3-.1-.2-.5zm39-1.4h.7c.1.1 0 .2-.5.2-.4 0-.5-.1-.2-.2zm2-.2c.2-.7-1.2-1.6-3-2-2-.3-9-.3-9.4 0-.1.2 0 .5.3.7.7.5-2 .1-3.6-.5l-1.2-.5 2-.4a19 19 0 0 1 4.8-.2c5.2.4 9.8 1 10.4 1.3.8.4.8 2 0 2-.3 0-.4-.2-.4-.4zm-35.8-.1.4-.9c.2-.3.3-.4.3-.2l-.3 1c-.2.2-.4.3-.4 0zm30.8 0c.4-.2.8-.2 1 0l-.6.1c-.5 0-.7 0-.4-.2zm-3-.4h.9c.2 0 0 .2-.5.2-.4 0-.6-.1-.4-.2zm-2.8-.4h.9c.2.1 0 .2-.5.2s-.7 0-.4-.2zm17.9-4c.1-.2.7-.3 1.4-.3.9 0 1.2-.2 1.2-.6 0-.5.1-.5.6-.1.7.6.3.9-1.8 1.2-1.1.2-1.6.1-1.4-.1zm-20.4-.2h.9c.2.1 0 .2-.4.2-.5 0-.7-.1-.5-.2zm23.7-4.1c1.1-.2 2.1-.5 2.3-.8.2-.2.2-.2.1.2-.2.6-1.4 1-3 1-1 0-1-.1.6-.4zm-2.9-.1h.7c.1.1 0 .2-.4.2-.5 0-.5-.1-.3-.2z" style="fill:#b8b2a7;stroke-width:.352778" transform="translate(-44.6 -175.7)"/>
  <path d="M64.6 237c-.1-.1 0-.4.1-.5.2-.1.4 0 .4.4 0 .6-.2.7-.5.2zm-.5-2.3c0-.4 0-.5.2-.2v.7c-.2.1-.2-.1-.2-.5zm.6-.4-.1-1.7c0-.4 0-1 .2-1.3.2-.2.3.4.3 1.8 0 2.1-.3 3.1-.4 1.2zm1 .3a21.2 21.2 0 0 1 1.7-5.7c.4-1 .9-2.3 1-2.9.2-.6.4-.9.7-.7.2.1.3 0 .1-.2-.3-.5 1.3-3.6 2.6-4.8 1-1 3.2-1.6 2.5-.7-.3.3-.6.4-.7.3-.2-.2-1 .6-1 1 0 .2.1.2.4 0 .3-.1.2 0 0 .4-.6.7-1 .8-.6.2.1-.3 0-.3-.2-.2-.2.2-.4.4-.3.5.4.3-2 4.3-2.3 4-.2 0-.3 0-.1.2.1.3-.3 1.3-1 2.3l-1.1 2.7c-.1.8.2.5 2.5-1.7 1.5-1.5 3-3.3 3.6-4 .4-.8 1-1.3 1-1.2.2.2 1-.5 2-1.4 1-1-.7 1-3.9 4.1a70.1 70.1 0 0 0-7 7.8zm-.8-4.3.4-.3.2.3c0 .2-.2.4-.4.4s-.3-.2-.2-.4zm.6-.8.3-1c.2-.2.4-.3.4-.1l-.4.9c-.2.3-.3.4-.3.2zm-15.3-1.3c-.9-.9-1-1.2-.8-2.2.2-.7 0-2.6-.2-4.2a21 21 0 0 1-.2-4l.1-1 .4.8c.3.9.4.8 1-1l.5-2.5c0-.3 0-.4.2-.2.1 0 0 1.3-.4 2.6-.6 2.7-.7 5-.3 7.8.2 1.5.3 1.7.7 1.4.4-.3.5 0 .5 1.6 0 1 0 2-.2 2l-1.3-1zm16-1 .3-.6c.2 0 .3 0 .2.4-.3.6-.5.7-.5.2zm14.4-5.2a75.3 75.3 0 0 1 6-6.3l-2 2.6-1.2 1.4 1.3-.5c.7-.3 1.2-.4 1.2-.3l.8-.2c.8-.4.8-.4.1.2a9 9 0 0 1-1.8 1l-2.1 1.4a8 8 0 0 1-2.8 1.6l.5-1zm12.4-2.3c2-1.6 2.7-2 3-1.8 0 .1.2 0 .2-.2s.3-.6.7-.8c1.4-.7.3.4-2 2-2 1.5-3.6 2.2-2 .8zm-12.4-.8 1.2-1.1 1.1-1-1 1.1c-1 1-1.3 1.3-1.3 1zm-6.4-.6c.3-.4.6-.6.7-.5.1.1.4 0 .8-.2.5-.4.5-.4 0 .1-.2.4-.5.6-.6.5-.1-.1-.5 0-.8.2-.5.4-.5.4 0-.1zm13.5 0c0-.3 9.9-7.5 12-8.7 3.1-2 2.4-1.2-1.7 1.5a137.7 137.7 0 0 0-10.3 7.1zm-34-1.8-.2-2v-1.3l.4 1.5c.4 1.8.7 2 1.5.6.5-1 .6-1 .3-.1-.2.9-1.1 2-1.5 2-.2 0-.4-.3-.5-.7zm21.3.7.6-.7c.6-.4.6-.4.1.2-.4.6-.7.7-.7.5zm1.7-1.1s.3-.4.7-.6c.5-.5.5-.4.1.1-.5.6-.8.8-.8.5zM48 214.3c-.5-1.9 1.1-10.8 2-10.8.1 0 0 1-.4 2.2-.4 1.3-.7 2.7-.7 3.4 0 .6-.2 1.2-.4 1.3-.2.1-.2 1.2 0 2.5.1 2.3-.1 3-.5 1.4zm28.7.7.7-.6c.5-.4.5-.4.1.2-.5.5-.8.7-.8.4zm8.5-.3.6-.6c.6-.5.6-.5.2.1-.5.6-.8.8-.8.5zm3.4-.9c.7-.9 3.3-3 3.3-2.8a19.2 19.2 0 0 1-3.3 2.8zm-8.5-1.4c.8-.8 1.2-1.5 1-1.5l.2-.5c.3-.3.6-.5.7-.4 0 .1.4 0 .7-.2a21.8 21.8 0 0 1-3.8 4c-.1 0 .4-.7 1.2-1.4zm-28.7 0c0-.5 0-.7.2-.5v.9c-.1.2-.2 0-.2-.4zm2-.6c.1-.4.2-.5.3-.2v.7c-.1 0-.2-.1-.2-.5zm-1.6-1.7c0-.8 0-1 .2-.7v1.5c-.1.3-.2 0-.2-.8zm40.7.5c.4-.6 2.6-2 2.6-1.7l-1.5 1.2-1 .5zm3-2c0-.2 2.1-1.3 2.3-1.1 0 0-.4.4-1.1.7l-1.3.5zm7-1c0-1 1.1-1.2 2.1-.5.5.2.4.3-.2.3-.4 0-1 .3-1.2.5-.6.8-1 .7-.8-.3zm-44.4 0c0-.2.3-1 .7-1.6.3-.7.6-1 .6-.9l-.6 1.6c-.4.7-.7 1-.7.9zm41.5-.8h.7c.1.2-.1.2-.5.2s-.5 0-.2-.2zm-45-.6c0-.5 0-.5.2-.3v.7c-.2.1-.3 0-.2-.4zm32 .4.6-.4c.3-.1.4 0 .3.2-.2.3-.9.5-.9.2zm-34.2-.8c0-.4.1-.5.2-.2v.7c-.1 0-.2-.1-.2-.5zm48.3-.1c0-.2.3-.3.6-.2.3.1.5.3.5.4l-.5.1c-.3 0-.6-.2-.6-.3zm-48-1.3c.1-.4.2-.5.3-.2v.6c-.1.2-.2 0-.2-.4zm2.2-.4c0-.4.1-.5.2-.2v.7c-.1.1-.2 0-.2-.5zm-5-1.2c0-.2.2-.3.4-.1.2 0 .3.2.3.3 0 .1-.1.2-.3.2a.4.4 0 0 1-.4-.4zm46.3-.6c.8 0 1-.3 1-1 0-.4-.3-1-.6-1.2-.8-.4-.4-.4.8 0 .5.2.9.6.9.9 0 .2.3.7.8 1 .7.5.6.6-1.5.5-1.3 0-1.9-.1-1.4-.2zm-3.5-.3h1c.3 0 0 .2-.5.2-.6 0-.8-.1-.5-.2zm-3-.4h.9c.2.1 0 .2-.4.2-.5 0-.7 0-.5-.2zm-25.1-.7c-.4-1.3 1.4-4.3 2.1-3.5.3.2-1.4 4.1-1.7 4.1l-.4-.6zm22.3.4h.9c.2 0 0 .2-.5.2s-.7-.1-.4-.2zm-3-.4h1c.3.1 0 .2-.6.2-.5 0-.7 0-.4-.2zm-2-.3c.3-.1.6-.1.8 0 0 .1-.1.2-.5.2s-.5-.1-.2-.2zm-30.6-.3.6-.6c.4-.3.5-.3.3.2s-.9.8-.9.4zm29.2 0-1.5-.4c-1.3-.3-.6-.7 1.8-1l1.8-.2-1.6.4-1.6.4 1 .4c1 .4 1 .7 0 .4zm13.5-.8h.6c.2.2 0 .2-.4.2s-.5 0-.2-.2zm-2.9-.3h1l-.5.1c-.5 0-.7 0-.5-.1zm-29.2-.5c0-.2.2-.4.4-.5.2-.2.2 0 .1.3-.2.6-.5.7-.5.2zm24.8 0 1.8.1-1 .1c-1 0-1.3 0-.8-.1zm-13.1-1c0-.5 2-1.1 3.5-1.1.7 0 2.2 0 3.4.3 2 .3 1.9.3-1.5.2-2.6 0-3.8 0-4.5.4-.5.2-1 .3-1 .1zm30-.4c1.6-.2 3-.5 3.3-.7.2-.2-.2-.6-1-1-.6-.5-1-.8-.8-.8.7 0 3.4 1.9 3.1 2.2l-4 .4-3.6.2zM84 197h.9l-.5.1c-.5 0-.7 0-.4-.1zm4.7 0zm-31.1-.3.6-.6c.6-.5.6-.4.1.1-.4.6-.7.8-.7.5zm5.3 0 1.1-1.1 1.2-1-1 1c-1 1.2-1.3 1.4-1.3 1.1zm12-1.5c.7-.3 1.3-.4 1.7-.2.5.4.5.4 0 .4l-1.8.2-1.2.2zm27.8-1c.2-.2.5-.2.7 0l-.5.1c-.4 0-.5 0-.2-.2zm-23-.4h.7c.2.1 0 .2-.4.2s-.5-.1-.2-.2zm2.2-.1c-.6-.5 0-.5 1 0 .4.2.4.3.1.3l-1-.3zm19 0h.9c.2.2 0 .3-.5.3-.4 0-.6-.1-.4-.2zm-16.2-.3h.7c0 .2-.1.2-.5.2s-.5 0-.2-.2zm14 0h1.1c.4.1.1.2-.6.2s-1-.1-.6-.2zm-10.8-.3h1.4l-.8.1c-.8 0-1 0-.6-.1zm8 0h1.5l-.8.1c-.8 0-1 0-.6-.1zm10.7-.1c1.3-.5 1.9-.5 1.6 0-.1.1-.7.3-1.3.3-1.1 0-1.1 0-.3-.3zm-21.6-.3h1c.2.1 0 .2-.5.2s-.7 0-.5-.2zm23.8-.2c.1-.2.4-.4.7-.4.2 0 .5.2.6.4 0 .3-.2.5-.6.5-.5 0-.7-.2-.7-.5zm-21.6-.1h.6c.2.1 0 .2-.4.2s-.5-.1-.2-.2zm1.4-.4h.7c0 .1-.1.2-.5.2s-.5 0-.2-.2zm2.8-.4h2.3c.6.1 0 .2-1.2.2s-1.8 0-1.1-.2zm6.7 0h1.4c.3.1 0 .2-.8.2s-1 0-.6-.2zM84.8 190h.7c0 .1-.1.2-.5.2s-.5-.1-.2-.2zm1.4-.4h.7c.1.2-.1.3-.5.2-.4 0-.5 0-.2-.2zm1.2-.2 1.2-.4c.7-.1.9-.1.5.2-.5.3-2 .5-1.7.2zm3-.6c0-.2.2-.3.3-.3 0 0 .2.1.2.3 0 .2-.2.4-.4.4s-.3-.2-.2-.4zm2.2-.3c0-.2.2-.4.4-.4s.3.2.3.4-.1.3-.3.3a.4.4 0 0 1-.4-.3zm3.9-.4a6 6 0 0 1 2.3-.3c1.4 0 1.6 0 .9.3-1.4.4-3.9.4-3.2 0z" style="fill:#b1a895;stroke-width:.352778" transform="translate(-44.6 -175.7)"/>
  <path d="M66.5 233.7a26 26 0 0 1 3.8-4.4c2.4-2.3 2.6-2.5 1-.7a70 70 0 0 0-3.6 4c-2 2.6-2 2.7-1.2 1.1zm30.4.2.8-.4c.2 0 .2.2-.1.4a2 2 0 0 1-1 .3l.3-.3zm-45-4.1-.2-2.4c0-1.7 0-2-.5-1.7-1 .9-1.3-5.8-.4-9 .4-1.4.5-1.4.4-.4-.3 1.8-.3 5.2 0 5.5 0 0 .4 0 .7-.4 1.3-1.4 1.4-.6.6 5.5 0 1.1 0 1.7.2 1.7s.4.3.4.7c0 .7-.7 1-1.2.5zm23.8-2.6 1.7-2.3c1-1 2.2-2.6 2.8-3.3.5-.7 1.4-1.7 2-2.2l2.3-2.2a51.2 51.2 0 0 1 3.1-2.7 63.5 63.5 0 0 0-7.5 8.3c.2.2 1.5-.5 3-1.6.7-.6 1.5-1.1 2-1.2.8-.3.8-.3-1.8 1.6l-4.6 3.8c-2.4 2-3 2.4-3 1.8zm-3.2-6.2c1.1-1.7 2.5-3.2 2.5-2.8 0 .2-.8 1.1-1.6 2-1 1-1.3 1.4-1 .8zm6.5-.5 1.6-1.4-1.2 1.4-1.6 1.4 1.2-1.4zm12.6.3c.2-.4.5-.6.7-.5.5.3.4.4-.4.9-.7.3-.7.3-.3-.4zm2-.8.7-.6c.6-.5.6-.5.1.1-.4.6-.7.8-.7.5zm-.6-.4.6-.6c.6-.4.6-.4.1.1-.4.6-.7.8-.7.5zM53.5 218c-.2-.2-.4-1.4-.3-2.9v-2.5l.3 2.2c.1 1.3.3 2.4.4 2.5.2.1.6 0 1-.4.9-.8.9-.3 0 .8-.8.9-.8.9-1.4.3zm43-.1c.4-.4.6-.8.5-1 0 0 .6-.6 1.5-1.1 1-.5 2.2-1.4 2.9-1.8.6-.5 1.2-.8 1.3-.8a58.1 58.1 0 0 0-6.1 4.6zm-7.4-.3c0-.1 1.5-1.3 5-3.7l1.2-.8-1 1a34.4 34.4 0 0 1-5.2 3.5zm-13.2-.6.3-.7c0-.2.1-.4.3-.5 0-.1.2 0 .1.3 0 .3-.3.8-.5 1-.4.4-.5.4-.2 0zm-24.5-3c0-.5.1-.7.2-.4v1c-.1.3-.2 0-.2-.6zm4.6.4c0-.4 0-.5.2-.2v.6c-.2.1-.3 0-.2-.4zm22 0c0-.3.3-.8.7-1.2.5-.4.6-.4.3 0-.3.3-.4.6-.3.7.1.1 0 .4-.3.6-.4.3-.5.3-.5-.1zm18.2-2c1-1 3.1-2.2 3.1-2l-2 1.5c-1.1.7-1.6 1-1 .5zm-44.2-2c0-1.3.2-2.5.3-2.6.2-.3 0 3.7-.2 4.4-.2.4-.3-.3-.1-1.8zm-3.8.9c0-.5.1-.7.2-.4.1.2.1.6 0 .8 0 .3-.2 0-.2-.4zm31.7.6 1.3-1.2c.7-.5 1.2-.8 1-.5-.2.4-2.3 2-2.3 1.7zm10.7-.2c.3-.4 2.4-2 2.4-1.7l-1.3 1.1c-.7.6-1.2.8-1 .6zm-37.1-1c0-.4 0-.5.2-.2v.7c-.1.1-.2 0-.2-.5zm46.2-.6c0-.2 2.5-1.7 2.6-1.6l-1.2 1-1.4.6zm-5.3-1c0-.2.3-.4.7-.6l.7-.2-.7.5-.7.2zm8.8-1c.2-.4.9-.7 1.5-.6h1.2l-1.1.2-1.6.6c-.4.3-.5.2 0-.3zm-50.8-1.2c0-.5.1-.5.2-.3v.7c-.1.1-.2 0-.2-.4zm1.8 0c0-.5.1-.5.2-.3v.7c-.1.1-.2 0-.2-.4zm31.8 0c0-.3.2-.4.3-.3.2 0 .2.3.1.5-.3.4-.4.4-.4-.2zm15.4-.4a5 5 0 0 1 1.5 0c.5 0 .1.1-.8.1-.8 0-1.2 0-.7-.1zm-48.6-1c0-.5 0-.5.2-.3v.7c-.1.1-.2 0-.2-.5zm1.8-.6c0-.4 0-.6.2-.4v.9c-.1.2-.2 0-.2-.5zm9.3-2.3a4 4 0 0 1 0-1.9l.4-.9.3.8c0 .5.4.7.6.6.2-.1 0 .3-.3 1-.8 1.5-.8 1.5-1 .4zm-13.6 0 .3-.8c.2-.3.4-.4.4-.2l-.4.9c-.1.3-.3.3-.3.2zm48.3 0c1.1-.2 1.1-.2.4-.7-.4-.3-.7-.8-.7-1 0-.3-.4-.7-.8-1a31.2 31.2 0 0 1 3.4.4c1.3.4 1.3.5.8 1-.4.2-.5.6-.4 1 .2.4 0 .5-1.8.5-1.4 0-1.7-.1-1-.2zm-4.3-.4h.9c.2.1 0 .2-.5.2-.4 0-.6 0-.4-.2zM91 202h1c.3 0 0 .2-.6.2s-.8-.1-.4-.2zm-2.9-.4h1c.3.1 0 .2-.5.2-.6 0-.8 0-.5-.2zm-3.1-.3h1.2l-.6.1c-.7 0-1 0-.6-.1zm-2.3-.4h.7c0 .2-.1.3-.5.2-.4 0-.5 0-.2-.2zM66.3 199l.8-1.7c.2.2-1.2 3.4-1.4 3.4l.6-1.7zm12.7 1.2-1.5-.5c-.4 0 .5-.8 1-.7.4 0 .5 0 0 .3-.4.2-.2.4.6.5l1.9.6c.7.2.7.3.2.3-.4 0-1.4-.2-2.2-.5zm-14.6-.7.4-1c.1-.2.3-.3.3 0l-.3.8c-.2.3-.4.4-.4.2zm30.6 0c.3-.2.6-.2.7 0l-.5.1c-.4 0-.5 0-.2-.2zm-2.4-.4h.6c.2.1 0 .2-.4.2s-.5-.1-.2-.2zm-12.7-.4h.6c.2.2 0 .2-.4.2s-.5 0-.2-.2zm9.6 0h1.3c.3 0 0 .2-.6.2-.7 0-1-.1-.7-.2zm-6.5-.4h3c.8.1.2.2-1.5.2-1.6 0-2.3 0-1.5-.2zm-9-.7c.4-.6 2-.8 5.2-.4l3 .3h-3.5c-2 0-3.8 0-4.2.2-.5.2-.6.2-.5 0zm31.3-.2c2.1-.3 3-.5 3-.9-.1-.2 0-.3.2-.2.6.4.4 1.1-.4 1.4-.5 0-2 .2-3.3.1h-2.5zm-22.4-.2c-.4-.2.3-.2 1.8-.1 1.3 0 2.5.2 2.6.3.3.3-3.7 0-4.4-.2zm11.8 0zM64 196l1.4-1.2c.1 0-.3.6-1 1.2l-1.4 1.3 1-1.3zm12.7-1.2c.7-.4 1.6-.4 1.3 0-.1.2-.6.4-1 .4-.6 0-.7-.1-.3-.4zm1.8-.3c0-.2.3-.4.5-.4.3 0 .6.2.6.4s-.3.3-.6.3c-.2 0-.5-.1-.5-.3zm2-.3a31 31 0 0 1 7-1.4c.4.3-.3.5-3.4.9l-3.3.6c-.5.2-.6.1-.3-.1zm26.8-.7c.4 0 .9-.3 1.1-.5.3-.3.5-.2.5.2s-.4.5-1.2.5c-.7 0-.9 0-.4-.2zm2.5 0c-.7-.3-.7-.3 0-.5.5-.1 1 0 1.2.3.5.5 0 .6-1.2.1zm-11.6-.3h.9l-.5.1c-.5 0-.7 0-.4-.1zm-7.4-.4h2.4c.8 0 .3.1-1.1.1-1.4 0-2 0-1.3-.1zm-2-.4c.8-.3 3.7-.5 3.4-.3l-2.2.3c-1.3.2-1.8.1-1.3 0zm6.6-.7a5 5 0 0 1 1.5 0c.5.1.1.2-.7.2-1 0-1.3 0-.8-.2zm15.2-.4c0-.2-.2-.3-.4-.2-.3.2-.3.1-.1-.1.2-.4.3-.4.7 0 .6.4.7.6.2.6-.2 0-.4-.1-.4-.3zm-19.3-2.7h1c.3 0 0 .2-.6.1-.5 0-.7 0-.4-.1zm10.8-.2c.2-.2.5-.3.6-.2.1 0-.1.3-.4.4-.6.2-.6.2-.2-.2zm-8.2-.2a5 5 0 0 1 1.6 0c.5.1.1.2-.8.2-.8 0-1.2-.1-.8-.2zm5.4 0h.6c.2.2 0 .3-.4.2-.4 0-.5 0-.2-.2z" style="fill:#a39b89;stroke-width:.352778" transform="translate(-44.6 -175.7)"/>
  <path d="M70.8 239.9c-1.2-.3-1.1-.3.6-.3 1 0 1.7.2 1.6.3-.2.4-.5.3-2.2 0zm10.8-1.3h.7c.1.1 0 .2-.5.2-.4 0-.5-.1-.2-.2zm-16.4-.8c0-.5 0-.7.1-.5v.9l-.1-.4zm21.8-.6c.8-.2 1.6-.4 1.7-.3.3.3-.2.5-1.7.7l-1.6.2zm2.3-.5c-.1-.2 0-.4.1-.4.2 0 .4.2.4.4s0 .3-.2.3l-.3-.3zm1.2-.4c-.3-.2-.4-.3-.1-.3.2 0 .5.1.6.3.3.5.2.5-.5 0zm8.8-3.4c0-.2 1-.7 2-1.3 2.4-1.1 2.2-.8-.3.7-1 .5-1.7.8-1.7.6zM70 230c.7-.8 1.3-1.3 1.4-1.3l-1 1.2-1.4 1.3 1-1.3zm-16.9-.7c0-.3-.2-.6-.4-.6s-.3-.6-.2-1.7c.8-6.1.7-6.9-.6-5.5-.3.3-.7.5-.8.4a18 18 0 0 1 .2-6c.3-1 .4-.9.3 1 0 1.5 0 2.3.3 2.4.3.1.5-.5.7-1.8.3-2.7.5-3 .5-1.3 0 2 .8 2.6 1.8 1.5.3-.5.7-.6.7-.4l-.3.6c-.2 0-.4.9-.5 1.7a21 21 0 0 1-.8 3.2c-.8 2.5-1.2 5.3-.8 5.8.2.2.2.6.1.9 0 .2-.1.2-.2-.2zm.7-10.1c0-.5 0-.5-.3 0-.2.2-.4.7-.4 1 0 .5 0 .5.4 0 .2-.3.3-.8.3-1zm21.8 7.7c.6-.9 1.6-2 2.2-2.6.8-.7.6-.4-.5.8-.9 1-1.6 2.2-1.5 2.5 0 .3-.2.6-.6.7-.5 0-.5-.1.4-1.4zm-1.9-1 .9-.7-.5.7-.8.7c-.1 0 .1-.4.4-.7zm5.5-1 1-.8-.6.9-1 .9.6-1zm-2.3-2.2.8-.7c.1 0 0 .3-.4.7l-.8.7c-.1 0 0-.3.4-.7zm4.4.6.7-.7c.5-.4.5-.4 0 .2-.4.6-.7.7-.7.5zm-2-1c.4-.4.8-.7 1-.7l-.6.7c-.3.4-.7.7-.8.7l.5-.7zm11-.7c1.6-1.5 1.7-1.6 1.4-.9-.3.9.2.7 2.5-1 5-3.4 7.8-6 4.5-4-1.8 1-1 .4 1.7-1.6a20 20 0 0 1 6.4-3c.3 0-.2.3-1 .8-1 .5-1.7.8-1.9.7-.2 0-.4 0-.5.3-.2.2-.1.3.1.1.2-.1.4-.2.4 0l-2.6 1.9c-1.5 1-3.5 2.5-4.5 3.4-1.6 1.4-7 4.7-7.6 4.7l1.1-1.4zm12-7.9c.4-.3.6-.5.4-.5-.2 0-.9.4-1.4.9-1.1.9-.3.6 1-.4zm-.3 8 1-.4c.2 0 0 .2-.3.5l-1 .5c-.3 0-.1-.2.3-.5zm-20-2.4 1-.8-.6.8-1 1 .6-1zm10.8.2.8-.7-.4.7-.9.7.5-.7zm-6.4.1L90 217l6-4.2c3.9-2.7 2.6-1.5-2.5 2.3-3.5 2.6-8.3 5.6-7 4.4zm-11-2.2c.1-.4.4-.7.5-.7l-.2.7c-.2.4-.5.7-.6.7l.2-.7zm9.1-.5 1.2-1.1 1.1-1-1 1c-1 1.2-1.3 1.4-1.3 1.1zm-1-.3c0-.1.2-.4.6-.7.5-.4.5-.4.1.2-.5.6-.7.7-.7.5zm-6.6-1.3c.1-.2.4-.4.6-.4.2 0 .3.2.1.4 0 .2-.3.3-.5.3s-.3-.1-.2-.3zm-25-1.8.5-4c.5-4.2.9-5.8 1.2-5.3.1.3 0 1.4-.3 2.6-.3 1.1-.5 2.7-.5 3.4 0 .8-.3 2-.6 3-.4 1.3-.5 1.4-.3.3zm36.5-.2 1-.8s-.2.4-.7.8l-1 1s.2-.5.7-1zm-35.3-1c0-.5.1-.5.3-.3v.7c-.2.1-.3 0-.3-.5zm45.9-1.4c0-.1.3-.4.7-.6l.7-.2c0 .1-.3.4-.7.6l-.7.2zm-16-1.6.7-.7c.1 0 0 .3-.4.7l-.8.7c-.1 0 0-.3.4-.7zm17.7.5c0-.2 3.6-2 3.8-1.8l-1.8 1a7 7 0 0 1-2 .8zm-43-.3.5-1.3c.3-.5.5-.7.5-.5l-.5 1.2c-.2.5-.5.7-.5.6zm-3.8-1.6c0-.5 0-.7.2-.5v1c-.1.2-.2 0-.2-.5zm8.5-.6.4-1.7.4-2.5.2-1.4.4 1c.4.9.5.9 2-2.1 1.3-2.5 1.5-3 1-3.3-.3-.3-.3-.4 0-.4 1 0 .7 1.2-1.7 5.8-2.4 4.9-3 6-2.7 4.6zm37.6-.7h.6c.2.1 0 .2-.4.2s-.5-.1-.2-.2zm-45.8-.8c0-.5.1-.7.2-.5v.9c0 .2-.2 0-.2-.4zm.4-2c0-.4 0-.5.2-.2v.6c-.2.2-.3 0-.2-.4zm45.9-.8c.8 0 1-.3.8-.8-.2-.4 0-.7.4-.8.5-.2.5-.3 0-.6-.3-.3-.3-.4.3-.3.5.1.7.4.7 1.2 0 1.3-.4 1.6-2 1.5-1 0-1 0-.2-.2zm-13.6-1.4h.7c.1.2-.1.3-.5.2-.4 0-.5 0-.2-.2zm-3.5-.3c.2-.1.6-.1.8 0 .3 0 0 .2-.4.2-.5 0-.7-.1-.4-.2zm-3.9-.7h.7c.1.1-.1.2-.5.2s-.5-.1-.2-.2zm-1.9-.6c-.5-.4-.5-.5-.1-.8.3-.1.4-.1.2 0-.1.2 0 .5.5.8.5.2.7.4.5.4l-1-.4zm16-.8h.7c.1.1-.1.2-.5.2s-.5-.1-.2-.2zm-2.1-.4h.7c0 .2-.1.2-.5.2s-.5 0-.2-.2zm-11-.3h1l-.5.1c-.5 0-.7 0-.5-.1zm7.3 0H89l-.6.1c-.7 0-1 0-.6-.1zm17.3-.4c3.3-.3 3.8-.5 3.6-1.2-.1-.6 0-.6.4-.3.5.4.4.6-.3 1.1-.5.5-1.3.6-2.9.6-1.5 0-1.7-.1-.8-.2zm-6.4-.4h2.7c.7.1 0 .2-1.4.2s-2 0-1.3-.2zm-33.3-.5c.2-.2.5-.3.6-.2.1.1 0 .3-.4.4-.5.2-.6.2-.2-.2zm10.2.2h.9c.2.1 0 .2-.5.2-.4 0-.6-.1-.4-.2zm6.7 0h.9c.2.1 0 .2-.5.2-.4 0-.6-.1-.4-.2zm9.6 0h.6c.1.1 0 .2-.4.2s-.5 0-.2-.2zm16.7-3.8c.2-.2.7-.4 1-.3.6.2.6.3.3.5s-.8.3-1.2.3c-.5 0-.5 0-.1-.5zm2.3.3h.7c.1.1-.1.2-.5.2s-.5-.1-.2-.2zm-.3-1.1c-.5-.6-.5-.6.1-.1.6.4.8.7.5.7l-.6-.6zm-22-.1c.5-.2 1.4-.3 2-.3h.8l-.9.3c-.5.2-1.4.3-2 .3h-1l1-.3zm6.2.1h1.3c.3.1 0 .2-.7.2-.6 0-1-.1-.6-.2zm-2-.7h1.5c.3 0 0 .2-.8.2s-1-.1-.6-.2z" style="fill:#949186;stroke-width:.352778" transform="translate(-44.6 -175.7)"/>
  <path d="M72.7 240c0-.2.4-.4 1-.4.8 0 1 0 .6.3-.7.4-1.3.4-1.6 0zm-4-.5c-.5-.3-.4-.3.2-.3.4 0 .8.1.8.3 0 .5-.4.5-1 0zm10.8-.5c.9-.3 1.7-.5 1.8-.4.3.3 0 .5-1.7.7l-1.6.2zm2.9-.6c0-.2.2-.3.5-.3l1.1-.2c.4-.2.5-.1.4.1-.3.5-2 .8-2 .4zm2.8-.7c0-.2.2-.2.4-.1s.3.3.3.4l-.3.1a.4.4 0 0 1-.4-.4zm-19.7-1c0-.5 2.3-4.2 2.6-4.2.3 0-.3 1.2-1 2a8 8 0 0 0-1.2 1.8c-.2.5-.4.7-.4.4zm3.5-5.5c.4-.5.9-.9 1-.9l-.7 1-1 .8.7-.9zm34.2-.5c0-.1.3-.4.6-.5.5-.2.5-.1.1.3-.5.6-.7.7-.7.2zm-30-1.3c0-.4 1.2-2 2.7-3.7 3.3-3.6 5-5.4 3-2.8-3.2 3.6-4.3 5.2-3.9 5.3.2 0 .7-.1 1-.4l-.8.9c-1.5 1.4-2 1.6-2 .7zm-20.2-1c-.2-.5.3-3.6 1-5.7l.8-3.2c0-.8.3-1.6.5-1.7.5-.3.2 1.2-1 6.3-.5 1.6-.7 3-.6 3.1 0 .2 0 .6-.2.9-.1.3-.4.4-.5.3zm19.2-.7c.4-.5.9-.9 1-.9l-.7.9c-.4.5-.9.9-1 .9l.7-.9zm5.4-1.2.8-.7c.1 0 0 .3-.4.7l-.8.7c-.1 0 0-.3.4-.7zm2.8-2.3 2.8-2.4c1.6-1 .9-.4-2 2-2.1 1.7-2.2 1.7-.8.4zm14.7 1.3a77.8 77.8 0 0 1 8.2-5c1-.3 1-.3.6.3-.2.5-.6.6-1 .5-.3-.2-.4-.1-.3.1.2.3 0 .5-.1.7-.3.2-.4 0-.2-.2.2-.3.1-.4-.1-.3-.3 0-.4.2-.3.4.2.5-3.4 2.3-4.2 2.1-.5-.1-.5 0-.2.2.4.3.3.4-.6.9-1.2.6-1.8.7-1.8.3zm-19.8-1.3 1-1-.6 1-1 .9.6-1zm11.3.4A29.7 29.7 0 0 1 90 222c-.7.8-.9 1-.5 1 1.3-.5.6 0-1.1 1l-1.8.7zm-8.4-2.8 2.7-2.8 2.7-2.6-2.6 2.7c-2.5 2.6-2.8 3-2.8 2.7zm14-.4.8-.6.7-.2c0 .1-.3.4-.7.6l-.7.2zm-7.2-.8a72.6 72.6 0 0 0 9-6 51 51 0 0 1 10.7-6.6c2.3-1 1.4-.3-1.3 1a86.4 86.4 0 0 0-12.4 8.3c-2.1 1.6-7.7 4.7-6 3.3zm-4.7.1 1.1-1.1 1.2-1-1 1c-1 1.1-1.3 1.4-1.3 1.1zm-27.2-.6c0-.3.2-.8.4-1 .3-.5.3-.5.3 0 0 .2-.1.7-.3 1-.3.5-.4.5-.4 0zm-1.2-1c-.5-.1-.3-3.5.4-6 .2-1 .5-2.3.5-3 0-.8.2-2.3.5-3.4a8 8 0 0 0 .3-2.6c0-.4 0-1.2.2-1.8l.3-1v1c0 .8.2 1 .5.5.3-.4.3-.4.1.2a173.2 173.2 0 0 0-2.4 16.3l-.4-.1zm44.3-.2 1.1-1.1 1.1-1-1 1.1c-1 1-1.2 1.3-1.2 1zm-12.6-1.3.8-.7c.1 0 0 .4-.4.7l-.8.8c-.1 0 0-.4.4-.8zm15-.8.6-.6c.6-.5.6-.4.2.1-.5.6-.8.8-.8.5zm-22.6-.3.7-.7c.5-.4.5-.4 0 .2-.4.6-.7.7-.7.5zm2.7-3c.7-.9 1.4-1.5 1.5-1.5l-1.2 1.4a7 7 0 0 1-1.5 1.4l1.2-1.4zm8.5.6c.3-.4.7-.7.8-.7l-.5.7c-.3.4-.7.7-.8.7l.5-.7zM56.7 213c0-.5 0-.5.2-.3v.7c-.2.1-.2 0-.2-.4zm.5-1.5a25.3 25.3 0 0 1 2-4.4 26.7 26.7 0 0 1-2 4.4zm49.5 0c.2 0 .3-.3.2-.5-.1-.2 0-.3.2-.3.5 0 .3.8-.3 1-.2 0-.3 0 0-.2zM62 208.7c0-.5.2-1 .4-1s.6-.4.8-.9c.3-.5.6-.8.6-.6l-.9 2c-.8 1.4-.8 1.4-.9.5zm21.9 0 .6-.6c.6-.5.6-.5.2.1-.5.6-.8.8-.8.5zM62 206.8l.6-1.9.5-1.5-.2 1.4-.2 1.8c0 .3-.1.5-.3.5-.2 0-.4-.2-.4-.3zm1.8-1.3.3-1c.2-.2.4-.3.4 0l-.4.8c-.1.3-.3.4-.3.2zm2.4-4.9c1.6-2.8 1.7-3.8.4-3.8-.6 0-.6 0-.3-.5.4-.3.6-.3.8 0 .1.2.2.2.2 0s.3 0 .5.4c.5.6.4 1-.9 3.3a26 26 0 0 1-1.8 3c-.2.2.3-.9 1.1-2.4zM99 203h.7c.1.2-.1.3-.5.3s-.5-.1-.2-.3zm3.5 0c.2-.1.3-.7.3-1.4 0-1 0-1 .7-.8.5.2.7.6.7 1.3 0 .9-.2 1-1 1.1-.7 0-1 0-.7-.2zm-6.7-.3h.9c.2 0 0 .2-.4.2-.5 0-.7-.1-.5-.2zm-3.3-.4h1c.3.1 0 .2-.6.2s-.8 0-.4-.2zm-3.6-.3H90c.2 0 0 .2-.6.2s-.8-.1-.5-.2zm-3.5-.4h1c.3.1 0 .2-.6.2-.5 0-.7 0-.4-.2zm-3-.3h.7c.1.1 0 .2-.5.2-.4 0-.5-.1-.2-.2zm-1.4-.4h.7c.1.2-.1.3-.5.2-.4 0-.5 0-.2-.2zm-3.4-.6c-.8-.6-1-1.3-.4-1.3.2 0 .3.2.2.4-.1.2.3.6 1 .9.6.3.9.5.6.5a3 3 0 0 1-1.4-.5zm23.5 0c.3-.2.6-.2.7 0l-.5.1c-.4 0-.5 0-.2-.2zm-3.3-.5-1.4-.3h1.3a6 6 0 0 1 2 .3c1.2.3.2.3-1.9 0zm-3-.6h.7c0 .1-.1.2-.5.2s-.5-.1-.2-.2zm-16.6-.4h.7c0 .2-.1.2-.5.2s-.5 0-.2-.2zm14.5 0h.6c.2.2 0 .2-.4.2s-.5 0-.2-.2zm-13.1-.3h.7c.1.1-.1.2-.5.2s-.5-.1-.2-.2zm10.4 0h1l-.6.1c-.7 0-1 0-.6-.1zm11.4-.2c-1.3-.1-.4-.2 2.2 0 3.6 0 4.5 0 5.2-.5.8-.5.8-.6.4-1.2-.4-.5-.4-.5.2 0 2.2 1.7-1.4 2.5-8 1.7zm-23.5-.3c-2.5-.2-2-.2 2.8-.3 3.2 0 6 .1 6.4.3.6.4-4 .4-9.2 0zm16.9-.3h2c.6.1 0 .2-1 .2-1.2 0-1.7 0-1-.2zm-37.4-1 1-.8c.1 0-.1.4-.6.9l-1 .8.6-.8zm31.5.7h2l-1 .1c-1 0-1.5 0-1-.1zm-25.1-.6.6-.6c.6-.5.6-.4.1.1-.4.6-.7.8-.7.5zm45.7-2.7c.1-.2.7-.3 1.3-.2.8.2 1 .2.8-.2-.2-.2-.1-.3.1-.2.8.6.4 1-1 1-1 0-1.4-.2-1.2-.4zm-2-.2h.7c0 .1-.1.2-.5.2s-.5-.1-.2-.2zm-10.4-1c.3-.2.8-.2 1 0h-1zm-3.8-.6c2.2-.2 7.4-.4 7.2-.2a48.8 48.8 0 0 1-7.2.2zm18.5-.3c0-.2-.2-.3-.4-.2-.3.2-.3.1-.2-.1.2-.3.4-.4.7-.1.2.2.2.5.1.6-.1.2-.2 0-.2-.2zm-10.9-3.8h1c.3.1 0 .2-.5.2-.6 0-.8 0-.5-.2z" style="fill:#8d8779;stroke-width:.352778" transform="translate(-44.6 -175.7)"/>
  <path d="M74.3 239.9c.4-.3.3-.4-.4-.4-.5 0 .5-.2 2.1-.3a10 10 0 0 1 3.6 0c.4.3.3.3-.3.1l-1.2.1c-.3.2-1.3.5-2.4.6-1.3.1-1.8 0-1.4-.1zm-6.7-.4c-.8-.2-.8-.3-.2-.3.4 0 1 .1 1.2.3.7.4.2.4-1 0zm2.4-.2c.2-.1.6-.1.8 0 .3 0 0 .2-.4.2-.5 0-.7-.1-.4-.2zm9.9-.7h.6c.2.1 0 .2-.4.2s-.5-.1-.2-.2zm-13.7-2.8c0-.2.4-.8.8-1.2.5-.5 1-1 1-1.3 0-.2.3-.8.7-1.3.5-.4.6-.6.4-.3l-.6 1.5c-.2.9-2.3 3.2-2.3 2.6zm5.8-5.4c-.1-.2.4-1 1-1.7.8-.8 1.1-1 .8-.6-.6.7-.8 1.9-.3 1.9l5.4-4.3a58 58 0 0 1 7.4-5.4 41 41 0 0 0 4.7-3 47.3 47.3 0 0 1 14.9-9.2c.5 0 .5.1.1.3a45.3 45.3 0 0 0-11.3 6.8 70.8 70.8 0 0 1-10 6.7c-.7 0-2 1-7.5 5.7-3.4 2.9-4.7 3.6-5.2 2.8zm31.7-.1c-.2-.3 0-.3.2-.2.2.2.4.1.4 0 0-.2.3-.5.7-.6.9-.2.9 0-.2.6-.6.4-1 .5-1.1.2zM71.1 229l1.4-1.2-1 1.2-1.4 1.2 1-1.2zm-17.6-.3c0-.6.1-.8.2-.5v1c-.1.3-.2 0-.2-.5zm.2-1.5a22 22 0 0 1 1.4-6.1c.3-.3-.2 2.7-.7 4.8-.3 1-.5 1.5-.7 1.3zm20-1.2.9-.7-.5.7c-.3.4-.7.7-.8.7l.4-.7zm2.5-1 1.6-1.5-1.2 1.5-1.6 1.4 1.2-1.4zm18.2 1c0-.4.4-.7 1-.4.4.1.4.2 0 .5-.6.3-1 .3-1 0zm-8.8-.6c0-.2.5-.8 1.1-1.4.6-.5 1-.7.7-.4-.6.7-.4.8.7.3.8-.4.8-.4.1.2-1 .8-2.6 1.6-2.6 1.3zm-8.5-2.7 1-1-.6 1-1 .8c-.1 0 .1-.4.6-.8zm11.6-.4 1-.9c.1 0-.1.4-.6 1l-1 .8.6-.9zm10.3.4 1-.7 1-.4-1 .7-1 .4zm-19.8-1.1 1-.9-.6.9-1 .9.6-.9zm-23.9-1.8c0-.5 0-.7.2-.4v1c-.1.3-.2 0-.2-.6zm35.6.8s.2-.4.6-.6c.5-.5.5-.5.1.1-.5.6-.7.8-.7.5zm12.3-.4a4 4 0 0 1 1.4-.5c1 0-.2.8-1.3.9h-1zm-19.6-3 1.6-1.4-1.2 1.4-1.6 1.4 1.2-1.4zm14.4.3a23 23 0 0 1 5.3-3.8l-2 1.6-3 2.2-1.6 1.2zm-42.4.2c0-.4.1-.5.2-.2v.7c-.1 0-.2-.1-.2-.5zM86 215l.6-.6c.6-.4.6-.4.2.2-.5.5-.8.7-.8.4zm1.4-1.6c.2-.3.6-.5.7-.5.2 0 .7-.4 1-.9l.9-.9-.8 1.2c-.4.6-.9 1-1 1 0-.1-.4 0-.7.2-.5.3-.5.3-.1-.1zm16.6-.1.6-.6c.6-.5.6-.5.2 0-.5.7-.8.9-.8.6zm-46.9-.4c0-.5 1.8-4.8 2-4.7 0 .1-.3 1.3-1 2.6-.5 1.3-1 2.3-1 2zm4.3-2.7.3-2.9c0-.3.1-.5.3-.4.2 0 .3.8.2 1.5l-.2 1.3.9-1.6c1.1-2 1.1-1.6 0 .8-.5 1-.9 2.1-.9 2.5 0 .3-.2.7-.4.8-.3.2-.3-.3-.2-2zm29.2.8c.5-1 1-1.2 1.2-.8.2.2.1.4 0 .3-.3 0-.7.2-1 .6-.6.7-.6.7-.2 0zm16.8.1c.1-.3.4-.4.5-.3.4.2.1.8-.4.8-.1 0-.2-.2 0-.5zm-43.6-5 .3-.8c.2-.3.4-.4.4-.2l-.4.9c-.1.3-.3.4-.3.2zm.7-1.6a40.8 40.8 0 0 1 3.7-6.3c-.5 1.6-2.6 6.2-2.6 5.7 0-.4-.2-.4-.6.1l-.5.5zm38-1.3c1.6-.2 1.7-.2 1.7-1.3 0-1-.1-1-2.7-1.8-1.4-.4-3.2-.8-3.9-.8-.7 0-2.5-.2-4-.5a32 32 0 0 0-4.4-.6c-.9 0-1.8 0-2-.2-.2-.2 1.2-.3 3.2-.3 2.2 0 3 0 2.3.2l-1.2.2 1.1.1 1.4.2 3 .3c2.8.3 7.5 1.8 8.5 2.7.5.5.5.6 0 1.2-.3.6-1 .7-2.6.8-2.2 0-2.2 0-.5-.2zm-48.2-1c0-1.4.3-2.2.8-2 .2.2.2 0 .1-.2-.2-.7.6-2.1 1.7-3.2l1-.9-.7 1c-.4.6-1.2 2.2-1.7 3.6-.5 1.5-1 2.7-1.1 2.7l-.1-1zm43.3.7h.9c.2.1 0 .2-.5.2s-.7 0-.4-.2zm-3.4-.3h1c.3 0 0 .2-.5.2-.6 0-.8-.1-.5-.2zm-3.5-.4h1c.3.1 0 .2-.6.2-.5 0-.7 0-.4-.2zm-3.4-.3h1c.2 0 0 .2-.5.2s-.7-.1-.5-.2zm-3.7-.4h1.1c.2.1 0 .2-.6.2s-.8 0-.5-.2zm-3.6-.7h.6c.2.2 0 .3-.4.2-.4 0-.5 0-.2-.2zm-3.3-1.1c-.6-.7-.6-.7.1-1h1c.1.2 0 .2-.4.2-.7 0-.7.4-.1 1l.2.5c-.1 0-.5-.3-.8-.7zm-1.7-1c-.4-.2-.5-.5-.3-.6.4-.3 6.1-.2 5.9 0-.1.2-1.4.2-3 .2-2.3 0-2.6 0-2.2.5.6.6.4.6-.4 0zm31.1 0c2.7-.1 4-.7 3.8-1.6-.1-.5 0-.5.5-.2.7.4.7.5-.3 1.3-.8.6-1.3.7-3.6.7h-2.7zm-4.6-.4h1.4c.3.1 0 .2-.8.2s-1 0-.6-.2zm-5.7-.3h.7c.1.1 0 .2-.5.2-.4 0-.4 0-.2-.2zm1.6 0h1.2c.4 0 0 .2-.6.2-.7 0-1-.1-.6-.2zm-29.6-1.3c-.1-.3-.3-.5-.5-.4-.2.1-.3 0-.3-.2s.1-.3.3-.3l.9-.2c.4-.2.5 0 .5.7 0 1-.6 1.2-.9.4zm-2.2 0 .5-.6c.3-.2.5-.3.5 0 0 .1-.2.4-.5.5-.3.1-.5.2-.5 0zm45-2c-.6-.2-.5-.3.6-.4 1.3-.2 1.7.2.7.6l-.6.1-.8-.3zm-2-.6h.6c.1.2 0 .2-.5.2-.4 0-.4 0-.2-.2zm2.8-1c-.5-.6-.5-.6.1-.2.6.5.8.8.5.8 0 0-.4-.3-.6-.7zm-14.8-.5-2-.2h1.8c1 0 2.1 0 2.5.2.8.3.5.3-2.3 0zm15.9 0c-.3-.2-.4-.4-.3-.5 0-.1.4 0 .6.3.5.6.4.7-.3.2zm-1.8-2c-.5-.6-.5-.6.1-.2.6.5.8.8.5.8l-.6-.6z" style="fill:#827d6f;stroke-width:.352778" transform="translate(-44.6 -175.7)"/>
  <path d="M75.2 240h1c.2 0 0 .2-.5.2s-.7-.1-.5-.2zm-8.7-1 1.4-.2c.8 0 1.4 0 1.4.2 0 0-.6.2-1.4.2-.7.1-1.4 0-1.4-.1zm7 0c1.5-.3 3.3-.5 4-.5.8 0 2-.2 3-.4.8-.2 1.8-.4 2.1-.3 1 .2-5.5 1.3-8.9 1.5l-2.8.2zm-7.9-.7c-.3-.6.4-1.8 1.9-3.5.6-.7 1.1-1.6 1.1-1.9 0-1.3 12.8-14.6 18.4-19.1 2.3-1.9 2.2-1.8-3.9 4a57.2 57.2 0 0 0-5.7 6c-.5.6-1 .9-1 .7 0-.2-.7.4-1.6 1.3-1.7 1.6-2.2 2.8-.6 1.3.5-.4.2 0-.7 1-1 1-1.6 2-1.5 2.2.5.9 1.8.2 5.2-2.7 5.5-4.6 6.8-5.7 7.4-5.7.6 0 6-3.6 10.1-6.7a34 34 0 0 1 11.6-6.7 57.4 57.4 0 0 0-14.9 9.5 153.1 153.1 0 0 1-11.1 8l-2.1 1.6c-.7.4-1.7 1.2-2.2 1.7-.5.5-1.9 1.5-3.1 2-2.5 1.3-6 4.5-6 5.5 0 .3-.3.6-.6.6-.4 0-.5.2-.4.7.2.8 0 1-.3.2zm5.4-6.6c.1-.3 0-.3-.2-.2-.5.4-.5-.2 0-.8.4-.4.4-.4-.2 0l-1 1c-.2.6-.1.7.5.5.3 0 .8-.3.9-.5zm1.7-3.1.5-.7-.9.7-.4.7.8-.7zm4.8-5.1.6-1-1 1-.7.8c.1 0 .6-.3 1-.8zm6.2 14h.7c.1.2 0 .2-.4.2-.5 0-.5 0-.3-.2zm3.2-.7h.7c.1.2-.1.2-.5.2s-.5 0-.2-.2zm11.4-4.2 1.2-.5c.2 0 0 .3-.5.5a3 3 0 0 1-1.3.5c-.2 0 0-.2.6-.5zm-44.8-2.5c0-.4 0-.5.2-.2l1 .5c.5.2.5.2-.3.3-.7 0-1-.2-1-.6zm27.2-1c.8-.5 2.5-2.1 4-3.5a44 44 0 0 1 6.5-5.4l-2.8 2.5c-4 3.3-3.7 3.8.5 1.1l.9-.4c0 .2-1.4 1.2-3 2.2-1.8 1.1-4 2.6-5 3.4-2.1 1.6-3 1.8-1 .2zm25.7-.5c1-.6 2.5-1.6 3.1-2.3.7-.7 1.4-1.2 1.5-1.2a22 22 0 0 1-4.3 3.9c-.5.2-1.2.5-1.6.5-.3 0 .2-.3 1.3-.9zm-52.6-.6c0-.4.1-.5.3-.2v.7c-.2.1-.3-.1-.3-.5zm38.6-.5c0-.3.8-1 1.7-1.7.8-.7 1.2-1 .8-.5-.8 1-.5 1.4.9.7 1.4-.8 1.4-.5 0 .4-1.8 1-3.6 1.6-3.4 1zm-38.2-.5.7-3.4c.4-2 .6-2.6.6-1.7 0 .7-.2 2.2-.6 3.3l-.7 1.8zm43.7-2.1 1-.7 1.1-.4-1 .7-1 .4zm2.5-1.4 1-.7 1.1-.4-1 .7-1.1.4zm-9.6-.8a26.8 26.8 0 0 1 3-1.6 26.8 26.8 0 0 1-3 1.6zM104 221c1.2-1.3 1.2-1.3.4-1.1-.9.2-.9.2-.2-.4a14 14 0 0 1 2.3-1.2c.9-.4 2-1 2.4-1.4.4-.5.8-.6.8-.4a19 19 0 0 1-4.3 4c-2.6 1.9-2.7 2-1.4.5zm-48.3-1.6c0-1.6 3-10.9 3.4-10.5l-.8 2.8a87.9 87.9 0 0 0-2.6 7.7zm40.2.2 2.3-1.8a875 875 0 0 0 8-5.8c.3 0 .9-.2 1.4-.5.6-.3 1-.4 1-.2l-1.2.8a16 16 0 0 0-3.5 2.1 83 83 0 0 1-8 5.4zM93 219l.6-.6c.6-.4.6-.4.1.1-.4.6-.7.8-.7.5zm-32.1-5.6c0-.3-.2-.5-.4-.4-.5.3-.4 0 .4-2.8l.6-2.5-.2 2.4c-.1 1.8 0 2.4.2 2.2.6-.3.5.2 0 1-.6.7-.6.7-.6.1zm28.7-1.7.8-.7c.1 0 0 .4-.4.7l-.8.8c-.1 0 0-.4.4-.8zm-27.6-.2c0-.3.4-1.6 1-2.9l1.6-3.7c.3-.9.6-1.3.8-1 .3.5 2.8-5.4 3.1-7.2.2-1.2.2-1.2-1-1l-1.2.2 1.2-.4c1.7-.6 1.9 0 1 2.8a64.9 64.9 0 0 1-6.5 13.2zm29.5-1.3c1-1 1.2-1.1 1-.5l-1 1c-.8.4-.8.4 0-.5zm4.3-2.6c0-.2.3-.5.6-.6.5-.2.5-.1.1.3-.5.6-.7.7-.7.3zm1.4-.8c0-.4 2.8-.8 3.8-.6.3.1 0 .2-.7.2s-1.7.2-2.2.4c-.5.2-.9.2-.9 0zm-11.6-1.4a8 8 0 0 1-1.7-1l-.9-.8h1.8c1 0 2.5.2 3.4.5 1.9.5 2.4 1.2.8 1-.7 0-1 0-.7.2.6.4-1.6.5-2.7 0zm13.1-2h1.2c.4 0 .1.2-.6.2s-1-.1-.6-.2zm6 0a2 2 0 0 0 .9-.8c.3-.5.3-.8-.2-1.2a24 24 0 0 0-8-2.5c-7-.7-7.8-1-1.4-.7 2.5.1 4.7.4 4.8.6l2 .8c1.7.4 2.1.6 3.7 2l.7.7-.8.7c-.4.3-1.1.6-1.6.6-.4 0-.5-.1-.2-.2zm-8.8-.4h1c.3.1 0 .2-.6.2s-.7 0-.4-.2zm-3-.3h.7c.1.1-.1.2-.5.2s-.5-.1-.2-.2zm-4-.4h1c.2.1 0 .2-.6.2s-.8 0-.5-.2zm-3-.3c.2-.1.6-.1.8 0 .3 0 0 .2-.4.2-.5 0-.7-.1-.5-.2zm-24.3-.3.3-.9c.2-.3.4-.4.4-.2l-.4 1c-.2.2-.3.3-.3 0zm17.2-.8h.7c0 .2-.1.3-.5.2-.4 0-.5 0-.2-.2zm-2.7-1c-.5-.6-1.1-1-1.3-1-.2.2-.2 0 0-.1.2-.2 1.3-.5 2.5-.5 2-.2 1.9 0-.4.6l-1 .2 1 .9c.5.4.8.8.6.8-.3 0-.9-.4-1.4-1zm30-.5c-1.1-.2-1-.3.8-.3 1.6 0 2.3-.2 3.2-1 .8-.5 1.2-.7 1.2-.4 0 1.1-3 2.1-5.3 1.7zm-43.5-.2c0-.3 2.1-3.3 2.3-3.3a13 13 0 0 1-2 3.3c-.1.2-.3.1-.3 0zm40.2-.4h.8c.3.1 0 .2-.4.2-.5 0-.7 0-.4-.2zm-14.1-1a5 5 0 0 1 1.5 0h-1.5zm22-2.7c-.5-.3-.5-.3 0-.1 1 .2 1.8-.3 1.5-1-.2-.2 0-.2.3.2.4.3.6.7.4 1-.3.4-1.6.4-2.3 0zm-1.6-.5h.7c.1.1 0 .2-.4.2-.5 0-.5-.1-.3-.2zm-1.7-.4h.7c0 .2-.1.2-.5.2s-.5 0-.2-.2zm-7-1c-3-.8-1.8-1.1 1.5-.5 1.7.3 2.3.5 2 .7-.6.4-.7.4-3.5-.3zm6-3.3c-.3-.2-.4-.4-.1-.4.2 0 .5.2.6.4.3.4.2.4-.5 0z" style="fill:#737169;stroke-width:.352778" transform="translate(-44.6 -175.7)"/>
  <path d="M68.3 238.8c-1.4-.3-1-.4 2.1-.5a97.5 97.5 0 0 0 14.3-1.2 56.8 56.8 0 0 1-16.4 1.7zm-2.3-.2c-.4-.5-.2-1.2.3-1.2.3 0 .6-.3.6-.6 0-1 3.5-4.2 6-5.4a21 21 0 0 0 3.1-2c.5-.6 1.5-1.4 2.2-1.8.6-.4 1.6-1.2 2-1.7l3-2.2a75.5 75.5 0 0 0 7.3-4.9c0 .3-6.5 5.5-7.6 6-.6.3-2.5 2-4.2 3.7-2.3 2.2-3.6 3.2-4.4 3.4-1.4.3-3.2 1.5-3.2 2.2 0 .3-.6 1-1.4 1.5-.7.5-1.4 1.2-1.5 1.6 0 .5-.4.8-1 .8-.6.1-1 .3-.8.5.2.4 0 .4-.4 0zm19.9-1.8h.6c.1.2 0 .2-.4.2s-.5 0-.2-.2zm1.4-.3h.6c.2.1 0 .2-.4.2s-.5-.1-.2-.2zm1-.3 3.5-1.3a47.8 47.8 0 0 0 6.4-2.4 21 21 0 0 1-5.1 2.4 17 17 0 0 1-4.7 1.3zm-14-3 3.7-2.9 3.9-3 2.8-2.2c3.3-3 3.5-3 .5 0a83 83 0 0 1-4.4 4c-2.2 1.7-1 1.4 1.5-.4 1.3-1 4-2.8 6-4A325.7 325.7 0 0 0 107 212c1.6-.6 1.6-.7.8-1.4-.6-.5-.6-.5.1-.1.4.2.9.2 1 0v.5c-.4 1-.8 1.4-2.2 2-.6.2-1.4.7-1.7 1a216 216 0 0 0-18.5 12.5c-.3.4-.5 1-.5 1.2 0 .9-9.9 6-11.5 6h-1.2zm-4.6-1.4c.2-.4.6-.8 1-1.1.5-.4.5-.4.1 0-.5.6-.5 1.2 0 .8.2-.1.3 0 .2.2-.1.2-.6.4-1 .5-.5.2-.6 0-.3-.4zm29.7.2c.3-.4 3.8-2 3.8-1.8 0 .2-3.4 2-3.7 2-.2 0-.2-.2-.1-.2zm-13.7-1.3c.2-.2.5-.4.9-.3.5 0 .5 0 0 .3-.7.4-1.1.4-.9 0zm2.7-.6c0-.4 1.2-1.4 2.7-2.5 1.5-1 2.4-1.5 2-1-.5.4-.8.9-.8 1 0 .4 2.1-.4 3.5-1.3a49 49 0 0 1 6-3.2 91 91 0 0 1-12.4 7.2c-.9.3-1 .3-1-.2zm-34.6-.6.9-3.4c.5-1.6.9-3.6.9-4.4 0-.8.3-2.5.6-3.9 1-3.3 4.8-14.4 5.9-16.7 1.2-2.5 2.5-4.7 2.7-4.6.3.2 1.7-1.1 1.6-1.4-.1-.1.1-.3.5-.3s.7.1.7.3c0 .2-.2.3-.5.3s-.8.3-1.1.7c-.4.4-.8.6-1 .5-.2-.2-.3 0-.1.4.1.4 0 .5-.2.3-.3-.1-.3 0-.2.4.2.4.1.5-.2.3-.2-.1-.3 0-.1.4.1.4 0 .5-.2.3-.3-.1-.3 0-.2.4.1.3 0 .6-.2.6s-.2.2-.1.5 0 .5-.2.3c-.3-.2-.3 0-.1.6.1.5 0 .7-.1.5-.4-.2-1.6 2.9-3.2 8.6l-2 6.7c-.5 1.7-1 3.5-1 4a6 6 0 0 1-.6 2.5c-.4.8-1 2.6-1.4 4-.8 2.5-1 3.1-1 2.1zm4.8-16.4.3-2c-.1-.2-2.3 6.4-2.2 6.8a17 17 0 0 0 1.9-4.8zM73 227.7c.8-1 2.6-2.8 3.9-4l2.4-2.4-2.9 3.2c-3.4 3.8-5.5 5.8-3.4 3.2zm33.3.6c0-.1 2.3-1.3 2.5-1.2l.8-.6c.4-.4.5-.7.4-.7-.2 0 0-.3.2-.6s.6-.5.8-.5c.2 0 .1.2-.2.4-.4.2-.6.5-.4.7.2.3-1 1.5-1.6 1.6-.7 0-1.4.6-1.3.8 0 .1-.2.2-.5.2h-.7zm2.1-2 .6-.6c.6-.4.6-.4.1.1-.4.6-.7.8-.7.5zm-14.5-.7.7-.6c.5-.4.5-.4 0 .1-.4.6-.7.8-.7.5zm17-1.4.5-.6c.5-.3.5-.3.3.2s-.8.8-.8.4zm-8.7-1.5 2.5-1.9a18 18 0 0 0 4.8-4.3c0-.2-.4 0-.8.4-.8.7-3.5 2-3.5 1.6l1.4-.9a4 4 0 0 0 2-1.6c.6-.8.7-.9 1.1-.3.4.6.3.8-.7 1.9a37.6 37.6 0 0 1-6.8 5.1zm-14-.6.7-.6c.6-.5.6-.4.1.1-.4.6-.7.8-.7.5zm1.5-1 .6-.7c.6-.4.6-.4.2.2-.5.5-.8.7-.8.4zm22.6-1.2c0-.5.1-.7.2-.4v1c0 .3-.2 0-.2-.6zm-21-.2c.5-.5 5.3-4 7-5 1.9-1.2.9-.4-3.3 2.6a22.5 22.5 0 0 1-3.6 2.4zm-.5-1.1c0-.1.2-.4.6-.6.5-.5.5-.5.1 0-.5.7-.7.9-.7.6zm-32.1-1.2a57 57 0 0 1 2-7.9c.2-.1 0 .4-.5 2.7-.2.7-.1.9.2.7.2-.1.4 0 .4.3 0 1 .6.3 1.2-1.6a54 54 0 0 0 7-15.8c0-.2.2-.4.5-.4s.4.2.3.4c-.2.2-.3 1.2-.4 2.3-.2 2-1 4.4-2.1 5.6l-3.3 6c-2 3.9-2.9 5.3-3.4 5.4-.4 0-1 .6-1.3 1.4-.3.7-.6 1.1-.6.9zm33.5.1.6-.6c.5-.4.6-.4.1.1-.4.6-.7.8-.7.5zm1.7-1.4a56.2 56.2 0 0 1 7.6-4.9 58 58 0 0 0-4.7 3.1c-1.9 1.3-3.2 2.1-3 1.8zm-19.7-1 1.1-1.2 1.2-1-1 1.1c-1 1.1-1.3 1.3-1.3 1zm31.7-4.8h.6c.2.2 0 .3-.4.3s-.5-.1-.2-.3zm-1.6-.8c.8-.4 2-.6 2.5-.6.9 0 .8 0-.4.3l-2.2.7-1 .3 1.1-.7zm-11.9 0c.4-.5 2.6-1.9 2.6-1.6l-1.5 1.1c-.8.6-1.3.8-1 .5zm-31.6-.9c0-.4.1-.5.2-.2v.7c-.1.1-.2-.1-.2-.5zm.4-1.5c0-.5 0-.7.2-.5v.9c-.1.2-.2 0-.2-.4zm26.2-1.6c.4-.3 1-.6 1.5-.6.4 0 .8 0 .8-.2 0-.5-3-1.2-5-1.2H83l.9.7c.5.4 1.3.9 1.7 1 .8.4.8.4.1.4-1 0-4.5-1.8-4.7-2.6 0-.5 0-.6 1.4-.4l4.4.4 2.8.2-1.6-.5-1.6-.6 1.5.2 3.1.2c1.3 0 1.7 0 1.3.3-.3.2-1 .4-1.4.4-.7 0-.5.2.7.5 1.3.4 1.4.5.6.5-.6 0-1 .2-.8.4.1.2 0 .4-.2.3-.6 0-2.2.3-3.5.8-.9.3-.9.3-.2-.2zm7-1.2h1.2c.3.1 0 .2-.6.2-.7 0-1 0-.6-.2zm3.8-.6a87.5 87.5 0 0 0-5.2-.7c.1-.2 1.7 0 3.5.1l5 .5c.8 0 1.5.2 1.4.4-.2.3 0 .3-4.7-.3zm6.4-.2c.8-.1 1.6-.5 2-.8.4-.4.4-.6-.3-1.2-1.5-1.4-1.9-1.6-3.6-2-2.2-.6-2.7-1-.8-.8l2.3.2c.6 0 .7.1.4.4-.4.2-.2.4.7.7.7.2 2 1 2.7 1.7l1.6 1.3-2 .4c-1 .3-2.4.4-3 .4h-1.3zM83.4 202a5 5 0 0 1 1.6 0l-.8.1c-1 0-1.3 0-.8-.1zm-3.1-.5c-.7-.2-.8-.3-.2-.3l1.6.3c.7.2.7.3.2.3a5 5 0 0 1-1.6-.3zm-3.3-.6c-.1-.2.2-.3.6-.2l1 .3c0 .3-1.5.2-1.6-.1zm-1.5-1.2-.7-.8.8.6c.7.7 1 1 .7 1l-.8-.8zm32.1 0a2 2 0 0 1 1-.3c1 0 2.7-1.1 2.7-1.7 0-.4.1-.4.5 0 1 .7.6 1.3-1.3 1.9-2.2.6-3.2.7-2.9.2zm-1.7-.2h1c.2.1 0 .2-.5.2s-.7 0-.5-.2zm4.8-3.8c-2.8-1-3.4-1.1-2.2-.2.6.5.3.4-1-.2a52.1 52.1 0 0 0-3.2-1.8l3.7 1c4 1 4.6 1.1 4.9.7.1-.3-.1-.9-.6-1.4l-.8-1 .8.8c1.1.9 1.5 1.7 1.3 2.4-.3.7-.2.7-3-.3zm2.5-2.1c-.3-.3-.5-.5-.3-.5s0-.5-.5-1c-.5-.6-.3-.4.5.3 1.4 1.3 1.6 2.2.3 1.2zm-3.1-1.6c-.2-.2-.2-.5 0-.6 0-.1.2 0 .2.2s.1.3.4.2c.2-.2.3-.1.1.1-.3.5-.4.5-.7 0zm-1.4-1c-.1-.3 0-.3.3-.2.6.2.7.5.2.5-.2 0-.4-.2-.5-.4z" style="fill:#66645b;stroke-width:.352778" transform="translate(-44.6 -175.7)"/>
  <path d="M71.5 240.6c0-.2.2-.4.5-.4s.5.2.5.4-.2.3-.5.3-.5-.1-.5-.3zm1.9 0c-.1-.2.1-.4.5-.4.9 0 1 .2.2.5-.3.1-.6 0-.7-.1zm-6.2-.7c-.3-.2-.3-.4 0-.4l.6.4c.2.4.1.4-.6 0zm-.8-1.4c-.1-.2.2-.4.7-.5.7 0 1-.3 1.1-.8 0-.4.8-1.1 1.5-1.6.8-.6 1.4-1.2 1.4-1.5 0-.7 1.8-2 3.2-2.2.8-.2 2.1-1.2 4.4-3.4a32.1 32.1 0 0 1 6.8-5.5c.8-.6 1.7-1 1.9-1a38.2 38.2 0 0 1 9.5-7.8 32 32 0 0 1 9-4.8c.5-.2 0 .2-1.3.8a30.3 30.3 0 0 0-7.3 4.5l1.5-.6 1.2-.6-1.6 1.2a161.5 161.5 0 0 0-16.5 12.7c-.6.3-2.4 1.7-4 3a96.8 96.8 0 0 1-3.6 2.8l-.9.6h1.2c1.6 0 11.5-5.1 11.5-6 0-.3.2-.8.5-1.1a216 216 0 0 1 18.5-12.5c.3-.4 1.1-1 1.7-1.2 1.6-.6 2.2-1.3 1.9-2-.2-.5-.1-.5.5 0 .7.7.7.7-.3 2-.5.6-1.2 1.1-1.5 1.1a7 7 0 0 0-1.8 1.3 27.6 27.6 0 0 1-6.9 4.9c-3 1.4-10.2 6.5-12 8.4a21 21 0 0 1-4.4 2.7 54 54 0 0 0-4.9 2.7c-2 1.5-4.4 2.6-4.7 2.3 0 0-.2 0-.2.2s-.2.3-.5.2a.7.7 0 0 0-.7.3c-.2.3 0 .3 1.2.1a49.3 49.3 0 0 1 4.7-.7c.2-.2.3-.1.1.1-.1.3.1.4 1 .2l3.7-.3c1.5 0 3.2-.3 3.9-.5a116.2 116.2 0 0 0 20.8-9.7c2.4-1.6 3.4-2.5 4.3-3.9 1-1.5 1.2-1.7 1.3-1 .1 1-1.2 3.1-3 5a92 92 0 0 1-18.4 8.9 51.3 51.3 0 0 1-10 2.3c-.2.1-5.3.5-10.7.7-1.3 0-2.7.2-3 .3-.3.2-.7.1-.8 0zm42.8-12.7c.5-.5.5-.5 0 0-.7.4-.9.7-.6.7.1 0 .4-.3.6-.7zm-16.7-7.6c.4-.6-3 2-3.8 3a22.1 22.1 0 0 0 3.9-2.9zM97 215c0-.1-.4 0-.6.2-.3.4-.3.4.2.2.4-.1.6-.3.4-.4zm-18 20.4 2.7-1.9c.8-.5 1.5-1 1.4-1.3 0-.5 1.7-1.8 3.3-2.4 2.1-1 3.7-1.8 6.3-3.7 2.8-2 4.7-3.2 4.3-2.7l-8.1 5.9c-.3.1-.4.5-.4.8.2.5.3.5 1.4 0 .7-.5 2-1.1 2.8-1.5a88.3 88.3 0 0 0 16.5-11c1-1 1.1-1.3.7-1.9-.4-.6-.5-.5-1 .3a5 5 0 0 1-1.8 1.5c-.6.3-.8.3-.4 0l1.8-1.6 1.2-1.3.7.9c.4.4.7 1 .7 1.1a54.3 54.3 0 0 0-4.4 3.9 28 28 0 0 1-3.7 2.6 325 325 0 0 0-10.6 6.7 14 14 0 0 1-3.2 1.8 66.5 66.5 0 0 0-10.6 4.6c-.7.2-.7 0 .4-.8zm7.7-4.7c.5-.3.5-.3 0-.3-.4 0-.7.1-.9.3-.2.4.2.4 1 0zm-31.8-.3H54l.9-2.8a44 44 0 0 1 1.5-4.2c.4-.7.7-1.9.7-2.4 0-.6.4-2.4.9-4l2-6.8c1.3-4.5 2.8-8.9 3-8.7l-.5 1.7c-.9 2.6-3.7 13.8-3.5 14.2 0 .2.3-.2.6-.9.3-.8.7-1.3 1.2-1.4.5 0 1.4-1.4 3.4-5.4a70.2 70.2 0 0 1 4.6-8.2 18 18 0 0 0 1-5.3c0-.2.2-.4.5-.4.8 0 .7 1.8-.4 4.5-1.5 4-4.7 10-6.8 13.1l-2 3.5c-.7 1.4-1.4 2.4-1.5 2.1-.2-.2-.6.4-1 1.4-.3.9-1 2.4-1.6 3.2-1 1.6-2.5 6-2.2 6.3l1.8-.2c.9-.3 1.7-.4 1.7-.3.3.2-2.5 1.1-3.4 1zm4-1.2c.5-.5 3.5-2 3.5-1.9 0 .2-3 2-3.4 2-.1 0-.2 0-.1-.1zm38.4-6c0-.2.3-.4.7-.6l.7-.2-.7.5-.7.2zM99 222l1-.8c.6-.3 1-.4 1-.3l-1 .7-1 .4zm-35.3-.7 1-2.2c.6-1 1.1-2.2 1.1-2.5a265.7 265.7 0 0 0 6-14.7c.4-1 .7-2.3.7-3 0-1 .5-1.5.9-.8.1.2.3.3.5.2l-.2 3.4c-.2 2.5-.5 3.6-1 4-.6.5-3 5-3 5.7 0 .3-.3 1-.7 1.7-.4.6-1 2-1.4 3-.6 1.8-3.8 6-3.9 5.2zm37.7-.7c0-.1.5-.5 1.1-.8.6-.3 1-.4 1-.3l-1 .7-1 .4zm10.4-3.4V216s.3.3.4 1c.1.5.2 1.1 0 1.2l-.4-1zm-55.1.6c0-.4 2.1-7 2.2-6.9a20.8 20.8 0 0 1-2.2 7zm54.4-3.1v-.5c0-.1.2 0 .3.3.3.7 0 .8-.3.2zm-7.6-3.5c.2-.3.5-.4.6-.3.1.1 0 .3-.4.4-.5.2-.6.2-.2-.1zm3.4-1-1-.3h.9c.5-.1 1 0 1.2.2v.3l-1-.3zm-25.1-3a2 2 0 0 0-.9-.7c-.2 0-.4-.2-.3-.3.1-.1.7 0 1.4.4.8.4 1 .7.7.8-.3 0-.7 0-1-.3zm-2.4-1.5c.2-.3.4-.4.6-.3.4.3.4.4-.2.6-.4.2-.5 0-.4-.3zm6.3.3a36 36 0 0 1-2.2-.7c-.8-.2-1.8-.4-2.3-.3-.4.1-1 0-1.5-.3l-.7-.6.7.3c.7.2.7.2.1-.5l-.6-1c0-.3-.4-.8-1-1.2l-1-.7h1l3 .5c1.1.3 2.7.5 3.5.5.8 0 2.2.3 3.2.6l1.7.5-2.8-.2-4.4-.4c-1.3-.2-1.5-.1-1.4.4.2.8 3.6 2.6 4.8 2.6.5 0 .8.2.8.4v.3l-.9-.2zm16.3-.6-1-.4c-1.7-.5-2.5-.6-4.9-.7l-3-.2c-.2-.2-1-.4-1.7-.5l-1.4-.3 1.2-.2c.6-.2 2.7 0 4.5.2 4.2.6 9.5.6 12 0l1.9-.4-1-1a14 14 0 0 0-2.8-1.9c-1.6-.8-1.6-.8-.5-.6l1.7.2c.3 0 .4.1.3.3-.2.2.5.7 1.5 1 1.2.6 1.7 1 1.7 1.6.1 1.3-.5 1.6-3 1.6-2.6 0-4 .3-4 .8 0 .2.4.3.8.3s.7.1.7.3c0 .4-1.8.4-3 0zm-10.5-1.1c.3-.2.6-.1.7 0 0 .1-.1.2-.5.2s-.5-.1-.2-.2zM63 200.9l.3-.9c.2-.3.4-.4.4-.2l-.4 1c-.1.2-.3.3-.3 0zm45-.7 2.4-.7c1.2-.4 2-.8 2-1.1 0-.3-1-1.2-2.4-2-2.3-1.5-2.6-2.2-.4-1.2.7.3.9.5.5.4-.7-.2-.7-.1 0 .3 2 1.2 3.5 2.6 3.6 3.1 0 .4-.2.6-1 .8-1.8.3-5.1.6-4.7.4zm-44.3-1c0-.7 1.8-3.8 2.6-4.2.7-.3.7-.3-.2.6l-1.6 2.5c-.4.7-.8 1.3-.8 1.1zm48.9-2.4c-1.6-.8-2.1-1.3-1.3-1 1.8.7 2 .7 2.3 0 .1-.3 0-.9-.4-1.4-1.2-1.7-1.2-1.8 0-1 1 .7 1.2 1 1.2 2.5 0 .9-.1 1.6-.2 1.6l-1.6-.7zm-1.8-4.6c-.7-.8-.7-.8 0-.3.5.2.9.5.9.7 0 .5-.2.4-1-.4z" style="fill:#50514c;stroke-width:.352778" transform="translate(-44.6 -175.7)"/>
  <path d="M72.8 240.7h.7c.1.1-.1.2-.5.2s-.5-.1-.2-.2zm-1.5-3.6c.1-.3.5-.4.7-.3.3.1.5 0 .5-.2s.1-.3.2-.2c.3.3 2.6-.8 4.7-2.3.9-.6 3-1.8 5-2.7a21 21 0 0 0 4.2-2.7c1.9-2 9.1-7 12.1-8.4a31 31 0 0 0 7-4.8c.6-.7 1.6-1.4 2-1.5.7-.2.6.1-.8 1.4-1 .8-2.2 1.8-2.8 2.1L102 219l-2.8 1.5-2.9 1.6-2.6 1.7a7 7 0 0 0-2.1 1.5c-.5.5-.4.5 2.3-.4.2 0 .7-.3 1.1-.7l.8-.4-2.7 2-2.4 1.5c.3-.3.4-.7.3-1-.2-.3-.6-.2-1.7.6-2.6 1.8-3 2.9-.5 1.6.6-.3 1-.4.9-.2a6 6 0 0 1-2 1 17.6 17.6 0 0 0-4 2c-.5.3-.7.7-.7 1 0 .3-.6.9-1.4 1.3-1 .6-1.4.7-1 .3.4-.6.4-.6-.3-.6-1 0-3 1.2-3.6 2.1-.4.9-.3.9 1.6 0l1.4-.8-1 1c-1 .9-1 1-.2.7a13.4 13.4 0 0 1 8.3-3.4 14 14 0 0 0-3 1.4c0 .1-.4.5-1 .8l-.9.5 1 .1h2a94 94 0 0 0 16.2-6.5c0 .5-4 2.5-8.7 4.4-6.8 2.7-7.3 2.8-10.4 3-1.4 0-3.1.2-3.8.3-.8.2-1 .1-.9-.2.2-.2.1-.3-.1-.1a49.4 49.4 0 0 0-4.6.8c-1.2.1-1.5.1-1.3-.2zm11-5.3c-.3-.2-1 .3-1 .7 0 .3.2.2.6 0 .3-.3.4-.6.3-.7zm9.4-1.5c1.2-1 4.8-3.2 4.8-3 0 .2-2.6 2-4.4 3l-1.4.8zm-37-1.2c.4-1.7 1-2.7.7-1.2l-.6 1.7c-.2.4-.2.2 0-.5zm3.5.2c0-.2 0-.4.2-.4s.4.2.4.4-.1.3-.2.3l-.4-.3zm43.2-.5 2.6-1.4a25 25 0 0 0 5.9-3.8c0-.2.5-.8 1-1.3.7-.8.7-.8-.2.5-1.4 2.1-9.3 7.2-9.3 6zM62.1 227c.7-.6 1.4-.7 1-.2 0 .1-.5.4-.9.5-.8.2-.8.2-.1-.3zm35-.1c.2-.5 1.5-1.3 1.5-1l-.9.7c-.5.4-.8.5-.7.3zm-37.3-.4c0-.2.8-1 1.8-2 1-.8 1.6-1.6 1.3-1.6-.3-.1-.3-.4.1-1 .3-.4.7-.6.8-.5 0 0 .8-.6 1.6-1.5.9-1 1.3-1.3 1.1-.9-.2.5-1 1.6-1.8 2.4-.8.8-1.3 1.5-1.2 1.5.2 0-.2.6-.7 1.4-1.5 2-3 3-3 2.2zm39.2-.9 1.8-1.3a155 155 0 0 0 3.5-2L102 224c-3 1.9-3.1 2-3.1 1.7zm-42.5-1.3.9-1.4c.3-.4.8-1.6 1.2-2.6.4-1 .7-1.5.8-1.3 0 .3.3.2.7-.2.2-.3-.1.5-.8 1.9-.7 1.4-1.7 2.9-2.2 3.3-.5.5-.8.6-.6.3zm32.2-3.2c.8-1 4.2-3.5 3.8-2.9 0 .2-1.2 1.1-2.4 2-1.2 1-1.9 1.4-1.4 1zm17.3 0c1.4-1.6 5.1-4.4 4.6-3.5-.3.4-1.3 1.4-2.3 2.1-3.1 2.3-3.2 2.4-2.3 1.3zm6-.8a3 3 0 0 0-.3-1.7c-.4-.9-.7-3.8-.3-3.6.2.2.3.8.8 4.3.2.8.1 1.5 0 1.6-.3.2-.4-.1-.3-.6zm-47.1-2.5a31.7 31.7 0 0 1 3.5-7.6l-1.4 3.5c-.6 1.4-1.2 2.8-1.2 3.2 0 .3-.2 1-.5 1.3-.6.6-.6.6-.4-.4zm2.8-1.9 1.4-2.9c.3-.4.6-1 .6-1.4 0-.8 2.4-5.3 3-5.9.5-.3.8-1.5 1-3.7l.5-3.2v2.8c0 2.4-.3 3.1-1 4.6A217.6 217.6 0 0 0 67 218l.6-2.1zm-6.8 1.3 3.2-5.6a94.6 94.6 0 0 0 6.5-12.5 118 118 0 0 1-7.6 15.5l-1.5 2c-.4.5-.6.8-.6.6zm46.5-.4.7-.6c.5-.5.5-.4 0 .1-.4.6-.7.8-.7.5zm2.7-1.6-.6-1 .8.9c.4.4.7.8.6 1l-.8-.9zm-14 .2c0-.4 6.3-4.3 8.6-5.2 2.7-1.2 3.8-1.2 1.1 0l-1.8.7-2 1.3-2 1c0-.2-.1-.1-.2 0-.3.5-3.6 2.5-3.6 2.2zm13-2.7.7-.7c.1 0 0 .3-.4.7l-.8.7c-.1 0 0-.3.4-.7zm-1.1-2.5c-.4-.6 0-.7.5-.1.3.3.3.5 0 .5l-.5-.4zM68.6 209l.4-.9c.2-.3.3-.4.3-.2l-.3 1c-.2.2-.4.3-.4.1zm36.6-2.4c.2-.2 0-.3-.3-.1-.4 0-.6 0-.6-.2 0-.1.1-.3.3-.3.2 0 .4-.2.4-.3 0-.2-.3-.4-.7-.4-.4 0-.7-.1-.7-.3 0-.5 1.3-.8 3.8-.7 2 0 2.2 0 1.6.4-.4.2-.7.6-.6.8 0 .2-.7.6-1.6.9-1 .3-1.7.4-1.6.2zm-35.5 0 .3-1c.2-.2.4-.3.4-.1l-.4.9c-.1.2-.3.3-.3.1zM80 206c0-.3-.1-.5-.4-.4-.2 0-.4-.2-.3-.6 0-.7-.6-2-1.6-3.2l-.8-.9 1.2.8c.6.5 1.1 1 1.1 1.2 0 .2.3.7.6 1 .4.5.4.7.2.7-.3 0-.3.1 0 .5.3.3.6.4 1 .1.5-.2 1.3-.1 2.7.3 1.2.4 1.8.7 1.4.8-.4 0-.8 0-1-.3-.6-.5-3.2-.5-3.8 0-.3.4-.4.4-.3 0zm23.4 0c-.1-.2 0-.3.1-.3.2 0 .4.1.4.3l-.1.4-.4-.4zm-10.8-1.6c.2-.2.5-.1.6 0 .2.1 0 .2-.4.2s-.5-.1-.2-.2zm4.5 0h.9l-.4.1c-.5 0-.7 0-.5-.1zm-26.3-.3c0-.2.2-.8.5-1.3s.5-.7.5-.5l-.5 1.2c-.3.5-.5.8-.5.6zm39.4-.4c.5-.5.4-1.6-.1-2-.2-.2-.2-.3 0-.3l1 .5c.4.3.6.6.3.6-.2 0-.3.2-.2.5.1.4 0 .7-.3 1-.7.4-1.1.3-.7-.3zm-38.4-2.5c0-.4.1-.5.3-.2v.7c-.2 0-.3-.1-.3-.5zm35.8-.7c-.4-.2-.5-.5-.3-.5s.7.2 1 .5c.4.3.6.5.4.6-.3 0-.7-.3-1.1-.6zm2.1-.1c.4-.2 1.5-.5 2.4-.6 1.3-.1 1.7-.3 1.6-.8 0-.5-1.7-1.8-3.7-3.1-.5-.4-.5-.4.3-.1.5.1 1.5.6 2.3 1 1.6.9 2 1 1.8.3-.1-.3 0-.7.1-1 .3-.4.3-.4.3 0l.2 1.2c.2.3 0 .6-.5.7-.7.2-.7.3-.4 1 .3.4.4.8.3.9-.3.3-3 .8-4.3.8-1 0-1 0-.4-.3zm-37.5-.6c0-.4 0-.5.2-.2v.7c-.1 0-.2-.1-.2-.5zm.6-2.2c-.4-.5-.4-.5.2-.1l.6.6c0 .3-.3.1-.8-.5zm41.3-2.5c0-.6.7-.7.9-.2.1.3 0 .5-.3.5s-.6-.1-.6-.3z" style="fill:#42433d;stroke-width:.352778" transform="translate(-44.6 -175.7)"/>
  <path d="M76.7 235.3c.5-.9 2.6-2.1 3.6-2.1.7 0 .7 0 .3.5-.4.5-3.5 2.3-4 2.3l.1-.7zm7 .4a2 2 0 0 0-1.3-.1c-.3 0-.1-.2.3-.5l1.1-1 3.5-1.5c1.8-.7 4.5-2.1 6-3.1l7.5-4.8c7.9-5 10.2-6.8 10.2-8.3 0-.9-1.2-2-1.6-1.7-.2.2-.2.1 0-.1.2-.5 1.2-.2 1.7.4l.2 1.8c0 .8.2 1.6.4 1.7.7.5.3 2.2-.7 3.5l-1.2 1.6c-.2.6-7.2 4.8-7.5 4.5 0 0 1-.8 2.5-1.6 3.2-1.8 4.8-3.1 5.8-4.8.8-1.2.8-1.3.2-2-.6-.6-.7-.6-2.3.7-.9.8-2.6 2-3.9 2.7l-5.3 3.3c-5 3.3-9 5.6-10.3 6-1.3.6-2 1.5-1.1 1.5a41 41 0 0 1 6-2.1 39 39 0 0 0 5.2-2.2l2.7-1.3c0 .5-5 3-10 5-6.3 2.5-7.1 2.7-8.2 2.4zm-2.4-3.2c0-.4.7-.9 1-.7 0 .1-.1.4-.4.7-.4.2-.6.3-.6 0zm-26.3-3 .4-1.9a7 7 0 0 1 2-3.9c.6-.6 1.7-2.6 2.6-4.3 1.3-2.7 4.4-7 4.4-6a9 9 0 0 1-2 2.8c-.8 1-3.7 7.1-3.7 8.2-.1.7-.5.9-.7.2-.1-.2-.5.4-1 1.4l-1.3 2.6c-.2.5-.4 1-.2 1.2.1 0 0 .2-.2.2-.3 0-.4-.2-.3-.5zm3.6-2.6c1.6-1.5 3-3 3.3-3.5.2-.5.6-.7 1-.6.3.1-.1.7-1.4 1.9-1.8 1.6-2.2 2.8-.6 1.7.9-.7 2.9-3.3 2.6-3.5 0-.1.4-.7 1-1.2l1-1-.7 1.4a30 30 0 0 1-2.4 3.2c-1.2 1.5-2 2-3.1 2.3-1.8.4-2.3.9-1.6 1.4.4.3.4.3 0 .2-.4-.2-.7 0-.7.1 0 .2-.3.3-.6.3-.4 0 .4-1 2.2-2.7zm0 1.8c.3-.1.6-.1.8 0 0 .1-.1.2-.5.2s-.5 0-.2-.2zm28.8-.3c.2-.3 1-1 1.9-1.6 1.1-.8 1.5-1 1.7-.5.2.5-.5 1.2-2.2 2-1.4.8-2 .8-1.4 0zm-26-1.2a10 10 0 0 1 2.4-1.5l2.2-1-1.2 1c-.7.6-1.4 1-1.6.9-.1-.1-.7 0-1.2.4-.5.3-.8.4-.6.2zm30.2-2c.2-.3 1.2-1 2-1.5 1-.5 2.2-1.3 2.7-1.7l2.9-1.6c1-.4 2.2-1 2.8-1.5l2-1.3c.7-.3 2.2-1.7 3.6-3 1.8-1.8 2.4-2.3 2.7-1.9.5.8.4 1-.4.8-.4 0-.7 0-.8.5-.2.4-.7 1-1.2 1.3-1.6 1-4.5 3.4-4.5 3.7 0 .2-8.5 5.4-9.5 5.8-2.2.8-2.7 1-2.3.4zm-28.2-4.4.9-2.4c.2-1 2.6-6.5 2.8-6.3 0 .1-.4 1.3-1.1 2.8a12 12 0 0 0-1.2 3.2 12 12 0 0 1-2 4.1l.6-1.4zm43.3-3.6 1.2-1.2 1.1-1-1 1.1c-1 1.1-1.3 1.4-1.3 1zm-38-2.2.6-1.6c.4-.7.7-1 .7-.9 0 .2-.3 1-.7 1.6-.3.7-.6 1-.6.9zm-4.3-2.5 1.4-3a9 9 0 0 1 1.4-2.3c0 .2-.6 1.6-1.4 3a9 9 0 0 1-1.4 2.3zm2.9-1 .6-1.6c.4-.7.7-1 .7-.9 0 .2-.3 1-.7 1.6-.3.7-.6 1-.6.9zm4.9-3.6 1.1-1.7c.5-.6-.7 1.7-1.3 2.4-.3.4-.2.1.2-.7zm35.8 1c0-.2.5-.4.8-.5h.6c-.1.2-.5.4-.9.5h-.5zm-1.4-1.5-1-.7 1-.3 1.4-.4c.4 0 .5-.2.4-.5-.2-.4.3-.7 1.4-1.1 1.2-.5 1.5-.8 1.4-1.3 0-.3 0-.7.2-.7.3-.1-.3-.5-1.2-1-1.7-.7-2.3-1.3-1-.9.8.3 4.3 0 5-.5.3-.2.3-.4-.1-1.1-.5-.8-.5-.9.1-1 1 0 1 0 .7-1.4-.5-1.5.4-1.5 1 0 .3 1 .3 1.3-.2 1.6-.3.2-.6 1-.7 1.6-.1 1.2-.3 1.4-2.2 2.5-.8.4-1 .8-1 1.1.2.4 0 .7-1 1.1-.8.4-1.2.8-1.2 1.2 0 .4-.2.8-.4 1-.2 0-.3.3-.2.5.1.1 0 .4-.5.6-.8.5-.6.5-2-.3zm-23.7 0c.1-.2.3-.3.4-.3 0 0 .2.1.2.3 0 .2-.2.4-.4.4s-.3-.2-.2-.4zm-.2-.8c0-.2 0-.3-.4-.1-.5.1-.6 0-.4-.2.2-.3 0-.3-.3-.2-.4.1-.6 0-.6-.1 0-.5 2.5-.4 3.3.2.7.5.7.6-1 .7-.4 0-.8-.1-.6-.3zm-9.1-1.1c0-.7.6-1.8.6-1.3 0 .3 0 .8-.3 1.1-.2.3-.3.4-.3.2zm-5.5-.7c.2-.3.4-.5.5-.4 0 .1 0 .4-.3.6-.3.4-.4.3-.2-.2zm9.3-1.7-.5-1.7c.4 0 1.3 2.2 1.2 2.8 0 .3-.4-.1-.7-1.1zm-3-1.5c0-1.2 0-1.6.1-1v2.1l-.1-1.1zm-3.3 1 .4-.8c.1-.3.3-.4.3-.2l-.3.9c-.2.3-.4.3-.4.2zm-1.7-.3.3-.9c.2-.3.3-.4.3-.2l-.3 1c-.2.2-.3.3-.3.1zm2.8-3.6c0-.4 0-.5.2-.2v.7c-.1.1-.2 0-.2-.5z" style="fill:#3d403d;stroke-width:.352778" transform="translate(-44.6 -175.7)"/>
  <path d="M69.6 240.3h.7c.1.2 0 .3-.5.2-.4 0-.5 0-.2-.2zm6.2 0H77c.4.1 0 .2-.6.2-.7 0-1 0-.6-.2zm5.9-1a67 67 0 0 0 27-11.2 52.7 52.7 0 0 1-16.8 9c-4 1.3-11.7 3.1-13.2 3l3-.7zm5.8-5.9a83.7 83.7 0 0 0 11.8-7l5.3-3.3c1.3-.7 3-2 4-2.7 1.5-1.3 1.6-1.3 2.2-.6.6.6.6.7-.2 1.9-.4.7-1.3 1.7-2 2.4a90 90 0 0 1-12.5 7c-.6 0-4.3 1.2-6.2 2.1-1.7.8-2.6.9-2.4.2zm-31.2-2.8a26.3 26.3 0 0 0 8.8-5.2c1.3-1-2.6.9-4.2 2.1-.7.5-1.9 1.1-2.6 1.3-1.2.4-1.3.4-1-.2.2-.4 1-.8 2-1 1.2-.3 1.8-.8 3-2.3 2.3-2.6 5.3-7.6 7.6-12.3 1-2.2 2.5-5 3.2-6.2 1.4-2.5 2-6 1.2-7.4-.6-1.2-.2-1 1.8.9 2.3 2.1 3.2 4 3.2 6.2-.1 3.2-.6 4.2-3.7 7.3a46.9 46.9 0 0 0-7.6 9.7c-.8 1.7-3.7 4-7.3 5.8-2.1 1-4.4 1.7-4.4 1.3zm21.3-28.1c-.8-1.6-.9-1.3-.2.6.3 1 .6 1.4.7 1 0-.3-.1-1-.5-1.6zm-21.9 26.2L57 226c.5-1 .9-1.6 1-1.4.2.7.6.5.7-.2 0-1.2 2.9-7.2 4-8.4.6-.7 1.3-2 1.7-2.7l3.2-6.8a58.3 58.3 0 0 0 3.8-10l.8.5c.4.4.5.8.4 1-.2.2-.4 1-.6 1.7a65 65 0 0 1-4.8 11.8 71 71 0 0 0-3 7c-.3 2.2-2.7 5.7-5.5 8.4-1.6 1.5-3 2.7-3.2 2.7-.2 0 0-.4.2-1zm48.4-10.5a71.5 71.5 0 0 0 4.4-3.4c.2 0 .4-.3.5-.7.3-.8 1.3-.8 1.5 0 .2.3 0 .4-.3.3-.4-.1-1 .3-2 1.2a16 16 0 0 1-4.8 3.4c-.2 0 0-.3.7-.8zm4-9c0-.2.3-.4.6-.4.2 0 .6-.1.7-.3.1-.3-.1-.3-.7 0-.8.3-1.2.1-2.5-1-2-1.4-1.8-1.5.2-.3 1.1.8 1.5.9 2.1.6.4-.3.6-.6.5-.7 0-.2 0-.4.2-.6.2 0 .4-.5.4-.9s.4-.8 1.2-1.2c1-.4 1.2-.7 1-1 0-.4.2-.8 1-1.2 1.9-1 2-1.3 2.2-2.5.2-1.3.9-2 1.3-1.4.5.8.3 2.5-.5 4.2-.9 1.8-4.4 5.4-5 5.1-.3 0-.6 0-.8.2-.1.3 0 .3.3.2.7-.4-.8.8-1.5 1.2-.4.2-.7.2-.7 0zm-25.7-2.5c-1.5-.8-1.1-1 .4-.2.9.5 1.1.5 2 0 1.6-.7 1.9-.6.4.2l-1.4.7-1.4-.7z" style="fill:#2f3331;stroke-width:.352778" transform="translate(-44.6 -175.7)"/>
</svg>