<svg xmlns="http://www.w3.org/2000/svg" width="277.3" height="277.3" viewBox="0 0 73.4 73.4">
  <path d="M45.2 212v-36.7h73.3v73.3H45.2Z" style="fill:#fefefe;stroke-width:.352778" transform="translate(-44.6 -175.7)"/>
  <path d="M65.7 242.7c-5.5-2.8-12-8-13.6-11.2-1.1-2.2-1-3.5 1-7.4 1-2 2.4-4.8 3-6.4 1.2-2.7 1.2-2.9 1.2-7.8 0-3.8.2-5.2.5-5.3.2 0 1.4.4 2.7 1.1 1.8 1 2.3 1.2 3 .8 1-.5.8-1-.8-2-5.4-4-4.6-13.6 1.7-19.9 2.8-2.8 5-3.8 8-3.8 2.2 0 2.4 0 12 5a530.4 530.4 0 0 0 27.5 12.7c1.4 1.2 1.8 2.8 1.5 6.2l-.2 3.7c.3 4.3.2 4.8-1 7.5-1.7 3.2-4.4 6-6 6-.6 0-1.3.3-1.8.9A314.1 314.1 0 0 1 85.2 237c-4.6 3-9.1 5.3-13 6.4l-3 .8z" style="fill:#e2cfb6;stroke-width:.352778" transform="translate(-44.6 -175.7)"/>
  <path d="M65.5 242.5c-5.6-2.9-11.8-8-13.3-11-1.1-2.3-1-3.6 1.1-7.6 1-2 2-3.5 2.2-3.5.2 0 .2.2 0 .5-.3.2-.3.6-.2.7.1.1 0 .4-.3.6-.3.2-.3.3-.1.3 1 0 1.7-1.3 1-2.1-.4-.5-.3-.9.5-2.8.9-2.1 1-2.7 1-7.4 0-3.7 0-5.1.4-5.2.6-.2 2.4.5 3.7 1.4 1 .7 1 .7 2.2 0l1.2-.6-1.9-1.2a8.6 8.6 0 0 1-3.7-7.6c0-1.4.2-3.4.5-4.5.8-2.5 2.3-5.3 2.8-5 .2.1.2 0 0-.2-.3-.6 3-4 5-5.2 2-1.2 4.7-1.7 6.6-1.2.8.2 4.1 1.8 7.3 3.5 6.5 3.5 12.2 6.2 21.3 10 5.8 2.4 9.4 4 7.7 3.6-.4-.1-.8 0-.8.2s.4.3.9.3c2.3 0 3.4 3.3 2.7 7.8-.4 2-.4 2.6 0 3 .6.8.1 4-1 6.3-1.8 3.6-4.5 6.2-6.4 6.2a349.3 349.3 0 0 1-20.2 14.9c-1.9 1.3-4.9 3-6.6 4a41 41 0 0 1-10 3.3c-.3 0-2-.6-3.6-1.5zm-10.8-17.4L56 224c.2-.4.2-.6 0-.5-.1.1-.4 0-.5-.2-.5-.7-1.1-.3-1.7 1.1-.6 1.6-.6 1.6.8.8zm.3-1.2c0-.2.2-.3.4-.3s.3.1.2.3l-.4.4-.2-.4zm41.4-13.4c.4-.7.5-1 .2-1s-.7.5-.9 1c-.5 1.4 0 1.4.7 0zm2.6-4a36 36 0 0 1 4-4.8l2.8-3-1.2.3c-.6.2-1.1.5-1 .7 0 .1-.4.5-1 .8-.8.4-1.3.8-1.3 1.1 0 .3-.2.5-.4.5s-.3-.2-.2-.3l-.1-.7c-.2-.4-.4-.3-.7 0-.4.6-.4.6.2.4.6-.2.6-.2 0 .6-.6.6-.6.7-.2.4.5-.4.7-.4.7 0l-.7.5c-.4.1-.7.3-.6.5.3.4-1.2 2-1.9 2.1-.3 0-.4.1-.1.2.6.3.5.8-.1 1.4-.7.7-.7 1.2 0 1.2.3 0 1.1-.9 1.8-2zm-2.2-1.5c-.3 0-.4-.3-.3-.4 0-.2-.3-.2-.8-.1-.9.1-.9.2-.3.4.4.2 1 .3 1.3.3.3 0 .4 0 0-.2zm-2.8-1c-.5-.4-.4-1.1.2-1.5.8-.5 0-.4-1 .1-.7.4-.7.5-.2 1.3.3.4.7.6 1 .5.1-.1.1-.3 0-.4zm4.8.3c0-.2 0-.4-.2-.4l-.3.4c-.2.2 0 .3.1.3.2 0 .4-.1.4-.3zm-1.3-2.3c.3-.8-.2-.6-.7.2-.4.5-.4.6 0 .5.3-.1.6-.5.7-.7zm-6.6-.2.4-.7s-.5.3-.8.7l-.5.7.9-.7zm1.8.5c.9-.2 1-.7.4-1-.3 0-.8.2-1.1.6-.7.7-.5.7.7.4zm2.5-.7c-.3-.3-.8-.5-1-.4-.4.1-.2.3.4.6 1.2.5 1.2.4.6-.2zm-4.9-.5-.1-.3-.4.3c-.1.2 0 .4.1.4.3 0 .4-.2.4-.4zm5.3-.3c0-.2-.1-.5-.3-.6-.2 0-.4 0-.4.4 0 .3.2.5.4.5s.3-.1.3-.3zm-7.4-.5c0-.2-.4-.3-.8-.2-.5.1-.8 0-.8-.3 0-.2 0-.3.3-.2h1c.6-.3.6-.4.3-.6-.7-.5-1.1-.4-.8 0 .1.3 0 .4-.1.3l-1-.4c-.5-.2-.5-.3 0-1 .6-.6 1.8-.6 1.4 0-.2.2-.1.4 0 .4.2 0 .6 0 1 .2.3 0 .5-.1.5-.6s-.2-.6-.6-.2c-.4.3-.5.3-.3 0 .2-.2 0-.5-.5-.6-.4 0-.6-.3-.5-.5.3-.5 1.8-.3 2.4.2.4.3.5.3.5 0 0-.4-.1-.5-.3-.4-.1 0-.3 0-.5-.2-.1-.3-.4-.3-.7-.2-.3 0-.5 0-.5-.4 0-.3-.2-.4-.5-.3-.3.1-.5.4-.4.5.1.2-.1.4-.5.5-.4.2-.6.4-.5.6 0 .2 0 .4-.4.5-.3.2-.5.5-.5.7 0 .3-.4.5-.8.5-.7 0-.7.1-.3.4.3.2.4.3.2.3s0 .3.4.5c.3.3.8.5.9.4l.4.1c.2.4 2 .4 2 0zm2.5-2.2c0-.2-.3 0-.6.4l-1 1.3c-.3.3-.5.7-.5.9 0 .4 2-2.2 2-2.6zm2.8 2.4c.4.3.4.3.2 0-.1-.3 0-.4.3-.4.2 0 .6-.4.7-.8 0-.3 0-.6-.2-.5-.2.1-.3 0-.3-.1 0-.2-.3-.4-.6-.4-.5 0-.5 0 0 .5.8.5.8.5 0 .6h-1.3c-.6 0-.6 0-.3.3.3.1.4.5.3.8-.3.3-.2.3.1 0 .4-.3.6-.3 1 0zm-12-1.2v-.5a6 6 0 0 1 1.6-1.6l-.2.7c-.2.5-.2.7.2.9.3 0 .5-.1.6-.6 0-.4.3-.8.5-.8l.8-.1c.2 0 .4-.2.4-.5 0-.6 1.3-2 1.6-1.8.1.2.2 0 0-.2a.8.8 0 0 0-.7-.5c-.3 0-.5-.1-.4-.3.3-.3.2-.4-1.6-.5a4 4 0 0 0-2 .5c-.4.3-.8.4-.8.3 0-.5.2-.8.4-.7.1 0 .4-.1.6-.4.3-.3 0-.4-1-.4-1.3 0-1.4 0-.9-.4.5-.3.5-.5.1-1.1-.5-.9-.8-1-1.2-.4-.1.3 0 .3.3.2.4-.3.4-.2 0 .1-.3.4-.5.4-1.3-.1-.9-.6-1-.6-2.2.7-.7.6-1.2 1.3-1 1.4 0 .1-.2.8-.7 1.4-.5.7-.9 1.3-.7 1.5 0 0 .2 0 .2-.2s.2-.4.4-.3c.3 0 .4-.2.4-.4s0-.4.3-.4c.1 0 .3-.2.2-.5 0-.2.3-.5.8-.5.7-.1.8 0 .4.4-.3.4-.3.5 0 .6.3.1.7 0 .9-.4.3-.4.4-.3.2.5 0 .5-.4 1-.7 1.2-.2 0-.3.3-.2.5 0 .2.4 0 .6-.3.4-.6 1-.4 3 .8 1 .5 1.2 1.4.6 2.2-.2.2-.2.4.1.4.2 0 .4-.2.4-.4zm.4-2.2.9-1.5c.5-.6.8-1.3.7-1.5-.1-.2 0-.3.5-.1.9.2.9.6 0 1-.4 0-.8.3-.8.5v.7c0 .2-.3.3-.4.3-.2 0-.5.2-.6.4-.2.3-.3.4-.3.2zm1.7-.8c0-.2.2-.5.4-.5.1 0 .2.3.1.5l-.3.6-.2-.6zm-3.5-.5c0-.1.1-.4.3-.5.2-.1.3 0 .2.3-.3.6-.5.7-.5.2zm4.6-.3c-.4-.3-.4-.4.1-.6.3-.1.8 0 1 .1.5.5-.5.9-1.1.5zm-5.5-1.6 1-.5c.2 0 0 .2-.3.5l-1 .5c-.2 0 0-.2.3-.5zm-2.8-.9c-.1-.2 0-.3.3-.1.6.2.7.4.2.4-.1 0-.4-.1-.5-.3zm1.4-.3c0-.2 0-.3.4-.3.2 0 .4.1.3.3l-.3.3-.4-.3zm2.4 5.4a.9.9 0 0 0-.8-.5c-.5 0-.4 0 .1.5.9.7 1 .7.7 0zm12.4 0c0-.3 0-.5-.2-.3-.2 0-.3.3-.3.5 0 .5.2.4.5-.2zm-18.9-.9c0-.2-.1-.3-.3-.3-.2 0-.3.1-.2.3l.4.4.1-.4zm-4.2-4.2c0-.2-.2-.4-.4-.4s-.2.2-.1.4.3.3.4.3l.1-.3zm4.4-.9c.5.2.5.4.1.8-.4.5-.3.5.3.2.4-.3 1-.8 1.3-1.3.3-.4.8-1.1 1.2-1.4.6-.6.6-.7-.2-.4-.4.1-1 0-1.5-.3l-.7-.5.8-.2c.7-.1.7-.1-.2-.2-.5 0-.9-.2-.7-.4.3-.5-.8-.8-1.4-.4-.7.6-1 0-.3-.8.5-.6.5-.6-.3 0-1 1-2 1.1-1.5.4.2-.3.1-.3-.3 0-.5.4-.6.4-.7 0-.3-.6.3-1.3 1-1.3l-.2.4c-.5.3-.5.3 0 .2.4-.1.7 0 .8.2.1.3.2.3.2 0 0-.5-1.3-1.8-1.9-2a6 6 0 0 0-1 .1c-.3 0-.6-.1-.6-.3 0-.3-.1-.4-.5 0-.2.2-.5.2-.7.1-.3-.3-1.7.2-1.4.6 0 .2.4.2.7 0 .4 0 .5 0 .3.3-.1.2-.5.3-.8.2-.3-.1-.4 0-.3.3.1.4 0 .5-.5.3-.8-.2-.8-.2-.3-1.2.4-.7.4-.7-.1-.3-.4.3-.6.7-.6 1 0 .3-.2.4-.3.3-.2 0-.3 0-.3.3s.1.4.3.3c.2-.1.4 0 .6.1 0 .2.6.6 1 1l1 .6-1-.2c-.7-.2-1-.1-1 .1 0 .3.2.3.4.2.3-.2.3 0 .2.2-.2.3-.4.3-.8 0s-.5-.3-.5.3c0 .7 1 1 1.2.2.1-.3.4-.5.6-.5.2 0 .3.2.2.5-.2.6.6.4 1.4-.2.2-.2.4 0 .4.2 0 .3-.4.6-.8.6-.5 0-.4.1.4.4 1.3.4 2 .6 2.5.6.2 0 .3.3.2.6 0 .3 0 .5.4.5s.5-.2.4-.4c-.2-.3-.1-.3.1-.2.3.2.4.4.3.5-.1.1.1.4.6.6.6.4.8.3 1.3-.2a1 1 0 0 1 1.2-.5zm.1-.9c.2-.3.3-.7.2-.8-.1-.1 0-.2.2-.2.6 0 .5.5-.2 1-.6.5-.6.5-.2 0zm-1.1-1.1c.1-.4.3-.6.4-.5.1.1 0 .4-.2.7-.4.3-.4.3-.2-.2zm-3.5-.5c.1-.3.5-.7 1-.9.6-.4.6-.3-.2.5-1 1.1-1.1 1.2-.8.4zm1.9-.7c0-.4.2-.5.7-.4.5.1 1 0 1.3-.1.3-.3.4-.3.4 0 0 .2-.3.5-.6.7-1 .5-1.2.5-.9 0 .2-.4 0-.4-.3 0-.5.4-.6.4-.6-.2zm-3.2 2.7c0-.2-.1-.4-.3-.4-.2 0-.3.3-.3.5 0 .3.1.5.3.4.2-.1.3-.4.3-.5zm-1 .2-.4-.4c-.2-.1-.4 0-.4.2s.2.3.4.3l.3-.1z" style="fill:#d9c5ad;stroke-width:.352778" transform="translate(-44.6 -175.7)"/>
  <path d="M65.5 242.5a35.7 35.7 0 0 1-13.2-10.9c-1.2-2.4-1-3.9.8-7.1 1.6-2.9 2.2-3.5.9-1-1 2-1 2.7 0 2.2l1-.7c.3-.3 3.3-1.2 3.7-1.1.1 0 0-.4-.4-1-.4-.8-.8-1-1.2-1-.4.1-.6 0-.4-.1 0-.2 0-.3-.2-.3-.3 0-.3-.2-.2-.5.6-.8.5-1.3-.2-1.1-.5.1-.6 0-.5-.5.2-.7.3-.7.8-.2.4.3.7.4.9.3.2-.3 0 .6-.3 1.2-.4.7 0 1 1 .5.4-.2.5-.4.3-.4s-.4-.3-.4-.7c0-.4-.5-1-1-1.4-.5-.4-.7-.8-.5-.8.2 0 .5.2.6.4.1.2.4.3.6.3.1 0 .2-.1.1-.3-.1-.2 0-.5.3-.6.5-.3.5-.4-.3-.8-.9-.5-1-1.3-.2-1.2.2 0 .4 0 .4-.2 0-.3.1-.3.3-.2.2.1.3 0 .2-.3-.2-.3-.4-.6-.6-.6-.4 0-.4-1.3 0-1.6.3-.1.3 0 .2.5-.2.5-.1.5.4 0 .5-.8.4-1.5-.3-1.2-.3 0-.4-.6-.5-1.9l-.3-3.5c-.3-2 .4-2.2 3.3-.8 2.1 1.2 2.2 1.2 3.2.5l1-.6-1.7-1.2a8.5 8.5 0 0 1-3.8-7.6c0-2.5.6-5.5 1.6-7.4.5-1 .5-1 1.4-.4.5.3.9.8.9 1.1 0 .3.1.4.3.3.2 0 .5 0 .8.3l1.3.9c.5.2.6.3.3.2-1-.2-.7 0 .7.9.8.5 1.3.6 1.4.4.3-.8.8-.4.7.4-.2.8 0 .9.7.7.4 0 .8 0 .8.3 0 .5.6.4 1.2-.2.6-.6 1-.7.9-.3-.2.7.5 1.5 1 1.3.4-.2.5-.1.3.2-.4.6.8.9 1.4.4.4-.4.5-.4.3 0-.2.5 0 .6.5.5.5 0 .7 0 .6.2-.1.2-.4.2-.6.1-.1 0-.3 0-.3.2 0 .6 1.4.7 1.5 0 .1-.3.2-.2.2.3 0 .7 0 .8-.7.6-.5-.1-1-.5-1.3-.8-.3-.4-.4-.4-.4 0 0 .3-.1.3-.6-.2-.4-.3-1-.6-1.6-.7a3 3 0 0 1-1.2-.3 1 1 0 0 0-.6-.3c-.2 0 0 .2.3.5.4.3.6.7.4 1-.1.4 0 .7.5.8.4.1.7.3.6.5 0 .6.1.7.8.4.4-.3.7-.3.6 0-.1.1.1.5.5 1l.6.3c-.3-.4.8-1.6 1.4-1.4.3.1.3.5.2 1-.2.7-.1.9.3.8.2-.1.4-.4.4-.6 0-.2.2-.3.5-.2.4.1 1 0 1.3-.4.3-.3.7-.5.7-.4.1 0 0 .4-.3.7-.7.7-.2.8.5.2.4-.4.4-.4.2 0-.2.2 0 .4.3.4s.6-.2.6-.4c0-.3.1-.2.3.1.2.4.6.7.7.7.2 0 .3-.2.2-.4-.1-.1 0-.4.3-.5.4-.1.5 0 .3.3 0 .3 0 .6.3.6s.2.1-.2.3c-.4.2-.5.3-.3.3l1.4.4c.7.3.8.5.5.8-.6.7-.4 1 .3.6.5-.2.7-.6.6-1.2-.1-.7 0-.8.9-.7.5 0 1.1.2 1.3.3.1.2 0 .2-.4 0-.6-.1-.6 0-.3.4.3.3.3.5 0 .7l-.3.6c0 .3.1.3.3 0 .2-.3.5-.4.8-.2.3.1.3 0 .2-.2-.4-.5 0-1 .6-.9.3.2.5.4.3.6-.1.3 0 .3.4.2.5-.2.5-.2.2.4-.3.6-.2.8.2 1 .3 0 .7 0 1-.2.2-.3.1-.3-.5-.2-.6.2-.7.1-.5-.2.2-.3 2.1-.2 2.6.1.3.3-.5 1.2-.8 1-.2 0-.3 0-.1.1.2.2.6.4.9.4 1.6.1 1.8.2 1.6.5-.3.5.3.4.9 0 .3-.4.4-.4.3 0 0 .3-.3.6-.5.8-.1.1-.2.3 0 .5.1.1.5-.1.8-.5.6-.9 1.4-.7 1 .2-.2.4 0 .4.5-.1l.8-.7-.7 1.1c-.3.6-.8 1.2-1 1.2-.2 0-.6.3-1 .7-.3.4-.4.7-.2.7s.2.3.1.8l-.1 1.3-.2 1a8 8 0 0 0-.3 1.5c-.2.8-.1.8.4.2l.5-1.2c0-2.4 9.6-14.5 10.9-13.7.1.1.4-.1.5-.5.1-.7 0-.7-.6-.5l-1.6.2a4 4 0 0 0-1.6.6c-.9 1-1.6 1-.9.1.3-.4.2-.3-.5.2-.7.6-1.2.7-1.8.5-.4-.2-.7-.5-.6-.8 0-.3-.1-.3-.6-.1-.9.4-2.2.3-2.7-.2-.2-.3-.2-.4 0-.3.2.2.4 0 .4-.2 0-.4-.1-.5-.5-.1-.3.2-.6.2-.7 0l-1-.4c-.9-.2-1-.2-.7-.9.2-.3.5-.5.7-.3.2 0 .3 0 .1-.1-.4-.5-1.4-.5-2-.1-.2.2-.5.3-.6.1-.2-.1-.1-.3.1-.4.3-.1.5-.4.5-.6 0-.2-.2-.1-.6.1-.4.4-.7.4-1.5 0s-.8-.4-.2-.7c1-.3 1-1.3 0-1.5-.7-.1-.9 0-.7.5.2.7-.5 1.3-1 .6v-.6l.7-.8c.5-.5.4-.6-.5-.4-1 .1-1 0-.9-.6.1-.6 0-.7-.2-.6-.2.2-.4.1-.4-.1s-.2-.3-.4-.2c-.2.1-.3 0-.3-.3 0-.5-.2-.5-.7-.2-.8.4-1.5.4-1.3 0l-1 .1c-.7.2-1.1.5-1 .7 0 .1 0 .2-.2.2s-.4-.2-.4-.5-.2-.5-.5-.5-.6-.2-.6-.4-.3-.3-.7-.1c-.5.1-.7 0-.5-.2.1-.2 0-.4-.2-.4s-.3-.3-.2-.8c.2-.6.2-.6-.3.2-.6 1-1 1.3-.8.4.3-.5 0-.6-1.2-.5-.3 0-.7-.1-.8-.4-.2-.2-.2-.3.1-.2.3.2.3.1.2-.3-.2-.4-.3-.4-.7-.1-.3.3-.4.2-.3-.4.2-.4 0-.7-.2-.7s-.3-.2-.2-.4c.4-.6-.1-.3-.9.5l-.8.8.4-.8c.3-.5.3-.8 0-1-.1-.1-.3 0-.3.2 0 .5-.4.4-1.2-.2-.4-.3-.5-.4-.2-.3.3.2.4.1.3-.1-.2-.2 0-.5.2-.6l-.8-.1c-1.4 0-4-1-3.7-1.3.4-.4-.1-.3-1.5.3l-1.4.5 1.3-1c3.3-2.9 6.9-3.4 10.5-1.6 12.9 6.7 17.7 9 25.2 12.2 7.6 3.1 8.7 3.7 8 4-.8.3-.8.3.5.5a4 4 0 0 1 2.2 1.2c1 1.2 1.3 4 .7 6.8-.3 1.9-.3 2.3 0 2.9 1.2 1.5-.5 6.8-3.2 9.9-1.4 1.6-2.9 2.5-4 2.5A313.3 313.3 0 0 1 85.2 237a79.1 79.1 0 0 1-7 4c-3 1.5-7.7 3-9 3-.4 0-2-.7-3.7-1.5zm8.6-1c.4-.2.2-.2-.5 0-1.3.2-1.6.4-.7.4.4 0 .9-.1 1.2-.3zm2.3-1c-.1 0-.4 0-.6.3-.4.4-.3.4.2.2.3-.1.5-.3.4-.4zm3.4-1.3a.8.8 0 0 0-.8.2c-.3.3-.2.3.4.2.5-.2.7-.3.4-.4zm6.8-3.8c2.3-1.5 3-2.3.8-1-2.4 1.4-2.9 1.7-3 2l-1 .3c-.3 0-1 .4-1.3.7l-1 .7c-.2 0-.3.1-.3.3 0 .4 2.4-.8 5.8-3zm3.7-2.5c0-.4-.6-.4-.8 0-.1.4 0 .5.3.3.3 0 .5-.2.5-.3zm-28.8-10.6c.4-.2.5-.5.3-.6-.2-.2-.5 0-.6.2-.1.3-.6.5-1 .4-.5 0-1 .1-1.2.3 0 .2 0 .3.2.1.2-.1.4 0 .4.1 0 .4 1 .2 2-.5zm2.6-.7c.1-.2.4-.4.6-.2.2 0 .2 0 .1-.2-.2-.4-2.3-.1-2.3.3 0 .3.5.6 1.1.6.2 0 .4-.2.5-.5zm28.7-13.8c-.2-.1-.6 0-.8.2-.3.3-.1.3.5.2.4-.2.6-.3.3-.4zm.6-2c-.1-.2-.4-.2-.7 0-.3 0-.2.1.2.1s.6 0 .5-.2zm-3.2-1.1c0-.1-.4-.2-.6 0-.3 0-.2.1.2.2.3 0 .5-.1.4-.2zm-6.5-2.3c0-.4-.4-.7-1-.7-.4 0-.5.1-.1.3.3 0 .6.4.8.6.4.7.5.6.3-.2zm-7-.8c.2.1.2 0 0-.2-.3-.7-.8-.4-.8.4 0 .6 0 .6.2.2 0-.4.3-.5.5-.4zm3.8.2c0-.4.4-.6 1.4-.5.4 0 .4 0 0-.2-.9-.6-2-.3-2.1.6 0 .5 0 .7.3.6.3 0 .5-.3.4-.5zm27.6-3.3c.2-.2 0-.3-.1-.3-.2 0-.4.1-.4.3 0 .2 0 .4.2.4l.3-.4zm-42-4.9c.2.4.2.4.2 0l-.1-.7-.8-.2c-.5-.2-.5-.1-.4.3.2.3 0 .6-.1.6-.2 0-.3.2-.1.4.1.3.3.2.6-.2.2-.5.4-.5.6-.2zm-3.7-3.9c-.8-.5-1.2-.4-.5.2.4.2.8.4.9.3 0 0 0-.3-.4-.5zm-5.5 28c-.6-.2-.6-.8 0-.8s1.1.6.7.8H57zm38.6-8.7c0-.3.3-.6.5-.6.5 0 .2.8-.3 1-.3 0-.4 0-.2-.4zm1.2-4.3c0-.2 1.3-.4 1.7-.2.2.2 0 .3-.6.3h-1.1zm1.9-2.6c.2-.3 0-.4-.5-.2s-.7 0-.5-.3c.1-.3 0-.6-.5-.7-.3 0-.1-.1.5-.1s1 .1 1 .2l.2.6c.3.3.2.5 0 .7-.3.1-.4 0-.2-.2zm-10-1.2c.3-.3.5-.5.6-.4.2.2-.3.9-.7.9-.2 0-.1-.3.1-.5zm12.5-.6c.1-.2.3-.3.4-.3l.1.3c0 .2-.2.4-.4.4s-.2-.2-.1-.4zm-23.5-1.2c-.2-.2.1-.7.6-1.2s1-.8 1-.6c.2 0 .1.2 0 .2-.2 0-.4.3-.4.8 0 .7-.8 1.2-1.2.8zm4-.2.5-.4.1.4c0 .2-.2.3-.4.3s-.2-.1-.1-.3zM69 193.6l.5-.4c.2 0 .3.2.2.4-.1.2-.4.4-.6.4-.2 0-.2-.2-.1-.4zm4.4 0c-.3-.2-.7-.2-.8-.1-.2.1-.3 0-.1-.2.2-.3.4-.3 1 0 .3.2.8.2 1 0 .3 0 .3 0 .2.2-.3.5-.6.6-1.3.1zM71 193c-.3-.2-.3-.3 0-.4l.5.4c.3.4.2.4-.5 0zm13.3 0c.3-.3.6-.4.7-.3 0 .1-.1.3-.5.4-.5.2-.5.2-.2-.1zm-1.1-1c.1-.3.4-.3.5-.2.5.3.4.5-.2.5-.3 0-.4-.2-.3-.4zm-20-4.1c0-.3.3-.5.4-.5.2 0 .3.2.1.5 0 .3-.3.5-.5.5-.1 0-.2-.2 0-.5zm-1-.3.6-.6c.6-.5.6-.5.2 0-.5.7-.8.9-.8.6z" style="fill:#d0bba3;stroke-width:.352778" transform="translate(-44.6 -175.7)"/>
  <path d="M65 242.2c-7.4-3.9-13.5-9.8-13.5-13.2 0-1.3 1-3.8 1.4-3.3.1.2 1.2 0 2.8-.7 1.3-.5 3.4-1.3 4.6-1.6 1.5-.4 2.2-.8 2.2-1.2 0-.4 0-.4.2-.1.2.3.8.2 2.1-.5 2.1-1 2.4-1.5.7-1.4a4 4 0 0 1-1.7-.2c-.4-.2-.7-.1-1 .3-.3.3-.7.4-.9.3-.2 0-.7.1-1 .4-.4.3-.6.4-.3.3.2-.1.5 0 .6.1.2.3-.5.3-1.2 0h-1l-.7.1.7-.5c.7-.5.7-.6 0-1.2-.5-.6-.5-.6-.5 0 0 .4.1.6.3.4.2 0 .4 0 .4.2 0 .6-.6.4-1.2-.5-.5-.7-.5-.8 0-.7.3.2.5 0 .5-.4 0-.3.1-.5.3-.4.2.2.4 0 .5-.3.1-.3 0-.5-.1-.3-.5.3-.4-.2.1-.7.3-.3.6-.4.8-.3.2.1 0 0-.2-.3-.2-.4-.3-.8-.2-1 .2-.3.1-.4-.1-.2-.3.1-.4 0-.4-.3l.2-.7h-.1c-.2 0-.5-.2-.6-.6 0-.4 0-.6.1-.5.2 0 .4-.2.5-.6l-.1-.7c-.2 0-.3-.4-.2-1 0-.6-.1-1.3-.4-1.7-.5-.6-.5-.5-.4.2.2.5 0 .8-.2.7-.2 0-.5-1-.6-2.2-.2-2.3-.1-3 .4-3 .2 0 .3.2.2.5-.2.6 0 .7.8.2.4-.2 1 0 2.2.6 1.6.9 1.7.9 2.7.2l1-.6-1.6-1.2c-3.1-2-4.4-5.6-3.8-10 .3-1.6.3-1.7 1.2-1.5h.6c-.5-.5-.6-1.3-.1-1.3.2 0 .4.4.5.7.3 1 .8 1 .7.1v-.1c.1.2.4.4.7.3.3-.2.4 0 .3.6-.2.7-.2.7.3 0 .4-.5.5-.5.5.3 0 .5-.2.8-.3.7-.2 0-.3.1-.3.5 0 .5 0 .5 1 0 .4-.4 1-.6 1-.4.2 0 0 .2-.2.2s-.3.1-.2.4c.2.2.1.3-.1.1-.2-.1-.4 0-.4 0 0 .3.5.6 1.1.9.8.4 1.1.7 1 1.2v.7l.5-.7c.6-.7.6-.7.3.2-.2.8-.2.8.4.2.7-.7 1.2-.7 1.5 0 0 .2.4.3.9.2.7-.2.7 0 .5 1.1-.2 1-.1 1.5.5 2.1l.7.8.7-.8c.8-1 1-1 .9.2 0 .8 0 1 1 .8.7 0 1 0 1 .6 0 .8.6 1.2 1.7.9.8-.2.8-.2.4.3-.6.7 0 .8.6.2.4-.4.4-.3.3.5-.2 1.1.2 1.3 1 .5.3-.3.4-.6.3-.6 0 0 0-.4.4-1 .5-1.1 1.3-1.5 1-.5-.2.4-.1.5.3.4.6-.2 1.5 1.3 1.1 2-.1.2 0 0 .4-.3.3-.4.5-.5.5-.2 0 .2.2.3.6.2.4-.2.5 0 .3.3-.2.7.8 1.1 1.3.6.2-.2.6-.4 1-.4.3 0 .3.1-.2.6-.3.3-.5.8-.4 1 .1.3 0 .5-.2.6l.9.2c1.4.3 1.9.9.8 1-.4.1-.5 0-.4-.2.2-.2-.1-.4-.7-.3-.7 0-.8 0-.4.2.4 0 .6.3.4.8-.1.4.1.8.7 1.2.8.5 1 .5 1 0 0-.3-.2-.5-.4-.4-.2.1-.4 0-.5-.3-.2-.4 0-.5.4-.4.5.2.8 0 1-.7.3-.6.4-.8.4-.4 0 .3.2.6.4.6s.4.3.4.6c0 .2-.3.5-.5.5-.3 0-.6.1-.8.3 0 .2 0 .3.4.2.4-.2.5 0 .3.4-.2.6-.2.6.3 0 .4-.4.8-.6 1.2-.4.6.2.6.2 0-.3-.9-.7-.7-1 .3-.5.6.3.8.6.7 1-.2.5 0 .7.5.7.4 0 .7-.2.6-.3-.1-.2.1-.3.5-.2.4.1.7.4.7.6 0 .1-.1.2-.3 0-.2 0-.7 0-1.2.2-.7.3-.7.4.4.4.9 0 1.1.1.8.3-.5.3-.5.5 0 1.7.2.5.2.8 0 .8s-.4.4-.3.9c0 .5.1.8.2.7l1.7-3.5c1.8-4 5.3-9.5 5.8-9.1.3.1.3 0 .2-.2-.2-.3 0-.6.6-.8l1-.5h-.5c-.5.2.3-.4 1.4-1.2.3-.2.4-.3 0-.2-.4.3-.4.2 0-.3.3-.3.7-.5 1-.4.3.1.5 0 .5-.1 0-.5 3.3-1.9 4.4-1.9 1.4 0 3.3 2.1 3.4 3.6v1.7c.1.3 0 1.5-.2 2.7-.3 1.7-.3 2.3 0 2.8 1.9 2.6-2.9 11.6-6.5 12.4-1.2.2-1 .1-6 4-9.3 7.2-17.5 13-21.9 15.1-1.8 1-8.6 3.3-9.5 3.2-.3 0-2.2-.8-4.1-1.8zm10.5-1a42 42 0 0 0 8.5-4.1 39.7 39.7 0 0 0 7.9-5.8c-.5.4-.9.6-1 .5-.1-.1-.2 0-.2.2s-.3.4-.6.4c-.2 0-.5.2-.5.4s-.2.3-.5.3-.5.2-.5.4c0 .1-.4.4-1 .5-.4.1-.8.4-.8.6 0 .3-.2.1-.4-.3-.2-.6-.3-.6-.3.1 0 .6-.2.8-.9.8-.6 0-.9.2-.9.6 0 .5 0 .6-.3.2-.2-.3-.3-.4-.4-.1-.2.6-2 .7-1.8.1 0-.3-.1-.4-.3-.2-.3.1-.3.3 0 .7.3.3.3.6 0 1-.2.5-.3.5-.3.3 0-.3-.2-.4-.4-.3-.2.1-.5 0-.6-.4-.4-.8-1.2-1-1.2-.3 0 .3.2.5.4.4.4-.3.8 1.2.4 1.7-.2.2-.4.2-.4 0s-.1-.2-.3 0c-.3.5-3.2 1.7-5.8 2.5l-2 .7c0 .3 2-.1 4.2-.9zm-10.2-.1c-.3-.3-1-.6-1.4-.7-.7-.2-.6 0 .3.4 1.5.9 1.8 1 1 .3zm2-2.9c0-.3-.6-.5-.8-.2-.1.2 0 .4.3.4s.6 0 .6-.2zm1.7-1.4c0-.3 0-.4-.3-.3-.1.1-.3.3-.3.5s.2.3.3.3c.2 0 .3-.2.3-.5zm9-.4-.3-.3c-.2 0-.6.2-.8.6-.4.8-.4.8.2.3l.8-.6zm-7 0-.4-.3c-.2-.1-.4 0-.4.2s.2.3.4.3l.3-.1zm-2.7-.6c0-.3-.2-.7-.4-.8-.1-.2-.2-.1 0 .1.1.3 0 .5-.2.5-.4 0-.3 0 0 .3.7.5.7.5.6-.1zm9.7-.8c-.4-.5-.7-.8-.7-.6 0 .5 1 2 1.3 1.8a3 3 0 0 0-.6-1.2zm1-.6c-.3-.3-.3-.3-.1.2.1.4.3.6.4.5.1-.1 0-.4-.2-.7zm6-1c-.3-.1-.6 0-.6.2l-.7.9.5-.2c.8-.4 1-.7.7-.9zm-1.7.2c0-.3-.7-.5-.9-.2 0 .2 0 .3.4.3l.5-.1zm-21.6-13.7.8-.4c.1 0 .4 0 .5-.2.1-.1 0-.2-.3-.2s-.7.2-.8.4c-.2.1-.6 0-1-.3-.8-.5-1.3-.4-1.3.2 0 .2.3.3.6.3s.4.2.3.3c-.2.4.5.3 1.2-.1zm3.3-.8c0-.2-.3-.4-.5-.3-.5.3-.3.8.2.8.3 0 .4-.2.3-.5zm1.3-.3c0-.3-.7-.5-.8-.2-.1.1 0 .3.3.3l.5-.1zm-5-1.2-.6-.4c-.2 0-.2.3 0 .5.6.6.9.5.5 0zm31.4-4.8H92c-.3 0-.2.2.2.2s.6 0 .5-.2zm-1.7-1.2c0-.2-.2-.2-.5-.1-.3 0-.5.2-.5.3l.5.1c.3 0 .5-.1.5-.3zm-4.7-2.1c0-.2 0-.4-.2-.4s-.4.2-.4.4.1.3.2.3l.4-.3zm-1-1.2a7 7 0 0 0-.4-1c-.3-.5-.4-.6-.8-.1-.3.2-.4.7-.3 1 .2.5 1.5.6 1.4 0zm-26.7-1c-.5-.6-.9 0-.6.7.2.5.3.5.6 0 .2-.3.2-.6 0-.8zm23.8-1c-.1 0-.4 0-.6.3-.4.4-.3.4.2.2.3-.1.5-.3.4-.4zm1.6-.2-.4-.3c-.2-.1-.3 0-.3.1 0 .2.1.4.3.4.2 0 .4 0 .4-.2zm26-.6c-.1-.3-.2-.2-.2.2s0 .6.1.5c.2-.1.2-.4 0-.7zm2.7-2.9c-.4-2.8-2.3-3.8-5-2.6l-.7.5c2.4-.7 3-.6 4.1.4.9.8 1.2 1.4 1.4 3 .1 1 .3 1.5.3 1v-2.3zm-3 2.1-.8-.6c-.7-.3-.7-.3-.3.2.5.5 1.1.8 1.1.4zm.7-1c-.5-1-2-1.6-2.5-1-.2.2 0 .4.9.6.8.1 1.3.5 1.5 1 0 .3.3.6.4.4.1 0 0-.6-.3-1zm.8-1.4c-.8-1.5-2.7-1.7-4.5-.6-1.6 1-1.5 1.2.2.3 2.2-1.1 4-.5 4.5 1.6.1.7.3 1 .4.5 0-.4-.2-1.2-.6-1.8zm-4.7 1-.7.2-.7.5c0 .1.4 0 .7-.2l.7-.5zm-.8-2c0-.1 0-.2-.4 0-.6.2-.7.4-.2.4l.6-.3zm-42.9-7.2c-.2-.3-.7-.5-1-.5-.4 0-.3.2.3.5 1.1.7 1.2.7.7 0zm-9.7 30.4c.2-.3.4-.5.5-.4 0 .1 0 .4-.3.6-.3.4-.4.3-.2-.2zm5.3-1.6c-.1-.2 0-.4.2-.4s.3.2.3.4l-.1.3-.4-.3zm33.3-14.3c0-.3 1-.5 1.3-.2 0 .2-.1.4-.5.4s-.8 0-.8-.2zm3.2-.4c0-.2.2-.5.3-.5.2 0 .3.3.2.5l-.4.6v-.6zm-1.4-.3c0-.5.1-.5.2-.3v.7c-.1.1-.2 0-.2-.4zm-4.4-1c-.3-.4.7-.5 1.6 0 .9.4.9.4-.3.4-.7 0-1.3-.2-1.3-.3zm1.5-1.2h.7c.1.2-.1.2-.5.2s-.5 0-.2-.2zm-14.3-2.9c-.3-.1-.2-.4.3-.7.5-.3.7-.3.7.1 0 .7-.5 1-1 .6zm-2.2-1.7c0-.4.1-.5.3-.2.1.2.5.5 1 .6.5 0 .4.1-.3.2-.7 0-1-.2-1-.6zm24.2-2.6c0-.2 0-.3-.4-.3-.3 0-.5-.2-.5-.4s.2-.3.5-.3l.5.1.3.7c0 .3 0 .6-.2.6-.3 0-.4-.2-.2-.4zm5.4-.4c0-.2-.1-.2-.3-.1-.2.1-.4 0-.5-.1a.8.8 0 0 0-.8-.2c-.4.2-.5.1-.3-.2v-.4l-1.2-.1c-.5 0-1.1 0-1.3.2-.3.2-.5.2-.7 0-.1-.3 0-.4.3-.4.4 0-1-.7-1.7-1l-1.2-.2c-.5-.2-.6-.1-.5.4 0 .4-.2.7-.8 1l-1 .4c-.1 0 .3-.7.9-1.3 1.2-1.4.7-2.2-.7-1-1.2 1-1.7.8-.5-.3.9-.8.7-1-.6-.9-.3 0-.4-.1-.3-.4.2-.4 0-.7-.8-.9-.5-.2-1-.3-1.2-.1 0 0-.2 0-.2-.3 0-.2-.3-.4-.7-.4a2 2 0 0 1-1.2-.5c-.3-.3-.7-.5-.9-.4-.1.1-.6 0-.9-.4-.5-.4-.7-.5-1.2-.1-.6.3-.7.2-.9-.3-.3-.9-1.6-1-2.8-.2-.9.6-1.8.4-1.4-.3.2-.2 0-.3-.3-.1-.3.1-.6 0-.6-.1 0-.2.2-.4.5-.5 1-.4.6-.8-.6-.8-.8 0-1.4-.2-2-.7-.4-.5-.8-.8-1-.8h-.6a.8.8 0 0 1-.7-.5c0-.4 0-.5.5-.4.3.1.7 0 .9-.2.1-.2 0-.4-.3-.4l-1-.1c-.2 0-.8 0-1 .2-.5.2-.7.2-.7 0 0-.3-.2-.3-.5-.2-.3.2-.3.1 0-.3.4-.4.4-.6-.2-.7-.4-.1-.7 0-.7.2s-.4 0-.8-.5c-.8-.8-1-.9-1.6-.4-.7.5-.8.5-.6 0 .1-.4 0-.6-.6-.8-.8-.2-.7-.3.7-1 2.8-1.2 4.7-1 9.1 1.3 8.7 4.5 17.6 8.8 24.3 11.5 7.3 3 8.8 3.8 6.4 3.4-.8-.2-1.3-.1-1.2 0 .1.2-.2.3-.7.3-.6 0-1.5.1-2.1.3-.7 0-1.2 0-1.2-.2zM81.6 189a.7.7 0 0 0-.8-.1c-.4.2-.3.3.2.5.8.3 1.1 0 .6-.4zm-12 8.1c0-.2 0-.3.2-.3s.4.1.4.3l-.1.4-.4-.4zm27 0 1-.3-.2.3-.9.4c-.2 0-.1-.2.2-.4zm-28.2-.6h.7c0 .2-.1.3-.5.2-.4 0-.5 0-.2-.2zm-2-1.1c-.5-1-.5-1.5 0-.6.3.6.4.6.8 0 .5-.6.5-.6.3.1-.3 1.1-.7 1.3-1.1.5zm4.8-.3h.7c.1.2-.1.3-.5.2-.4 0-.5 0-.2-.2zm-11.2-3c0-.4 1-2.4 1.2-2.4 0 0 0 .6-.3 1.2-.3.7-.4 1.3-.3 1.4.1.1 0 .2-.2.2s-.4-.1-.4-.3zm3.7-.6c-.1-.2 0-.4.1-.4.2 0 .5.2.6.4.1.2 0 .3-.1.3-.2 0-.5-.1-.6-.3zm12.8-2.9c.2-.2.5-.3.6-.2.1 0 0 .3-.4.4-.5.2-.6.2-.2-.2zm1.1 0c0-.1.2-.3.4-.3l.5.4c.1.2 0 .3-.3.3s-.6-.1-.6-.3zm-10.7-6 .3-.3.2.4c0 .2-.2.3-.4.3s-.3-.1-.1-.3z" style="fill:#c6af97;stroke-width:.352778" transform="translate(-44.6 -175.7)"/>
  <path d="M65 242.1c-9.1-4.8-15-11.5-13.1-15 .3-.6 4.8-2.5 9.3-3.9a32 32 0 0 0 4.7-2c2.2-1 2.2-1.1 1.4-1.6-1-.8-.5-.8.6 0 .7.4.8.4 1.5-.2l1-.8c.1 0 1-.4 1.8-1l1.6-1.1-1.1-1.4c-1.1-1.3-1.9-1.6-2-.7v.8c-.1.2-.4.3-.6.2-.3-.2-.6 0-.7.6-.2.7-.4.8-.9.6-.3-.2-.9-.2-1.3 0l-1.1-.1c-.3-.3-.5-.1-.6.4-.2.4-.4.7-.6.7-.2 0-.3.2-.1.4.1.3 0 .3-.2.1-.3-.2-.3-.4.1-.8.5-.5.4-.6-1-.6h-1c.2.2.3.5.2.7-.2.7.3.7.9 0 .4-.6.4-.6 0 .1-.5 1.2-1 1-1.6-.6-.3-.8-.7-1.4-.8-1.4-.4 0-.1 1.3.4 2 .2.4 0 .1-.6-.4-.6-.6-1-1.2-.7-1.3.1-.1.2-.5 0-.7-.2-.3-.1-.4 0-.2.2 0 .5 0 .8-.4.5-.6.5-.6.3 0l-.2.8.5-.7c.4-.4.7-.7 1-.6v-.5c-.1-.3-.3-.4-.4-.2-.4.6-1.6.2-1.5-.5 0-.6 0-.6-.3 0-.2.3-.3.7-.2.9.1.2-.1.2-.6.1-.6-.2-.6-.2-.1-.5.6-.4.7-1.9.2-2.2-.2-.1-.2-.5-.1-1 .1-.4 0-.6-.4-.6-.3 0-.6-.3-.7-.6-.2-.4 0-.5.3-.4.3.1.6 0 .7-.1.1-.2 0-.4-.3-.5-.5-.2-.4-1.8.2-2.2.2 0 .9.2 1.6.6 1.2.8 1.3.8 2.5.2l1.2-.6-1.8-1.2c-2.6-1.8-3.6-3.8-3.9-7.3 0-2.3 0-2.8.3-2.6.4.3.4.2.3-.3-.2-.4-.1-.5.1-.3.2 0 .5 0 .7-.2.2-.3.4-.3.7.2.3.4.4.5 0 .3-.2-.1-.4 0-.4.3s.2.5.4.4c.3-.2.5.3.4 1 0 .2.4 0 .9-.3.7-.5.9-.5.6-.1-.4.4-.4.6 0 1.1.3.5.5.6.7.3.3-.6 1-.5.8 0 0 .2.3.5.7.6.6 0 .8.3.8.9 0 .6 0 .6-.3.2-.3-.5-.4-.4-.4 0s.2.7.4.7.3.2.3.5.6.6 1.4.7c1 .1 1.5.4 1.6.8.1.6.1.6.2 0 0-.8.7-.8.7 0 0 .5.2.8.5 1 .3 0 .3.1-.1.1-.3 0-.2.3.3.8.9.7 1.6.6 1.3-.2-.3-.8.7-.6 1.2 0 .3.7.3.7.8 0 .3-.4.6-.5.7-.2.2.2.1.4 0 .4-.3 0-.5.1-.5.3 0 .2.3.3.6.1.4-.1.5 0 .4.2-.1.2 0 .6.4.8.5.5.5.5.1-.1-.4-.5-.4-.6.2-.6l1.2.4c.4.3.4.3 0 .2-.5-.2-.6 0-.6.7 0 .5 0 .7.2.5.1-.2.4-.2.8.1.4.3.5.6.3.7-.2.1-.4 0-.5-.2-.1-.4-.2-.4-.2 0s1.4 1.1 1.8.9c.1 0 .1-.5 0-.8 0-.5 0-.8.4-.8.3 0 .6.2.5.3-.1 1 .9 1.7 2.4 1.6.4 0 .5 0 .3.2-.3.2-.2.5.4 1.2.5.6 1 1 1.1 1 1.1-.2 1.6 0 1.4.7-.3.7-.3.7.6.1 1-.5 1-.5 1.6.2l1.3.8c.4 0 .7.4.7.7 0 .3.3.4.9.4.7 0 .7 0 .3.3-.4.2-.3.3.4.3s.8 0 .3.4c-.4.2-.4.3.2.4h1.2c.5-.1.5 0 0 .2-.2.2-.3.7-.2 1.4 0 .6 0 1.2-.3 1.3-.2 0-.2.1.1.2.2 0 .5.4.5 1s.5-.4 1.3-2.7a16 16 0 0 1 2-4.1c.4-.3.5-.6.4-.9-.2-.2-.1-.4.1-.4s.4 0 .3-.2v-.8c0-.5.1-.5.5 0 .2.4.3.3.2-.4 0-.5 0-.8.3-.8s.4-.1.3-.4c-.1-.2 0-.6.2-.7.3-.2.4-.2.2.2-.2.3-.2.3.1.2.2-.2.4-.5.2-.8 0-.3 0-.4.2-.3.1 0 .5 0 .7-.4.2-.3.3-.5.1-.5-.1 0 .1-.3.5-.6.5-.3.8-.7.8-1 0-.5 4-3.7 5.6-4.5 1.4-.7 3.3-.8 4.3-.2 1.2.6 1.8 2.2 1.7 4.8v2.4l-.3-2.5c-.4-4.7-2-5.8-5.9-3.9-1.7.9-3.8 2.7-3 2.7.2 0 .6-.3.8-.6.9-1 3.2-2 4.6-1.8 2.3.1 3 1.3 3 5 0 1.7 0 2.5.2 2 .3-.8.3-.8.2.1-.1.6 0 1.4.4 1.9 1.8 2.8-3.7 12.4-7.2 12.4a26 26 0 0 0-4.5 3.1 41.3 41.3 0 0 1-8.2 5.9c1-1 1-1 .2-.7l-1.5.2c-.4 0-.6.1-.5.3.1.1 0 .5-.1.8-.3.3-.4.3-.4 0 0-.2-.1-.4-.4-.4-.2 0-.3.2-.2.5.3.6-1 .5-1.7-.2-.4-.3-.6-.3-.9 0-.3.5-.4.5-.7 0-.4-.7-.4-.7-.8 0-.4.5-.6.5-1.2.2-.6-.4-.7-.3-1 .3-.3.7-.4.7-.6.1-.1-.3 0-.5.1-.4.2.1.4 0 .4-.2s-.3-.3-.8-.2c-.4.1-.6 0-.5-.2 0-.2-.2-.6-.6-.8-.4-.2-.7-.6-.7-.8 0-.2-.1-.3-.5-.2-.4.2-.4.3-.2.4.3 0 .4.4.4.7 0 .4-.3.2-1-.6s-1-1-.7-.5c.3.7.3.8-.2.8-.3 0-.5-.2-.5-.4s-.2 0-.4.5c-.5 1.2-.7 1.2-1.4 0-.5-.8-.6-.8-1-.2-.5.5-.5.6 0 .3.3-.2.3-.1.2.2-.2.3-.6.2-1.2-.4-.5-.5-.8-.6-.5-.3.3.5.3.6-.3.8-.6.1-.7 0-.6-.3.3-.8-.5-.6-1.2.3-.6.8-.4 1.7.5 1.7.2 0 .1-.3-.1-.6-.3-.4-.4-.7-.1-.9.2-.2.5 0 .9.5.7 1.1 1 2 .6 2-.2 0-.4-.3-.4-.7 0-.8 0-.8-.7-.2-.3.4-.6.8-.4 1 0 .2-.1.5-.5.8-.6.5-.6.5 0 .3h.5c-.1.2-.7.3-1.2.4-.6 0-1 .2-1 .5.1.2 0 .3-.2.2-.4-.2-.5-1.3 0-1.2.6.1 1 0 .9-.4-.1-.2 0-.3.3-.3.7 0 .8-1.7 0-2-.6-.2-.6 0 0 1 .3.7.3.8-.3.3l-1-1c-.1-.1-.2 0-.2.4 0 .6-.1.6-.6.2-.6-.5-.6-.4-.4 0 .1.4 0 .8-.2 1-.4.4-.3.5 1.3 2.7.5.7.5.8 0 1.4-.5.7-.5.7-.1 0 .3-.8.2-1-.5-1v-.5c.1-.3 0-.4-.1-.3-.3.1-.5-.2-.6-.7-.2-.5-.4-.8-.6-.7-.1.1-.8-.3-1.3-1-1-1-1.1-1.1-1.3-.5 0 .4 0 .6.3.5.2-.1.4.2.4.7 0 .5.3 1.1.5 1.3.4.3.4.3-.1.1-.6-.1-.6 0-.4.6.1.5.4 1 .6 1.1.3.2.2.3 0 .2-.4-.1-.8-.5-1-.9-.5-1-1-1.2-1.3-.7-.2.2-.3.3-.3 0 0-.5.5-1 1-1.3.4-.1.2-.2-.3-.1-.6 0-.8-.1-.8-.4 0-.3 0-.4-.2-.3-.2.1-.4.6-.5 1 0 .6 0 .9.2.7.2 0 .3 0 .2.3-.1.3-.5.6-.8.6-.5.1-.6 0-.4-.4 0-.3 0-.7-.3-1-.4-.3-.5-.2-.4.4l.4 1.1c.1.2-.3.6-.9.8-.6.3-1 .6-.9.7.1.1 0 .1-.2 0-.3-.3-.3-.6 0-1 .4-.5.3-.7-.5-.5a2 2 0 0 1-.8-.2c-.5-.2-.5-.3-.1-.5.3-.2.3-.4-.2-.8-.6-.7-1.6-.8-2.1-.2-.3.2 0 .7 1 1.6.8.7 1.6 1.3 1.8 1.2.1 0 .2 0 0 .3-.2.4 4 3 7 4.2l2.7 1 3-.6c3.4-.8 3.9-1 7.6-2.8 3.2-1.6 3.8-1.5 1 .2-3 1.8-10 4.4-11.7 4.3-.2 0-2-.8-4-1.9zm-2-8.6c0-.2 0-.5-.3-.7-.4-.4-.5-.3-.4.2l.1.7c0 .2.4.1.6-.2zm26.6-2.7c.2.1.4 0 .4-.3s-.2-.5-.4-.4c-.1.1-.4 0-.5-.2l-.1.6c0 .5 0 .8.1.6.1-.3.4-.4.5-.3zm-11.8-.9c-.1-.2-.4-.3-.6-.3-.2 0-.2.1-.1.3.1.2.4.4.6.4.2 0 .2-.2.1-.4zm5.8 0c0-.2-.3-.3-.6-.3-.5 0-.5 0 0 .3.6.5.6.5.6 0zm-10.4-1c-.1-.2-.4-.4-.6-.4-.2 0-.2.2 0 .4 0 .2.3.3.5.3s.2-.1.1-.3zM66.8 216c.1-.3 0-.5-.1-.5-.2 0-.4.2-.4.5s.1.5.2.5l.3-.5zm-3.2-.6c-.1-.5-.3-.5-.8-.3-1 .5-.9 1 .1 1 .6 0 .8-.2.7-.7zm39.7-10.6c1.9-2 4-3.1 5.6-3 1.7.1 2.3 1 2.6 3.7.2 2.4.5 1.5.4-1.1-.2-2.5-1.2-3.9-2.8-3.6l-1.2.2c-.3 0-1.4.6-2.5 1.4-1 .8-1.9 1.3-2 1 0-.1-.2-.2-.4 0-.3 0-.2.3 0 .4.4.3.2.7-.8 1.7-.7.8-1.4 1.8-1.6 2.3a48 48 0 0 1 2.7-3zm7.8 1c-.4-4-2.6-4.5-6.4-1.5-.7.6-1.3 1.2-1.3 1.4 0 .1.3 0 .7-.4.9-1 3.3-2.2 4.2-2.2 1.2 0 2.2 1.2 2.4 3 .2 2.3.6 2 .4-.3zm-1.6-1.3c-.3-.4-1-.7-1.4-.7-1 0-3.1 1-2.8 1.3 0 .1.5 0 .8-.2 1.7-.9 3.6 0 3.7 1.7 0 .7 0 .7.2-.2 0-.8 0-1.4-.5-1.9zm-.8 1.3c-.3-.3-.7-.6-.9-.5-.2 0 0 .2.3.5.9.6 1.1.6.6 0zM74 204.5c0-.1-.2-.2-.5 0-.3 0-.6.2-.6.3h.6c.3 0 .5 0 .5-.3zm-5.5 37.6c-.4-.3-.5-.5-.2-.5.2 0 .4-.4.4-.8 0-.6.1-.6.2-.2.1.3.4.7.7.8.5.1.6 0 .4-.5-.1-.5 0-.6.3-.5.6.2.2 1.1-.6 1.8-.4.3-.7.3-1.2 0zm-1.6-.8v-.5c0-.2-.1-.3-.3-.3-.2 0-.4-.1-.4-.4 0-.2.2-.2.4-.1.1 0 .4 0 .4-.3.1-.2.1-.1.1.2 0 .4.1.6.6.6.3 0 .6.2.6.3 0 .2-.3.3-.7.2-.7-.2-.7-.1-.3.2.4.2.4.4 0 .4-.2 0-.4-.1-.4-.3zm5.7-.4c0-.2.2-.4.5-.4s.5.2.5.4-.2.3-.5.3-.5-.1-.5-.3zm2-.4c-.2-.2 0-.2.3-.1.6.2.7.5.2.5-.2 0-.5-.2-.6-.4zm-4.3-.7c-.3-.4.4-2.1 1-2.1.2 0 .2-.2-.2-.6-.4-.5-.4-.6.2-.3l1.1.3c.3 0 .4.5.2 2.1 0 .2-.2.2-.4 0-.3-.1-.3-.2 0-.4.6-.4-.1-1.2-.8-.9-.5.2-.5.3-.2.5.4.3.4.3 0 .4-.2 0-.3.1-.2.4.2.2.1.3-.2 0-.3-.1-.4 0-.2.4.2.6 0 .8-.3.2zm2.5 0c0-.2.2-.3.3-.3.1 0 .2.1.2.3 0 .2-.2.4-.4.4s-.3-.2-.1-.4zm-7.6-.4c0-.2.1-.2.3-.1l.4.4-.4.1c-.2 0-.3-.2-.3-.4zm11.8 0c-.1-.1 0-.2.4 0 .4 0 .2-.2-.4-.8l-1-1 1 .5c.7.4 1 .4 1.2 0 .2-.4.4-.4.5 0 .2.2 0 .7-.3 1-.7.8-1 .9-1.4.4zm-13.4-.8c-.5-.4-.5-.4 0-.4.2 0 .6.2.7.4v.5l-.7-.5zm5.2-.2c-.3-.1-.4-.3-.2-.5.2-.1.5 0 .6.3.2.6.2.6-.4.2zm6.4-.2-.3-1c-.1-.3 0-.6.1-.6.2 0 .4.5.5 1.1.1 1.1 0 1.4-.3.5zm7.6 0c0-.2.7-.8 1.6-1.3l1.6-.8-1.6 1.2-1.6.9zm-18.5-.5c-.1-.2 0-.4.3-.4.4 0 .5.2.4.4l-.4.4-.3-.4zm-2.3-.4c0-.1.2-.3.4-.3l.3.3c0 .2-.2.4-.3.4a.4.4 0 0 1-.4-.4zm1.2-.3.4-.4.2.4c0 .2-.2.3-.4.3s-.3-.1-.2-.3zm1-.4c0-.2 0-.3.3-.3.2 0 .3.1.1.3 0 .2-.2.4-.3.4l-.2-.4zm9-.2c-.4-.4-.3-.8.1-.8.2 0 .3.1.2.3-.2.2 0 .4.1.4.2 0 .5-.3.7-.6.3-.5.3-.5.5 0v.6c-.3 0-.6 0-.9.2h-.7zm2.5-.8c-.2-.5-.3-.9-.2-1 .1 0 .3.2.4.6.2.7.4.7.6.3.2-.3.3-.3.3.2 0 .8-.6.7-1-.1zm5.3-1.8c0-.2.2-.3.4-.3s.3.1.2.3l-.4.4-.2-.4zm-11.7-.2h.7c.1.1 0 .2-.4.2-.5 0-.5-.1-.3-.2zm18.1-.3c0-.5.1-.5.2-.3v.7c-.1.1-.2 0-.2-.4zM78 233c0-.2.1-.3.3-.2l.4.4-.4.2c-.2 0-.3-.2-.3-.4zm7.4 0c0-.2-.2-.3-.3-.2-.2.1-.4 0-.6-.3-.3-1-.2-1 .7-.3 1 .7 1.1 1.2.5 1.2-.2 0-.3-.2-.3-.4zm-9-.3c-.3-.1-.6-.6-.8-1-.3-.5-.7-.7-1-.6h-.5l.5-.3c.3-.1.9.3 1.4 1 1 1.2 1 1.4.4 1zm14.1 0c.1-.2.4-.4.6-.4.2 0 .2.2.1.4s-.4.3-.6.3c-.2 0-.2-.1-.1-.3zm-2.3-.7c0-.2.2-.3.5-.2l.6.4-.6.1c-.3 0-.5-.1-.5-.3zm-8.1-1.1c-.2-.4-.2-.7 0-.7.1 0 .3.3.4.7l.1.7-.5-.7zm-1.2-.3c-.2-.5-.2-.5.2-.2.2.3.3.6.2.7 0 0-.3-.1-.4-.5zm-11.3-12.3c-.8-1.2-.5-1.4.5-.3.4.5.6 1 .4 1-.2.2-.6-.2-1-.7zm2.5-1.2c.1-.5 0-.7-.2-.5-.2.1-.4 0-.4-.1 0-.2.2-.5.4-.6.2-.1.3 0 .3.1 0 .2.5.3 1 .3 1 0 1 0 .6-.5-.3-.2-.7-.4-.9-.3-.2.2-.2 0-.1-.3.2-.6.8-.7.8-.2 0 .2.3.4.7.5.4 0 .7.3.7.6 0 .2-.3.5-.7.6-.4 0-.7.3-.7.4 0 .2-.3.2-.7.1-.6-.1-.7 0-.5.2 0 .3 0 .4-.2.4s-.3-.2-.1-.7zm-12.4-8.6c-.2-.3-.2-.9-.1-1.3 0-.6.2-.5.3.5.2 1.4 0 1.7-.2.8zm10-8.2c-.8-.3-1.1-.8-.6-1.4.2-.1.6.1.9.5.3.5.6.7.8.6.2 0 .4 0 .5.2.3.4-.2.4-1.6 0zM69 199c0-.3.2-.6.3-.6.2 0 .3.3.3.6s-.1.5-.3.5c-.1 0-.3-.2-.3-.5zm-1-.9.1-.5c.2-.1.3 0 .3.3 0 .6 0 .7-.4.2zm36.3-.2c-.3-.1-.5-.5-.5-.7 0-.3-.1-.5-.3-.4-.2.1-.4 0-.6-.1 0-.2-.3-.3-.5-.2-.2.1-.4 0-.5-.2-.1-.2-.6-.3-1-.1h-.5c.3-.4-2.9-2-3.4-1.9a1 1 0 0 1-.9-.2l-.8-.5H94c-.4 0-.8-.3-.8-.4 0-.3.4-.3 1 0 .7.2.8.2.7-.1 0-.3-.4-.5-.8-.5s-1-.2-1.5-.5c-.4-.2-1.1-.4-1.6-.4s-1 0-1-.2-.7-.7-1.7-1.2-1.6-1-1.5-1.2c.1-.1 0-.2-.2 0-.2.1-.3.4-.2.5 0 .2 0 .4-.2.4s-.4-.2-.4-.4-.2-.2-.6 0c-.4 0-.5 0-.3-.4.1-.4 0-.5-.8-.4-1.3.2-1.8-.5-.9-1.2.4-.2.5-.5.2-.5-.5 0-.8-.1-2-.6-.5-.2-1.7-.3-2.5-.2-1.2 0-1.5 0-1.5-.4 0-.3.1-.5.4-.3.3.1 0-.1-.4-.5-.5-.4-1.3-.7-1.7-.6-.7.1-1-.2-.8-1 0-.2-.1-.2-.3 0-.2 0-.7 0-1-.2-.5-.3-.8-.3-1 0-.3.5-.9.4-.7-.2.2-.3 0-.7-.5-.9-.6-.3-.7-.3-.6 0 .2.2 0 .3-.5 0-2-.7-.6-1.4 2.7-1.4 1.3 0 3 .8 10.8 4.7a310.5 310.5 0 0 0 25 11.5c0 .1-.6.3-1.3.3a6 6 0 0 0-2 .4c-.6.4-.6.4-1.2.2zm-38.8-1c0-.3.3-.4.6-.3.4 0 .7.3.7.4 0 .2-.3.3-.7.3-.3 0-.6-.2-.6-.5zm33-1.3c0-.1-.2-.2-.5-.1s-.5 0-.5-.2-.3-.3-.6-.1c-.5.1-.6 0-.2-.3.3-.4.6-.4 1.5 0 .8.4 1 .7.8.9-.3.1-.5 0-.5-.2z" style="fill:#bba48d;stroke-width:.352778" transform="translate(-44.6 -175.7)"/>
  <path d="M65.4 242.3c-4-2-4.8-2.6-8.5-5.7-4.1-3.5-5.9-6.5-5.3-8.9.3-1 3-2.3 9.4-4.5a39 39 0 0 0 12.9-6.7c.3-.3-.8-1.5-2.8-3-1.2-1-1.6-1-2-.7-.2.3-.3.2 0-.3.1-.5 0-.6-.6-.3-.3.3-.8.3-.9.2-.1-.1-.2 0-.2.2s.2.6.5.9c.3.3.4.6.2.7-.1.1-.4 0-.5-.4-.2-.5-.3-.5-1 0-.8.5-1 .5-1.7-.1-.8-.7-.8-.7-.2-1.2.6-.4.6-.4 0-.4-.2 0-.5.1-.5.3 0 .1-.2.3-.6.3-.3 0-.5-.1-.3-.3 0 0-.2-.5-.6-.8-.6-.5-1-.6-1.4-.3-.5.2-.6.2-.6-.2s.1-.5.3-.4c.5.3.5 0 0-1-.3-.6-.3-.6.5-.2.6.3.5.1-.4-.7-.6-.6-1.1-1.2-1.1-1.4v-.6c0-.4 1-.5 2 0 .5.2 1 .1 1.8-.3a4 4 0 0 0 1.1-.7l-1.5-1a8.6 8.6 0 0 1-4-7.4c0-1 .1-1.2.5-1 .2.3.3.6.2.9-.1.2-.1.2 0 .1.2-.1.6 0 1 .4.7.8 1.3.9 1.4.1 0-.3.1-.1.3.4 0 .6.4 1 .8 1.1.4.1 1 .5 1.4 1l1.7 1c.5 0 1 .3 1.2.5.1.3.4.4.6.3.2 0 .4 0 .5.4.1.3.4.4.5.3.2 0 .4 0 .4.2s.1.4.3.4c.4 0 2.5 1.4 2.9 1.9l.4.2c1-.1 1.2.1 1.6 1.1.2.7.3 1 .4.6 0-.9.3-.8 1.8.3.8.5 1.3 1 1.1 1.3-.1.2 0 .2.3 0 .5-.4.7-.3 1.4.4 1 1 1.3 1 2 .3.3-.4.4-.5.3-.2-.3.6.1 1.9.5 1.6.2 0 .4 0 .4.4 0 .3.3.6.7.7.4.1.6.4.5.6-.1.2 0 .2.3.1s.9.1 1.3.5c.8.9 1.6 1 1.3.2-.1-.2 0-.6.1-.7.2-.1.4.2.4.7 0 1 .8 2 1.1 1.2.1-.3.3 0 .6.5.2.5.6 1 .8 1 .3 0 .3-.1 0-.3-.3-.2-.4-.4-.2-.6.2 0 .5 0 .6.4.1.2.5.5.9.5.3 0 .6.2.6.5s-.1.5-.3.5c-.1 0-.3-.1-.3-.3 0-.2-.2-.4-.4-.4-.3 0 0 .4.4.7.4.4 1 1.2 1.1 1.8.5 1.4.9 1 1.4-1.8.3-1.3.5-1.7.7-1.2.2.5.3.3.7-.8.2-.8.3-1.7.2-2-.2-.2-.1-.2.2 0 .3.2.4.1.2-.3v-.5c.2.1.9-.8 1.5-2 1.6-3.3 4.5-7.1 6.7-8.9.5-.3 0 .3-1 1.5-3 3-5.3 6.4-4 5.6.6-.3.5 0-.3 1.3-.7 1.3-.9 1.9-.3 1.5.3-.2.3 0 .2.6-.3 1-.1.8.5-.4.3-.5.3-.7 0-.6-.2.2-.4.2-.4 0 0-.3 1.4-2.9 1.8-3.1.6-.4.4.1-.4 1.4l-.5 1.2 1-1.3c1.7-2.8 4.8-5.5 6.6-5.9.7-.1 1.8.2 2.4.7.2.2.7 2.3.6 2.3l-.7-1.2c-.4-1-.7-1.3-1.6-1.3-1.5 0-2.7.7-4.6 2.7-1.1 1.3-1.2 1.4-.3.6.7-.7 1.5-1.1 1.7-1 .2.1.7 0 1-.1.5-.4.5-.4-.3-.2-.7.2-.8.2-.3-.3 1.2-1.2 3.7-.8 4 .7.3 1 .8 1.5 1.4 1.5.1 0 .2-.9.2-2 0-1.6-.1-2-.8-2.8-.5-.5-1-.8-1.3-.7-.1.1-.4 0-.5-.1-.3-.5.3-.5 1.3 0 1.2.5 1.7 1.7 1.7 4.1 0 1.5.1 1.8.3 1.3.3-.6.3-.6.4 0 0 .4.3 1 .6 1.4 2.4 2.6-3 13-6.9 13-.4 0-1 .2-1.4.6l-2 1.6-2.9 2.3c-2.1 1.8-5 3.8-4.3 3 .4-.6.4-.6-.2-.4l-.7.2v.5c0 .2 0 .3-.1.2 0-.2-.6-.2-1.2 0-.5 0-1.2 0-1.5-.3-.3-.2-.8-.3-1.1-.1-.5.2-.6 0-.4-.4.1-.4 0-.5-.1-.4-.2.1-.4.5-.4.8 0 .6 0 .6-.4 0-.2-.4-.5-.5-.7-.4-.1 0-.3 0-.3-.2 0-.1-.4-.4-.8-.5-.7-.2-.7-.2-.1.3.5.4.5.6.2 1.2-.5 1-1 1-2-.2-.5-.6-1.2-1-1.7-1-.4 0-.7-.2-.6-.5 0-.3-.2-.4-.5-.3-.4 0-.9-.2-1.1-.6-.2-.4-.4-.5-.4-.3 0 .3-.2.4-.4.3-.2-.1-.3 0-.1.4.1.4.3.4.5.1.1-.3.3-.2.5.3.1.4.3.7.5.6.2-.1.4 0 .6.2.1.3 0 .3-.2.2-.2-.2-.4 0-.4.2 0 .3-.1.3-.4-.1-.3-.3-.7-.5-1-.4-.2 0-.4-.1-.4-.4 0-.7-1-.8-1.7-.1-.4.3-.4.3 0-.2.5-.8.2-1.2-.4-.5-.6.5-2.7.7-3.3.2-.5-.4-2.7.2-2.7.8 0 .1-.2.3-.5.3s-.7.3-1 .6c-.2.4-.6.6-.8.5-.3 0-.4-.3-.3-.5.2-.2.1-.3-.2-.1-.3.2-.2.4.2 1 .7.7.1.8-.7 0-.7-.6-2.5-1-2.2-.4 0 .2.3.5.6.6.3 0 .3 0 .2-.3-.4-.6 0-.4.5.2.4.4.4.5 0 .4-.2-.2-.4-.1-.4 0 0 .3.3.6.5.7.3 0 .5.4.5.7 0 .4-.4.1-1-.6-1-1.2-1-1.2-1-.4-.2.8-.2.8-.7.2-.3-.3-.4-.5-.1-.4.8.5.7-.7-.2-1.7-.8-1-.9-1-.6-.2.1.5.4 1 .7 1.2.2.1 0 .2-.5.2s-.7.2-.5.5c.1.2.1.3 0 .1-.4-.3-.5-.4-.5-1.6 0-.9-.9-.8-1 0 0 .5 0 .6.3.4.3 0 .2 0 0 .4-.3.3-.7.6-1 .6-.3 0-.4.2-.3.5.2.4.4.5.7.2.3-.2.6-.1 1 .3s.8.6 1 .5c.2-.1.3 0 .1.2-.2.4-.5.3-1-.3-.6-.5-1-.6-1-.4a1 1 0 0 1-.9.2c-.4-.2-.5-.1-.3.2.3.5.2.5-.2 0-.4-.2-.6-.6-.5-.8v-.1c-.2.1-.5 0-.7-.2-.3-.2-.6-.3-.8-.2 0 .1 0 .2.2.2.3 0 .4.2.4.4 0 .3-.3.4-.6.3-.5-.2-.6 0-.5.5.1.4 0 .6-.4.6-.9 0-.7.7.2 1 .4 0 1.4.8 2 1.6 1.2 1.3 1 1.5-.3.4-2.2-2-2.6-2.3-3-2.3-.3 0-.5-.1-.6-.4 0-.2-.4-.4-.7-.4-.8-.2-1.9-.7-2.2-1.1-.2-.2-.2-.1 0 .2 0 .4 0 .7-.2.7s0 .4.5.8c.5.5 1 1 1.2 1a24 24 0 0 0 7.8 6.2c2.2 1 6 2.3 6.3 2l2-.4c2-.2 5.1-1.3 7.9-2.7 1-.6 1.8-.8 1.6-.6-.6 1-10.5 5-12.4 5a36 36 0 0 1-3.5-1.8zM87 229.6c0-.2-.1-.4-.3-.4-.2 0-.3.2-.2.4.1.2.3.3.4.3l.1-.3zm-19.7-.6h-.7c-.4 0-.6.1-.5.3.1.2 1.2 0 1.2-.3zm3.3.3v-.6c-.2 0-.4 0-.4.4 0 .6.1.6.4.2zm15.5-.8a2 2 0 0 0-1-.5c-.4-.1-.5 0-.1.4.2.3.6.5 1 .5s.4-.1 0-.4zm-16.3-.7c0-.2-.2-.3-.4-.3s-.3.1-.2.3l.4.4.2-.4zm5.6-1c-.4-.6-.5-.4-.1.5 0 .3.3.5.4.4 0-.1 0-.5-.3-.8zm-3.3.3c.3-.6 0-.7-.7-.1-.6.4-.6.5-.1.5.3 0 .6-.2.8-.4zm23.3-9.2c-.1-.3-.2 0-.2.4 0 .5.1.7.2.4v-.8zm1.8-4.8c.5-1.3.8-2.3.7-2.4a22 22 0 0 0-2.2 5.7l-.2 1 .4-1 1.3-3.3zm.4.8c0-.2-.1-.1-.3.2-.2.3-.4.7-.3 1 0 .6.6-.5.6-1.2zm-31.5-.5c-.2-.2-.4-.4-.6-.4-.2 0-.3.2-.1.4 0 .2.3.3.5.3s.3-.1.2-.3zm42.5-2.8s-.4.1-.7.4c-.4.2-.7.6-.7.9 0 .2-.2.4-.4.4s-.3.2-.2.4c.2.2.6-.1 1.1-.8l.9-1.3zm-40.4 1a7 7 0 0 0-1.3-1.1l-1.1-.8.4.8c.3.6.3.7-.1.5-.3-.1-.6 0-.6.2 0 .5.8.5 1.3 0 .3-.2.5-.2.8.2.5.6 1 .7.6.2zm30.6-2c.4-.9 0-1-.4-.2-.3.5-.3.8-.1.8.2 0 .4-.3.5-.6zm10-3.4c-.3-.4-.9-.8-1.3-.9-.8-.1-.7 0 .4.8 1.5 1 1.6 1 1 .1zm-34.8.1c0-.2 0-.4-.2-.4l-.3.4c-.2.2 0 .4.1.4.2 0 .4-.2.4-.4zm-11 29.6c.2-.3.5-.4.6-.3.1.2 0 .4-.4.5-.5.2-.6.1-.2-.2zm-2.2-1.3c-.1-.2 0-.5.4-.6.5-.2.5-.3-.1-1s-.6-.7.3 0c.5.5.8 1 .7 1.2 0 .2-.3.3-.4.2-.2-.2-.4 0-.5.2 0 .3-.2.3-.4 0zm-5-.8c.2-.2.4-.3.6-.1.4.2.4.4-.2.4-.3 0-.4-.2-.3-.3zm7-.7c0-.2 0-.3.2-.3s.4.1.4.3l-.1.4-.4-.4zm4.5-17.6-.5-.7c.2 0 .7.3 1 .7.8.9.6.9-.5 0zm-3.4-1c-.9-.9-.6-1 .4-.3.3.2.6.6.5.8 0 .2-.5 0-1-.5zm4.4 0c.6-.5 1.1-.6 1.1 0 0 .1-.2.2-.3 0-.2 0-.4 0-.4.2 0 .3-.2.4-.4.4-.3 0-.3-.1 0-.5zm14.4-4.5.3-.5c.1 0 .2.2.2.5s-.2.5-.4.5-.2-.2-.1-.5zm17-1.8 1.3-2c1.7-2.2 5-5 6.4-5.6 1.6-.5 3.5-.1 4 .8s.2.9-.7 0c-1.5-1.5-4-.6-7.4 2.7a10 10 0 0 0-2.1 2.6c0 .3.6-.2 1.4-1 1.5-1.8 4-3.6 5-3.6.2 0-.2.3-1 .7a14 14 0 0 0-3.5 2.9c-1 1.2-2 2-2 1.6 0-.3-.2-.2-.7.4-.3.4-.7.7-.7.5zm12.8-.7c0-.4 0-.5.2-.2v.7c-.2 0-.2-.1-.2-.5zm.4-2c0-.7 0-.9.1-.5v1l-.1-.6zm-.8-.1c0-.4.1-.5.2-.2v.7c-.1 0-.2-.1-.2-.5zm-.3-2.5c0-.4 0-.5.2-.2v.7c-.2.1-.2-.1-.2-.5zm1-.5c0-.5.1-.7.2-.4v.9l-.1-.5zm-.5-1.6c-.2-.5-.2-.6.2-.2.2.2.3.5.2.6 0 .1-.3 0-.4-.4zm-6.6-.5c.2-.3.5-.4.6-.3 0 .1-.1.3-.5.5-.5.1-.5.1-.1-.2zm2.2-1a3 3 0 0 1 1.3-.4c1.2 0 .9.2-.6.5-.9.1-1.1 0-.7-.1zm-44.7-1.1c0-.2 0-.4.2-.4s.4.2.4.4-.1.3-.2.3l-.4-.3zM106 197c-.1-.2-.4-.2-.7-.1-.2 0-.5 0-.7-.2-.1-.2-.4-.3-.5-.2-.2.1-.4 0-.4-.2s-.3-.3-.7-.3c-.4 0-1.9-.7-3.4-1.4-1.5-.8-2.9-1.5-3.2-1.5-.3 0-1-.3-1.5-.7-.6-.4-1.1-.7-1.3-.6-.6 0-2.6-.5-2.6-.8 0-.2-.5-.3-1-.3-.6 0-1-.2-1-.3.3-.4-1.8-1.5-2.5-1.5-.3 0-.4-.1-.3-.3.1-.2-.2-.4-.7-.6a8 8 0 0 1-2.5-1.2c-.8-.6-2-1-2.5-1.1a3 3 0 0 1-1.4-.6c-.3-.2-.7-.4-1-.4-.3 0-.4-.2-.3-.4.1-.2-.2-.3-.7-.3-.5 0-1.3-.2-1.7-.4-.7-.5-1-.5-2-.6-.2 0-.3-.2-.2-.4.1-.2-.4-.6-1.1-1l-1.4-.6 1.8-.1c1.8-.2 3 .4 12.4 5.3a210.7 210.7 0 0 0 23.7 10.7l-1.2.2-1.4-.1z" style="fill:#b29a84;stroke-width:.352778" transform="translate(-44.6 -175.7)"/>
  <path d="M65.9 242.5a36.8 36.8 0 0 1-8.4-5.5c-1.5-1.4-1.5-1.4.5.2 5 3.8 8.6 5.5 12.1 5.6 1.2 0 2.2 0 2.2-.2s.3-.2.6 0c.5.1.5.2-.2.5-.5.1-1 .2-1.3.1l-.5.1c-.1.2-.6.4-1 .5-.8.2-1.8-.2-4-1.3zm-8.4-9c0-.2.2-.4.4-.4s.3.2.1.4c0 .2-.2.3-.3.3-.1 0-.2-.1-.2-.3zm-1.8-1c0-.2-.3-.5-.8-.6-.5-.1-1-.4-1-.5 0-.2-.3-.3-.8-.2-.7.1-1 0-1.2-.7-.8-2-.2-4 1-3.5.3.2.4 0 .2-.2-.1-.2 0-.4.6-.4.4 0 .6-.1.5-.2-.2-.3 1-.7 8-3.3 3.6-1.3 6.7-2.9 10-5.2l2.3-1.6-1.7-1.4a131.7 131.7 0 0 0-10-7.3s.1-.3.5-.5c1.8-1.1 1.8-1.1.3-2a7.6 7.6 0 0 1-4-5.5c-.2-1-.1-1 .5-1 1.2 0 3.8 1.3 3.8 1.8 0 .3.1.4.3.3.2-.1.6 0 1 .5.3.3.7.6 1 .5.3-.1.5 0 .5.2s.2.4.5.4.6.3.7.7c.2.4.7.9 1.3 1.1.6.2 1 .5 1 .6 0 .2.5.5 1.2.8.6.2 1.3.7 1.5 1 .3.4.8.6 1.3.5.6-.2.7-.1.2.2-.4.3-.3.4.7.6.6.1 1 .4.9.6-.1.1 0 .2.2.2.3-.1 1 .2 1.5.8 1 1 1.6 1.3 1.2.7-.4-.7.3-1 1-.5.6.4.6.5.1.3-.7-.2-.8 0-.1.7.2.2.6.4.7.2.1 0 .2 0 .2.2 0 .6 1 .6 1.2 0 0-.3.2-.2.2.2 0 .7 1.4 2.2 2.1 2.2.3 0 .6.4.8.9l.2.4c0-.3.3-.3 1 0 .9.3 1 .2.5-.3-.5-.6-.5-.6.2-.1.5.2.7.6.6.7 0 .2.1.4.4.5.3.2.6.6.6 1s0 .6.2.4c.1-.3.4-.3 1 0 .5.2.9.5.9.6 0 .2.3.3.8.3.6 0 .7 0 .2.3-.4.4-.2.5.5.4.1 0 .2.1.2.3-.1.5.5 2.5.8 2.7.2.1.3-.1.3-.5s.2-.9.5-1c.3 0 .6-.4.6-.7 0-.4.2-1.3.5-2l.5-1.5-.2 1.4c-.7 4.7.1 7.5 2.2 7.9 1.5.2 3.5-.1 4-.8.4-.5.3-.5-.6 0-1.6.8-3.4.7-4.3-.3-1.1-1.2-1.4-4.6-.6-7l.5-1.5-.1 2.1c-.1 1.9-.1 2 .2.7a21 21 0 0 1 1.8-5.6c.4-.3.4-.1-.2 1.3-.3.7-.6 1.6-.5 2 0 .3.3-.2.6-1.2.8-2.3 2.4-5.4 2.9-5.7.2-.1 0 .5-.5 1.4-1.4 2.3-1.1 2.4.5 0 1.2-2 3.1-4 2.2-2.6-.1.3.3 0 1-.6 1.5-1.3 3.7-1.6 4-.6.2.3.5.5.7.4h.5c0 .2.7.7 1.6 1.1 2 1 2.5 2 2 4.5-1.2 4.7-5 9.3-7.6 9.3-.5 0-1 .2-1 .4-.7.9-8.9 7.2-9 6.8-.2-.6-.6-.6-1.3.1-.5.5-.6.5-1.4-.2-.5-.5-.9-.6-1.4-.3-.4.2-.6.2-.6 0 0-.3-.1-.4-.3-.3-.2.1-.4 0-.5-.2 0-.3-.2-.1-.2.2v.8l-.5-.8c-.5-.7-1.3-1-1.3-.5 0 .2-.5.2-1-.2-.7-.3-1.1-.4-1.1-.1 0 .2-.3.2-.8 0-.6-.4-.6-.5-.2-.8.4-.3.4-.3 0-.2-.4.1-.9 0-1.2-.2-.6-.2-.6-.2-.4.7.2 1 .2 1-.9-.3-.7-.7-1-1-1-.6-.1.4-.2.4-.4 0-.2-.2-.7-.5-1.2-.5s-1.2-.4-1.5-.8c-.3-.4-.5-.5-.5-.3 0 .6-1.8.3-2.6-.5-.3-.3-.6-.4-.6-.2s.3.7.7 1c.9.8 1 1.5.1.9-.3-.3-.5-.4-.4-.1.2.2 0 .6-.4.9-.6.5-.7.5-1 0-.4-.3-.4-.4 0-.4.3 0 .7-.3.8-.7v-.3c-.2.1-.5 0-.8-.2-.5-.4-.5-.3-.2 0 .2.4.1.5-.3.3-.4-.1-.6 0-.6.3s-.2.6-.4.6-.3-.2-.1-.4c.1-.3 0-.4-.3-.3-.2.1-.4.5-.3.9 0 .5 0 .6-.4.2-.5-.6-1.1-.6-.8 0 .2.2.1.3-.1.1-.2-.1-.3-.4-.2-.7.1-.4 0-.5-.4-.3-.7.2-.7.5-.1 1.1.3.4.3.4-.2.2-.3-.1-.6-.4-.6-.6 0-.2-.2-.2-.5 0-.3.4-.6.4-.7.1a.8.8 0 0 0-.7-.3c-.3 0-.3 0 0 .2.3 0 .4.3.3.5-.1.2 0 .3.3.3.4 0 .5.3.3.7 0 .4 0 .7.2.7s.5.3.6.6c.2.5 0 .4-.7-.2-.5-.5-1-.7-1-.6-.2.1-.5 0-.8-.2-.4-.3-.4-.5 0-.9.4-.5 0-.6-.8-.1-.2.2-.4.5-.2.7 0 .2 0 .4-.2.5-.2.2-.3 0-.3-.1 0-.2-.2-.3-.4-.2-.2.1-.3.4-.2.5.1.2 0 .2-.4.2-.3-.1-.8 0-1.1.1-.4.3-.4.5 0 1.4l.7 1-.7-.8c-.6-.7-.9-.8-1.4-.5-.3.2-.4.4-.2.4s.5.3.8.8l.5.7-1-.7c-.9-.7-1-.8-2-.3a4 4 0 0 0-1.2.9c0 .2-.4.2-.8 0-.8-.4-1.5 0-1.2.6v.5c-.2 0-.3-.2-.3-.4zm11-4.7c0-.2-.2-.3-.4-.3s-.3.1-.1.3c0 .2.2.4.3.4l.2-.4zm27.9-4.8c-.4-.7-.5-.5-.2.4.1.3.3.5.4.4l-.2-.8zm2-2.3c-.2-.3-.2-.2-.3.2 0 .4.1.6.2.5.1-.1.2-.4 0-.7zm1-3.2c0-.3-.2-.2-.2.2s0 .6.2.5v-.7zm11.8-7.5c0-.2-.2 0-.5.1a2 2 0 0 1-.8.4c-1.7.2-2.2.8-1.9 2v1c0 .3.7-.3 1.6-1.4.9-1 1.6-2 1.6-2.1zm-24.2 19.2c.1-.1.4-.2.7 0 .8.2.7.4-.2.4-.4 0-.6-.2-.5-.4zm1.4-.6c-.2-.5-.1-.5.2-.2.3.3.4.6.3.7-.1 0-.3-.1-.5-.5zm9.4-14.4c0-.2.1-.6.3-.8.2-.3.4-.4.4-.2l-.4.9c-.2.3-.3.3-.3.1zm2.8-2.5.5-1c.6-.7.6-.6.2.2-.5 1-.7 1.3-.7.8zM63 210c-1.4-1.2-1.4-1.2-.3-.6.7.4 1.4 1 1.6 1.3.4.9.3.8-1.3-.7zm1 0c-1-1-.7-1.9.3-1 .5.3 1.2 2 1 2-.2 0-.7-.5-1.2-1zm-1.7-1.5c-.1-.2 0-.3.1-.3.2 0 .4.1.4.3 0 .2 0 .4-.2.4l-.3-.4zm39-.9c0-.2.5-.8 1.1-1.4l1.1-1-.8 1a217.8 217.8 0 0 0-1.4 1.4zm1.7-.7c0-.4 2.3-2.6 2.8-2.6l-1 .9-1.4 1.5c-.2.3-.4.4-.4.2zm.8.1 1-.8.9-.7-.7.8c-.4.4-.8.8-1 .8h-.2zm4.9-1.4c-.4-.8-.4-.8.2-.2.3.4.5.7.4.8l-.6-.6zm-7-1.1c.4-.5.8-1 1-1l-.7 1-1 .8.6-.8zm5.1.6h.9c.2.1 0 .2-.4.2-.5 0-.7 0-.5-.2zm-2.4-1 1-.9-.6 1-1 .8.6-.9zm-1-.3.6-.6c.6-.5.6-.4.1.1-.4.6-.7.8-.7.5zm3.8-.1h.7c0 .1-.1.2-.5.2s-.5-.1-.2-.2zm-38.5-.4h.7c.1.2 0 .3-.5.3-.4 0-.4-.1-.2-.3zm36.8-1.3.7-.5.7-.2-.7.5-.7.2zm-4.7-7.8c-.6-.3-1.3-.5-1.7-.5-.3 0-.7-.2-.9-.4 0-.2-.5-.3-.8-.2l-1-.1c-.4-.2-.3-.3.2-.4a8 8 0 0 1 3 .7c2.4 1 2.6 1 2.3 1.3 0 0-.6-.1-1.1-.4zM95 192c-.6 0-1.2-.2-1.2-.4l-2-.7c-1.4-.3-2.2-.6-2.2-1s-.4-.6-1.2-.5v-.3c.2-.3 0-.4-.5-.2-.4 0-.8 0-.8-.2 0-.1-.2-.3-.5-.3s-.5-.2-.3-.3c0-.2-.3-.5-.9-.6-.6-.1-1-.4-.9-.5.1-.2 0-.4-.5-.4-.4 0-.7-.1-.8-.3 0-.3-.6-.5-1-.5-.6 0-1-.2-1-.3 0-.1-.2-.3-.4-.3s-.8-.2-1.3-.6l-1.6-.7a5 5 0 0 1-1.7-.6c-.6-.3-1.3-.5-1.8-.5-.4 0-.6-.2-.5-.3.2-.4-1-1-2.1-1.3l1-.2c1.4 0 2.3.3 5.8 2.2l8.3 4.4c3.1 1.6 4 2.2 3.6 2.3-.4.2-.2.2.3.1 1.4-.2 2.2.1 1.6.6-.4.2-.3.3.3.2.4-.1 1 0 1.4.2l1 .4c.6.1 1.9.9 1.4.8-.2 0-.9 0-1.5-.2z" style="fill:#a88f78;stroke-width:.352778" transform="translate(-44.6 -175.7)"/>
  <path d="M68.7 243.8c-.8-.2-.8-.8.1-.7.4 0 .7.2.7.5v.4l-.8-.2zm-14.4-13c-.4-.4-1-.7-1.3-.6-.2.1-.4-.1-.4-.5 0-1-.4-2-.8-1.7-.1.1-.2 0 0-.4.1-.4.2-.4.4-.1.2.3.3.3.5 0 .2-.2.7-.6 1.2-.8.5-.2.7-.4.6-.7-.2-.3 0-.3.3-.2.4.2.9 0 1.3-.4.4-.3 2-1 3.8-1.6a43 43 0 0 0 14.4-7.6c.1-.3-5.9-5-10.4-8.1l-1.2-.8 1.1-.7 1.1-.8-1.7-1.3a7.4 7.4 0 0 1-3.2-4c-.3-.7-.2-.8.3-.7 1 .1 2.5 1 2.5 1.3v.5c0 .2.2 0 .4-.2.3-.4.4-.5.5-.1.1.2.4.3.6.2.3-.2.3 0 .2.4-.2.3-.1.5 0 .3.3 0 .4 0 .4.2s.3.4.7.4c.3 0 .8.2 1 .4l.4.2c0-.2.4 0 .8.4a12 12 0 0 0 3.2 2.4c.7.5 1.3.7 1.5.5.1-.1.4 0 .6.4.2.3.5.5.7.4.1 0 .3 0 .3.2s.1.3.3.2c.2-.1.4 0 .5.4.2.3.4.4.6.3.1 0 .4 0 .5.3.1.3.7.8 1.4 1.2.7.3 1.3.7 1.3.9 0 .1.3.2.7.2.4 0 .7.2.7.4s.2.3.3.2c.2-.2.4 0 .4.2s.2.3.5.2c.3-.1.6 0 .8.6.2.7.2.7.5-.1l.2-1v1c.1.9 1.5 2.2 1.5 1.5 0-.2.2 0 .4.5s.5.7.7.6c.2-.1.3 0 .3.1 0 .2.4.5.8.6.4.2 1.3.8 2 1.5 1 1.1 1.7 1.5 1.3.8-.1-.2 0-.4.1-.5.2-.1.4.3.6.9.1.8.3 1 .6.7a1 1 0 0 1 1 0c.3.2.4.3 0 .3-.2 0-.2.2.3.7l.6 1c.1.9.2 1 .5.2.2-.5.3-.4.5.8.5 2.6 2 4 4 4 .4 0 0-.2-.6-.5-1.8-.6-2.5-1.8-2.7-4.3-.1-2.1 0-2 .4.3 0 .7.6 1.8 1 2.4 1.1 1.2 2.3 1.4 4.4.5 1.2-.5 1.2-.5.6 0a5 5 0 0 1-1.5.8c-.5 0-.8.3-.8.5s.2.3.4.1c.3 0-.2.4-1 1.1-1.5 1.4-2.8 2.3-2.4 1.6.2-.3 0-.4-.8-.2-.7.1-1.2 0-1.5-.3-.2-.3-.7-.5-1-.4l-.8-.1c0-.2-.3-.3-.7-.3-1.5-.2-1.7-.3-1.7-.6h-.6c-.5.3-.8.2-1-.2-.5-.5-.6-.5-.9 0-.2.2-.4.3-.5 0-.1-.2 0-.4.2-.5.2 0 .3-.3.1-.6-.2-.3-.3-.3-.5 0-.3.4-.4.4-.4.1 0-.2-.3-.3-.8-.2-.5 0-.9 0-.8-.2 0-.2-.1-.3-.3-.3-.2 0-.3.2-.3.4.1.2-.4-.1-1-.6-.8-.6-1.4-.8-1.5-.6-.4.6-.8.4-1-.4-.2-.3-.5-.7-.7-.7-.2 0-.2.2 0 .5 0 .2 0 .1-.4-.2-.2-.3-.6-.5-.7-.4-.1.1 0 .5.2.7.3.4.3.5 0 .5a.4.4 0 0 1-.4-.4c0-.2-.3-.3-.6-.2h-.3c.2-.4-.8-1.4-1.2-1.3l-.4.5c-.2.4-.4.4-1 0-.4-.4-.6-.4-.7-.1 0 .2-.3.4-.4.4l-2.2 1.1c-1 .6-1.9 1-2 .9 0-.1 0-.2.3-.2.5 0 .5 0 0-.3-.3-.2-.6-.2-.7 0-.1.2-.5.4-.7.4-.3 0-.8.3-1.2.5-.7.4-.7.4 0 1.2.7.8.7.8 0 .3-1-.8-2.7-.5-2.4.3.2.5.1.5-.4.1s-.6-.4-.6.1c0 .3-.1.5-.3.4-.2-.1-.4 0-.4.2s-.1.3-.3.2h-1c-.4.2-.4.3 0 .8.4.4.3.4-.4 0-.5-.2-.8-.2-.6 0 .2.3-1.6 1.2-2.5 1.2-.3 0-.5.1-.5.3l-.6.4-1.2.4c-.3.2-.9 0-1.4-.6zm28-7.1c0-.2-.4-.5-.9-.8-.8-.5-.8-.5-.1.3.7.8 1 .9 1 .5zm-30.6 6c0-.2 0-.6.2-.8.2-.4.3-.4.3.2 0 .9-.2 1-.5.6zm31-3.3v-.6s.2.1.3.4c.3.6 0 .7-.3.2zm14.7-2.2c-1-.5-1.8-2.3-1.7-4 0-1 0-.9.5.6.7 2 1.3 2.8 2.5 3 1 .2 4-1 4-1.5l-1.1.4c-.6.3-1.7.5-2.4.5-1.8-.2-2.6-1.8-2.4-4.6.3-3.2.9-4 .7-1-.1 1.7 0 3 .2 3.4.3.5.3.4.2-.8-.3-1.8.1-5 .5-4.4.2.3.4.2.6-.4.6-2 1.7-4.1 2-4 .1.1.2 0 0-.3 0-.3 0-.6.3-.8.3-.1.3 0 .2.2-.2.2-.2.4-.1.4.3 0 1.4-2.3 1.3-2.6 0-.2 0-.2.3 0 .1 0 .6-.2 1-.6.8-1 2.3-1.8 3.2-1.8.4 0 1 .4 1.3.7a5 5 0 0 0 1.8 1.1c1.5.5 1.5 1 .1 1-.6 0-1 .2-1 .4 0 .1-.4.2-.9.1-.9-.2-4 1.2-4.1 1.8a9 9 0 0 0 .8 4c.2.2.2.6.1.8-.1.2-.1.4 0 .4 0 0 .6-.8 1-1.7 1.9-3.6 4.8-6.1 6.3-5.4.5.3.7.8.7 2.2 0 1-.2 1.7-.4 1.5-.2 0-.3.1-.2.5.3 1.7-3.2 6.8-5.5 8-.5.3-1.4.5-1.9.4-.5-.1-1 0-1 .2-.2.3-.2.3.2.1l-.4.7-1.6 1.3c-.5.2-.4 0 .3-.6l.9-.9-2.2 1c-2.3 1.3-2.8 1.3-4.1.7zm6.4-2.6c.4-.6.4-.6-.2-.2l-.6.6c0 .3.3.1.8-.4zm-30 2c0-.2.1-.3.3-.2.2.1.3.3.3.4l-.3.1c-.2 0-.4-.1-.4-.3zm21-5.5c0-.3.2-.5.3-.5.1 0 .2.2.2.5s-.2.5-.4.5-.2-.2-.1-.5zm1.2-.3c0-.6.1-.8.2-.5v1c-.1.3-.2 0-.2-.5zm-8.8-2c-.3-.1-.3-.3-.1-.5.2 0 .5 0 .8.4.4.5 0 .6-.7.2zm11.3-1c0-.3.1-.8.3-1 .4-.7.4-.2 0 .8-.2.5-.3.5-.3.2zm-19.9-31.3h.7c.1.1-.1.2-.5.2s-.5-.1-.2-.2zm-1.2-.5c.2-.2 0-.3-.3-.3s-.6-.2-.7-.4c-.1-.2 0-.2.6 0 .8.3 1.3 1 .6 1-.2 0-.3 0-.2-.3zm-2.2-.7c0-.1.1-.4.3-.5.2-.1.3 0 .1.3-.2.6-.4.7-.4.2zm-1.8-1c-.5-.4-.5-.4 0-.4l1.2.4.7.3h-.7l-1.2-.3z" style="fill:#9a846f;stroke-width:.352778" transform="translate(-44.6 -175.7)"/>
  <path d="m54.3 230.5-.7-1.1c0-.2-.2-.6-.5-.9-.5-.5-.5-.6 0-1.2.3-.3 1.2-.7 2-.9.7-.2 1.5-.6 1.6-.8.4-.7 1.5-1.2 4.6-2.2a40.6 40.6 0 0 0 13-7.4c0-.2-2.4-2-5.2-4.2a39.6 39.6 0 0 1-5.7-4.6l.6-.6 1-.9-1-.6c-1.5-1-3-2.4-3.5-3.4-.6-1.2-.1-1.2 1.3-.2l1.4.6c.5.1.7.3 2 1.4.4.3.6.4.7 0 .2-.5 1.5.4 3.4 2.3l1.1 1c-.4-.9 4.7 2.2 7.7 4.5.5.4 1 .5 1 .3s.5 0 1.1.7c.7.6 1.3 1.1 1.5 1 .1 0 .6.4 1 1 1 1.2 2.6 2 2.8 1.4.1-.2.2-.1.2.2 0 .5 1 1.2 1.5 1 .2 0 .3.2.3.4s.2.2.4.1.3 0 .2.2c0 .3.4.7 1 1l1.2.8.8.4c.3.1 1 1 1.3 1.8.4 1 1 1.6 1.2 1.6.2 0 .6.5.8 1 .5 1.4 1.7 2.2 3.4 2.3 1.5 0 1.4.2-.1 1.4-.7.4-1 .6-.9.3.3-.5-.1-.5-.8 0h-1c-.4-.2-1-.4-1.5-.4-.5-.1-1.1-.4-1.4-.8-.4-.4-.7-.5-1-.2-.2.2-.5.2-.9-.2a2 2 0 0 0-1-.5c-.4 0-.6-.2-.6-.4s-.3-.2-.6-.1-.5 0-.5-.4a1 1 0 0 0-.4-.8c-.3-.1-.3 0-.2.2.2.2.1.4-.1.6-.2 0-.4 0-.4-.4 0-.6 0-.6-.3-.2-.4.5-.4.5-.2-.1.1-.4 0-.8-.2-1-.7-.4-1.1-.3-.8.2.2.3.1.3-.2 0-.6-.5-1.2-.6-1-.1.2.1 0 .2-.2.2-.7 0-1.2-.6-.6-.6.2 0 .4-.1.4-.3 0-.2-.3-.4-.7-.4-.5 0-.7-.1-.5-.6.1-.3 0-.5-.1-.3-.2.1-.8-.2-1.2-.7-.8-.8-.8-.8-1.8-.2-.5.3-.9.7-.8.9.1.2 0 .2-.2 0-.2 0-.3-.4-.2-.6.1-.3 0-.5-.2-.5-.9.2-1.4.7-1.2 1 .2.3 0 .4-.4.2-.3-.1-1 0-1.8.5-.7.4-1.4.6-1.6.5-.1-.1-.2 0-.2.2 0 .3-.2.5-.8.4-.5 0-1 0-1.2.3-.1.2-.4.3-.6.1-.1 0-.3 0-.3.2 0 .3-.1.3-.3.2-.4-.2-3 1.5-3 2 0 0-.3.1-.8 0-.5 0-.8 0-.8.3 0 .2-.3.4-.7.4-.4 0-.7.1-.7.3 0 .2-.2.3-.3.3-.4 0-2.2.9-2.2 1.2 0 .1-.3.3-.6.3s-.5.2-.4.5c.2.3 0 .4-.4.3-.4-.1-1.4.2-2.3.7-2 1.1-2 1.1-2.7 0zm24.5-10.6c-.1-.3-.3-.5-.5-.3-.4.2 0 .8.4.8.2 0 .2-.2.1-.5zm17.3 5c-.7-.8-.7-.8 0-.2.4.3 1.4.7 2.2.7l1.4.2h-1.5c-1 0-1.6 0-2-.7zm1.3-1c-.6-.4-1-.8-1-1 0-.3.3-.1.7.3 1 .9 2.7 1 4.2.2l1-.4c0 .3-1.5 1-2.7 1.3-.8.2-1.4 0-2.2-.4zm6.4-1.2c1-1.1 1-1.2.3-1.4-.4-.1-.6-.4-.5-.6 0-.1 0-.3-.2-.3s-.4.1-.4.3c0 .2-.3.5-.8.7l-.8.4.8-.2h.8c0 .4-2.9 1.6-3.6 1.6-.8 0-2.4-1.5-2.4-2.3 0-.5.1-.5.6.2l1 1.2c.6.4 2 .3 2-.1 0-.3-.2-.3-.4-.2l-1.2-.5c-1-.9-1.5-3.2-1-4.8l.4-1-.1 1a8 8 0 0 0 .1 2.2c.3.9.3.8.4-.7 0-2.2.7-4.5 1.2-4.2.2 0 .2 0 0-.2-.2-.5.1-2 .5-1.7l1.2-1.5c2.5-4 5.3-5.7 6.7-4 .2.3 1 .8 1.9 1.2l1.4.6h-1.5c-3.1 0-6.8 2.2-6.8 4.1 0 .5.1.9.3.9.2 0 .4.4.4.8 0 .5.1 1 .3 1 .2 0 .4.3.5.7.2.8.3.8.8.1a90.8 90.8 0 0 1 1.1-2c.2-.7 1.6-2.5 1.8-2.3 0 .1.5-.1 1-.6.3-.4 1-.8 1.6-.8 1.2-.2 1.5.6 1.2 3-.2 2-.5 2.9-1 2.9-.2 0-.3 0-.2.2.4.3-.4 1.5-1 1.5-.2 0-.4.3-.3.5.3.7-2.5 3-3.6 3-.6 0-1.4.5-2.2 1.2l-1.3 1.2zm-.6-.5c.3-.4.7-.7.8-.7l-.4.7-.9.7.5-.7zm-22.7-.6c-.2-.3-.3-.5 0-.5s.8.7.6.9l-.6-.4zm15.5 0c0-.4 0-.5.2-.2v.7c-.1.1-.2-.1-.2-.5z" style="fill:#8f7965;stroke-width:.352778" transform="translate(-44.6 -175.7)"/>
  <path d="M55.5 230.2c0-.2-.4-.2-.7-.1-.3.1-.7-.3-1.1-1.3l-.7-1.4 1.5-.7 2.6-.9c.8-.1 1-.4 1-.7-.1-.2.4-.6 1.5-1a46 46 0 0 0 13-6.4c1.9-1.3 2.2-1.7 1.8-2l-4.7-3.6c-5.8-4.3-5.5-4-5.2-5.4.3-1 .3-1.1-.8-1.8-1.3-.8-3.2-2.8-2.9-3 .1-.2.7 0 1.3.3l1.6.6c.3 0 .5.1.5.3 0 .2.3.4.7.6.4 0 .7.4.7.7 0 .6.7.7.7 0 0-.2.4 0 .8.5s.6.7.5.4c-.2-.3.6.2 1.7 1.1 1.2.9 2.2 1.5 2.4 1.4.1 0 .3 0 .3.3 0 .2.2.3.5.2.3-.1.5 0 .5.1 0 .2.3.4.6.4s.5.1.5.3c0 .2.5.6 1.1.9l2.4 1.4c1 .7 1.3.8 1.5.5.2-.4.3-.3.3 0 0 .6 2 2.3 2.6 2.3l.5.4 1 .8c.5.3.7.6.6.9-.2.2 0 .3.3.1.4-.1.6 0 .6.2s.1.3.3.2c0-.2.4 0 .7.5.3.4.7.6 1 .5.3-.1.4 0 .3.1 0 .2.3.5.9.8.6.3 1 .7 1 .9 0 .2.2.5.5.7.2.1.3 0 .1-.2-.1-.2 0-.4.1-.4.3 0 .4.2.4.5s.6 1 1.3 1.5c.6.5 1.2 1.2 1.2 1.4 0 .8 3.5 3.3 4.7 3.3h1.1l-1.1.7c-1.5 1-2.6 1-4.3 0-.4-.2-1-.3-1.2-.1-.2.1-.3.1-.2 0 .3-.4-1.6-1.6-2.4-1.6-.3 0-.5-.2-.4-.3.4-.3-3-2.6-3.5-2.4-.5.2-2-.8-1.7-1.3.1-.1 0-.3-.2-.3l-.7-.1c-.2 0-.9-.6-1.5-1.4-1.1-1.1-1.3-1.2-1.6-.7-.3.4-.4.5-.4.2 0-.4-.2-.4-.6-.3l-1 .3c-.3 0-.4.2-.3.4.2.5-2.5 2-2.8 1.7-.2-.1-.3 0-.3.2s0 .4-.2.4c-.6-.2-3 .8-2.7 1.1 0 .2 0 .2-.4.1-.5-.2-4 1.5-4.5 2 0 .3-.3.4-.4.4-.4-.1-3.5 1.5-3.8 1.9-.2.2-.3.2-.3 0 0-.3-4 2-4.6 2.7-.3.4-1.8.6-2 .2zm45.4-7.5.7-.5.7-.2-.7.5-.7.2zm-2.1-1.6c-.4-.4-.7-1-.7-1.3 0-.4.2-.3.7.4 1 1.2 1.3 1 .5-.3-.8-1.1-.6-4 .3-5 .4-.3.6-.9.5-1.2-.1-.4 0-.6.1-.5.2 0 .4-.2.6-.6.4-1.5 2.7-4.6 4.1-5.6 1.6-1.2 2.7-1.3 3.4-.5.3.3 1 .8 1.8 1.2l1.2.6h-1.9c-1 0-2 .2-2.3.5-.2.2-.6.3-1 .3s-1.2.6-2 1.3c-1 1.1-1.1 1.3-1 2.7l.5 1.8c.2.2.2.7.2 1 0 .4 0 .6.2.5.5-.3.8.6.6 1.6-.1.5 0 .2.4-.5.3-.7.7-1.3.9-1.3.4 0 1.4-2.1 1.2-2.5-.2-.2 0-.3.2-.3.3 0 .5-.1.5-.5 0-.3 0-.6.2-.5l1.3-.9c1.5-1.2 2.8-1.3 3-.1.6 2.1-2 7-4.2 8.1-.6.3-1.2.8-1.2 1 0 .3.1.3.2 0 .1-.2.4-.3.7-.2.4.2.4.3 0 .7-1 .7-2.4.6-3.9-.3-1-.6-1.4-.6-1.7-.3-.3.4-.3.4.2.3 1-.4.7 0-.4.6-1.4.7-2.4.7-3.2-.2zm7-2.7c0-.9 0-1-.3-.3-.4 1-.4 1.3 0 1.3.2 0 .3-.5.3-1z" style="fill:#886d55;stroke-width:.352778" transform="translate(-44.6 -175.7)"/>
  <path d="M55.6 230c0-.3 0-.4-.2-.4s-.4-.3-.4-.7c0-.4-.1-.7-.3-.7-.2 0-.4-.4-.3-.8 0-.6.5-.9 2.2-1.3 1.4-.4 2-.7 1.8-1-.1-.4 0-.4.6-.3.5.2.6.2.4-.2-.2-.3 0-.4.8-.2h.6c-.6-.2-.6-.8 0-.8.4 0 .6.2.6.5s.2.5.4.5.3-.3.1-.6c-.1-.6 0-.8.8-1 1-.2 2.7-1 4.8-2.1.5-.3 1.2-.5 1.5-.4.3.2.5 0 .5-.4s0-.5.3 0c.3.4 1.1.2 1.1-.4l.5-1c.4-.2.6-.3.6 0 0 .2.1.2.5-.1.2-.3.4-.6.3-.8-.2-.2 0-.1.4.1.6.5.7.5.5 0-.2-.4 0-.8.4-1.2.7-.6.7-.6 1 .1 0 .6.3.8.8.6.4-.1.7 0 .7.2s-.2.3-.5.1c-.2-.1-.1.2.2.6.4.5.6 1 .6 1.2 0 .3-1.1 1-2.5 1.6-6.4 2.9-13.7 6.4-15 7.3-1.2.9-4.1 2-3.8 1.5zm36-4c-1.7-1-3.3-2.1-3.7-2.5a9.3 9.3 0 0 0-2.5-1.5l-1-.7c-1-1-2.2-2-2.4-2l-1.1-.6c-.5-.4-1-.6-1.3-.5-.2.1-.2 0-.1-.4.2-.4 0-.6-.5-.6-.4 0-.7-.1-.7-.4 0-.2-.3-.3-.7-.2-.4.1-.6 0-.5-.2.1-.2-.4-.7-1.1-1-1-.5-1.4-.6-1.6-.2-.2.3-.4.1-.6-.5-.2-.6-.5-1-.6-1v.6c.3.6-6.2-4.3-6.6-5-.2-.3-.5-.5-.6-.3-.4.2-1-1.3-1-2.5 0-.6-.5-1-1.2-1.6-1.2-.7-3-2.5-2.7-2.5l2.5 1.4a49.2 49.2 0 0 0 5.3 3.1c.3.3.6.4.6.3 0-.2.2 0 .4.2a14 14 0 0 0 3 2 14.3 14.3 0 0 1 3.3 2.2c.2 0 1 .4 1.6 1l1.5 1c.2 0 1 .5 1.8 1.1.8.7 1.6 1.1 1.7 1 .1-.1 1.5 1 3.9 3.2.6.6 1.2 1 1.2.9 0-.2.2 0 .5.4.2.3.6.5.8.4.2 0 .5.2.7.7.2.5.6.8.7.7.2 0 .9.4 1.5 1 1.8 2 4 3.4 5.3 3.5.7 0 1 0 .6.2-.3 0-.6.3-.6.5s-.1.3-.2.2h-1.4c-1.1.3-1.6.1-4.2-1.5zm8-4.6c-.4-.1-.9-.4-1-.7-.2-.4-.2-.4.2 0 .3.2 1 .4 1.8.5.9 0 1 .1.5.3h-1.5zm4.1-1c-.6-.5-1-.5-1.5-.3-1.1.6-2 .6-2.5 0-.6-.6-.8-1.7-.5-2.5l.6-2.3c1.2-5 6-10.4 8.1-9.1 1 .6.9 1.2-.4 1.2-1 0-1.6.3-3 1.6-2 2-2.4 2.6-2.6 5.8 0 1.4 0 1.8.4 1.6.2-.1.3 0 .3.4a6 6 0 0 0 1.1 2.3c1.3 1.8 1.3 2.3 0 1.3zm2.7-1c-.5-.5-.1-2.8.7-4.5 1-2 3.4-4.5 4.3-4.3 1 .2 1 2.5 0 4.7-1.4 2.7-4.1 5-5 4.2z" style="fill:#715e4c;stroke-width:.352778" transform="translate(-44.6 -175.7)"/>
  <path d="M56.2 228.8c.6-.5.6-.6 0-1.4l-.8-.9 1.5-.4 2.4-.8a8 8 0 0 1 1.8-.5c1.1 0 2-.8 1.8-1.5-.2-.5.3-.5.9 0 .3.3.4.3.4 0s.2-.4.5-.3c.4.1.5 0 .3-.3-.2-.6.3-.7 1 0 .4.3.4.2.2-.3-.2-.6-.2-.7.2-.3.6.6 1 .5 1-.1 0-.3.1-.5.3-.4.2.1.6 0 .9-.3.2-.3.5-.4.6-.3.3.2 2-.6 2-1 0-.2.3-.3.5-.3.3 0 1-.5 1.8-1.2l1.2-1.1.4.8c.7 1.5.5 1.8-2 3a919 919 0 0 0-15.8 7.5c-.1 0-.6 0-1 .2-.7.3-.7.3-.1-.1zm38.2-2.2c-.6-.2-1.3-.4-1.6-.3-.3.1-.4 0-.2-.2.2-.4-.2-.6-1-.4l-.2-.4c0-.2-.1-.3-.3-.2-.2.1-.5-.1-.8-.5-.3-.4-.7-.7-1-.7-.2 0-.3-.1-.2-.4.2-.2 0-.3-.3-.2-.4.2-.7 0-1-.4-.2-.4-.5-.7-.7-.5-.2 0-.3 0-.3-.2s-.2-.4-.4-.4-1.5-1-2.9-2a13.5 13.5 0 0 0-3-2.2c-.2 0-.4-.2-.4-.4s-.2-.2-.4-.1c-.3.1-.3 0-.2-.1.3-.5-5.3-4-5.8-3.8-.3.2-.3.1-.2-.1.2-.2-.2-.6-1-.8-.6-.3-1.1-.6-1-.7 0-.2-.1-.4-.4-.5-.4-.1-.5 0-.3.2 0 .3 0 .2-.3-.1-.3-.4-.7-.7-.8-.7-.6 0-4-3.3-4.2-4-.1-.5-.4-1-.5-1a2 2 0 0 1-1.1-.7l-1-.7 1.3.7 8.9 5.3a656.3 656.3 0 0 1 23 16.1c1 .4 1 1-.1.9a6 6 0 0 1-1.6-.5zm5.7-6.5c-.2-.2.2-.3.8-.3.6 0 1.2 0 1.3-.2.1-.1-.2-.2-.7-.2-3 0-1.7-7 2.1-11 1.7-1.8 3.3-2.7 4.2-2.3.9.3.6 1-.6 1-1.6 0-4.6 2.9-5.4 5.3-1 3.4-.9 4.8.6 6.3 1 1 1.1 1.2.5 1.2l-1.7.3c-.5.2-1 .1-1.1 0zm6.1-2.2c0-2.5 3.7-7.6 5.2-7.3 1 .2 1 2.2 0 4.3-1.4 2.8-2.8 4.1-4.5 4.1-.6 0-.7-.2-.7-1z" style="fill:#5f4936;stroke-width:.352778" transform="translate(-44.6 -175.7)"/>
  <path d="M57 227.2c-.6-.6 0-1 2-1.7a41 41 0 0 0 13.1-5.7c1.2-.8 1.8-1 2-.9.5.5.1 1.7-.3 1.4-.2-.1-.8.2-1.5.7-.7.4-1.4.8-1.6.7-.2-.1-.7.1-1.2.5-.4.4-1 .8-1.3.8l-1.7.7a5 5 0 0 1-1.7.6c-.3 0-.6.2-.6.3 0 .2-.1.4-.2.3-.6-.1-2.9.8-3 1.3-.2.2-.8.4-1.4.5-.7 0-1.3.2-1.3.4-.2.4-1 .5-1.3.1zm36-2.2a9.8 9.8 0 0 0-2.4-1.4c-.1 0-.3-.2-.3-.4s-.2-.3-.5-.3-.8-.3-1.1-.7c-.4-.4-.8-.6-1-.5 0 0-.2 0-.2-.4 0-.3-.2-.5-.4-.4-.2.2-.6-.1-1-.5-.4-.5-.7-.7-.7-.6 0 .2-.5 0-1-.4-.6-.4-1.2-.6-1.3-.5-.1.2-.2 0-.1-.2 0-.4-.4-.8-1-1.1-.7-.3-1.2-.7-1.2-1 0-.2-.5-.5-1-.6-.6-.1-1.1-.4-1.1-.6a89.2 89.2 0 0 1-12.5-8.7c-.4-.5-.5-.8-.2-.6a287 287 0 0 1 24 16.2c5.5 4 7.2 5.5 3 2.7zm7.2-6.5c-.3-.4-.4-1.2-.3-2.5.3-2.8 1-3.5.7-.9 0 1.6 0 2.4.4 3 .5.7.5.9.1.9-.2 0-.7-.2-1-.5zm6.3-1.7c0-1.6 2.9-5.6 4.3-6 1-.3 1.5.6 1.3 2-.3 1.4-2.3 3.4-4.1 4.2-1.4.5-1.5.5-1.5-.2z" style="fill:#4a3728;stroke-width:.352778" transform="translate(-44.6 -175.7)"/>
</svg>